<svg fill="none" height="27" viewBox="0 0 140 27" width="140" xmlns="http://www.w3.org/2000/svg"><g fill='currentColor'><path d="m18.1247 13.2906c-.4625-.1767-.9516-.3219-1.4648-.4404.397-.1162.7772-.2541 1.1379-.4187 1.0823-.4961 1.9296-1.2076 2.5446-2.1369.615-.92683.9225-2.03519.9225-3.32263v-.07018c0-2.04491-.7578-3.56951-2.2711-4.57381-1.5132-1.00431-3.7527-1.507668-6.721-1.507668h-12.2728v25.417288h11.544c2.1863 0 4.0457-.2274 5.5783-.6824 1.5302-.455 2.7165-1.2052 3.5567-2.2506.8401-1.0455 1.259-2.4321 1.259-4.1576v-.1428c0-1.4641-.3463-2.6741-1.0363-3.6251-.6924-.9511-1.6173-1.6481-2.7746-2.0909zm-9.57807-7.47297h1.66817c.8038 0 1.4285.16456 1.8715.4961.4431.33154.6658.85668.6658 1.57784v.2662c0 .81554-.2251 1.42296-.673 1.82469-.4504.40174-1.0823.60254-1.8982.60254h-1.63185v-4.76737zm4.45247 12.65667c0 .922-.2494 1.6044-.7457 2.0473-.4963.4428-1.2178.6655-2.1645.6655h-1.54227v-5.6556h1.63187c.9103 0 1.6076.2033 2.0918.6123.4843.4066.7264 1.0261.7264 1.8513v.4792z"/><path d="m51.2182.800781h-12.3429l-5.8689 10.831919v-10.831919h-10.7837v25.417319h10.7837v-12.3057l5.9923 12.3057h12.2897l-7.9365-14.0675z"/><path d="m99.4425 18.1355c2.1525-.8518 3.9195-1.6722 5.3025-2.4635 1.382-.7914 2.501-1.7642 3.351-2.9161.852-1.152 1.276-2.5386 1.276-4.15762 0-1.90212-.642-3.49691-1.925-4.78677-1.283-1.28744-3.031-2.24577-5.249-2.872548-2.218-.626781-4.7336-.938962-7.5469-.938962-2.8134 0-5.5445.363001-7.8373 1.089-2.2928.726-4.1256 1.85615-5.4984 3.38559-1.3703 1.52944-2.1112 3.45335-2.2177 5.76931h12.4495c-.0364-.30736-.0533-.6147-.0533-.92204 0-1.16886.2663-2.04732.799-2.63296.5326-.58564 1.259-.87847 2.1814-.87847.8523 0 1.5084.22749 1.9684.68245s.6925 1.05996.6925 1.81742-.218 1.4157-.6562 2.011c-.4382.5978-.9951 1.1326-1.6754 1.6045s-1.6101 1.0527-2.794 1.7376l-12.2364 6.5412v6.0089h29.8648v-6.292h-14.6698l4.4719-1.7908z"/><path d="m138.548 13.0318c-.968-1.2052-2.247-2.0933-3.83-2.6669-1.583-.57351-3.317-.85907-5.196-.85907-1.513 0-2.881.17908-4.106.53967-1.223.3606-2.247.8591-3.068 1.498-.493.3823-.905.7986-1.237 1.2439-.031-.5107-.048-.9995-.048-1.4569 0-1.93841.317-3.36864.949-4.29066s1.593-1.38182 2.881-1.38182c.852 0 1.518.22264 2.005.6655.484.44286.767 1.05512.852 1.83436h11.651c-.201-1.65528-.921-3.09518-2.155-4.32455-1.235-1.22936-2.901-2.17316-4.993-2.836245-2.092-.660661-4.503-.99220219-7.234-.99220219-3.322 0-6.167.51304119-8.53 1.54154719-2.365 1.0285-4.171 2.541-5.418 4.53751-1.247 1.9965-1.872 4.43106-1.872 7.30356 0 2.8726.635 5.4232 1.906 7.444 1.271 2.0207 3.084 3.5428 5.445 4.5641 2.358 1.0212 5.181 1.5343 8.467 1.5343 2.873 0 5.435-.3364 7.687-1.0116 2.251-.6728 4.031-1.7109 5.338-3.1097 1.305-1.4012 1.959-3.1412 1.959-5.22 0-1.8319-.484-3.3492-1.455-4.5544zm-11.563 7.6472c-.545.5856-1.276.8785-2.198.8785-.615 0-1.155-.1331-1.623-.3993-.467-.2662-.828-.6438-1.082-1.135-.254-.4913-.382-1.0721-.382-1.7449 0-.6727.125-1.2729.382-1.7641.254-.4913.613-.8664 1.073-1.1253.46-.259.992-.3897 1.595-.3897.923 0 1.661.2929 2.218.8785.554.5856.833 1.3867.833 2.4006 0 1.014-.271 1.8175-.816 2.4007z"/><path d="m78.7661 14.8127c-.7869-1.0213-1.8376-1.8465-3.1572-2.4733-1.3195-.6267-2.9223-1.1809-4.8156-1.6673l-.1598-.0363-6.8978-1.56094c-.5787-.15247-1.0411-.29767-1.3825-.43319-.3438-.13552-.6198-.31944-.8329-.54934-.213-.2299-.3196-.52756-.3196-.8954 0-.55418.2446-.99946.7361-1.32858.4915-.33154 1.121-.4961 1.8885-.4961.8522 0 1.5446.21054 2.0846.6292.5375.41866.8353 1.09142.8958 2.01102h12.556c-.1428-1.81984-.9539-3.32751-2.4381-4.52057-1.4841-1.19306-3.3702-2.06668-5.6582-2.623285-2.288-.554182-4.7381-.8324822-7.3506-.8324822-2.8254 0-5.3918.2928202-7.6968.8784622-2.3049.585645-4.1522 1.519765-5.542 2.799945-1.3897 1.28261-2.0846 2.90885-2.0846 4.88357 0 1.52459.4649 2.79269 1.3922 3.80179.9273 1.0092 2.1112 1.8078 3.547 2.3934 1.4357.5857 3.1474 1.1132 5.1328 1.5876l5.249 1.1882c.7675.1766 1.3825.363 1.8449.559.46.196.8087.4308 1.046.7091.2372.2783.3534.6243.3534 1.0381 0 .5905-.2421 1.0334-.7263 1.3286-.4842.2953-1.0992.4429-1.8449.4429-1.0169 0-1.8255-.2541-2.4284-.7623s-.9104-1.2221-.9225-2.1441h-13.0354c.0581 1.8077.753 3.3299 2.0846 4.5641 1.3292 1.2342 3.1741 2.1586 5.5323 2.7733s5.0917.922 8.2028.922c3.1112 0 5.8011-.2855 8.1835-.8591 2.3824-.5735 4.2685-1.4858 5.6582-2.7394s2.0846-2.8484 2.0846-4.7868c0-1.5125-.3922-2.7806-1.1791-3.8018z"/></g></svg>
