<?xml version="1.0" encoding="UTF-8" standalone="no"?>
<!-- Uploaded to: SVG Repo, www.svgrepo.com, Generator: SVG Repo Mixer Tools -->

<svg
   fill="#000000"
   width="800px"
   height="800px"
   viewBox="0 0 32 32"
   style="fill-rule:evenodd;clip-rule:evenodd;stroke-linejoin:round;stroke-miterlimit:2;"
   version="1.1"
   xml:space="preserve"
   id="svg2"
   sodipodi:docname="date.svg"
   inkscape:version="1.4.4 (dcaf3e7d9e, 2026-05-05)"
   xmlns:inkscape="http://www.inkscape.org/namespaces/inkscape"
   xmlns:sodipodi="http://sodipodi.sourceforge.net/DTD/sodipodi-0.dtd"
   xmlns="http://www.w3.org/2000/svg"
   xmlns:svg="http://www.w3.org/2000/svg"><defs
   id="defs2" /><sodipodi:namedview
   id="namedview2"
   pagecolor="#ffffff"
   bordercolor="#000000"
   borderopacity="0.25"
   inkscape:showpageshadow="2"
   inkscape:pageopacity="0.0"
   inkscape:pagecheckerboard="0"
   inkscape:deskcolor="#d1d1d1"
   inkscape:zoom="0.8575"
   inkscape:cx="400"
   inkscape:cy="400"
   inkscape:window-width="1210"
   inkscape:window-height="933"
   inkscape:window-x="0"
   inkscape:window-y="0"
   inkscape:window-maximized="1"
   inkscape:current-layer="g2" />

<g
   transform="matrix(1,0,0,1,-192,-240)"
   id="g2">

<g
   transform="matrix(1.2381,0,0,1.04348,-50.1429,239.783)"
   id="g1">

</g>

<path
   d="m 215,244 h -6 v -1 c 0,-0.552 -0.448,-1 -1,-1 -0.552,0 -1,0.448 -1,1 v 1 h -6 v -1 c 0,-0.552 -0.448,-1 -1,-1 -0.552,0 -1,0.448 -1,1 v 1 h -2 c -0.796,0 -1.559,0.316 -2.121,0.879 C 194.316,245.441 194,246.204 194,247 v 20 c 0,0.796 0.316,1.559 0.879,2.121 0.562,0.563 1.325,0.879 2.121,0.879 h 22 c 0.796,0 1.559,-0.316 2.121,-0.879 C 221.684,268.559 222,267.796 222,267 v -20 c 0,-0.796 -0.316,-1.559 -0.879,-2.121 C 220.559,244.316 219.796,244 219,244 h -2 v -1 c 0,-0.552 -0.448,-1 -1,-1 -0.552,0 -1,0.448 -1,1 z m 2,2 v 1 c 0,0.552 -0.448,1 -1,1 -0.552,0 -1,-0.448 -1,-1 v -1 h -6 v 1 c 0,0.552 -0.448,1 -1,1 -0.552,0 -1,-0.448 -1,-1 v -1 h -6 v 1 c 0,0.552 -0.448,1 -1,1 -0.552,0 -1,-0.448 -1,-1 v -1 h -2 c -0.265,0 -0.52,0.105 -0.707,0.293 C 196.105,246.48 196,246.735 196,247 v 20 c 0,0.265 0.105,0.52 0.293,0.707 0.187,0.188 0.442,0.293 0.707,0.293 h 22 c 0.265,0 0.52,-0.105 0.707,-0.293 C 219.895,267.52 220,267.265 220,267 v -20 c 0,-0.265 -0.105,-0.52 -0.293,-0.707 C 219.52,246.105 219.265,246 219,246 Z"
   style="fill:#8076a3"
   id="path1"
   sodipodi:nodetypes="ccsssccssscscsscsscsscscsssccsssccsssccssscscsscsscsscsc" />

</g>

</svg>
