<?xml version="1.0" encoding="utf-8"?>
<!-- Generator: Adobe Illustrator 19.1.1, SVG Export Plug-In . SVG Version: 6.00 Build 0)  -->
<svg version="1.2" baseProfile="tiny" id="Ebene_1" xmlns="http://www.w3.org/2000/svg" xmlns:xlink="http://www.w3.org/1999/xlink"
	 x="0px" y="0px" viewBox="0 0 960 960" xml:space="preserve">
<g>
	<path fill="#C1272D" d="M630.7,227.9c0,24.6,0.1,49.2-0.1,73.8c0,6,2,10.8,6.2,15c37.9,37.7,75.7,75.5,113.5,113.2
		c4.8,4.8,6.2,4.8,11.1-0.1c6.6-6.5,13.1-13.1,19.7-19.7c5.2-5.1,10.3-5.1,15.4,0c17.3,17.3,34.6,34.6,51.9,51.9
		c4.8,4.8,5.7,10.1,2.3,16.1c-26.1,46.8-52.1,93.5-78.3,140.3c-3.7,6.7-8.5,7-14.2,1.3c-50.4-50.3-100.7-100.6-151-150.8
		C570.6,432.3,534,395.5,497.1,359c-6.1-6.1-8.9-12.8-8.9-21.4c0.1-102.9,0.1-205.8,0.1-308.7c0-0.7,0-1.4,0-2.1
		c0.1-7,4-10,10.8-8.2c18.4,5.1,36.8,10.4,55.2,15.6c37.2,10.5,74.4,20.9,111.6,31.4c9.1,2.6,11.6,5.9,11.6,15.4
		c0,17.6,0,35.1,0,52.7c0,8.2-3.3,11.5-11.5,11.5c-9.1,0-18.3,0-27.4,0c-6.6,0-7.7,1.1-7.7,7.5C630.7,177.8,630.7,202.9,630.7,227.9
		z"/>
	<path fill="#C1272D" d="M460.6,184.2c0,51-0.1,102.1,0.1,153.1c0,8.7-2.8,15.5-9,21.7c-84.4,84.1-168.6,168.3-252.8,252.4
		c-2.7,2.7-5.4,5.4-8.1,8c-5.8,5.7-10.6,5.1-14.5-1.9c-8.7-15.4-17.4-30.8-26.1-46.3c-17.1-30.5-34.2-61.1-51.3-91.6
		c-4.6-8.2-3.9-12.4,2.7-19.1c16.4-16.4,32.8-32.8,49.2-49.2c6.9-6.9,11.1-6.9,18.1,0c6.4,6.3,12.7,12.7,19.1,19.1
		c3.8,3.8,5.8,3.9,9.6,0.1c38.3-38.2,76.6-76.5,114.9-114.7c3.7-3.7,5.5-8,5.5-13.2c0-50.2,0-100.4,0-150.6c0-5.6-1.3-6.9-7-6.9
		c-9.3,0-18.6,0-27.8,0c-8.5,0-11.8-3.2-11.8-11.7c0-17.7,0-35.4,0-53.1c0-8.8,2.7-12.3,11.3-14.7c48.3-13.5,96.6-27,144.9-40.6
		c7-2,14.1-3.9,21.1-5.9c8.2-2.2,11.8,0.5,11.8,8.9c0,52,0,104,0,156C460.5,184.2,460.6,184.2,460.6,184.2z"/>
	<path fill="#C1272D" d="M590.5,730c-2.7-1.4-6-2.3-8.1-4.4c-17.6-17.2-35-34.6-52.4-52c-4.3-4.4-4.3-9.8,0-14.3
		c6.7-6.9,13.5-13.5,20.2-20.3c4.1-4.2,4.1-6-0.1-10.2c-23.6-23.6-47.1-47.1-70.7-70.6c-4.1-4.1-6.1-4.1-10.3,0
		c-23.5,23.5-46.9,46.9-70.4,70.4c-4.5,4.5-4.5,6.3,0.1,10.8c6.4,6.5,13,12.9,19.4,19.4c5.1,5.1,5,10.3-0.1,15.5
		c-17,17-34,34-51.1,50.9c-4.7,4.7-10,5.4-15.8,2.2c-46-25.7-92.1-51.4-138.1-77.1c-6.5-3.6-7.1-8.5-1.7-13.9
		c34.6-34.6,69.2-69.2,103.9-103.7c50-49.9,99.9-99.7,149.9-149.6c6.9-6.9,11.4-6.9,18.2,0c84.6,84.4,169.2,168.9,253.8,253.3
		c6,6,5.4,10.5-2,14.6c-45.8,25.5-91.7,50.9-137.5,76.3C595.8,728.3,593.4,728.9,590.5,730z"/>
</g>
<rect x="258.5" y="756.8" width="52.7" height="30.4"/>
<polygon points="325.6,933.8 356,933.8 356,787.2 416.3,787.2 416.3,756.8 325.6,756.8 "/>
<rect x="259" y="830.1" width="41.1" height="30.8"/>
<path d="M166.9,756.8H145v30.8h13.9c2.2,0,16.5,0.9,16.5,14.8v85.8c0,13.9-14.3,14.8-16.5,14.8H145v30.8h21.9c0,0,39.3,0,39.3-45.1
	v-86.7C206.2,756.8,166.9,756.8,166.9,756.8z"/>
<rect x="107" y="756.8" width="30.8" height="177"/>
<path d="M424.3,801.9v86.3c0,45.1,39.3,45.1,39.3,45.1h10.7v-30.8h-2.7c-2.2,0-16.5-0.9-16.5-14.8v-85.4c0-13.9,14.3-14.8,16.5-14.8
	h2.7v-30.8h-10.7C464.1,756.8,424.3,756.8,424.3,801.9z"/>
<rect x="258.5" y="903" width="52.7" height="30.8"/>
<rect x="220.5" y="756.8" width="30.4" height="177"/>
<rect x="363.6" y="830.1" width="41.1" height="30.8"/>
<polygon points="694.8,759.5 693.4,756.8 665.7,756.8 665.7,773.3 745.3,933.8 772.1,933.8 772.1,918.2 "/>
<rect x="781.5" y="903" width="30.8" height="30.8"/>
<polygon points="739.9,838.1 771.7,900.7 771.7,756.8 739.9,756.8 "/>
<polygon points="821.3,756.8 793.1,768.9 793.1,803.3 822.6,790.3 822.6,933.8 853,933.8 853,756.8 "/>
<polygon points="665.7,933.8 697.5,933.8 697.5,851.6 665.7,788.1 "/>
<path d="M542.8,801.9v86.3c0,45.1,39.3,45.1,39.3,45.1h10.7v-30.8h-2.7c-2.2,0-16.5-0.9-16.5-14.8v-85.4c0-13.9,14.3-14.8,16.5-14.8
	h2.7v-30.8h-10.7C582.1,756.8,542.8,756.8,542.8,801.9z"/>
<path d="M610.3,756.8h-10.7v30.8h2.7c2.2,0,16.5,0.9,16.5,14.8v85.8c0,13.9-14.3,14.8-16.5,14.8h-2.7v30.8h10.7
	c0,0,39.3,0,39.3-45.1v-86.7C650.1,756.8,610.3,756.8,610.3,756.8z"/>
<path d="M492.3,756.8h-10.7v30.8h2.7c2.2,0,16.5,0.9,16.5,14.8v85.8c0,13.9-14.3,14.8-16.5,14.8h-2.7v30.8h12.1l10.7,17.9l26.4-13.9
	l-8.9-17c5.8-6.7,10.3-17,10.3-31.7v-87.2C531.6,756.8,492.3,756.8,492.3,756.8z"/>
</svg>
