<?xml version="1.0" standalone="no"?>
<!DOCTYPE svg PUBLIC "-//W3C//DTD SVG 20010904//EN"
 "http://www.w3.org/TR/2001/REC-SVG-20010904/DTD/svg10.dtd">
<svg version="1.0" xmlns="http://www.w3.org/2000/svg"
 width="600.000000pt" height="259.000000pt" viewBox="0 0 600.000000 259.000000"
 preserveAspectRatio="xMidYMid meet">
<metadata>
Created by potrace 1.16, written by Peter Selinger 2001-2019
</metadata>
<g transform="translate(0.000000,259.000000) scale(0.100000,-0.100000)"
fill="#000000" stroke="none">
<path d="M494 1959 c-4 -7 -26 -8 -63 -4 -38 4 -73 1 -111 -10 -30 -9 -63 -17
-72 -18 -9 -1 -16 -4 -15 -7 2 -7 -96 -104 -104 -103 -3 1 -5 -8 -5 -20 1 -12
-4 -22 -11 -22 -7 0 -18 -7 -25 -15 -11 -12 -11 -12 6 0 23 17 25 28 -28 -125
-19 -55 -38 -123 -42 -152 -3 -29 -9 -51 -13 -49 -4 3 -8 -181 -10 -407 -3
-518 12 -637 100 -794 32 -58 35 -68 17 -57 -7 5 -8 3 -4 -5 5 -7 11 -10 14
-7 7 7 42 -24 42 -37 0 -5 -8 -3 -17 4 -10 7 -7 1 6 -13 13 -15 27 -25 31 -23
11 7 49 -24 46 -38 -1 -6 -1 -9 1 -6 2 4 27 -2 55 -13 37 -14 72 -18 134 -17
101 2 164 22 243 77 73 52 143 83 200 91 54 7 63 25 21 40 -17 6 -29 15 -26
20 4 5 1 13 -5 17 -8 5 -9 3 -4 -6 6 -9 4 -12 -6 -8 -8 3 -32 13 -54 22 l-40
16 0 154 0 153 33 24 c89 65 132 102 126 110 -3 5 -107 9 -233 9 -242 0 -290
-7 -336 -50 -12 -11 -23 -18 -26 -16 -2 2 -5 -18 -7 -45 -2 -39 2 -56 20 -82
13 -17 23 -36 23 -42 0 -19 35 -16 69 4 32 20 52 48 42 58 -2 3 -7 -4 -10 -14
-7 -22 -56 -53 -83 -53 -10 0 1 9 25 20 51 23 66 53 45 93 -17 34 -12 43 29
49 62 9 94 -52 86 -165 -1 -30 -1 -54 2 -52 6 4 2 -135 -6 -183 -7 -45 -58
-100 -99 -108 -41 -7 -110 7 -110 23 0 7 -7 18 -15 25 -12 11 -12 11 -1 -5 8
-10 9 -17 3 -17 -11 0 -42 39 -42 53 0 4 5 5 12 1 7 -4 8 -3 4 5 -4 6 -11 9
-15 6 -13 -7 -38 98 -51 207 -13 113 -19 682 -9 913 9 204 46 414 71 399 4 -3
5 1 2 9 -3 8 8 26 27 42 29 24 39 27 83 22 58 -5 92 -36 100 -90 3 -17 15 -88
28 -157 13 -69 22 -136 21 -150 0 -14 1 -19 4 -12 3 9 15 3 39 -17 63 -55 128
-50 170 15 15 21 15 28 3 52 -22 44 -22 45 -9 37 9 -6 9 -3 1 14 -14 25 -23
28 -14 5 5 -14 3 -15 -17 -4 -12 6 -33 10 -46 7 -13 -2 -24 -3 -24 -2 0 10 52
249 61 280 6 22 20 57 30 77 26 51 24 58 -15 55 -19 -1 -32 -5 -29 -9 5 -9
-12 -11 -72 -9 -58 2 -145 23 -139 33 3 4 3 8 0 8 -3 0 -8 -5 -12 -11z"/>
<path d="M5753 1962 c-41 -2 -73 -7 -73 -13 0 -6 5 -7 10 -4 15 9 12 -19 -5
-51 -12 -24 -15 -94 -15 -432 0 -334 -3 -408 -15 -431 -17 -33 -78 -61 -133
-61 -41 0 -103 29 -110 51 -3 8 6 4 20 -8 13 -13 28 -23 34 -23 5 0 1 5 -9 11
-9 6 -14 15 -11 21 4 6 2 8 -4 4 -6 -3 -13 -2 -17 4 -4 6 -11 8 -16 4 -14 -8
-39 58 -56 150 -18 95 -12 293 11 391 21 88 100 271 115 267 7 -1 10 2 6 8 -4
6 3 27 14 46 12 20 18 40 15 46 -4 7 -2 8 4 4 7 -4 12 -2 12 3 0 8 -70 11
-215 11 l-215 0 -40 -82 c-22 -46 -40 -86 -40 -90 0 -5 12 -8 28 -8 26 -1 26
-1 8 -15 -11 -8 -15 -15 -9 -15 5 0 18 9 28 20 10 11 21 17 26 15 10 -7 24 15
24 39 0 26 49 41 158 50 63 5 87 4 82 -4 -3 -5 -11 -7 -17 -4 -6 4 -8 3 -5 -3
8 -13 -22 -55 -34 -48 -5 3 -6 0 -3 -8 3 -8 -3 -20 -12 -28 -15 -12 -17 -12
-9 0 5 10 4 12 -4 7 -6 -4 -9 -11 -6 -16 9 -14 -15 -51 -27 -44 -6 4 -8 3 -5
-3 4 -6 -9 -44 -28 -85 -82 -178 -117 -399 -81 -520 19 -67 19 -71 4 -62 -7 4
-8 3 -4 -5 4 -6 11 -9 16 -6 4 3 15 -6 24 -20 19 -29 20 -39 4 -29 -7 4 3 -9
21 -29 34 -36 48 -47 36 -27 -10 17 12 11 26 -7 12 -14 12 -16 0 -8 -9 5 -12
4 -7 -3 4 -6 14 -8 23 -5 11 4 14 3 9 -5 -5 -8 -1 -10 10 -5 10 3 15 2 12 -3
-7 -10 -6 -10 137 -20 93 -6 106 -5 163 19 l62 25 0 -245 c0 -268 -12 -419
-38 -473 -19 -39 -69 -69 -117 -69 -33 -1 -128 40 -140 60 -6 8 -4 10 5 4 9
-5 11 -4 6 4 -4 6 -11 9 -15 6 -13 -8 -54 42 -46 56 5 7 4 10 -2 6 -28 -18
-114 268 -138 458 -10 79 -14 87 -38 79 -12 -3 -24 -8 -25 -9 -2 -2 -5 -104
-7 -227 -2 -123 -6 -267 -10 -320 -7 -91 -9 -98 -29 -97 -21 0 -21 1 -1 10
l20 9 -20 -3 c-11 -1 -20 -7 -20 -12 -1 -6 -9 -25 -19 -43 -36 -68 2 -122 85
-122 39 0 51 5 68 26 12 16 21 42 21 63 0 49 14 69 37 55 10 -7 17 -19 16 -29
0 -9 1 -14 4 -11 4 3 24 -10 46 -30 63 -57 109 -74 208 -74 96 0 154 16 201
55 16 14 34 23 38 20 5 -3 12 0 16 6 4 8 3 9 -4 5 -19 -12 -14 3 17 47 52 77
62 124 71 352 5 116 11 467 13 782 3 451 6 575 16 587 16 19 35 21 25 4 -4 -7
2 -5 14 6 12 10 20 22 19 27 -1 5 11 19 27 32 18 15 26 28 22 36 -8 12 -25 12
-243 3z m-637 -147 c-1 -9 -6 -16 -12 -16 -5 0 -15 -6 -23 -12 -12 -10 -13 -9
-6 3 22 40 45 54 41 25z m99 -845 c10 -11 16 -20 13 -20 -3 0 -13 9 -23 20
-10 11 -16 20 -13 20 3 0 13 -9 23 -20z"/>
<path d="M833 1839 c-6 -6 -9 -18 -6 -27 5 -11 3 -13 -8 -7 -8 4 1 -8 19 -27
l32 -34 -6 -267 c-4 -159 -4 -267 2 -267 5 0 10 114 11 268 l2 267 -27 29 -27
29 32 -23 32 -23 0 -412 1 -412 -30 -28 c-17 -16 -30 -32 -30 -37 0 -4 91 -9
203 -11 l202 -3 -204 1 c-222 0 -235 4 -185 50 15 14 23 25 17 25 -5 0 -20
-11 -33 -25 -19 -21 -22 -29 -14 -43 10 -15 34 -17 219 -17 241 0 222 -11 199
119 -19 109 -18 146 2 146 12 0 14 -3 6 -12 -6 -8 -7 -35 -2 -73 l8 -60 -1 62
c0 40 5 68 14 79 8 10 9 15 4 12 -7 -4 -11 6 -11 27 0 21 4 31 11 28 5 -4 1 3
-9 15 -26 30 -62 28 -96 -6 -22 -22 -30 -42 -35 -88 -4 -32 -13 -78 -20 -101
-7 -24 -9 -41 -4 -38 11 7 29 72 29 105 0 41 20 100 41 121 19 19 64 26 73 10
3 -4 -5 -6 -17 -4 -44 9 -68 -25 -84 -118 -18 -112 -35 -133 -103 -137 l-53
-3 5 410 5 411 24 19 c13 11 29 20 34 20 6 0 -2 -9 -17 -20 -24 -18 -28 -27
-26 -67 l1 -47 4 44 c3 29 11 50 25 61 12 9 23 27 25 38 3 21 -1 22 -90 24
-50 1 -105 1 -122 1 -28 -1 -29 -1 -11 13 11 8 15 14 10 14 -6 0 -15 -5 -21
-11z"/>
<path d="M3351 1823 c-12 -16 -20 -21 -17 -12 4 14 -12 16 -130 18 -116 2
-135 0 -140 -14 -6 -13 -8 -14 -15 -3 -5 7 -9 8 -9 2 0 -10 26 -36 65 -64 18
-14 19 -14 6 3 -7 9 -9 17 -4 17 31 0 33 -26 33 -420 0 -388 0 -395 -21 -408
-24 -15 -23 -59 2 -75 24 -15 64 -1 84 30 17 25 18 55 18 316 0 158 1 286 3
284 3 -2 20 -49 38 -103 52 -152 154 -433 161 -445 9 -13 -25 -50 -38 -42 -5
3 -7 1 -3 -5 3 -6 2 -13 -4 -17 -5 -3 -10 -13 -10 -21 0 -13 17 -14 105 -11
58 2 108 7 112 10 3 4 0 15 -8 24 -11 15 -11 16 1 6 10 -10 19 -9 42 5 l28 16
0 422 0 422 -32 20 c-18 11 -36 18 -42 15 -5 -3 7 -13 28 -21 l36 -14 0 -419
0 -418 -22 -15 c-20 -15 -24 -14 -45 6 -21 19 -23 31 -25 127 l-2 106 -3 -104
c-3 -86 -1 -107 13 -122 9 -11 12 -19 7 -19 -30 0 -33 35 -40 434 l-6 407 34
35 c26 27 31 37 20 43 -21 13 -188 13 -196 0 -4 -6 8 -24 29 -41 l36 -29 -1
-242 0 -242 -24 65 c-69 190 -145 408 -145 418 0 6 15 20 33 32 l32 22 -27
-24 c-16 -13 -28 -28 -28 -34 0 -15 50 -137 61 -149 5 -5 -1 17 -15 50 -35 90
-41 109 -26 100 8 -5 11 -4 7 2 -4 6 5 21 18 33 l25 24 35 -34 c19 -18 37 -31
40 -28 3 3 -10 17 -30 32 -39 30 -42 38 -19 60 8 9 11 16 7 16 -5 0 -19 -12
-32 -27z m-261 -38 c7 -8 8 -15 2 -15 -5 0 -15 7 -22 15 -7 8 -8 15 -2 15 5 0
15 -7 22 -15z"/>
<path d="M3453 1843 c9 -2 23 -2 30 0 6 3 -1 5 -18 5 -16 0 -22 -2 -12 -5z"/>
<path d="M3637 1843 c18 -2 50 -2 70 0 21 2 7 4 -32 4 -38 0 -55 -2 -38 -4z"/>
<path d="M3793 1843 c9 -2 23 -2 30 0 6 3 -1 5 -18 5 -16 0 -22 -2 -12 -5z"/>
<path d="M3875 1841 c47 -12 70 -27 113 -76 25 -28 43 -42 47 -35 4 6 4 14 1
17 -3 4 -6 0 -6 -7 0 -7 -13 5 -29 27 -36 49 -89 83 -127 82 l-29 -1 30 -7z"/>
<path d="M4248 1843 c6 -2 18 -2 25 0 6 3 1 5 -13 5 -14 0 -19 -2 -12 -5z"/>
<path d="M4453 1843 c9 -2 23 -2 30 0 6 3 -1 5 -18 5 -16 0 -22 -2 -12 -5z"/>
<path d="M4568 1844 c-12 -12 5 -40 38 -62 l34 -22 0 -420 0 -419 -35 -27
c-19 -14 -35 -30 -35 -35 0 -5 60 -10 133 -11 l132 -2 -129 -3 c-123 -3 -129
-3 -150 19 -11 13 -31 30 -44 38 l-22 15 -7 428 c-4 255 -3 427 3 427 5 0 9
-77 9 -177 l-1 -178 3 169 c2 93 8 175 13 181 5 6 5 17 0 24 -4 8 -6 20 -3 28
4 11 -7 13 -58 11 l-64 -3 -5 -430 c-3 -236 -7 -431 -8 -433 -1 -2 -6 0 -12 3
-5 3 -7 0 -4 -9 7 -19 -29 -38 -64 -34 -63 7 -87 127 -79 398 6 197 24 305 70
433 14 37 22 69 18 71 -3 2 -53 3 -111 2 -81 -1 -104 -4 -102 -14 1 -8 -1 -11
-6 -8 -11 6 -48 -111 -39 -120 4 -4 13 -2 20 4 8 7 17 9 21 5 4 -4 4 0 1 9 -9
22 28 45 87 53 l48 7 -24 -43 c-60 -107 -106 -347 -106 -551 0 -152 16 -213
69 -271 35 -37 43 -41 100 -45 52 -4 67 -1 91 16 28 21 28 21 33 1 5 -18 13
-20 84 -18 61 1 86 -2 105 -15 23 -15 42 -16 140 -11 123 7 153 19 127 51 -8
10 -27 25 -42 34 l-28 18 1 230 c0 138 -3 233 -9 236 -6 4 -9 -81 -8 -232 l2
-238 43 -27 c23 -14 42 -32 42 -38 0 -8 -7 -6 -17 5 -10 10 -32 26 -49 36
l-32 18 -1 255 0 254 38 -36 c63 -59 71 -78 86 -215 18 -161 36 -216 89 -272
33 -34 50 -44 74 -44 32 0 42 13 21 25 -22 14 -40 89 -74 305 -16 100 -32 147
-60 180 -11 13 -6 22 31 57 53 51 59 43 8 -10 -33 -34 -35 -39 -22 -55 28 -31
40 -64 54 -141 l14 -76 -6 70 c-4 51 -12 83 -32 118 l-28 49 32 33 c19 21 31
44 32 62 0 15 4 63 8 105 6 71 4 82 -20 132 -15 30 -43 67 -64 83 -37 28 -39
28 -197 32 -96 2 -152 6 -140 11 15 6 16 9 4 9 -9 1 -18 -2 -21 -5z m297 -118
c44 -45 48 -233 4 -268 -26 -22 -40 -22 -65 -2 -10 8 -14 13 -8 10 16 -8 54
23 54 44 0 43 -57 65 -90 35 -16 -15 -17 -9 -18 80 0 53 4 97 10 101 6 4 8
-24 6 -80 -3 -80 2 -101 17 -76 19 30 85 -18 85 -61 0 -10 4 -20 9 -24 27 -16
24 194 -3 230 -8 11 -34 20 -72 25 l-59 7 53 2 c43 1 57 -3 77 -23z m-9 -9 c7
-7 24 -118 24 -156 l0 -35 -34 33 c-24 24 -41 32 -55 28 -20 -5 -21 -1 -21 70
l0 76 41 -6 c22 -3 43 -7 45 -10z"/>
<path d="M4834 1469 c-19 -22 -19 -22 6 -14 32 10 36 13 24 25 -7 7 -17 3 -30
-11z"/>
<path d="M4755 1841 c140 -6 156 -11 202 -65 48 -54 67 -114 60 -193 -2 -38
-8 -77 -12 -88 -6 -20 -6 -20 6 0 7 10 14 51 17 91 4 61 1 80 -20 125 -26 57
-78 115 -116 130 -13 5 -78 8 -145 7 l-122 -2 130 -5z"/>
<path d="M2176 1833 c-17 -17 -112 -26 -147 -14 -43 15 -122 4 -161 -23 -54
-36 -77 -97 -77 -201 -1 -115 16 -154 111 -251 39 -41 68 -74 64 -74 -4 0 10
-20 32 -45 64 -73 81 -187 36 -248 -25 -35 -39 -34 -79 6 -35 35 -65 115 -87
233 -11 61 -13 64 -37 61 -17 -2 -27 -11 -28 -23 -3 -18 -2 -18 6 1 6 13 10
-32 10 -134 1 -151 1 -154 -24 -177 -20 -18 -23 -28 -16 -46 7 -19 16 -23 47
-23 35 0 40 3 49 32 l11 32 30 -35 c30 -32 35 -34 96 -34 81 0 121 24 157 95
22 41 26 62 25 130 -1 115 -33 181 -148 305 l-61 65 60 -58 c33 -31 64 -57 69
-57 5 0 -35 42 -87 93 -94 90 -96 93 -102 148 -8 64 0 112 20 129 23 19 58 7
82 -29 27 -40 31 -32 6 10 -19 32 -49 45 -82 34 -29 -9 -45 -70 -36 -140 5
-46 14 -65 43 -97 20 -23 30 -39 22 -36 -34 11 -70 81 -76 148 -7 86 15 133
64 138 18 2 40 -2 48 -9 27 -23 51 -83 64 -159 7 -45 18 -80 28 -87 9 -7 11
-13 5 -13 -18 0 -32 24 -39 68 -4 23 -10 44 -14 47 -16 10 11 -91 29 -109 17
-17 48 -15 37 3 -4 7 6 154 19 273 7 62 26 74 36 23 4 -16 15 -65 25 -108 15
-68 16 -80 3 -88 -23 -15 -33 -10 -18 9 11 12 13 28 8 52 l-6 35 -2 -41 c0
-22 -4 -44 -8 -48 -12 -11 -12 -89 0 -103 5 -7 22 -13 38 -13 35 0 94 52 104
90 4 18 0 15 -15 -12 -11 -20 -30 -44 -42 -52 -25 -18 -74 -21 -83 -7 -3 6 9
8 29 4 28 -4 39 -1 60 20 24 25 26 32 26 125 0 54 3 101 6 105 4 3 19 -4 35
-15 l29 -22 0 -235 c0 -130 -3 -306 -7 -392 l-6 -155 -33 -22 c-19 -12 -34
-27 -34 -32 0 -6 46 -10 115 -10 106 0 115 1 126 21 7 15 8 19 0 15 -6 -4 -22
1 -36 11 l-25 18 1 390 1 390 30 24 c16 13 31 22 33 20 3 -3 17 -176 19 -230
0 -9 5 -16 11 -17 5 -1 24 -4 41 -8 21 -4 36 -1 46 10 9 8 19 12 22 8 4 -3 3
5 -2 18 -5 14 -19 29 -30 35 -12 5 -22 15 -22 20 0 15 38 189 46 209 7 19 13
19 -285 16 -144 -1 -201 2 -197 9 8 12 3 15 -8 4z m-160 -595 c62 -74 84 -181
50 -245 -9 -18 -21 -33 -27 -33 -6 0 -1 12 10 26 15 20 21 41 21 81 0 67 -20
117 -68 166 -20 20 -31 37 -25 37 6 0 24 -15 39 -32z"/>
<path d="M403 1823 c9 -2 23 -2 30 0 6 3 -1 5 -18 5 -16 0 -22 -2 -12 -5z"/>
<path d="M3587 1815 c2 -6 19 -19 38 -29 l35 -19 2 -421 3 -421 -44 -42 c-44
-42 -44 -42 -19 -48 14 -4 90 -5 170 -3 139 3 146 4 187 31 49 32 101 109 100
146 -1 28 -4 23 -13 -22 -9 -38 -73 -106 -121 -128 -33 -16 -64 -18 -185 -17
l-145 2 155 6 c164 6 192 13 236 62 52 57 59 83 59 243 0 173 -9 208 -66 270
l-39 43 27 17 28 18 -18 -20 c-14 -16 -15 -23 -6 -29 7 -4 10 -3 6 3 -4 5 7
22 23 38 37 36 69 175 40 175 -5 0 -7 -6 -4 -14 7 -19 -13 -125 -27 -143 -19
-22 -20 -9 -4 30 46 111 -18 264 -118 282 -55 10 -305 1 -300 -10z m271 -66
c36 -12 52 -49 52 -118 0 -56 -24 -98 -77 -137 -21 -15 -46 -37 -55 -48 -17
-20 -18 -13 -18 147 l0 167 34 0 c18 0 47 -5 64 -11z m38 -340 c17 -19 19 -41
22 -211 4 -249 0 -260 -106 -274 l-52 -7 0 222 c0 202 1 221 16 207 18 -19 20
-19 45 -6 23 13 26 58 3 67 -13 5 -13 7 -2 14 23 15 54 10 74 -12z"/>
<path d="M3770 1738 c0 -4 14 -8 30 -8 17 0 30 2 30 4 0 2 -13 6 -30 8 -16 3
-30 1 -30 -4z"/>
<path d="M3852 1733 c18 -5 23 -16 33 -79 9 -56 -16 -112 -65 -146 l-39 -27
-4 27 c-3 21 -4 19 -6 -10 l-1 -38 50 36 c64 46 84 89 76 163 -7 59 -19 82
-45 80 -14 -1 -14 -2 1 -6z"/>
<path d="M3774 1630 c0 -52 1 -74 3 -47 2 26 2 68 0 95 -2 26 -3 4 -3 -48z"/>
<path d="M3849 1413 c-1 -5 0 -19 0 -33 2 -32 -31 -64 -59 -57 -18 5 -20 1
-18 -46 1 -51 2 -51 5 -9 3 32 8 42 22 42 24 0 61 41 61 68 0 42 28 24 35 -21
11 -73 2 -372 -12 -389 -7 -8 -32 -15 -57 -17 -44 -2 -45 -1 -49 31 -4 31 -4
30 -5 -8 l-2 -40 56 6 c32 4 59 12 65 21 17 27 21 78 17 253 -3 162 -5 179
-22 192 -22 15 -35 18 -37 7z"/>
<path d="M1332 1811 c0 -3 -1 -9 -2 -13 -1 -5 -3 -14 -4 -20 -1 -7 -7 -12 -14
-11 -6 2 -16 -6 -22 -18 -14 -25 -9 -94 7 -94 15 0 28 -13 28 -28 0 -8 18 -12
48 -11 43 1 47 -1 41 -20 -4 -17 -3 -18 5 -6 6 8 10 29 10 45 0 28 -1 28 -9 8
-5 -13 -15 -23 -22 -23 -9 0 -9 3 0 12 31 31 2 86 -40 72 -21 -6 -22 -6 -6 17
15 23 82 48 95 35 8 -8 -25 -342 -47 -476 -24 -141 -50 -232 -90 -318 -17 -36
-28 -67 -25 -70 3 -3 0 -11 -7 -19 -9 -11 -7 -12 7 -7 14 6 16 4 10 -6 -12
-19 47 24 84 60 16 16 29 40 29 52 0 13 14 56 31 97 17 41 37 94 42 118 l11
43 49 0 48 0 3 -145 3 -145 -28 -20 c-15 -12 -25 -25 -22 -30 3 -6 -1 -7 -9
-4 -11 4 -16 0 -16 -10 0 -14 15 -16 103 -16 136 0 145 3 144 46 -1 21 -4 29
-9 21 -6 -9 -12 -7 -23 7 -8 11 -15 16 -15 11 0 -5 10 -20 23 -33 l22 -25 -31
22 -30 22 -2 414 -2 414 30 23 c16 12 30 26 30 30 0 5 -97 8 -215 7 -118 -1
-214 -5 -213 -8z m121 -8 c-7 -2 -19 -2 -25 0 -7 3 -2 5 12 5 14 0 19 -2 13
-5z m120 0 c-18 -2 -48 -2 -65 0 -18 2 -4 4 32 4 36 0 50 -2 33 -4z m120 0
c-13 -2 -35 -2 -50 0 -16 2 -5 4 22 4 28 0 40 -2 28 -4z m-103 -259 l0 -204
-39 3 c-36 2 -39 4 -35 27 2 14 11 93 19 175 21 207 23 215 40 208 13 -4 15
-39 15 -209z m-57 -301 c-7 -2 -19 -2 -25 0 -7 3 -2 5 12 5 14 0 19 -2 13 -5z
m-164 -319 c-19 -20 -42 -40 -51 -45 -10 -5 4 12 30 39 26 26 49 47 51 45 3
-2 -11 -19 -30 -39z"/>
<path d="M2820 1806 c-14 -8 -28 -12 -31 -10 -10 6 -34 -26 -34 -45 0 -9 -6
-16 -13 -16 -13 0 -32 -23 -31 -40 0 -5 7 1 15 15 10 16 13 18 8 5 -31 -86
-45 -174 -50 -315 -7 -163 5 -308 29 -375 32 -89 31 -83 13 -61 -20 25 -21 8
-1 -18 9 -13 15 -15 15 -7 0 8 15 -1 34 -20 19 -18 32 -37 30 -41 -3 -4 9 -14
26 -23 16 -8 30 -12 30 -7 0 4 -12 12 -27 18 -21 7 -9 9 54 9 51 0 79 -4 75
-10 -3 -6 -1 -6 4 -2 5 5 9 14 9 20 0 5 6 12 14 15 9 3 11 0 6 -9 -5 -8 4 -3
18 10 27 25 35 37 17 26 -16 -10 -12 3 10 33 40 54 51 130 53 360 2 233 -6
296 -49 387 -17 37 -20 51 -11 58 8 6 7 7 -4 4 -16 -5 -64 34 -55 44 13 12
-131 8 -154 -5z m-30 -20 c0 -2 -8 -10 -17 -17 -16 -13 -17 -12 -4 4 13 16 21
21 21 13z m151 -81 c25 -42 39 -141 39 -272 0 -146 -20 -199 -71 -186 -19 5
-19 6 1 20 16 11 20 22 15 40 -4 19 -3 23 7 17 10 -6 9 -3 -1 9 -15 18 -26 23
-16 7 4 -6 -5 -7 -23 -4 -20 4 -34 0 -46 -12 -17 -16 -18 -35 -4 -109 1 -6 8
-11 17 -12 9 0 37 -3 63 -5 25 -2 45 -1 42 3 -2 4 3 12 11 19 8 7 15 9 15 4
-3 -78 -23 -202 -39 -238 -18 -42 -23 -46 -54 -46 -47 0 -64 24 -84 111 -13
57 -16 121 -15 279 3 325 24 415 95 408 22 -2 36 -12 48 -33z"/>
</g>
</svg>
