<?xml version="1.0" standalone="no"?>
<!DOCTYPE svg PUBLIC "-//W3C//DTD SVG 20010904//EN"
 "http://www.w3.org/TR/2001/REC-SVG-20010904/DTD/svg10.dtd">
<svg version="1.0" xmlns="http://www.w3.org/2000/svg"
 width="600.000000pt" height="259.000000pt" viewBox="0 0 600.000000 259.000000"
 preserveAspectRatio="xMidYMid meet">
<metadata>
Created by potrace 1.16, written by Peter Selinger 2001-2019
</metadata>
<g transform="translate(0.000000,259.000000) scale(0.100000,-0.100000)"
fill="#000000" stroke="none">
<path d="M445 1970 c3 -5 8 -10 11 -10 2 0 4 5 4 10 0 6 -5 10 -11 10 -5 0 -7
-4 -4 -10z"/>
<path d="M5183 1973 c15 -2 37 -2 50 0 12 2 0 4 -28 4 -27 0 -38 -2 -22 -4z"/>
<path d="M5293 1973 c9 -2 23 -2 30 0 6 3 -1 5 -18 5 -16 0 -22 -2 -12 -5z"/>
<path d="M5423 1973 c15 -2 39 -2 55 0 15 2 2 4 -28 4 -30 0 -43 -2 -27 -4z"/>
<path d="M5718 1973 c17 -2 47 -2 65 0 17 2 3 4 -33 4 -36 0 -50 -2 -32 -4z"/>
<path d="M494 1959 c-4 -7 -26 -8 -63 -4 -38 4 -73 1 -111 -10 -30 -9 -63 -17
-72 -18 -9 -1 -16 -4 -15 -7 2 -7 -96 -104 -104 -103 -3 1 -5 -8 -5 -20 1 -12
-4 -22 -11 -22 -7 0 -18 -7 -25 -15 -11 -12 -11 -12 6 0 23 17 25 28 -28 -125
-19 -55 -38 -123 -42 -152 -3 -29 -9 -51 -13 -49 -4 3 -8 -181 -10 -407 -3
-518 12 -637 100 -794 32 -58 35 -68 17 -57 -7 5 -8 3 -4 -5 5 -7 11 -10 14
-7 7 7 42 -24 42 -37 0 -5 -8 -3 -17 4 -10 7 -7 1 6 -13 13 -15 27 -25 31 -23
11 7 49 -24 46 -38 -1 -6 -1 -9 1 -6 2 4 27 -2 55 -13 37 -14 72 -18 134 -17
101 2 164 22 243 77 73 52 143 83 200 91 54 7 63 25 21 40 -17 6 -29 15 -26
20 4 5 1 13 -5 17 -8 5 -9 3 -4 -6 6 -9 4 -12 -6 -8 -8 3 -32 13 -54 22 l-40
16 0 154 0 153 33 24 c89 65 132 102 126 110 -3 5 -107 9 -233 9 -242 0 -290
-7 -336 -50 -12 -11 -23 -18 -26 -16 -2 2 -5 -18 -7 -45 -2 -39 2 -56 20 -82
13 -17 23 -36 23 -42 0 -19 35 -16 69 4 32 20 52 48 42 58 -2 3 -7 -4 -10 -14
-7 -22 -56 -53 -83 -53 -10 0 1 9 25 20 51 23 66 53 45 93 -17 34 -12 43 29
49 62 9 94 -52 86 -165 -1 -30 -1 -54 2 -52 6 4 2 -135 -6 -183 -7 -45 -58
-100 -99 -108 -41 -7 -110 7 -110 23 0 7 -7 18 -15 25 -12 11 -12 11 -1 -5 8
-10 9 -17 3 -17 -11 0 -42 39 -42 53 0 4 5 5 12 1 7 -4 8 -3 4 5 -4 6 -11 9
-15 6 -13 -7 -38 98 -51 207 -13 113 -19 682 -9 913 9 204 46 414 71 399 4 -3
5 1 2 9 -3 8 8 26 27 42 29 24 39 27 83 22 58 -5 92 -36 100 -90 3 -17 15 -88
28 -157 13 -69 22 -136 21 -150 0 -14 1 -19 4 -12 3 9 15 3 39 -17 63 -55 128
-50 170 15 15 21 15 28 3 52 -22 44 -22 45 -9 37 9 -6 9 -3 1 14 -14 25 -23
28 -14 5 5 -14 3 -15 -17 -4 -12 6 -33 10 -46 7 -13 -2 -24 -3 -24 -2 0 10 52
249 61 280 6 22 20 57 30 77 26 51 24 58 -15 55 -19 -1 -32 -5 -29 -9 5 -9
-12 -11 -72 -9 -58 2 -145 23 -139 33 3 4 3 8 0 8 -3 0 -8 -5 -12 -11z"/>
<path d="M540 1960 c0 -5 5 -10 11 -10 5 0 7 5 4 10 -3 6 -8 10 -11 10 -2 0
-4 -4 -4 -10z"/>
<path d="M5753 1962 c-41 -2 -73 -7 -73 -13 0 -6 5 -7 10 -4 15 9 12 -19 -5
-51 -12 -24 -15 -94 -15 -432 0 -334 -3 -408 -15 -431 -17 -33 -78 -61 -133
-61 -41 0 -103 29 -110 51 -3 8 6 4 20 -8 13 -13 28 -23 34 -23 5 0 1 5 -9 11
-9 6 -14 15 -11 21 4 6 2 8 -4 4 -6 -3 -13 -2 -17 4 -4 6 -11 8 -16 4 -14 -8
-39 58 -56 150 -18 95 -12 293 11 391 21 88 100 271 115 267 7 -1 10 2 6 8 -4
6 3 27 14 46 12 20 18 40 15 46 -4 7 -2 8 4 4 7 -4 12 -2 12 3 0 8 -70 11
-215 11 l-215 0 -40 -82 c-22 -46 -40 -86 -40 -90 0 -5 12 -8 28 -8 26 -1 26
-1 8 -15 -11 -8 -15 -15 -9 -15 5 0 18 9 28 20 10 11 21 17 26 15 10 -7 24 15
24 39 0 26 49 41 158 50 63 5 87 4 82 -4 -3 -5 -11 -7 -17 -4 -6 4 -8 3 -5 -3
8 -13 -22 -55 -34 -48 -5 3 -6 0 -3 -8 3 -8 -3 -20 -12 -28 -15 -12 -17 -12
-9 0 5 10 4 12 -4 7 -6 -4 -9 -11 -6 -16 9 -14 -15 -51 -27 -44 -6 4 -8 3 -5
-3 4 -6 -9 -44 -28 -85 -82 -178 -117 -399 -81 -520 19 -67 19 -71 4 -62 -7 4
-8 3 -4 -5 4 -6 11 -9 16 -6 4 3 15 -6 24 -20 19 -29 20 -39 4 -29 -7 4 3 -9
21 -29 34 -36 48 -47 36 -27 -10 17 12 11 26 -7 12 -14 12 -16 0 -8 -9 5 -12
4 -7 -3 4 -6 14 -8 23 -5 11 4 14 3 9 -5 -5 -8 -1 -10 10 -5 10 3 15 2 12 -3
-7 -10 -6 -10 137 -20 93 -6 106 -5 163 19 l62 25 0 -245 c0 -268 -12 -419
-38 -473 -19 -39 -69 -69 -117 -69 -33 -1 -128 40 -140 60 -6 8 -4 10 5 4 9
-5 11 -4 6 4 -4 6 -11 9 -15 6 -13 -8 -54 42 -46 56 5 7 4 10 -2 6 -28 -18
-114 268 -138 458 -10 79 -14 87 -38 79 -12 -3 -24 -8 -25 -9 -2 -2 -5 -104
-7 -227 -2 -123 -6 -267 -10 -320 -7 -91 -9 -98 -29 -97 -21 0 -21 1 -1 10
l20 9 -20 -3 c-11 -1 -20 -7 -20 -12 -1 -6 -9 -25 -19 -43 -36 -68 2 -122 85
-122 39 0 51 5 68 26 12 16 21 42 21 63 0 49 14 69 37 55 10 -7 17 -19 16 -29
0 -9 1 -14 4 -11 4 3 24 -10 46 -30 63 -57 109 -74 208 -74 96 0 154 16 201
55 16 14 34 23 38 20 5 -3 12 0 16 6 4 8 3 9 -4 5 -19 -12 -14 3 17 47 52 77
62 124 71 352 5 116 11 467 13 782 3 451 6 575 16 587 16 19 35 21 25 4 -4 -7
2 -5 14 6 12 10 20 22 19 27 -1 5 11 19 27 32 18 15 26 28 22 36 -8 12 -25 12
-243 3z m-637 -147 c-1 -9 -6 -16 -12 -16 -5 0 -15 -6 -23 -12 -12 -10 -13 -9
-6 3 22 40 45 54 41 25z m99 -845 c10 -11 16 -20 13 -20 -3 0 -13 9 -23 20
-10 11 -16 20 -13 20 3 0 13 -9 23 -20z"/>
<path d="M5651 1944 c0 -11 3 -14 6 -6 3 7 2 16 -1 19 -3 4 -6 -2 -5 -13z"/>
<path d="M766 1873 c-6 -14 -5 -15 5 -6 7 7 10 15 7 18 -3 3 -9 -2 -12 -12z"/>
<path d="M5228 1853 c12 -2 30 -2 40 0 9 3 -1 5 -23 4 -22 0 -30 -2 -17 -4z"/>
<path d="M833 1839 c-6 -6 -9 -18 -6 -27 5 -11 3 -13 -8 -7 -8 4 1 -8 19 -27
l32 -34 -6 -267 c-4 -159 -4 -267 2 -267 5 0 10 114 11 268 l2 267 -27 29 -27
29 32 -23 32 -23 0 -412 1 -412 -30 -28 c-17 -16 -30 -32 -30 -37 0 -4 91 -9
203 -11 l202 -3 -204 1 c-222 0 -235 4 -185 50 15 14 23 25 17 25 -5 0 -20
-11 -33 -25 -19 -21 -22 -29 -14 -43 10 -15 34 -17 219 -17 241 0 222 -11 199
119 -19 109 -18 146 2 146 12 0 14 -3 6 -12 -6 -8 -7 -35 -2 -73 l8 -60 -1 62
c0 40 5 68 14 79 8 10 9 15 4 12 -7 -4 -11 6 -11 27 0 21 4 31 11 28 5 -4 1 3
-9 15 -26 30 -62 28 -96 -6 -22 -22 -30 -42 -35 -88 -4 -32 -13 -78 -20 -101
-7 -24 -9 -41 -4 -38 11 7 29 72 29 105 0 41 20 100 41 121 19 19 64 26 73 10
3 -4 -5 -6 -17 -4 -44 9 -68 -25 -84 -118 -18 -112 -35 -133 -103 -137 l-53
-3 5 410 5 411 24 19 c13 11 29 20 34 20 6 0 -2 -9 -17 -20 -24 -18 -28 -27
-26 -67 l1 -47 4 44 c3 29 11 50 25 61 12 9 23 27 25 38 3 21 -1 22 -90 24
-50 1 -105 1 -122 1 -28 -1 -29 -1 -11 13 11 8 15 14 10 14 -6 0 -15 -5 -21
-11z"/>
<path d="M973 1841 c72 -5 91 -10 103 -25 8 -11 14 -15 14 -9 0 5 -8 17 -18
26 -15 13 -37 17 -103 15 l-84 -1 88 -6z"/>
<path d="M1390 1840 c-13 -8 -12 -10 3 -10 9 0 17 5 17 10 0 12 -1 12 -20 0z"/>
<path d="M1653 1843 c15 -2 37 -2 50 0 12 2 0 4 -28 4 -27 0 -38 -2 -22 -4z"/>
<path d="M1895 1836 c-40 -17 -100 -85 -113 -127 -35 -114 -18 -229 46 -311
51 -66 122 -136 122 -120 0 6 -8 16 -18 21 -31 17 -129 144 -142 185 -7 21
-12 74 -11 118 2 126 50 203 142 232 24 8 35 14 24 15 -11 0 -33 -6 -50 -13z"/>
<path d="M2024 1835 c25 -19 74 -19 106 1 17 10 18 13 5 8 -43 -14 -66 -16
-97 -5 -30 10 -31 9 -14 -4z"/>
<path d="M2200 1846 c0 -9 40 -13 46 -5 3 5 -6 9 -20 9 -14 0 -26 -2 -26 -4z"/>
<path d="M2293 1843 c9 -2 23 -2 30 0 6 3 -1 5 -18 5 -16 0 -22 -2 -12 -5z"/>
<path d="M2348 1843 c7 -3 16 -2 19 1 4 3 -2 6 -13 5 -11 0 -14 -3 -6 -6z"/>
<path d="M2393 1843 c9 -2 23 -2 30 0 6 3 -1 5 -18 5 -16 0 -22 -2 -12 -5z"/>
<path d="M2448 1843 c7 -3 16 -2 19 1 4 3 -2 6 -13 5 -11 0 -14 -3 -6 -6z"/>
<path d="M2578 1843 c6 -2 18 -2 25 0 6 3 1 5 -13 5 -14 0 -19 -2 -12 -5z"/>
<path d="M2634 1838 c-4 -7 -4 -10 1 -6 4 4 16 3 27 -3 15 -8 18 -17 14 -37
-5 -23 -5 -24 5 -9 13 22 6 42 -20 56 -15 8 -22 8 -27 -1z"/>
<path d="M3055 1840 c-3 -6 1 -7 9 -4 18 7 21 14 7 14 -6 0 -13 -4 -16 -10z"/>
<path d="M3228 1843 c7 -3 16 -2 19 1 4 3 -2 6 -13 5 -11 0 -14 -3 -6 -6z"/>
<path d="M3351 1823 c-12 -16 -20 -21 -17 -12 4 14 -12 16 -130 18 -116 2
-135 0 -140 -14 -6 -13 -8 -14 -15 -3 -5 7 -9 8 -9 2 0 -10 26 -36 65 -64 18
-14 19 -14 6 3 -7 9 -9 17 -4 17 31 0 33 -26 33 -420 0 -388 0 -395 -21 -408
-24 -15 -23 -59 2 -75 24 -15 64 -1 84 30 17 25 18 55 18 316 0 158 1 286 3
284 3 -2 20 -49 38 -103 52 -152 154 -433 161 -445 9 -13 -25 -50 -38 -42 -5
3 -7 1 -3 -5 3 -6 2 -13 -4 -17 -5 -3 -10 -13 -10 -21 0 -13 17 -14 105 -11
58 2 108 7 112 10 3 4 0 15 -8 24 -11 15 -11 16 1 6 10 -10 19 -9 42 5 l28 16
0 422 0 422 -32 20 c-18 11 -36 18 -42 15 -5 -3 7 -13 28 -21 l36 -14 0 -419
0 -418 -22 -15 c-20 -15 -24 -14 -45 6 -21 19 -23 31 -25 127 l-2 106 -3 -104
c-3 -86 -1 -107 13 -122 9 -11 12 -19 7 -19 -30 0 -33 35 -40 434 l-6 407 34
35 c26 27 31 37 20 43 -21 13 -188 13 -196 0 -4 -6 8 -24 29 -41 l36 -29 -1
-242 0 -242 -24 65 c-69 190 -145 408 -145 418 0 6 15 20 33 32 l32 22 -27
-24 c-16 -13 -28 -28 -28 -34 0 -15 50 -137 61 -149 5 -5 -1 17 -15 50 -35 90
-41 109 -26 100 8 -5 11 -4 7 2 -4 6 5 21 18 33 l25 24 35 -34 c19 -18 37 -31
40 -28 3 3 -10 17 -30 32 -39 30 -42 38 -19 60 8 9 11 16 7 16 -5 0 -19 -12
-32 -27z m-261 -38 c7 -8 8 -15 2 -15 -5 0 -15 7 -22 15 -7 8 -8 15 -2 15 5 0
15 -7 22 -15z"/>
<path d="M3453 1843 c9 -2 23 -2 30 0 6 3 -1 5 -18 5 -16 0 -22 -2 -12 -5z"/>
<path d="M3637 1843 c18 -2 50 -2 70 0 21 2 7 4 -32 4 -38 0 -55 -2 -38 -4z"/>
<path d="M3793 1843 c9 -2 23 -2 30 0 6 3 -1 5 -18 5 -16 0 -22 -2 -12 -5z"/>
<path d="M3875 1841 c47 -12 70 -27 113 -76 25 -28 43 -42 47 -35 4 6 4 14 1
17 -3 4 -6 0 -6 -7 0 -7 -13 5 -29 27 -36 49 -89 83 -127 82 l-29 -1 30 -7z"/>
<path d="M4248 1843 c6 -2 18 -2 25 0 6 3 1 5 -13 5 -14 0 -19 -2 -12 -5z"/>
<path d="M4453 1843 c9 -2 23 -2 30 0 6 3 -1 5 -18 5 -16 0 -22 -2 -12 -5z"/>
<path d="M4568 1844 c-12 -12 5 -40 38 -62 l34 -22 0 -420 0 -419 -35 -27
c-19 -14 -35 -30 -35 -35 0 -5 60 -10 133 -11 l132 -2 -129 -3 c-123 -3 -129
-3 -150 19 -11 13 -31 30 -44 38 l-22 15 -7 428 c-4 255 -3 427 3 427 5 0 9
-77 9 -177 l-1 -178 3 169 c2 93 8 175 13 181 5 6 5 17 0 24 -4 8 -6 20 -3 28
4 11 -7 13 -58 11 l-64 -3 -5 -430 c-3 -236 -7 -431 -8 -433 -1 -2 -6 0 -12 3
-5 3 -7 0 -4 -9 7 -19 -29 -38 -64 -34 -63 7 -87 127 -79 398 6 197 24 305 70
433 14 37 22 69 18 71 -3 2 -53 3 -111 2 -81 -1 -104 -4 -102 -14 1 -8 -1 -11
-6 -8 -11 6 -48 -111 -39 -120 4 -4 13 -2 20 4 8 7 17 9 21 5 4 -4 4 0 1 9 -9
22 28 45 87 53 l48 7 -24 -43 c-60 -107 -106 -347 -106 -551 0 -152 16 -213
69 -271 35 -37 43 -41 100 -45 52 -4 67 -1 91 16 28 21 28 21 33 1 5 -18 13
-20 84 -18 61 1 86 -2 105 -15 23 -15 42 -16 140 -11 123 7 153 19 127 51 -8
10 -27 25 -42 34 l-28 18 1 230 c0 138 -3 233 -9 236 -6 4 -9 -81 -8 -232 l2
-238 43 -27 c23 -14 42 -32 42 -38 0 -8 -7 -6 -17 5 -10 10 -32 26 -49 36
l-32 18 -1 255 0 254 38 -36 c63 -59 71 -78 86 -215 18 -161 36 -216 89 -272
33 -34 50 -44 74 -44 32 0 42 13 21 25 -22 14 -40 89 -74 305 -16 100 -32 147
-60 180 -11 13 -6 22 31 57 53 51 59 43 8 -10 -33 -34 -35 -39 -22 -55 28 -31
40 -64 54 -141 l14 -76 -6 70 c-4 51 -12 83 -32 118 l-28 49 32 33 c19 21 31
44 32 62 0 15 4 63 8 105 6 71 4 82 -20 132 -15 30 -43 67 -64 83 -37 28 -39
28 -197 32 -96 2 -152 6 -140 11 15 6 16 9 4 9 -9 1 -18 -2 -21 -5z m297 -118
c44 -45 48 -233 4 -268 -26 -22 -40 -22 -65 -2 -10 8 -14 13 -8 10 16 -8 54
23 54 44 0 43 -57 65 -90 35 -16 -15 -17 -9 -18 80 0 53 4 97 10 101 6 4 8
-24 6 -80 -3 -80 2 -101 17 -76 19 30 85 -18 85 -61 0 -10 4 -20 9 -24 27 -16
24 194 -3 230 -8 11 -34 20 -72 25 l-59 7 53 2 c43 1 57 -3 77 -23z m-9 -9 c7
-7 24 -118 24 -156 l0 -35 -34 33 c-24 24 -41 32 -55 28 -20 -5 -21 -1 -21 70
l0 76 41 -6 c22 -3 43 -7 45 -10z"/>
<path d="M4834 1469 c-19 -22 -19 -22 6 -14 32 10 36 13 24 25 -7 7 -17 3 -30
-11z"/>
<path d="M4755 1841 c140 -6 156 -11 202 -65 48 -54 67 -114 60 -193 -2 -38
-8 -77 -12 -88 -6 -20 -6 -20 6 0 7 10 14 51 17 91 4 61 1 80 -20 125 -26 57
-78 115 -116 130 -13 5 -78 8 -145 7 l-122 -2 130 -5z"/>
<path d="M2176 1833 c-17 -17 -112 -26 -147 -14 -43 15 -122 4 -161 -23 -54
-36 -77 -97 -77 -201 -1 -115 16 -154 111 -251 39 -41 68 -74 64 -74 -4 0 10
-20 32 -45 64 -73 81 -187 36 -248 -25 -35 -39 -34 -79 6 -35 35 -65 115 -87
233 -11 61 -13 64 -37 61 -17 -2 -27 -11 -28 -23 -3 -18 -2 -18 6 1 6 13 10
-32 10 -134 1 -151 1 -154 -24 -177 -20 -18 -23 -28 -16 -46 7 -19 16 -23 47
-23 35 0 40 3 49 32 l11 32 30 -35 c30 -32 35 -34 96 -34 81 0 121 24 157 95
22 41 26 62 25 130 -1 115 -33 181 -148 305 l-61 65 60 -58 c33 -31 64 -57 69
-57 5 0 -35 42 -87 93 -94 90 -96 93 -102 148 -8 64 0 112 20 129 23 19 58 7
82 -29 27 -40 31 -32 6 10 -19 32 -49 45 -82 34 -29 -9 -45 -70 -36 -140 5
-46 14 -65 43 -97 20 -23 30 -39 22 -36 -34 11 -70 81 -76 148 -7 86 15 133
64 138 18 2 40 -2 48 -9 27 -23 51 -83 64 -159 7 -45 18 -80 28 -87 9 -7 11
-13 5 -13 -18 0 -32 24 -39 68 -4 23 -10 44 -14 47 -16 10 11 -91 29 -109 17
-17 48 -15 37 3 -4 7 6 154 19 273 7 62 26 74 36 23 4 -16 15 -65 25 -108 15
-68 16 -80 3 -88 -23 -15 -33 -10 -18 9 11 12 13 28 8 52 l-6 35 -2 -41 c0
-22 -4 -44 -8 -48 -12 -11 -12 -89 0 -103 5 -7 22 -13 38 -13 35 0 94 52 104
90 4 18 0 15 -15 -12 -11 -20 -30 -44 -42 -52 -25 -18 -74 -21 -83 -7 -3 6 9
8 29 4 28 -4 39 -1 60 20 24 25 26 32 26 125 0 54 3 101 6 105 4 3 19 -4 35
-15 l29 -22 0 -235 c0 -130 -3 -306 -7 -392 l-6 -155 -33 -22 c-19 -12 -34
-27 -34 -32 0 -6 46 -10 115 -10 106 0 115 1 126 21 7 15 8 19 0 15 -6 -4 -22
1 -36 11 l-25 18 1 390 1 390 30 24 c16 13 31 22 33 20 3 -3 17 -176 19 -230
0 -9 5 -16 11 -17 5 -1 24 -4 41 -8 21 -4 36 -1 46 10 9 8 19 12 22 8 4 -3 3
5 -2 18 -5 14 -19 29 -30 35 -12 5 -22 15 -22 20 0 15 38 189 46 209 7 19 13
19 -285 16 -144 -1 -201 2 -197 9 8 12 3 15 -8 4z m-160 -595 c62 -74 84 -181
50 -245 -9 -18 -21 -33 -27 -33 -6 0 -1 12 10 26 15 20 21 41 21 81 0 67 -20
117 -68 166 -20 20 -31 37 -25 37 6 0 24 -15 39 -32z"/>
<path d="M403 1823 c9 -2 23 -2 30 0 6 3 -1 5 -18 5 -16 0 -22 -2 -12 -5z"/>
<path d="M3587 1815 c2 -6 19 -19 38 -29 l35 -19 2 -421 3 -421 -44 -42 c-44
-42 -44 -42 -19 -48 14 -4 90 -5 170 -3 139 3 146 4 187 31 49 32 101 109 100
146 -1 28 -4 23 -13 -22 -9 -38 -73 -106 -121 -128 -33 -16 -64 -18 -185 -17
l-145 2 155 6 c164 6 192 13 236 62 52 57 59 83 59 243 0 173 -9 208 -66 270
l-39 43 27 17 28 18 -18 -20 c-14 -16 -15 -23 -6 -29 7 -4 10 -3 6 3 -4 5 7
22 23 38 37 36 69 175 40 175 -5 0 -7 -6 -4 -14 7 -19 -13 -125 -27 -143 -19
-22 -20 -9 -4 30 46 111 -18 264 -118 282 -55 10 -305 1 -300 -10z m271 -66
c36 -12 52 -49 52 -118 0 -56 -24 -98 -77 -137 -21 -15 -46 -37 -55 -48 -17
-20 -18 -13 -18 147 l0 167 34 0 c18 0 47 -5 64 -11z m38 -340 c17 -19 19 -41
22 -211 4 -249 0 -260 -106 -274 l-52 -7 0 222 c0 202 1 221 16 207 18 -19 20
-19 45 -6 23 13 26 58 3 67 -13 5 -13 7 -2 14 23 15 54 10 74 -12z"/>
<path d="M3770 1738 c0 -4 14 -8 30 -8 17 0 30 2 30 4 0 2 -13 6 -30 8 -16 3
-30 1 -30 -4z"/>
<path d="M3852 1733 c18 -5 23 -16 33 -79 9 -56 -16 -112 -65 -146 l-39 -27
-4 27 c-3 21 -4 19 -6 -10 l-1 -38 50 36 c64 46 84 89 76 163 -7 59 -19 82
-45 80 -14 -1 -14 -2 1 -6z"/>
<path d="M3774 1630 c0 -52 1 -74 3 -47 2 26 2 68 0 95 -2 26 -3 4 -3 -48z"/>
<path d="M3849 1413 c-1 -5 0 -19 0 -33 2 -32 -31 -64 -59 -57 -18 5 -20 1
-18 -46 1 -51 2 -51 5 -9 3 32 8 42 22 42 24 0 61 41 61 68 0 42 28 24 35 -21
11 -73 2 -372 -12 -389 -7 -8 -32 -15 -57 -17 -44 -2 -45 -1 -49 31 -4 31 -4
30 -5 -8 l-2 -40 56 6 c32 4 59 12 65 21 17 27 21 78 17 253 -3 162 -5 179
-22 192 -22 15 -35 18 -37 7z"/>
<path d="M3773 1145 c0 -38 2 -53 4 -32 2 20 2 52 0 70 -2 17 -4 1 -4 -38z"/>
<path d="M454 1803 c2 -9 10 -17 19 -19 13 -2 14 1 4 17 -15 23 -26 25 -23 2z"/>
<path d="M741 1804 c0 -11 3 -14 6 -6 3 7 2 16 -1 19 -3 4 -6 -2 -5 -13z"/>
<path d="M1332 1811 c0 -3 -1 -9 -2 -13 -1 -5 -3 -14 -4 -20 -1 -7 -7 -12 -14
-11 -6 2 -16 -6 -22 -18 -14 -25 -9 -94 7 -94 15 0 28 -13 28 -28 0 -8 18 -12
48 -11 43 1 47 -1 41 -20 -4 -17 -3 -18 5 -6 6 8 10 29 10 45 0 28 -1 28 -9 8
-5 -13 -15 -23 -22 -23 -9 0 -9 3 0 12 31 31 2 86 -40 72 -21 -6 -22 -6 -6 17
15 23 82 48 95 35 8 -8 -25 -342 -47 -476 -24 -141 -50 -232 -90 -318 -17 -36
-28 -67 -25 -70 3 -3 0 -11 -7 -19 -9 -11 -7 -12 7 -7 14 6 16 4 10 -6 -12
-19 47 24 84 60 16 16 29 40 29 52 0 13 14 56 31 97 17 41 37 94 42 118 l11
43 49 0 48 0 3 -145 3 -145 -28 -20 c-15 -12 -25 -25 -22 -30 3 -6 -1 -7 -9
-4 -11 4 -16 0 -16 -10 0 -14 15 -16 103 -16 136 0 145 3 144 46 -1 21 -4 29
-9 21 -6 -9 -12 -7 -23 7 -8 11 -15 16 -15 11 0 -5 10 -20 23 -33 l22 -25 -31
22 -30 22 -2 414 -2 414 30 23 c16 12 30 26 30 30 0 5 -97 8 -215 7 -118 -1
-214 -5 -213 -8z m121 -8 c-7 -2 -19 -2 -25 0 -7 3 -2 5 12 5 14 0 19 -2 13
-5z m120 0 c-18 -2 -48 -2 -65 0 -18 2 -4 4 32 4 36 0 50 -2 33 -4z m120 0
c-13 -2 -35 -2 -50 0 -16 2 -5 4 22 4 28 0 40 -2 28 -4z m-103 -259 l0 -204
-39 3 c-36 2 -39 4 -35 27 2 14 11 93 19 175 21 207 23 215 40 208 13 -4 15
-39 15 -209z m-57 -301 c-7 -2 -19 -2 -25 0 -7 3 -2 5 12 5 14 0 19 -2 13 -5z
m-164 -319 c-19 -20 -42 -40 -51 -45 -10 -5 4 12 30 39 26 26 49 47 51 45 3
-2 -11 -19 -30 -39z"/>
<path d="M2820 1806 c-14 -8 -28 -12 -31 -10 -10 6 -34 -26 -34 -45 0 -9 -6
-16 -13 -16 -13 0 -32 -23 -31 -40 0 -5 7 1 15 15 10 16 13 18 8 5 -31 -86
-45 -174 -50 -315 -7 -163 5 -308 29 -375 32 -89 31 -83 13 -61 -20 25 -21 8
-1 -18 9 -13 15 -15 15 -7 0 8 15 -1 34 -20 19 -18 32 -37 30 -41 -3 -4 9 -14
26 -23 16 -8 30 -12 30 -7 0 4 -12 12 -27 18 -21 7 -9 9 54 9 51 0 79 -4 75
-10 -3 -6 -1 -6 4 -2 5 5 9 14 9 20 0 5 6 12 14 15 9 3 11 0 6 -9 -5 -8 4 -3
18 10 27 25 35 37 17 26 -16 -10 -12 3 10 33 40 54 51 130 53 360 2 233 -6
296 -49 387 -17 37 -20 51 -11 58 8 6 7 7 -4 4 -16 -5 -64 34 -55 44 13 12
-131 8 -154 -5z m-30 -20 c0 -2 -8 -10 -17 -17 -16 -13 -17 -12 -4 4 13 16 21
21 21 13z m151 -81 c25 -42 39 -141 39 -272 0 -146 -20 -199 -71 -186 -19 5
-19 6 1 20 16 11 20 22 15 40 -4 19 -3 23 7 17 10 -6 9 -3 -1 9 -15 18 -26 23
-16 7 4 -6 -5 -7 -23 -4 -20 4 -34 0 -46 -12 -17 -16 -18 -35 -4 -109 1 -6 8
-11 17 -12 9 0 37 -3 63 -5 25 -2 45 -1 42 3 -2 4 3 12 11 19 8 7 15 9 15 4
-3 -78 -23 -202 -39 -238 -18 -42 -23 -46 -54 -46 -47 0 -64 24 -84 111 -13
57 -16 121 -15 279 3 325 24 415 95 408 22 -2 36 -12 48 -33z"/>
<path d="M2964 1440 c0 -58 1 -81 3 -52 2 28 2 76 0 105 -2 28 -3 5 -3 -53z"/>
<path d="M2812 1450 c0 -14 2 -19 5 -12 2 6 2 18 0 25 -3 6 -5 1 -5 -13z"/>
<path d="M2868 1353 c6 -2 18 -2 25 0 6 3 1 5 -13 5 -14 0 -19 -2 -12 -5z"/>
<path d="M2811 1334 c0 -11 3 -14 6 -6 3 7 2 16 -1 19 -3 4 -6 -2 -5 -13z"/>
<path d="M2937 1283 c-5 -26 -4 -26 9 -8 16 22 18 35 5 35 -5 0 -11 -12 -14
-27z"/>
<path d="M2963 1125 c0 -22 2 -30 4 -17 2 12 2 30 0 40 -3 9 -5 -1 -4 -23z"/>
<path d="M2952 1050 c0 -14 2 -19 5 -12 2 6 2 18 0 25 -3 6 -5 1 -5 -13z"/>
<path d="M2925 979 c-4 -6 -5 -12 -2 -15 2 -3 7 2 10 11 7 17 1 20 -8 4z"/>
<path d="M2151 1657 c-8 -81 -12 -150 -9 -152 3 -3 9 11 15 30 7 22 7 33 1 29
-9 -6 -7 25 9 131 6 37 7 38 14 15 l9 -25 -5 25 c-17 101 -21 95 -34 -53z"/>
<path d="M4585 1774 c11 -8 19 -20 17 -25 -1 -6 2 -8 8 -4 7 4 10 -128 10
-407 l0 -414 -30 -17 c-16 -10 -30 -23 -30 -28 0 -6 7 -3 16 5 8 9 24 21 35
26 18 10 19 27 19 426 l0 416 -22 19 c-13 10 -27 18 -33 18 -5 0 -1 -7 10 -15z"/>
<path d="M5432 1738 c-12 -28 -20 -53 -18 -55 2 -2 13 19 25 48 12 28 21 53
19 55 -3 2 -14 -20 -26 -48z"/>
<path d="M1725 1760 c-10 -11 -15 -20 -12 -20 4 0 16 9 27 20 11 11 16 20 12
20 -5 0 -17 -9 -27 -20z"/>
<path d="M3546 1761 c-16 -17 -17 -44 -13 -290 2 -149 7 -275 11 -279 4 -4 5
119 2 272 -5 257 -4 280 12 292 9 7 14 15 11 18 -3 3 -14 -2 -23 -13z"/>
<path d="M497 1725 c3 -27 7 -52 9 -54 8 -9 2 65 -6 84 -6 13 -7 2 -3 -30z"/>
<path d="M1266 1754 c-9 -22 -7 -102 2 -107 4 -3 7 24 7 59 0 35 -1 64 -1 64
-1 0 -5 -7 -8 -16z"/>
<path d="M721 1734 c0 -11 3 -14 6 -6 3 7 2 16 -1 19 -3 4 -6 -2 -5 -13z"/>
<path d="M1400 1739 c-12 -8 -10 -9 9 -4 17 5 22 4 19 -6 -3 -8 -14 -13 -24
-11 -18 2 -18 2 -1 -8 9 -6 17 -19 18 -28 1 -11 4 -8 9 8 18 56 6 75 -30 49z"/>
<path d="M2500 1725 c-13 -14 -20 -25 -15 -25 4 0 14 8 21 18 11 15 14 5 14
-68 1 -47 6 -94 11 -105 7 -15 8 -12 4 15 -2 19 -5 70 -6 113 -1 42 -3 77 -4
77 -1 0 -12 -11 -25 -25z"/>
<path d="M2311 1688 c0 -29 4 -62 9 -73 6 -12 7 6 3 50 -5 63 -4 69 10 57 9
-8 18 -23 20 -35 4 -21 4 -21 6 2 1 21 -22 50 -41 51 -5 0 -8 -24 -7 -52z"/>
<path d="M4109 1723 c-13 -16 -12 -17 4 -4 9 7 17 15 17 17 0 8 -8 3 -21 -13z"/>
<path d="M4153 1733 c9 -2 23 -2 30 0 6 3 -1 5 -18 5 -16 0 -22 -2 -12 -5z"/>
<path d="M4362 1720 c0 -14 2 -19 5 -12 2 6 2 18 0 25 -3 6 -5 1 -5 -13z"/>
<path d="M2655 1708 c-11 -31 -25 -111 -21 -116 5 -4 8 5 25 86 8 39 6 58 -4
30z"/>
<path d="M3421 1704 c0 -11 3 -14 6 -6 3 7 2 16 -1 19 -3 4 -6 -2 -5 -13z"/>
<path d="M706 1664 c-3 -26 -4 -49 -2 -52 3 -2 8 17 11 43 4 25 5 48 3 51 -3
2 -8 -17 -12 -42z"/>
<path d="M1722 1670 c0 -14 2 -19 5 -12 2 6 2 18 0 25 -3 6 -5 1 -5 -13z"/>
<path d="M2491 1580 c-3 -63 -4 -234 -3 -379 1 -231 4 -287 15 -270 1 2 0 175
-3 384 -3 209 -7 328 -9 265z"/>
<path d="M4266 1663 c-6 -14 -5 -15 5 -6 7 7 10 15 7 18 -3 3 -9 -2 -12 -12z"/>
<path d="M5893 1625 c0 -33 2 -45 4 -27 2 18 2 45 0 60 -2 15 -4 0 -4 -33z"/>
<path d="M512 1640 c0 -14 2 -19 5 -12 2 6 2 18 0 25 -3 6 -5 1 -5 -13z"/>
<path d="M2349 1653 c-4 -59 -2 -183 2 -183 4 0 7 43 8 95 1 52 0 95 -4 95 -3
0 -5 -3 -6 -7z"/>
<path d="M4363 1600 c0 -36 2 -50 4 -32 2 17 2 47 0 65 -2 17 -4 3 -4 -33z"/>
<path d="M1008 1638 c-6 -18 -10 -703 -4 -697 6 5 18 709 12 709 -2 0 -6 -6
-8 -12z"/>
<path d="M2052 1630 c0 -14 2 -19 5 -12 2 6 2 18 0 25 -3 6 -5 1 -5 -13z"/>
<path d="M5186 1625 c-9 -26 -7 -32 5 -12 6 10 9 21 6 23 -2 3 -7 -2 -11 -11z"/>
<path d="M1721 1614 c0 -11 3 -14 6 -6 3 7 2 16 -1 19 -3 4 -6 -2 -5 -13z"/>
<path d="M3422 1610 c0 -14 2 -19 5 -12 2 6 2 18 0 25 -3 6 -5 1 -5 -13z"/>
<path d="M4126 1613 c-6 -14 -5 -15 5 -6 7 7 10 15 7 18 -3 3 -9 -2 -12 -12z"/>
<path d="M2681 1604 c0 -11 3 -14 6 -6 3 7 2 16 -1 19 -3 4 -6 -2 -5 -13z"/>
<path d="M517 1589 c4 -13 8 -18 11 -10 2 7 -1 18 -6 23 -8 8 -9 4 -5 -13z"/>
<path d="M692 1580 c0 -14 2 -19 5 -12 2 6 2 18 0 25 -3 6 -5 1 -5 -13z"/>
<path d="M1338 1593 c7 -3 16 -2 19 1 4 3 -2 6 -13 5 -11 0 -14 -3 -6 -6z"/>
<path d="M4241 1537 c-6 -35 -11 -75 -10 -88 1 -13 7 14 15 60 8 46 12 86 10
88 -2 2 -9 -25 -15 -60z"/>
<path d="M1722 1565 c0 -16 2 -22 5 -12 2 9 2 23 0 30 -3 6 -5 -1 -5 -18z"/>
<path d="M5166 1575 c-9 -26 -7 -32 5 -12 6 10 9 21 6 23 -2 3 -7 -2 -11 -11z"/>
<path d="M3346 1567 c3 -10 9 -15 12 -12 3 3 0 11 -7 18 -10 9 -11 8 -5 -6z"/>
<path d="M5372 1550 c0 -14 2 -19 5 -12 2 6 2 18 0 25 -3 6 -5 1 -5 -13z"/>
<path d="M1411 1535 c-1 -16 -4 -38 -6 -49 -2 -12 0 -15 6 -9 6 6 9 28 6 49
-3 34 -4 35 -6 9z"/>
<path d="M3423 1520 c0 -25 2 -35 4 -22 2 12 2 32 0 45 -2 12 -4 2 -4 -23z"/>
<path d="M531 1534 c0 -11 3 -14 6 -6 3 7 2 16 -1 19 -3 4 -6 -2 -5 -13z"/>
<path d="M3106 1533 c5 -5 12 -12 16 -18 4 -6 8 -2 8 8 0 9 -7 17 -17 17 -9 0
-12 -3 -7 -7z"/>
<path d="M5145 1530 c-3 -5 -1 -10 4 -10 6 0 11 5 11 10 0 6 -2 10 -4 10 -3 0
-8 -4 -11 -10z"/>
<path d="M3371 1490 c6 -16 15 -32 20 -35 4 -3 3 8 -2 25 -6 16 -15 32 -20 35
-4 3 -3 -8 2 -25z"/>
<path d="M1 1494 c0 -11 3 -14 6 -6 3 7 2 16 -1 19 -3 4 -6 -2 -5 -13z"/>
<path d="M537 1489 c4 -13 8 -18 11 -10 2 7 -1 18 -6 23 -8 8 -9 4 -5 -13z"/>
<path d="M2575 1489 c4 -5 22 -9 42 -9 45 0 40 5 -10 13 -22 3 -35 2 -32 -4z"/>
<path d="M5361 1484 c0 -11 3 -14 6 -6 3 7 2 16 -1 19 -3 4 -6 -2 -5 -13z"/>
<path d="M3124 1385 c0 -60 1 -84 3 -52 2 32 2 81 0 110 -2 29 -3 3 -3 -58z"/>
<path d="M801 1454 c0 -11 3 -14 6 -6 3 7 2 16 -1 19 -3 4 -6 -2 -5 -13z"/>
<path d="M1722 1440 c0 -14 2 -19 5 -12 2 6 2 18 0 25 -3 6 -5 1 -5 -13z"/>
<path d="M3422 1432 c-1 -18 -6 -31 -11 -28 -4 3 -3 -14 3 -37 l11 -42 3 38
c2 21 1 52 -1 70 l-4 32 -1 -33z"/>
<path d="M1401 1433 c0 -12 -4 -30 -7 -40 -5 -14 -4 -15 5 -7 7 6 11 24 8 40
-3 21 -4 23 -6 7z"/>
<path d="M4087 1443 c-3 -4 -8 -39 -13 -78 -6 -57 -9 -64 -14 -40 -9 39 -34
88 -56 106 -11 8 -7 -1 9 -26 35 -54 46 -110 47 -240 0 -69 6 -127 15 -155
l15 -45 -6 45 c-9 64 -6 315 5 380 9 54 8 70 -2 53z"/>
<path d="M3234 1377 c2 -38 7 -71 12 -75 4 -4 5 2 2 14 -3 12 -2 28 3 36 5 10
3 31 -6 54 l-15 39 4 -68z"/>
<path d="M2340 1370 c0 -35 2 -61 4 -59 8 8 10 108 3 116 -4 3 -7 -22 -7 -57z"/>
<path d="M5353 1330 c0 -47 2 -66 4 -42 2 23 2 61 0 85 -2 23 -4 4 -4 -43z"/>
<path d="M4220 1285 c0 -65 2 -116 4 -114 8 7 9 219 2 226 -3 4 -6 -47 -6
-112z"/>
<path d="M4499 1393 c-6 -42 -7 -63 -1 -67 4 -2 7 14 8 35 1 34 -4 53 -7 32z"/>
<path d="M1723 1345 c0 -27 2 -38 4 -22 2 15 2 37 0 50 -2 12 -4 0 -4 -28z"/>
<path d="M2664 1280 c0 -58 1 -81 3 -52 2 28 2 76 0 105 -2 28 -3 5 -3 -53z"/>
<path d="M1391 1358 c0 -9 -4 -25 -7 -35 -5 -14 -4 -15 5 -7 7 7 11 22 8 35
-2 13 -5 16 -6 7z"/>
<path d="M4802 1340 c12 -16 23 -30 25 -30 2 0 -4 14 -14 30 -9 17 -21 30 -25
30 -5 0 1 -13 14 -30z"/>
<path d="M240 1335 c0 -8 2 -15 4 -15 2 0 6 7 10 15 3 8 1 15 -4 15 -6 0 -10
-7 -10 -15z"/>
<path d="M3260 1345 c0 -4 18 -58 41 -119 22 -61 43 -117 45 -125 3 -8 7 -12
9 -9 3 2 -16 60 -41 129 -43 117 -54 143 -54 124z"/>
<path d="M2120 1339 c0 -3 11 -20 25 -39 13 -18 32 -55 41 -82 9 -27 18 -47
20 -45 9 8 -36 112 -61 142 -14 17 -25 27 -25 24z"/>
<path d="M4364 1210 c0 -74 1 -105 3 -67 2 37 2 97 0 135 -2 37 -3 6 -3 -68z"/>
<path d="M5102 1285 c0 -16 2 -22 5 -12 2 9 2 23 0 30 -3 6 -5 -1 -5 -18z"/>
<path d="M1381 1284 c0 -11 3 -14 6 -6 3 7 2 16 -1 19 -3 4 -6 -2 -5 -13z"/>
<path d="M1848 1290 c12 -5 22 -17 23 -27 0 -11 3 -13 6 -5 7 17 -15 42 -36
41 -11 0 -9 -3 7 -9z"/>
<path d="M4836 1235 c9 -120 24 -207 44 -253 51 -114 147 -179 189 -128 7 8 3
27 -14 61 -14 27 -25 42 -25 34 0 -8 9 -29 20 -47 25 -40 19 -52 -24 -52 -27
0 -42 9 -79 49 -55 59 -83 139 -93 268 -4 48 -10 99 -15 113 -5 15 -6 -3 -3
-45z"/>
<path d="M2343 1255 c0 -22 2 -30 4 -17 2 12 2 30 0 40 -3 9 -5 -1 -4 -23z"/>
<path d="M4501 1254 c0 -11 3 -14 6 -6 3 7 2 16 -1 19 -3 4 -6 -2 -5 -13z"/>
<path d="M1372 1225 c0 -16 2 -22 5 -12 2 9 2 23 0 30 -3 6 -5 -1 -5 -18z"/>
<path d="M1800 1100 c-3 -74 -4 -137 -2 -139 9 -16 12 24 10 140 l-3 134 -5
-135z"/>
<path d="M1885 1194 c14 -114 74 -235 117 -234 7 1 1 7 -13 15 -32 17 -63 81
-90 183 -10 42 -17 59 -14 36z"/>
<path d="M1518 1213 c12 -2 32 -2 45 0 12 2 2 4 -23 4 -25 0 -35 -2 -22 -4z"/>
<path d="M3120 1175 c0 -27 -5 -45 -11 -45 -8 0 -8 -4 -1 -13 6 -6 12 -28 15
-47 2 -19 5 7 5 58 1 50 0 92 -3 92 -3 0 -5 -20 -5 -45z"/>
<path d="M2341 1080 c-1 -91 -6 -137 -14 -143 -8 -6 -8 -7 3 -4 12 3 16 28 20
123 3 65 2 128 -1 139 -3 11 -7 -41 -8 -115z"/>
<path d="M3242 1190 c0 -14 2 -19 5 -12 2 6 2 18 0 25 -3 6 -5 1 -5 -13z"/>
<path d="M5361 1194 c0 -11 3 -14 6 -6 3 7 2 16 -1 19 -3 4 -6 -2 -5 -13z"/>
<path d="M865 1148 c-4 -29 -2 -91 3 -138 l9 -85 1 138 c0 75 -1 137 -3 137
-2 0 -6 -24 -10 -52z"/>
<path d="M1574 1070 c0 -74 1 -105 3 -67 2 37 2 97 0 135 -2 37 -3 6 -3 -68z"/>
<path d="M1361 1174 c0 -11 3 -14 6 -6 3 7 2 16 -1 19 -3 4 -6 -2 -5 -13z"/>
<path d="M1271 1144 c0 -11 3 -14 6 -6 3 7 2 16 -1 19 -3 4 -6 -2 -5 -13z"/>
<path d="M4221 1144 c0 -11 3 -14 6 -6 3 7 2 16 -1 19 -3 4 -6 -2 -5 -13z"/>
<path d="M5371 1144 c0 -11 3 -14 6 -6 3 7 2 16 -1 19 -3 4 -6 -2 -5 -13z"/>
<path d="M1347 1131 c-4 -17 -3 -21 5 -13 5 5 8 16 6 23 -3 8 -7 3 -11 -10z"/>
<path d="M2211 1124 c0 -11 3 -14 6 -6 3 7 2 16 -1 19 -3 4 -6 -2 -5 -13z"/>
<path d="M2672 1120 c0 -14 2 -19 5 -12 2 6 2 18 0 25 -3 6 -5 1 -5 -13z"/>
<path d="M3234 1119 c-3 -6 -2 -15 3 -20 5 -5 9 -1 9 11 0 23 -2 24 -12 9z"/>
<path d="M5002 1100 c0 -19 2 -27 5 -17 2 9 2 25 0 35 -3 9 -5 1 -5 -18z"/>
<path d="M5885 1120 c3 -5 8 -10 11 -10 2 0 4 5 4 10 0 6 -5 10 -11 10 -5 0
-7 -4 -4 -10z"/>
<path d="M4227 1083 c8 -53 15 -56 12 -5 -2 23 -6 42 -10 42 -4 0 -5 -17 -2
-37z"/>
<path d="M1467 1103 c-4 -3 -7 -11 -7 -17 0 -6 5 -5 12 2 6 6 9 14 7 17 -3 3
-9 2 -12 -2z"/>
<path d="M2209 1062 c-3 -20 -2 -29 4 -23 5 5 7 19 5 32 -3 20 -5 19 -9 -9z"/>
<path d="M4504 1000 c0 -52 1 -74 3 -47 2 26 2 68 0 95 -2 26 -3 4 -3 -48z"/>
<path d="M1721 1064 c0 -11 3 -14 6 -6 3 7 2 16 -1 19 -3 4 -6 -2 -5 -13z"/>
<path d="M2681 1064 c0 -11 3 -14 6 -6 3 7 2 16 -1 19 -3 4 -6 -2 -5 -13z"/>
<path d="M1327 1063 c-4 -3 -7 -13 -7 -22 1 -13 3 -13 11 2 11 19 8 33 -4 20z"/>
<path d="M5011 1039 c0 -13 4 -33 9 -44 7 -14 8 -8 3 20 -7 46 -13 59 -12 24z"/>
<path d="M3370 1041 c0 -12 29 -81 35 -81 2 0 -3 20 -12 45 -14 42 -23 56 -23
36z"/>
<path d="M2692 1015 c6 -14 13 -24 14 -22 6 6 -9 47 -17 47 -5 0 -3 -11 3 -25z"/>
<path d="M3238 1013 c0 -16 -2 -32 -3 -38 -2 -5 -3 -22 -4 -36 0 -15 -15 -41
-31 -59 -27 -29 -35 -32 -68 -27 -25 5 -32 3 -22 -3 22 -14 53 -12 76 5 12 8
24 12 28 10 3 -3 4 -2 1 2 -3 3 2 17 10 29 14 22 32 144 21 144 -3 0 -7 -12
-8 -27z"/>
<path d="M1307 1013 c-4 -3 -7 -11 -7 -17 0 -6 5 -5 12 2 6 6 9 14 7 17 -3 3
-9 2 -12 -2z"/>
<path d="M1427 1013 c-4 -3 -7 -13 -7 -22 1 -13 3 -13 11 2 11 19 8 33 -4 20z"/>
<path d="M2190 985 c-14 -44 -53 -91 -91 -110 -37 -20 -132 -19 -171 1 -16 9
-28 11 -24 6 11 -18 74 -42 108 -42 43 1 106 30 140 66 27 29 63 102 55 111
-3 2 -10 -12 -17 -32z"/>
<path d="M4240 1011 c0 -6 4 -13 10 -16 6 -3 7 1 4 9 -7 18 -14 21 -14 7z"/>
<path d="M4361 1004 c0 -11 3 -14 6 -6 3 7 2 16 -1 19 -3 4 -6 -2 -5 -13z"/>
<path d="M3094 945 c-9 -14 -15 -27 -13 -30 3 -2 12 10 21 26 21 36 15 39 -8
4z"/>
<path d="M1030 950 c-11 -7 -5 -10 23 -10 23 0 36 4 32 10 -8 13 -35 13 -55 0z"/>
<path d="M1251 926 c-1 -24 1 -27 14 -16 16 14 21 25 6 15 -5 -3 -12 3 -14 12
-3 11 -5 6 -6 -11z"/>
<path d="M3400 935 c-11 -13 -10 -14 4 -9 9 3 16 10 16 15 0 13 -6 11 -20 -6z"/>
<path d="M4296 938 c3 -4 11 -5 19 -1 21 7 19 12 -4 10 -11 0 -18 -5 -15 -9z"/>
<path d="M4106 927 c3 -10 9 -15 12 -12 3 3 0 11 -7 18 -10 9 -11 8 -5 -6z"/>
<path d="M2284 909 c-14 -15 -16 -24 -8 -37 9 -14 31 -17 133 -20 66 -1 121 1
121 5 0 4 -54 7 -120 5 -103 -3 -121 -1 -126 13 -4 9 2 25 11 35 10 11 16 20
13 20 -3 0 -13 -9 -24 -21z"/>
<path d="M4520 916 c0 -2 8 -10 18 -17 15 -13 16 -12 3 4 -13 16 -21 21 -21
13z"/>
<path d="M1880 890 c-15 -29 -56 -43 -83 -29 -21 10 -21 10 -3 -5 25 -20 36
-20 64 0 21 14 48 54 38 54 -3 0 -10 -9 -16 -20z"/>
<path d="M5630 896 c0 -2 8 -10 18 -17 15 -13 16 -12 3 4 -13 16 -21 21 -21
13z"/>
<path d="M1500 874 c0 -27 28 -34 141 -34 65 0 120 3 122 8 3 4 -49 5 -116 4
-107 -3 -122 -2 -134 14 -7 10 -13 13 -13 8z"/>
<path d="M5358 873 c7 -3 16 -2 19 1 4 3 -2 6 -13 5 -11 0 -14 -3 -6 -6z"/>
<path d="M4170 860 c0 -5 5 -10 11 -10 5 0 7 5 4 10 -3 6 -8 10 -11 10 -2 0
-4 -4 -4 -10z"/>
<path d="M5428 863 c23 -2 61 -2 85 0 23 2 4 4 -43 4 -47 0 -66 -2 -42 -4z"/>
<path d="M2928 853 c7 -3 16 -2 19 1 4 3 -2 6 -13 5 -11 0 -14 -3 -6 -6z"/>
<path d="M4346 853 c-4 -5 -35 -11 -69 -14 l-62 -6 60 -1 c39 -1 67 4 79 13
11 8 15 15 10 15 -6 0 -14 -3 -18 -7z"/>
<path d="M3365 830 c-4 -6 6 -7 27 -3 44 8 48 13 10 13 -17 0 -34 -4 -37 -10z"/>
<path d="M3453 833 c9 -2 15 -8 13 -12 -6 -9 91 3 101 12 3 4 -25 6 -63 6 -38
-1 -61 -3 -51 -6z"/>
<path d="M4418 833 c23 -2 61 -2 85 0 23 2 4 4 -43 4 -47 0 -66 -2 -42 -4z"/>
<path d="M2150 805 c-7 -9 -10 -18 -6 -22 3 -3 6 -1 6 5 0 6 8 9 18 6 14 -5
15 -4 2 5 -11 8 12 11 90 10 58 0 97 -4 86 -8 -11 -4 7 -7 45 -8 53 0 58 1 29
8 -23 5 -3 7 62 6 53 -1 94 1 91 6 -7 11 -178 8 -190 -4 -8 -8 -13 -8 -17 0
-5 7 -45 11 -105 11 -76 0 -101 -3 -111 -15z"/>
<path d="M2742 813 c9 -2 15 -10 12 -17 -6 -16 18 -27 35 -16 16 9 -24 41 -49
39 -12 -1 -11 -2 2 -6z m38 -23 c0 -5 -2 -10 -4 -10 -3 0 -8 5 -11 10 -3 6 -1
10 4 10 6 0 11 -4 11 -10z"/>
<path d="M2850 805 c-10 -12 -9 -16 3 -21 9 -3 24 -4 34 -1 11 3 7 5 -11 6
-52 2 -15 20 49 24 l60 3 -61 2 c-44 1 -65 -2 -74 -13z"/>
<path d="M3557 800 c3 -11 9 -20 15 -20 5 0 4 9 -2 20 -6 11 -12 20 -14 20 -2
0 -2 -9 1 -20z"/>
<path d="M3708 813 c7 -3 16 -2 19 1 4 3 -2 6 -13 5 -11 0 -14 -3 -6 -6z"/>
<path d="M5640 669 c0 -97 4 -148 10 -144 6 4 10 65 10 151 0 89 -4 144 -10
144 -6 0 -10 -57 -10 -151z"/>
<path d="M5191 784 c0 -11 3 -14 6 -6 3 7 2 16 -1 19 -3 4 -6 -2 -5 -13z"/>
<path d="M5092 770 c0 -14 2 -19 5 -12 2 6 2 18 0 25 -3 6 -5 1 -5 -13z"/>
<path d="M3220 760 l-25 -8 27 -1 c15 -1 30 4 33 9 7 11 0 11 -35 0z"/>
<path d="M478 753 c23 -2 59 -2 80 0 20 2 1 4 -43 4 -44 0 -61 -2 -37 -4z"/>
<path d="M672 753 c37 -2 100 -2 140 0 40 1 10 3 -67 3 -77 0 -110 -1 -73 -3z"/>
<path d="M2143 685 c0 -27 2 -38 4 -22 2 15 2 37 0 50 -2 12 -4 0 -4 -28z"/>
<path d="M2440 719 c0 -5 5 -7 10 -4 6 3 10 8 10 11 0 2 -4 4 -10 4 -5 0 -10
-5 -10 -11z"/>
<path d="M3705 710 c3 -5 10 -10 16 -10 5 0 9 5 9 10 0 6 -7 10 -16 10 -8 0
-12 -4 -9 -10z"/>
<path d="M3741 704 c0 -11 3 -14 6 -6 3 7 2 16 -1 19 -3 4 -6 -2 -5 -13z"/>
<path d="M5201 704 c0 -11 3 -14 6 -6 3 7 2 16 -1 19 -3 4 -6 -2 -5 -13z"/>
<path d="M5882 680 c0 -14 2 -19 5 -12 2 6 2 18 0 25 -3 6 -5 1 -5 -13z"/>
<path d="M2162 660 c0 -14 2 -19 5 -12 2 6 2 18 0 25 -3 6 -5 1 -5 -13z"/>
<path d="M5093 640 c0 -25 2 -35 4 -22 2 12 2 32 0 45 -2 12 -4 2 -4 -23z"/>
<path d="M3090 660 c20 -13 33 -13 25 0 -3 6 -14 10 -23 10 -15 0 -15 -2 -2
-10z"/>
<path d="M2352 625 c0 -19 4 -37 8 -40 4 -3 8 13 8 35 0 22 -3 40 -8 40 -4 0
-8 -16 -8 -35z"/>
<path d="M446 642 c-2 -4 2 -16 10 -27 8 -10 14 -14 14 -8 0 7 -5 15 -10 18
-6 4 -8 11 -5 16 4 5 4 9 1 9 -3 0 -7 -3 -10 -8z"/>
<path d="M521 630 c14 -31 19 -36 19 -24 0 6 -7 19 -16 30 -14 18 -14 18 -3
-6z"/>
<path d="M2723 601 c2 -28 6 -35 26 -38 18 -2 21 0 13 9 -5 7 -12 24 -15 38
-3 21 -5 19 -7 -10 l-3 -35 -7 35 -8 35 1 -34z"/>
<path d="M3465 620 c3 -5 17 -10 31 -10 14 0 22 4 19 10 -3 6 -17 10 -31 10
-14 0 -22 -4 -19 -10z"/>
<path d="M779 603 c-11 -14 -13 -41 -8 -123 l5 -105 2 111 c1 70 6 114 14 122
7 7 10 12 7 12 -3 0 -12 -8 -20 -17z"/>
<path d="M2691 594 c0 -11 3 -14 6 -6 3 7 2 16 -1 19 -3 4 -6 -2 -5 -13z"/>
<path d="M2586 555 c6 -44 28 -90 46 -101 9 -6 9 -3 0 9 -8 9 -23 42 -33 74
-16 48 -18 51 -13 18z"/>
<path d="M543 545 c0 -22 2 -30 4 -17 2 12 2 30 0 40 -3 9 -5 -1 -4 -23z"/>
<path d="M2611 550 c0 -8 4 -24 9 -35 5 -13 9 -14 9 -5 0 8 -4 24 -9 35 -5 13
-9 14 -9 5z"/>
<path d="M2523 475 c0 -8 4 -12 9 -9 5 3 6 10 3 15 -9 13 -12 11 -12 -6z"/>
<path d="M5093 445 c0 -27 2 -38 4 -22 2 15 2 37 0 50 -2 12 -4 0 -4 -28z"/>
<path d="M2780 456 c0 -2 8 -10 18 -17 15 -13 16 -12 3 4 -13 16 -21 21 -21
13z"/>
<path d="M1 434 c0 -11 3 -14 6 -6 3 7 2 16 -1 19 -3 4 -6 -2 -5 -13z"/>
<path d="M543 335 c0 -38 2 -53 4 -32 2 20 2 52 0 70 -2 17 -4 1 -4 -38z"/>
<path d="M2498 373 c7 -3 16 -2 19 1 4 3 -2 6 -13 5 -11 0 -14 -3 -6 -6z"/>
<path d="M771 344 c0 -11 3 -14 6 -6 3 7 2 16 -1 19 -3 4 -6 -2 -5 -13z"/>
<path d="M5295 340 c3 -5 8 -10 11 -10 2 0 4 5 4 10 0 6 -5 10 -11 10 -5 0 -7
-4 -4 -10z"/>
<path d="M5632 305 c0 -16 2 -22 5 -12 2 9 2 23 0 30 -3 6 -5 -1 -5 -18z"/>
<path d="M2141 244 c0 -11 3 -14 6 -6 3 7 2 16 -1 19 -3 4 -6 -2 -5 -13z"/>
<path d="M3650 225 c0 -8 2 -15 4 -15 2 0 6 7 10 15 3 8 1 15 -4 15 -6 0 -10
-7 -10 -15z"/>
<path d="M5614 209 c-3 -6 -20 -19 -38 -30 -17 -10 -25 -19 -19 -19 13 0 83
59 71 60 -4 0 -10 -5 -14 -11z"/>
<path d="M485 189 c-16 -10 -25 -19 -19 -19 7 0 22 9 35 20 30 24 23 24 -16
-1z"/>
<path d="M2806 175 c-3 -8 -1 -15 3 -15 5 0 11 7 15 15 3 8 1 15 -3 15 -5 0
-11 -7 -15 -15z"/>
<path d="M368 173 c7 -3 16 -2 19 1 4 3 -2 6 -13 5 -11 0 -14 -3 -6 -6z"/>
<path d="M858 173 c12 -2 30 -2 40 0 9 3 -1 5 -23 4 -22 0 -30 -2 -17 -4z"/>
<path d="M805 160 c-3 -6 1 -7 9 -4 18 7 21 14 7 14 -6 0 -13 -4 -16 -10z"/>
<path d="M5458 163 c7 -3 16 -2 19 1 4 3 -2 6 -13 5 -11 0 -14 -3 -6 -6z"/>
<path d="M5818 153 c-18 -21 -31 -43 -25 -43 2 0 13 14 25 30 25 33 24 41 0
13z"/>
<path d="M5508 153 c6 -2 18 -2 25 0 6 3 1 5 -13 5 -14 0 -19 -2 -12 -5z"/>
<path d="M2520 75 c0 -8 7 -15 15 -15 8 0 15 4 15 9 0 5 -7 11 -15 15 -9 3
-15 0 -15 -9z"/>
<path d="M5292 66 c7 -8 15 -12 17 -11 5 6 -10 25 -20 25 -5 0 -4 -6 3 -14z"/>
<path d="M2910 66 c0 -2 8 -10 18 -17 15 -13 16 -12 3 4 -13 16 -21 21 -21 13z"/>
<path d="M2533 43 c9 -2 23 -2 30 0 6 3 -1 5 -18 5 -16 0 -22 -2 -12 -5z"/>
<path d="M5350 16 c0 -2 7 -7 16 -10 8 -3 12 -2 9 4 -6 10 -25 14 -25 6z"/>
<path d="M498 3 c6 -2 18 -2 25 0 6 3 1 5 -13 5 -14 0 -19 -2 -12 -5z"/>
</g>
</svg>
