<?xml version="1.0" encoding="UTF-8" standalone="no"?>
<svg
   version="1.0"
   width="600.000000pt"
   height="259.000000pt"
   viewBox="0 0 600.000000 259.000000"
   preserveAspectRatio="xMidYMid meet"
   id="svg262"
   sodipodi:docname="Glastonbury.svg"
   inkscape:version="1.4.4 (dcaf3e7d9e, 2026-05-05)"
   xmlns:inkscape="http://www.inkscape.org/namespaces/inkscape"
   xmlns:sodipodi="http://sodipodi.sourceforge.net/DTD/sodipodi-0.dtd"
   xmlns="http://www.w3.org/2000/svg"
   xmlns:svg="http://www.w3.org/2000/svg">
  <defs
     id="defs262" />
  <sodipodi:namedview
     id="namedview262"
     pagecolor="#ffffff"
     bordercolor="#000000"
     borderopacity="0.25"
     inkscape:showpageshadow="2"
     inkscape:pageopacity="0.0"
     inkscape:pagecheckerboard="0"
     inkscape:deskcolor="#d1d1d1"
     inkscape:document-units="pt"
     inkscape:zoom="1.97"
     inkscape:cx="185.53299"
     inkscape:cy="174.61929"
     inkscape:window-width="1210"
     inkscape:window-height="933"
     inkscape:window-x="0"
     inkscape:window-y="0"
     inkscape:window-maximized="1"
     inkscape:current-layer="g262" />
  <metadata
     id="metadata1">
Created by potrace 1.16, written by Peter Selinger 2001-2019
</metadata>
  <g
     transform="translate(0.000000,259.000000) scale(0.100000,-0.100000)"
     fill="#000000"
     stroke="none"
     id="g262">
    <path
       d="M496 1963 c-4 -5 -45 -8 -91 -8 -70 0 -89 -4 -113 -22 -21 -15 -33 -18 -45 -11 -10 5 -16 5 -15 1 4 -11 -67 -75 -74 -68 -3 3 -11 -2 -19 -12 -12 -14 -12 -15 0 -9 9 6 12 5 9 -5 -3 -8 -10 -13 -15 -12 -5 1 -9 -8 -9 -20 1 -12 -4 -22 -11 -22 -7 0 -18 -7 -25 -15 -11 -12 -11 -12 6 0 23 17 25 28 -28 -125 -19 -55 -38 -123 -42 -152 -3 -29 -9 -51 -13 -49 -4 3 -8 -179 -10 -402 -2 -299 1 -415 9 -437 7 -16 14 -43 16 -60 2 -16 5 -41 8 -55 3 -14 8 -48 11 -75 5 -53 42 -158 69 -197 19 -26 21 -42 4 -32 -7 5 -8 3 -4 -5 5 -7 11 -10 14 -7 7 7 42 -24 42 -37 0 -5 -8 -3 -17 4 -10 7 -7 1 6 -13 13 -15 27 -25 31 -23 11 7 49 -24 46 -38 -1 -6 -1 -9 1 -6 2 4 27 -2 55 -13 37 -14 72 -18 134 -17 101 2 164 22 243 77 73 52 143 83 200 91 54 7 63 25 21 40 -17 6 -29 15 -26 20 4 5 1 13 -5 17 -8 5 -9 3 -4 -6 6 -9 4 -12 -6 -8 -8 3 -32 13 -54 22 l-40 16 0 154 0 153 33 24 c89 65 132 102 126 110 -3 5 -107 9 -233 9 -242 0 -290 -7 -336 -50 -12 -11 -23 -18 -26 -16 -2 2 -5 -18 -7 -45 -2 -39 2 -56 20 -82 13 -17 23 -36 23 -42 0 -19 35 -16 69 4 32 20 52 48 42 58 -2 3 -7 -4 -10 -14 -7 -22 -56 -53 -83 -53 -10 0 1 9 25 20 51 23 66 53 45 93 -17 34 -12 43 29 49 62 9 94 -52 86 -165 -1 -30 -1 -54 2 -52 6 4 2 -135 -6 -183 -7 -45 -58 -100 -99 -108 -41 -7 -110 7 -110 23 0 7 -7 18 -15 25 -12 11 -12 11 -1 -5 8 -10 9 -17 3 -17 -11 0 -42 39 -42 53 0 4 5 5 12 1 7 -4 8 -3 4 5 -4 6 -11 9 -15 6 -13 -7 -38 98 -51 207 -13 113 -19 682 -9 913 9 204 46 414 71 399 4 -3 5 1 2 9 -3 8 8 26 27 42 29 24 39 27 83 22 58 -5 92 -36 100 -90 3 -17 15 -88 28 -157 13 -69 22 -136 21 -150 0 -14 1 -19 4 -12 3 9 15 3 39 -17 63 -55 128 -50 170 15 15 21 15 28 3 52 -22 44 -22 45 -9 37 9 -6 9 -3 1 14 -14 25 -23 28 -14 5 5 -14 3 -15 -17 -4 -12 6 -33 10 -46 7 -13 -2 -24 -3 -24 -2 0 10 52 249 61 280 6 22 20 57 30 77 26 51 24 58 -15 55 -19 -1 -32 -5 -29 -9 5 -9 -12 -11 -72 -9 -58 2 -145 23 -139 33 6 10 0 11 -10 1z"
       id="path6" />
    <path
       d="M5754 1962 c-69 -3 -72 -4 -77 -29 -3 -15 -6 -218 -6 -451 -2 -344 -5 -430 -16 -452 -17 -32 -78 -60 -133 -60 -41 0 -103 29 -110 51 -3 8 6 4 20 -8 13 -13 28 -23 34 -23 5 0 1 5 -9 11 -9 6 -14 15 -11 21 4 6 2 8 -4 4 -6 -3 -13 -2 -17 4 -4 6 -11 8 -16 4 -14 -8 -39 58 -56 150 -18 95 -12 293 11 391 21 88 100 271 115 267 7 -1 10 2 6 8 -4 6 3 27 14 46 12 20 18 40 15 46 -4 7 -2 8 4 4 7 -4 12 -2 12 3 0 8 -70 11 -215 11 l-215 0 -40 -82 c-22 -46 -40 -86 -40 -90 0 -5 12 -8 28 -8 26 -1 26 -1 8 -15 -11 -8 -15 -15 -9 -15 5 0 18 9 28 20 10 11 21 17 26 15 10 -7 24 15 24 39 0 26 49 41 158 50 63 5 87 4 82 -4 -3 -5 -11 -7 -17 -4 -6 4 -8 3 -5 -3 8 -13 -22 -55 -34 -48 -5 3 -6 0 -3 -8 3 -8 -3 -20 -12 -28 -15 -12 -17 -12 -9 0 5 10 4 12 -4 7 -6 -4 -9 -11 -6 -16 9 -14 -15 -51 -27 -44 -6 4 -8 3 -5 -3 4 -6 -9 -44 -28 -85 -82 -179 -117 -399 -81 -521 9 -32 14 -63 10 -69 -4 -6 -3 -8 3 -5 6 4 18 -4 27 -18 19 -29 20 -39 4 -29 -7 4 3 -9 21 -29 34 -36 48 -47 36 -27 -10 17 12 11 26 -7 12 -14 12 -16 0 -8 -9 5 -12 4 -7 -3 4 -6 14 -8 23 -5 11 4 14 3 9 -5 -5 -8 -1 -10 10 -5 10 3 15 2 12 -3 -7 -10 -6 -10 137 -20 93 -6 106 -5 163 19 l62 25 0 -245 c0 -268 -12 -419 -38 -473 -19 -39 -69 -69 -117 -69 -33 -1 -128 40 -140 60 -6 8 -4 10 5 4 9 -5 11 -4 6 4 -4 6 -11 9 -15 6 -13 -8 -54 42 -46 56 5 7 4 10 -2 6 -28 -18 -114 268 -138 458 -10 79 -14 87 -38 79 -12 -3 -23 -8 -25 -9 -2 -2 -5 -121 -7 -266 -3 -197 -1 -267 8 -278 10 -12 9 -14 -5 -8 -16 6 -18 0 -18 -43 0 -45 -2 -50 -22 -49 -22 0 -22 1 -3 10 l20 9 -20 -3 c-11 -1 -20 -7 -20 -14 0 -6 -3 -14 -7 -18 -4 -4 -4 -14 -1 -23 4 -9 2 -13 -5 -8 -14 9 -24 -26 -16 -58 9 -37 41 -56 95 -56 39 0 51 5 68 26 12 16 21 42 21 63 0 49 14 69 37 55 10 -7 17 -19 16 -29 0 -9 1 -14 4 -11 4 3 24 -10 46 -30 63 -57 109 -74 208 -74 96 0 154 16 201 55 16 14 34 23 38 20 5 -3 12 0 16 6 4 8 3 9 -4 5 -19 -12 -14 3 17 47 52 77 62 124 71 352 5 116 11 467 13 782 3 451 6 575 16 587 16 19 35 21 25 4 -4 -7 2 -5 14 6 12 10 20 22 19 27 -1 5 11 19 27 32 18 15 26 28 22 36 -8 12 -26 12 -242 3z m-638 -147 c-1 -9 -6 -16 -12 -16 -5 0 -15 -6 -23 -12 -12 -10 -13 -9 -6 3 22 40 45 54 41 25z m99 -845 c10 -11 16 -20 13 -20 -3 0 -13 9 -23 20 -10 11 -16 20 -13 20 3 0 13 -9 23 -20z m16 -587 c13 -16 12 -17 -3 -4 -17 13 -22 21 -14 21 2 0 10 -8 17 -17z"
       id="path8" />
    <path
       d="m 833,1839 c -6,-6 -9,-18 -6,-27 5,-11 3,-13 -8,-7 -8,4 1,-8 19,-27 l 32,-34 -6,-267 c -4,-159 -4,-267 2,-267 5,0 10,114 11,268 l 2,267 -27,29 -27,29 32,-23 32,-23 v -412 l 1,-412 -30,-28 c -17,-16 -30,-32 -30,-37 0,-4 91,-9 203,-11 l 202,-3 -204,1 c -222,0 -235,4 -185,50 15,14 23,25 17,25 -5,0 -20,-11 -33,-25 -19,-21 -22,-29 -14,-43 10,-15 34,-17 219,-17 241,0 222,-11 199,119 -19,109 -18,146 2,146 12,0 14,-3 6,-12 -6,-8 -7,-35 -2,-73 l 8,-60 -1,62 c 0,40 5,68 14,79 8,10 9,15 4,12 -7,-4 -11,6 -11,27 0,21 4,31 11,28 5,-4 1,3 -9,15 -119.082,85.1473 -130.0887,-121.6404 -151,-195 -7,-24 -9,-41 -4,-38 11,7 29,72 29,105 0,120.3114 94.0606,166.4478 114,131 3,-4 -5,-6 -17,-4 -44,9 -68,-25 -84,-118 -18,-112 -35,-133 -103,-137 l -53,-3 5,410 5,411 24,19 c 13,11 29,20 34,20 6,0 -2,-9 -17,-20 -24,-18 -28,-27 -26,-67 l 1,-47 4,44 c 3,29 11,50 25,61 12,9 23,27 25,38 3,21 -1,22 -90,24 -50,1 -105,1 -122,1 -28,-1 -29,-1 -11,13 11,8 15,14 10,14 -6,0 -15,-5 -21,-11 z"
       id="path12"
       sodipodi:nodetypes="scccccscccccccccsccccsccscsccccccsccccsccccccccscccccccccss" />
    <path
       d="M3351 1823 c-12 -16 -20 -21 -17 -12 4 14 -12 16 -130 18 -116 2 -135 0 -140 -14 -6 -13 -8 -14 -15 -3 -5 7 -9 8 -9 2 0 -10 26 -36 65 -64 18 -14 19 -14 6 3 -7 9 -9 17 -4 17 31 0 33 -26 33 -420 0 -388 0 -395 -21 -408 -24 -15 -23 -59 2 -75 24 -15 64 -1 84 30 17 25 18 55 18 316 0 158 1 286 3 284 3 -2 20 -49 38 -103 52 -152 154 -433 161 -445 9 -13 -25 -50 -38 -42 -5 3 -7 1 -3 -5 3 -6 2 -13 -4 -17 -5 -3 -10 -13 -10 -21 0 -13 17 -14 105 -11 58 2 108 7 112 10 3 4 0 15 -8 24 -11 15 -11 16 1 6 10 -10 19 -9 42 5 l28 16 0 422 0 422 -32 20 c-18 11 -36 18 -42 15 -5 -3 7 -13 28 -21 l36 -14 0 -419 0 -418 -22 -15 c-20 -15 -24 -14 -45 6 -21 19 -23 31 -25 127 l-2 106 -3 -104 c-3 -86 -1 -107 13 -122 9 -11 12 -19 7 -19 -30 0 -33 35 -40 434 l-6 407 34 35 c26 27 31 37 20 43 -21 13 -188 13 -196 0 -4 -6 8 -24 29 -41 l36 -29 -1 -242 0 -242 -24 65 c-69 190 -145 408 -145 418 0 6 15 20 33 32 l32 22 -27 -24 c-16 -13 -28 -28 -28 -34 0 -15 50 -137 61 -149 5 -5 -1 17 -15 50 -35 90 -41 109 -26 100 8 -5 11 -4 7 2 -4 6 5 21 18 33 l25 24 35 -34 c19 -18 37 -31 40 -28 3 3 -10 17 -30 32 -39 30 -42 38 -19 60 8 9 11 16 7 16 -5 0 -19 -12 -32 -27z m-261 -38 c7 -8 8 -15 2 -15 -5 0 -15 7 -22 15 -7 8 -8 15 -2 15 5 0 15 -7 22 -15z"
       id="path28" />
    <path
       d="M4304 1842 c8 -13 -39 -17 -150 -13 -40 2 -64 -2 -71 -11 -17 -21 -47 -127 -39 -135 4 -4 20 7 34 25 18 22 41 36 67 42 74 17 77 15 50 -32 -59 -105 -101 -325 -104 -538 -2 -161 12 -221 66 -281 22 -24 29 -37 18 -33 -10 4 -16 3 -13 -2 4 -5 42 -10 85 -12 67 -2 83 0 105 17 l26 21 5 -21 c5 -18 12 -20 84 -18 61 2 84 -1 105 -15 23 -15 41 -16 140 -11 123 7 153 19 127 51 -8 10 -27 25 -42 34 l-28 18 1 230 c0 138 -3 233 -9 236 -6 4 -9 -81 -8 -232 l2 -238 43 -27 c23 -14 42 -32 42 -38 0 -8 -7 -6 -17 5 -10 10 -32 26 -49 36 l-32 18 -1 255 0 254 38 -36 c63 -59 71 -78 86 -215 18 -161 36 -216 89 -272 33 -34 50 -44 74 -44 32 0 42 13 21 25 -22 14 -40 89 -74 305 -16 100 -32 147 -60 180 -11 13 -6 22 31 57 53 51 59 43 8 -10 -33 -34 -35 -39 -22 -55 28 -31 40 -64 54 -141 l14 -76 -6 70 c-4 51 -12 83 -32 118 l-28 49 32 33 c19 21 31 44 32 62 0 15 4 63 8 105 6 71 4 82 -20 132 -15 30 -43 67 -64 83 -36 27 -40 28 -197 34 -88 3 -151 6 -141 7 11 1 17 5 13 8 -3 4 -13 4 -21 1 -23 -9 -9 -40 30 -65 l34 -22 0 -420 0 -419 -35 -27 c-19 -14 -35 -30 -35 -35 0 -5 60 -10 133 -11 l132 -2 -129 -3 c-123 -3 -129 -3 -150 19 -11 13 -31 30 -44 38 l-22 15 -7 428 c-4 299 -3 427 4 427 6 0 9 -10 6 -22 -3 -13 -3 -20 0 -17 4 3 8 15 10 27 2 11 10 29 19 39 25 30 29 41 17 49 -8 4 -9 3 -5 -4 5 -8 -17 -12 -71 -14 l-78 -3 -5 -425 c-5 -453 -7 -464 -54 -476 -61 -15 -89 21 -107 136 -15 100 -6 419 16 520 20 93 54 202 68 215 7 7 8 4 4 -7 -4 -10 -3 -18 2 -18 5 0 11 9 14 20 3 13 1 18 -6 13 -6 -4 -8 2 -5 15 4 12 1 25 -4 29 -7 3 -8 1 -4 -5z m561 -116 c44 -45 48 -233 4 -268 -26 -22 -40 -22 -65 -2 -10 8 -14 13 -8 10 16 -8 54 23 54 44 0 43 -57 65 -90 35 -16 -15 -17 -9 -18 80 0 53 4 97 10 101 6 4 8 -24 6 -80 -3 -80 2 -101 17 -76 19 30 85 -18 85 -61 0 -10 4 -20 9 -24 27 -16 24 194 -3 230 -8 11 -34 20 -72 25 l-59 7 53 2 c43 1 57 -3 77 -23z m-9 -9 c7 -7 24 -118 24 -156 l0 -35 -34 33 c-24 24 -41 32 -55 28 -20 -5 -21 -1 -21 70 l0 76 41 -6 c22 -3 43 -7 45 -10z"
       id="path35" />
    <path
       d="M2176 1833 c-17 -17 -112 -26 -147 -14 -43 15 -122 4 -161 -23 -54 -36 -77 -97 -77 -201 -1 -115 16 -154 111 -251 39 -41 68 -74 64 -74 -4 0 10 -20 32 -45 64 -73 81 -187 36 -248 -25 -35 -39 -34 -79 6 -35 35 -65 115 -87 233 -11 61 -13 64 -37 61 -17 -2 -27 -11 -28 -23 -3 -18 -2 -18 6 1 6 13 10 -32 10 -134 1 -151 1 -154 -24 -177 -20 -18 -23 -28 -16 -46 7 -19 16 -23 47 -23 35 0 40 3 49 32 l11 32 30 -35 c30 -32 35 -34 96 -34 81 0 121 24 157 95 22 41 26 62 25 130 -1 115 -33 181 -148 305 l-61 65 60 -58 c33 -31 64 -57 69 -57 5 0 -35 42 -87 93 -94 90 -96 93 -102 148 -8 64 0 112 20 129 23 19 58 7 82 -29 27 -40 31 -32 6 10 -19 32 -49 45 -82 34 -29 -9 -45 -70 -36 -140 5 -46 14 -65 43 -97 20 -23 30 -39 22 -36 -34 11 -70 81 -76 148 -7 86 15 133 64 138 18 2 40 -2 48 -9 27 -23 51 -83 64 -159 7 -45 18 -80 28 -87 9 -7 11 -13 5 -13 -18 0 -32 24 -39 68 -4 23 -10 44 -14 47 -16 10 11 -91 29 -109 17 -17 48 -15 37 3 -4 7 6 154 19 273 7 62 26 74 36 23 4 -16 15 -65 25 -108 15 -68 16 -80 3 -88 -23 -15 -33 -10 -18 9 11 12 13 28 8 52 l-6 35 -2 -41 c0 -22 -4 -44 -8 -48 -12 -11 -12 -89 0 -103 5 -7 22 -13 38 -13 35 0 94 52 104 90 4 18 0 15 -15 -12 -11 -20 -30 -44 -42 -52 -25 -18 -74 -21 -83 -7 -3 6 9 8 29 4 28 -4 39 -1 60 20 24 25 26 32 26 125 0 54 3 101 6 105 4 3 19 -4 35 -15 l29 -22 0 -235 c0 -130 -3 -306 -7 -392 l-6 -155 -33 -22 c-19 -12 -34 -27 -34 -32 0 -6 46 -10 115 -10 106 0 115 1 126 21 7 15 8 19 0 15 -6 -4 -22 1 -36 11 l-25 18 1 390 1 390 30 24 c16 13 31 22 33 20 3 -3 17 -176 19 -230 0 -9 5 -16 11 -17 5 -1 24 -4 41 -8 21 -4 36 -1 46 10 9 8 19 12 22 8 4 -3 3 5 -2 18 -5 14 -19 29 -30 35 -12 5 -22 15 -22 20 0 15 38 189 46 209 7 19 13 19 -285 16 -144 -1 -201 2 -197 9 8 12 3 15 -8 4z m-160 -595 c62 -74 84 -181 50 -245 -9 -18 -21 -33 -27 -33 -6 0 -1 12 10 26 15 20 21 41 21 81 0 67 -20 117 -68 166 -20 20 -31 37 -25 37 6 0 24 -15 39 -32z"
       id="path39" />
    <path
       d="M3587 1815 c2 -6 19 -19 38 -29 l35 -19 2 -421 3 -421 -44 -42 c-44 -42 -44 -42 -19 -48 14 -4 90 -5 170 -3 139 3 146 4 187 31 49 32 101 109 100 146 -1 28 -4 23 -13 -22 -9 -38 -73 -106 -121 -128 -33 -16 -64 -18 -185 -17 l-145 2 155 6 c164 6 192 13 236 62 52 57 59 83 59 243 0 173 -9 208 -66 270 l-39 43 27 17 28 18 -18 -20 c-14 -16 -15 -23 -6 -29 7 -4 10 -3 6 3 -4 5 7 22 23 38 37 36 69 175 40 175 -5 0 -7 -6 -4 -14 7 -19 -13 -125 -27 -143 -19 -22 -20 -9 -4 30 46 111 -18 264 -118 282 -55 10 -305 1 -300 -10z m271 -66 c36 -12 52 -49 52 -118 0 -56 -24 -98 -77 -137 -21 -15 -46 -37 -55 -48 -17 -20 -18 -13 -18 147 l0 167 34 0 c18 0 47 -5 64 -11z m38 -340 c17 -19 19 -41 22 -211 4 -249 0 -260 -106 -274 l-52 -7 0 222 c0 202 1 221 16 207 18 -19 20 -19 45 -6 23 13 26 58 3 67 -13 5 -13 7 -2 14 23 15 54 10 74 -12z"
       id="path42" />
    <path
       d="m 1314,1809 c -3,-5 3,-6 13,-2 12,5 7,-6 -14,-30 -44,-50 -45,-102 -5,-139 22,-21 35,-26 70,-23 48.8736,9.1573 50.3895,-84.6141 51,13 0,32 -1,34 -9,15 -11.5254,-29.9659 -40.1929,-29.1929 -22,-11 30,30 2,85 -39,75 -19,-5 -19,-4 -6,16 14,21 82,45 94,34 8,-9 -25,-348 -47,-477 -26,-150 -51,-237 -97,-330 -20,-41 -39,-79 -41,-84 -3,-4 6,-5 18,-1 17,5 21,4 15,-6 -17.5747,-24.60455 148.9862,211.4849 177,297 l 23,74 h 47 47 l 3,-145 3,-145 -37,-27 c -21,-16 -38,-35 -38,-43 0,-13 -1,-13 -10,0 -5,8 -10,10 -10,4 0,-6 8,-18 17,-25 11,-10 14,-10 9,-1 -5,9 16,12 96,12 137,0 146,3 145,46 -1,18 -4,29 -8,23 -11,-19 -29,0 -30,34 -2,32 -2,32 -6,3 -3,-20 2,-36 19,-54 l 23,-25 -31,22 -30,22 -2,411 c -2,408 0,438 31,438 5,0 3,-8 -5,-17 -10,-12 -12,-26 -7,-43 7,-24 7,-23 8,7 1,19 8,36 19,42 13,8 13,10 3,11 -12,0 -12,3 -3,12 7,7 12,16 12,21 0,11 -439,7 -446,-4 z m 276,-265 v -204 l -39,3 c -36,2 -39,4 -35,27 2,14 11,93 19,175 21,207 23,215 40,208 13,-4 15,-39 15,-209 z m 30,-549 c 0,-8 -2,-15 -4,-15 -2,0 -6,7 -10,15 -3,8 -1,15 4,15 6,0 10,-7 10,-15 z"
       id="path50"
       sodipodi:nodetypes="cccccccscccccccccccccccscscsscccccccccscccccsscscccccssscss" />
    <path
       d="M2820 1806 c-14 -8 -28 -12 -31 -10 -10 6 -34 -26 -34 -45 0 -9 -6 -16 -13 -16 -13 0 -32 -23 -31 -40 0 -5 7 1 15 15 10 16 13 18 8 5 -31 -86 -45 -174 -50 -315 -7 -163 5 -308 29 -375 32 -89 31 -83 13 -61 -20 25 -21 8 -1 -18 10 -13 15 -15 15 -6 0 7 17 -3 37 -24 43 -43 65 -50 138 -44 37 3 52 1 48 -6 -4 -6 -2 -7 3 -3 5 5 9 14 9 20 0 5 6 12 14 15 9 3 11 0 6 -9 -5 -8 4 -3 18 10 27 25 35 37 17 26 -16 -10 -12 3 10 33 40 54 51 130 53 360 2 233 -6 296 -49 387 -17 37 -20 51 -11 58 8 6 7 7 -4 4 -16 -5 -64 34 -55 44 13 12 -131 8 -154 -5z m-30 -20 c0 -2 -8 -10 -17 -17 -16 -13 -17 -12 -4 4 13 16 21 21 21 13z m151 -81 c25 -42 39 -141 39 -272 0 -146 -20 -199 -71 -186 -19 5 -19 6 1 20 16 11 20 22 15 40 -4 19 -3 23 7 17 10 -6 9 -3 -1 9 -15 18 -26 23 -16 7 4 -6 -5 -7 -23 -4 -20 4 -34 0 -46 -12 -17 -16 -18 -35 -4 -109 1 -6 8 -11 17 -12 9 0 37 -3 63 -5 25 -2 45 -1 42 3 -2 4 3 12 11 19 8 7 15 9 15 4 -3 -78 -23 -202 -39 -238 -18 -42 -23 -46 -54 -46 -47 0 -64 24 -84 111 -13 57 -16 121 -15 279 3 325 24 415 95 408 22 -2 36 -12 48 -33z"
       id="path53" />
  </g>
</svg>
