<?xml version="1.0" standalone="no"?>
<!DOCTYPE svg PUBLIC "-//W3C//DTD SVG 20010904//EN"
 "http://www.w3.org/TR/2001/REC-SVG-20010904/DTD/svg10.dtd">
<svg version="1.0" xmlns="http://www.w3.org/2000/svg"
 width="600.000000pt" height="209.000000pt" viewBox="0 0 600.000000 209.000000"
 preserveAspectRatio="xMidYMid meet">
<metadata>
Created by potrace 1.16, written by Peter Selinger 2001-2019
</metadata>
<g transform="translate(0.000000,209.000000) scale(0.100000,-0.100000)"
fill="#000000" stroke="none">
<path d="M5363 2073 c20 -2 54 -2 75 0 20 2 3 4 -38 4 -41 0 -58 -2 -37 -4z"/>
<path d="M5692 2031 c-3 -7 -2 -193 2 -412 7 -412 4 -461 -32 -503 -25 -28
-92 -56 -135 -56 -121 0 -192 118 -204 340 -10 193 30 374 123 549 24 46 44
85 44 87 0 2 -88 4 -195 4 -177 0 -196 -2 -202 -17 -3 -10 -16 -43 -30 -73
l-24 -55 39 38 c50 49 111 67 224 67 94 0 108 -9 68 -45 -33 -30 -120 -172
-152 -248 -49 -120 -72 -229 -72 -353 -1 -108 0 -113 34 -180 58 -113 141
-157 300 -157 66 0 96 5 137 22 28 13 56 20 61 17 18 -11 20 -83 13 -376 -7
-287 -8 -297 -31 -345 -31 -62 -78 -95 -136 -95 -118 0 -212 88 -273 255 -30
82 -74 269 -86 363 -14 109 -25 45 -26 -155 -1 -115 -4 -257 -8 -318 -6 -104
-7 -110 -31 -122 -49 -24 -66 -76 -34 -107 18 -19 94 -22 112 -4 7 7 12 24 12
39 0 43 20 88 43 95 16 5 30 -4 66 -46 65 -76 122 -100 236 -100 109 0 152 17
211 82 55 59 81 134 94 265 5 59 11 413 13 787 l2 678 55 50 55 49 -134 -3
c-102 -2 -135 -6 -139 -17z"/>
<path d="M329 2031 c-133 -28 -224 -163 -280 -417 -19 -88 -22 -138 -26 -441
-3 -220 -1 -384 6 -460 28 -288 120 -472 268 -540 51 -23 64 -25 144 -20 94 6
147 24 221 75 57 39 146 84 183 92 29 7 28 8 -37 38 -38 17 -68 37 -68 44 -1
7 -1 81 0 163 l0 150 28 23 c15 13 48 38 74 56 l47 32 -227 -1 c-237 -2 -265
-6 -309 -47 -42 -39 -20 -128 31 -128 42 0 59 39 34 80 -19 29 17 62 68 62 75
0 104 -72 104 -257 0 -57 -5 -127 -11 -155 -36 -167 -235 -189 -306 -34 -39
86 -52 186 -64 508 -13 330 -1 759 26 893 28 145 71 203 155 211 94 9 123 -29
156 -201 40 -214 43 -223 81 -241 67 -32 135 -9 136 47 0 41 -20 57 -69 57
-38 0 -44 3 -44 21 0 45 51 273 74 329 l24 58 -36 -15 c-31 -13 -46 -13 -131
1 -126 21 -208 27 -252 17z"/>
<path d="M5625 1967 l-40 -52 -6 -135 c-4 -74 -7 -260 -8 -412 -1 -248 1 -278
15 -278 31 0 73 40 84 80 10 39 10 851 0 849 -3 0 -23 -24 -45 -52z"/>
<path d="M755 2000 c-24 -38 -85 -290 -85 -348 0 -13 10 -17 45 -17 41 -1 46
2 51 25 3 14 19 80 36 147 l30 122 -28 40 c-30 42 -39 48 -49 31z"/>
<path d="M5265 1979 c-108 -6 -153 -22 -180 -63 -9 -13 -24 -26 -34 -29 -19
-5 -58 -54 -50 -62 3 -2 25 9 50 26 52 33 176 64 225 55 27 -6 34 -1 63 35 18
22 31 41 30 42 -2 1 -49 0 -104 -4z"/>
<path d="M340 1927 c-56 -27 -93 -154 -110 -377 -21 -280 -7 -922 25 -1085 19
-100 51 -163 95 -186 37 -20 115 -26 125 -9 3 6 0 10 -8 10 -46 0 -102 87
-132 205 -35 140 -29 1093 8 1246 19 76 48 131 81 149 24 14 29 13 56 -2 l30
-17 -15 29 c-8 16 -24 34 -34 40 -27 14 -90 12 -121 -3z"/>
<path d="M958 1923 c6 -2 18 -2 25 0 6 3 1 5 -13 5 -14 0 -19 -2 -12 -5z"/>
<path d="M5015 1900 c-9 -16 -13 -30 -11 -30 3 0 12 14 21 30 9 17 13 30 11
30 -3 0 -12 -13 -21 -30z"/>
<path d="M860 1902 c0 -2 10 -12 23 -22 l22 -18 -2 -417 c-2 -376 -4 -420 -19
-436 -17 -18 -12 -19 161 -19 l177 0 -6 38 c-3 20 -8 71 -12 113 -6 72 -5 78
15 88 29 16 27 41 -3 41 -33 0 -44 -17 -51 -80 -9 -75 -24 -121 -47 -146 -23
-26 -112 -41 -134 -23 -12 9 -14 81 -14 424 l0 414 25 20 26 19 -81 4 c-44 2
-80 1 -80 0z"/>
<path d="M1402 1899 c-83 -11 -123 -60 -102 -125 9 -28 17 -34 39 -34 29 0 51
16 51 38 0 9 -10 12 -32 10 -27 -2 -34 1 -36 19 -4 29 28 60 79 73 67 18 70
10 58 -155 -21 -298 -63 -515 -125 -645 l-35 -75 31 30 c39 37 102 166 129
264 12 41 26 78 33 83 7 4 36 7 63 6 l50 -3 3 -169 2 -169 -27 -29 -27 -28 89
0 89 0 -27 28 -27 28 0 409 c0 389 1 410 19 429 l19 21 -131 1 c-73 0 -156 -3
-185 -7z m192 -42 c13 -18 15 -59 13 -222 l-2 -200 -53 -3 c-38 -2 -54 1 -58
11 -5 14 32 399 41 425 7 20 43 14 59 -11z"/>
<path d="M1569 1824 c14 -31 16 -33 19 -15 5 30 -4 51 -21 51 -12 0 -12 -6 2
-36z"/>
<path d="M1546 1810 c-6 -27 -36 -314 -36 -342 0 -12 8 -18 24 -18 29 0 31 5
47 127 13 101 9 169 -14 223 -15 34 -15 34 -21 10z"/>
<path d="M1919 1901 c-82 -27 -113 -82 -113 -206 0 -118 24 -163 144 -267 72
-63 102 -97 123 -139 51 -101 35 -211 -33 -239 -80 -33 -149 53 -185 230 l-13
65 -1 -142 c-1 -131 -3 -144 -21 -155 -11 -7 -20 -21 -20 -31 0 -14 6 -18 27
-15 22 2 29 9 33 32 7 42 24 42 62 1 33 -37 33 -37 102 -33 63 4 71 6 101 40
22 23 37 53 44 87 32 148 -5 230 -175 396 -51 50 -98 103 -103 118 -16 42 -13
144 5 182 20 44 63 62 104 45 43 -18 68 -57 89 -141 l18 -72 7 104 c4 57 9
111 11 119 4 12 -6 15 -48 16 -28 0 -70 4 -92 7 -22 3 -52 3 -66 -2z"/>
<path d="M2369 1903 l-177 -3 20 -67 c11 -37 21 -87 22 -112 1 -41 -2 -46 -21
-49 -36 -5 -31 -42 5 -42 52 0 66 28 59 124 -5 65 -3 88 9 105 20 27 32 26 70
-7 l32 -27 0 -393 0 -393 -31 -20 -32 -19 85 1 c80 0 84 1 63 16 l-23 15 0
387 c0 364 1 388 19 418 11 17 29 34 41 38 39 12 50 -10 51 -104 1 -121 7
-136 49 -136 18 0 35 6 38 13 2 7 -6 12 -21 12 -37 0 -40 34 -13 141 13 52 22
96 20 98 -6 6 -86 8 -265 4z"/>
<path d="M2843 1899 c-101 -29 -151 -211 -138 -509 7 -184 18 -250 52 -308 33
-58 75 -82 140 -82 47 0 58 4 93 36 31 29 45 52 63 108 20 65 22 90 21 281 -1
182 -4 221 -22 289 -28 101 -62 159 -106 180 -38 18 -56 19 -103 5z m97 -59
c15 -16 33 -51 40 -77 18 -70 25 -309 11 -361 -15 -53 -51 -80 -89 -66 -33 12
-40 40 -13 49 23 7 25 13 12 34 -5 8 -16 11 -30 6 -16 -5 -21 -14 -21 -39 0
-37 12 -51 53 -61 22 -6 36 -2 59 15 38 28 48 16 43 -49 -3 -26 -7 -74 -10
-109 -8 -98 -44 -152 -102 -152 -70 0 -105 85 -117 285 -9 141 9 433 29 483
31 76 87 94 135 42z"/>
<path d="M2853 1842 c-21 -13 -43 -79 -49 -145 l-5 -62 18 48 c33 91 100 100
142 20 24 -46 26 -36 6 42 -23 86 -68 125 -112 97z"/>
<path d="M2895 1360 c3 -5 8 -10 11 -10 2 0 4 5 4 10 0 6 -5 10 -11 10 -5 0
-7 -4 -4 -10z"/>
<path d="M2970 1326 c-11 -14 -25 -17 -67 -14 -50 4 -53 3 -53 -18 0 -60 56
-108 99 -85 21 12 44 78 39 113 -3 20 -4 20 -18 4z"/>
<path d="M3122 1887 l28 -22 6 -386 c4 -212 4 -397 1 -411 -4 -14 -16 -28 -27
-31 -26 -7 -26 -23 0 -37 25 -14 56 1 66 32 5 13 7 156 5 320 -3 371 3 381 84
148 26 -74 74 -206 106 -293 62 -165 63 -182 21 -206 -12 -8 4 -10 62 -11 l79
0 -20 23 c-19 20 -21 39 -27 192 -3 94 -7 280 -8 414 l-2 244 28 23 27 24 -78
0 -77 0 32 -27 33 -28 -3 -255 c-3 -215 -5 -255 -18 -255 -9 0 -44 81 -107
250 -51 138 -93 254 -93 258 0 4 11 19 25 32 l24 25 -97 0 -97 -1 27 -22z"/>
<path d="M3651 1895 l27 -15 4 -427 5 -428 -24 -21 -24 -21 123 3 c145 4 163
8 205 40 50 38 66 107 61 263 -3 113 -7 133 -30 181 -16 33 -39 62 -58 73 -37
22 -37 30 -4 52 89 58 78 251 -16 300 -22 11 -64 15 -162 15 -121 -1 -131 -2
-107 -15z m244 -41 c28 -30 40 -88 30 -152 -7 -46 -18 -61 -111 -142 -16 -14
-34 -34 -40 -44 -6 -12 -15 -16 -22 -12 -9 5 -12 60 -12 192 l0 184 65 0 c58
0 69 -3 90 -26z m-4 -304 c44 -24 52 -64 53 -260 1 -200 -3 -219 -57 -255 -33
-21 -113 -31 -132 -15 -21 18 -23 441 -1 459 10 9 16 8 25 -3 7 -8 19 -12 27
-9 19 7 18 33 -1 33 -22 0 -18 27 7 44 26 19 51 20 79 6z"/>
<path d="M3793 1862 c-31 -3 -33 -6 -33 -42 0 -43 10 -50 75 -50 28 0 50 -6
61 -17 16 -17 17 -15 11 25 -9 69 -39 91 -114 84z"/>
<path d="M3820 1530 c-13 -9 -13 -12 3 -21 10 -6 17 -22 17 -39 0 -20 4 -28
13 -24 8 3 25 -4 38 -15 24 -19 24 -22 24 -186 0 -114 2 -156 8 -133 5 18 7
111 5 206 -5 164 -6 174 -28 197 -25 26 -55 32 -80 15z"/>
<path d="M3760 1419 c0 -21 5 -41 11 -45 14 -8 35 14 43 47 5 24 2 27 -24 31
-29 4 -30 3 -30 -33z"/>
<path d="M3875 1160 c3 -5 8 -10 11 -10 2 0 4 5 4 10 0 6 -5 10 -11 10 -5 0
-7 -4 -4 -10z"/>
<path d="M4085 1895 c-3 -8 -7 -22 -10 -30 -4 -13 -1 -14 23 -2 15 8 49 17 75
20 63 9 68 -5 29 -91 -65 -144 -86 -265 -87 -492 0 -167 1 -177 25 -224 31
-62 64 -87 123 -93 36 -4 54 -1 82 16 45 26 52 26 60 1 5 -17 15 -20 62 -20
l56 0 -25 20 -25 19 -9 368 c-12 499 -12 477 10 502 l19 21 -47 0 -47 0 3
-402 c3 -391 2 -404 -18 -438 -27 -47 -64 -67 -100 -55 -71 26 -94 113 -94
355 0 201 17 332 58 455 l28 85 -93 0 c-74 0 -95 -3 -98 -15z"/>
<path d="M4635 1885 l25 -24 0 -379 c0 -209 3 -393 6 -410 5 -26 1 -36 -24
-62 l-30 -30 86 0 87 0 -27 23 -27 22 -4 263 c-1 144 0 267 4 274 10 16 115
-89 133 -134 9 -20 20 -86 26 -147 15 -158 62 -269 120 -284 18 -5 19 -3 6 22
-17 31 -41 148 -51 241 -10 89 -39 179 -71 215 -24 28 -24 31 -8 40 10 5 33
24 50 41 82 78 67 268 -26 332 -30 20 -45 22 -166 22 l-133 0 24 -25z m224
-21 c44 -26 55 -52 59 -149 5 -104 -11 -158 -52 -176 -31 -15 -72 -4 -86 21
-9 17 -7 22 14 29 30 12 38 24 30 45 -8 20 -28 20 -60 0 -13 -9 -27 -15 -29
-12 -7 6 -13 229 -7 246 6 18 98 15 131 -4z"/>
<path d="M4740 1825 c0 -33 2 -35 34 -35 22 0 45 -9 62 -23 38 -33 45 -123 15
-180 l-19 -38 21 3 c37 5 48 43 45 156 -3 100 -4 105 -31 128 -22 18 -40 24
-78 24 l-49 0 0 -35z"/>
<path d="M1720 1882 l-24 -19 18 -47 c20 -51 25 -54 50 -27 16 17 16 21 -2 65
l-18 47 -24 -19z"/>
<path d="M3375 1853 c-6 -41 -4 -49 19 -71 30 -31 37 -26 43 30 4 39 2 45 -25
65 l-30 22 -7 -46z"/>
<path d="M3596 1863 c-9 -60 -7 -69 17 -80 22 -10 24 -8 36 35 11 44 11 48
-10 64 -30 25 -36 23 -43 -19z"/>
<path d="M4556 1863 c-17 -36 -17 -37 6 -60 l23 -23 25 45 c24 44 24 45 5 59
-30 23 -40 19 -59 -21z"/>
<path d="M1011 1870 l-24 -20 27 -40 c22 -33 30 -39 45 -31 39 21 42 35 15 74
-28 43 -31 43 -63 17z"/>
<path d="M3080 1841 c0 -40 4 -53 23 -66 22 -15 22 -15 25 31 2 33 -2 52 -14
65 -27 30 -34 23 -34 -30z"/>
<path d="M3277 1872 c-21 -23 -21 -42 -3 -68 14 -18 15 -18 20 6 17 83 13 96
-17 62z"/>
<path d="M3525 1866 c-10 -15 -15 -40 -13 -63 l3 -38 16 25 c19 29 32 100 19
100 -5 0 -17 -11 -25 -24z"/>
<path d="M1397 1860 c-65 -20 -79 -59 -19 -55 54 3 72 14 72 41 0 25 -8 27
-53 14z"/>
<path d="M4140 1860 c-42 -10 -84 -57 -104 -117 -17 -50 -7 -56 24 -13 24 33
68 60 99 60 13 0 26 12 36 30 27 52 20 57 -55 40z"/>
<path d="M4353 1824 c-21 -49 -22 -65 -25 -421 -3 -349 -2 -370 14 -362 47 25
52 88 41 524 l-8 310 -22 -51z"/>
<path d="M1933 1845 c-47 -33 -52 -154 -11 -223 11 -18 21 -32 23 -30 1 2 -2
32 -8 66 -10 57 -9 68 9 100 18 34 23 37 62 36 23 0 42 3 42 7 0 13 -61 59
-79 59 -9 0 -26 -7 -38 -15z"/>
<path d="M2297 1853 c-9 -9 -9 -75 1 -88 4 -5 16 -10 27 -10 11 0 25 -11 32
-25 12 -23 13 -21 13 31 0 45 -4 60 -23 77 -24 23 -39 27 -50 15z"/>
<path d="M2492 1837 c-22 -23 -22 -27 -22 -410 0 -246 4 -388 10 -392 7 -4 10
108 10 329 l0 335 30 34 c27 31 29 39 24 81 -7 51 -20 57 -52 23z"/>
<path d="M2137 1835 c-11 -37 -18 -250 -9 -280 9 -30 9 -30 15 15 19 151 22
200 11 241 -8 34 -12 40 -17 24z"/>
<path d="M2631 1780 c-8 -41 -16 -81 -18 -87 -3 -7 2 -13 11 -13 26 0 38 47
29 115 l-8 60 -14 -75z"/>
<path d="M4616 1806 c-17 -27 -18 -54 -17 -414 0 -212 2 -387 4 -389 2 -2 13
4 24 14 20 18 20 25 14 418 -6 395 -6 399 -25 371z"/>
<path d="M988 1484 c-3 -396 -3 -443 5 -450 3 -4 18 -4 32 0 l25 6 0 153 c0
83 -3 243 -7 355 -6 191 -7 204 -30 234 l-23 32 -2 -330z"/>
<path d="M1698 1427 c2 -361 6 -407 31 -407 3 0 5 152 4 337 -2 309 -11 434
-31 447 -4 2 -6 -167 -4 -377z"/>
<path d="M3654 1799 c-9 -15 -1 -779 8 -779 7 0 7 790 1 790 -1 0 -5 -5 -9
-11z"/>
<path d="M3438 1754 c-5 -4 -7 -95 -7 -203 1 -154 3 -184 10 -141 11 63 8 355
-3 344z"/>
<path d="M1391 1736 c-8 -9 -24 -16 -37 -16 -28 0 -29 -3 -8 -35 17 -27 52
-33 72 -13 16 16 15 40 -1 62 -12 16 -14 16 -26 2z"/>
<path d="M5163 1673 c-123 -155 -153 -385 -73 -550 65 -132 166 -204 317 -224
107 -14 149 -3 195 54 19 23 40 52 47 64 l11 22 -45 -20 c-57 -25 -189 -28
-268 -5 -94 27 -169 96 -203 187 -37 95 -19 288 41 458 8 24 13 46 11 48 -2 2
-17 -13 -33 -34z"/>
<path d="M2268 1629 c-10 -10 -31 -19 -47 -19 -28 0 -29 -1 -21 -31 12 -42 28
-59 54 -59 34 0 46 20 46 77 0 57 -5 62 -32 32z"/>
<path d="M2575 1580 c9 -44 22 -60 50 -60 33 0 47 23 40 62 -6 32 -8 33 -51
33 l-45 0 6 -35z"/>
<path d="M3221 1583 c-1 -18 8 -56 20 -85 11 -29 45 -123 74 -208 81 -237 97
-274 107 -256 6 11 -19 93 -86 274 -128 345 -115 314 -115 275z"/>
<path d="M4571 1594 c0 -11 3 -14 6 -6 3 7 2 16 -1 19 -3 4 -6 -2 -5 -13z"/>
<path d="M772 1536 c-18 -40 -56 -60 -103 -52 l-41 7 23 -33 c32 -48 48 -58
90 -58 52 0 83 39 76 94 -3 21 -12 45 -19 53 -12 12 -16 10 -26 -11z"/>
<path d="M4740 1501 c0 -34 5 -51 20 -63 25 -22 45 -95 65 -232 24 -163 61
-254 121 -293 26 -17 27 -17 56 16 l30 33 -29 18 c-15 9 -38 28 -50 41 -45 50
-83 177 -83 279 0 81 -25 143 -80 198 l-50 50 0 -47z"/>
<path d="M3124 1300 c-6 -135 -9 -247 -7 -249 2 -3 8 0 13 5 7 7 9 99 8 250
l-3 239 -11 -245z"/>
<path d="M4079 1467 c-21 -64 -24 -89 -23 -222 0 -212 27 -301 99 -331 73 -30
166 -8 196 47 10 20 9 21 -7 14 -82 -33 -172 0 -212 76 -34 68 -47 197 -34
354 5 72 9 131 8 132 -1 2 -13 -30 -27 -70z"/>
<path d="M3624 1400 c0 -52 1 -74 3 -47 2 26 2 68 0 95 -2 26 -3 4 -3 -48z"/>
<path d="M5891 1464 c0 -11 3 -14 6 -6 3 7 2 16 -1 19 -3 4 -6 -2 -5 -13z"/>
<path d="M1901 1440 c14 -29 160 -182 167 -175 10 9 -41 75 -86 110 -26 21
-58 50 -70 64 l-24 26 13 -25z"/>
<path d="M2342 1360 c0 -14 2 -19 5 -12 2 6 2 18 0 25 -3 6 -5 1 -5 -13z"/>
<path d="M1500 1365 c0 -2 10 -25 22 -50 14 -29 27 -44 36 -40 7 3 18 5 23 5
5 0 9 20 9 45 l0 45 -45 0 c-25 0 -45 -2 -45 -5z"/>
<path d="M3531 1344 c0 -11 3 -14 6 -6 3 7 2 16 -1 19 -3 4 -6 -2 -5 -13z"/>
<path d="M1476 1298 c-21 -105 -114 -278 -161 -300 -14 -6 -25 -15 -25 -21 0
-21 36 -67 53 -67 10 0 42 24 71 53 45 45 56 64 84 149 37 111 39 134 15 183
-21 43 -29 44 -37 3z"/>
<path d="M1871 1284 c-1 -17 40 -148 49 -158 5 -5 -2 27 -16 70 -30 97 -32
102 -33 88z"/>
<path d="M2342 1220 c0 -19 2 -27 5 -17 2 9 2 25 0 35 -3 9 -5 1 -5 -18z"/>
<path d="M1238 1223 c-16 -17 -15 -20 1 -41 15 -21 19 -22 30 -8 10 12 10 20
-1 41 -13 25 -15 25 -30 8z"/>
<path d="M2190 1173 c0 -59 -39 -143 -78 -169 -15 -10 -55 -20 -92 -23 l-65
-6 40 -25 c31 -19 53 -25 98 -25 55 0 61 3 92 37 42 45 53 105 35 189 -16 75
-30 85 -30 22z"/>
<path d="M331 1194 c0 -11 3 -14 6 -6 3 7 2 16 -1 19 -3 4 -6 -2 -5 -13z"/>
<path d="M1083 1165 c0 -22 2 -30 4 -17 2 12 2 30 0 40 -3 9 -5 -1 -4 -23z"/>
<path d="M1217 1148 c9 -80 24 -143 45 -186 24 -50 35 -51 14 -1 -8 19 -17 61
-21 94 -7 67 -22 122 -35 130 -4 3 -6 -14 -3 -37z"/>
<path d="M871 1094 c0 -11 3 -14 6 -6 3 7 2 16 -1 19 -3 4 -6 -2 -5 -13z"/>
<path d="M3010 1038 c-41 -46 -50 -51 -98 -56 -64 -6 -104 10 -142 56 l-29 36
17 -54 c9 -30 31 -69 48 -87 29 -30 36 -33 92 -33 73 0 112 27 136 93 15 43
29 97 24 96 -2 0 -23 -23 -48 -51z"/>
<path d="M1873 1019 c-8 -28 -15 -35 -41 -39 l-31 -5 21 -33 c14 -23 27 -32
42 -30 18 3 22 12 27 63 7 68 -5 95 -18 44z"/>
<path d="M352 1000 c0 -14 2 -19 5 -12 2 6 2 18 0 25 -3 6 -5 1 -5 -13z"/>
<path d="M3940 990 c-30 -16 -56 -19 -177 -20 l-142 0 -10 -37 c-6 -20 -9 -38
-7 -40 2 -2 61 -4 132 -6 150 -2 179 8 221 81 14 23 23 42 22 42 -2 -1 -20 -9
-39 -20z"/>
<path d="M5625 959 c-34 -43 -40 -59 -41 -102 -1 -29 -5 -164 -9 -302 -3 -137
-9 -260 -12 -272 -4 -18 -1 -21 15 -16 33 8 64 49 79 105 17 61 32 638 17 638
-5 -1 -27 -24 -49 -51z"/>
<path d="M2362 983 c-43 -4 -43 -5 -36 -36 3 -18 7 -33 8 -33 0 -1 45 -4 99
-8 106 -7 103 -9 91 53 -6 31 -7 31 -63 29 -31 -1 -75 -3 -99 -5z"/>
<path d="M3170 980 c-8 -5 -24 -7 -36 -4 -17 4 -23 0 -28 -20 -14 -58 38 -89
69 -42 21 31 17 80 -5 66z"/>
<path d="M4370 970 c-6 -11 -8 -20 -6 -20 3 0 10 9 16 20 6 11 8 20 6 20 -3 0
-10 -9 -16 -20z"/>
<path d="M952 971 l-83 -6 29 -28 c29 -28 29 -28 207 -34 194 -7 185 -10 141
50 -19 26 -22 27 -115 25 -53 -1 -133 -4 -179 -7z"/>
<path d="M1608 973 l-77 -4 21 -35 21 -36 103 4 c112 3 118 7 83 52 -14 18
-29 25 -47 24 -15 -1 -62 -4 -104 -5z"/>
<path d="M3384 940 c-4 -16 -7 -32 -8 -35 0 -3 38 -7 86 -9 74 -3 88 -1 92 13
2 9 7 26 11 39 6 22 5 22 -85 22 l-90 0 -6 -30z"/>
<path d="M4381 944 c-11 -15 -21 -31 -21 -35 0 -5 29 -9 64 -9 60 0 66 2 85
29 12 16 21 31 21 33 0 3 -29 6 -64 7 -58 2 -66 0 -85 -25z"/>
<path d="M4663 963 c-77 -4 -83 -6 -102 -32 l-20 -28 52 -7 c113 -13 147 -9
178 25 36 39 37 50 2 47 -16 -1 -65 -4 -110 -5z"/>
<path d="M5079 843 l-36 -44 -7 -232 c-4 -128 -9 -254 -13 -282 -6 -48 -5 -49
13 -34 10 9 31 19 46 23 26 6 26 7 33 118 3 62 5 199 3 304 l-3 191 -36 -44z"/>
<path d="M1018 873 c6 -2 18 -2 25 0 6 3 1 5 -13 5 -14 0 -19 -2 -12 -5z"/>
<path d="M1118 833 c7 -3 16 -2 19 1 4 3 -2 6 -13 5 -11 0 -14 -3 -6 -6z"/>
<path d="M860 785 c-23 -19 -55 -43 -71 -52 -16 -10 -29 -20 -29 -23 0 -3 23
-25 51 -49 35 -30 55 -41 64 -35 63 47 114 91 114 99 0 11 -33 51 -65 78 -21
17 -22 17 -64 -18z"/>
<path d="M453 770 c-26 -10 -28 -22 -12 -49 17 -26 3 -70 -26 -83 -14 -6 -25
-14 -25 -17 0 -10 86 -61 102 -61 29 0 40 27 33 80 -6 40 -4 55 9 69 20 22 13
45 -20 60 -29 13 -31 13 -61 1z"/>
<path d="M757 573 c-9 -165 -9 -164 42 -190 25 -13 46 -21 48 -19 2 2 6 55 8
118 l5 116 -49 41 -49 41 -5 -107z"/>
<path d="M1858 653 c7 -3 16 -2 19 1 4 3 -2 6 -13 5 -11 0 -14 -3 -6 -6z"/>
<path d="M4520 624 c0 -6 7 -19 16 -30 14 -18 14 -18 3 6 -14 31 -19 36 -19
24z"/>
<path d="M1918 383 c6 -2 18 -2 25 0 6 3 1 5 -13 5 -14 0 -19 -2 -12 -5z"/>
<path d="M815 293 c-22 -9 -74 -38 -115 -64 -124 -79 -160 -91 -262 -91 l-89
0 33 -21 c18 -11 56 -31 85 -44 48 -22 58 -23 120 -15 89 13 105 20 188 82 91
68 111 77 175 86 l53 7 -41 39 c-47 43 -80 48 -147 21z"/>
<path d="M5222 253 c-5 -10 -13 -43 -16 -75 -7 -53 -6 -58 21 -82 36 -34 122
-66 176 -66 30 0 66 12 125 42 l83 43 -93 6 c-112 7 -156 26 -221 99 -49 54
-61 60 -75 33z"/>
<path d="M4971 179 c-67 -56 -82 -88 -60 -128 30 -53 110 -35 204 43 l30 25
-31 1 c-46 0 -77 29 -78 73 -1 21 -2 37 -3 37 -1 0 -29 -23 -62 -51z"/>
</g>
</svg>
