<?xml version="1.0" standalone="no"?>
<!DOCTYPE svg PUBLIC "-//W3C//DTD SVG 20010904//EN"
 "http://www.w3.org/TR/2001/REC-SVG-20010904/DTD/svg10.dtd">
<svg version="1.0" xmlns="http://www.w3.org/2000/svg"
 width="600.000000pt" height="259.000000pt" viewBox="0 0 600.000000 259.000000"
 preserveAspectRatio="xMidYMid meet">
<metadata>
Created by potrace 1.16, written by Peter Selinger 2001-2019
</metadata>
<g transform="translate(0.000000,259.000000) scale(0.100000,-0.100000)"
fill="#000000" stroke="none">
<path d="M445 1970 c3 -5 8 -10 11 -10 2 0 4 5 4 10 0 6 -5 10 -11 10 -5 0 -7
-4 -4 -10z"/>
<path d="M5183 1973 c15 -2 37 -2 50 0 12 2 0 4 -28 4 -27 0 -38 -2 -22 -4z"/>
<path d="M5293 1973 c9 -2 23 -2 30 0 6 3 -1 5 -18 5 -16 0 -22 -2 -12 -5z"/>
<path d="M5423 1973 c15 -2 39 -2 55 0 15 2 2 4 -28 4 -30 0 -43 -2 -27 -4z"/>
<path d="M5718 1973 c17 -2 47 -2 65 0 17 2 3 4 -33 4 -36 0 -50 -2 -32 -4z"/>
<path d="M496 1963 c-4 -5 -45 -8 -91 -8 -70 0 -89 -4 -113 -22 -21 -15 -33
-18 -45 -11 -10 5 -16 5 -15 1 4 -11 -67 -75 -74 -68 -3 3 -11 -2 -19 -12 -12
-14 -12 -15 0 -9 9 6 12 5 9 -5 -3 -8 -10 -13 -15 -12 -5 1 -9 -8 -9 -20 1
-12 -4 -22 -11 -22 -7 0 -18 -7 -25 -15 -11 -12 -11 -12 6 0 23 17 25 28 -28
-125 -19 -55 -38 -123 -42 -152 -3 -29 -9 -51 -13 -49 -4 3 -8 -179 -10 -402
-2 -299 1 -415 9 -437 7 -16 14 -43 16 -60 2 -16 5 -41 8 -55 3 -14 8 -48 11
-75 5 -53 42 -158 69 -197 19 -26 21 -42 4 -32 -7 5 -8 3 -4 -5 5 -7 11 -10
14 -7 7 7 42 -24 42 -37 0 -5 -8 -3 -17 4 -10 7 -7 1 6 -13 13 -15 27 -25 31
-23 11 7 49 -24 46 -38 -1 -6 -1 -9 1 -6 2 4 27 -2 55 -13 37 -14 72 -18 134
-17 101 2 164 22 243 77 73 52 143 83 200 91 54 7 63 25 21 40 -17 6 -29 15
-26 20 4 5 1 13 -5 17 -8 5 -9 3 -4 -6 6 -9 4 -12 -6 -8 -8 3 -32 13 -54 22
l-40 16 0 154 0 153 33 24 c89 65 132 102 126 110 -3 5 -107 9 -233 9 -242 0
-290 -7 -336 -50 -12 -11 -23 -18 -26 -16 -2 2 -5 -18 -7 -45 -2 -39 2 -56 20
-82 13 -17 23 -36 23 -42 0 -19 35 -16 69 4 32 20 52 48 42 58 -2 3 -7 -4 -10
-14 -7 -22 -56 -53 -83 -53 -10 0 1 9 25 20 51 23 66 53 45 93 -17 34 -12 43
29 49 62 9 94 -52 86 -165 -1 -30 -1 -54 2 -52 6 4 2 -135 -6 -183 -7 -45 -58
-100 -99 -108 -41 -7 -110 7 -110 23 0 7 -7 18 -15 25 -12 11 -12 11 -1 -5 8
-10 9 -17 3 -17 -11 0 -42 39 -42 53 0 4 5 5 12 1 7 -4 8 -3 4 5 -4 6 -11 9
-15 6 -13 -7 -38 98 -51 207 -13 113 -19 682 -9 913 9 204 46 414 71 399 4 -3
5 1 2 9 -3 8 8 26 27 42 29 24 39 27 83 22 58 -5 92 -36 100 -90 3 -17 15 -88
28 -157 13 -69 22 -136 21 -150 0 -14 1 -19 4 -12 3 9 15 3 39 -17 63 -55 128
-50 170 15 15 21 15 28 3 52 -22 44 -22 45 -9 37 9 -6 9 -3 1 14 -14 25 -23
28 -14 5 5 -14 3 -15 -17 -4 -12 6 -33 10 -46 7 -13 -2 -24 -3 -24 -2 0 10 52
249 61 280 6 22 20 57 30 77 26 51 24 58 -15 55 -19 -1 -32 -5 -29 -9 5 -9
-12 -11 -72 -9 -58 2 -145 23 -139 33 6 10 0 11 -10 1z"/>
<path d="M540 1960 c0 -5 5 -10 11 -10 5 0 7 5 4 10 -3 6 -8 10 -11 10 -2 0
-4 -4 -4 -10z"/>
<path d="M5754 1962 c-69 -3 -72 -4 -77 -29 -3 -15 -6 -218 -6 -451 -2 -344
-5 -430 -16 -452 -17 -32 -78 -60 -133 -60 -41 0 -103 29 -110 51 -3 8 6 4 20
-8 13 -13 28 -23 34 -23 5 0 1 5 -9 11 -9 6 -14 15 -11 21 4 6 2 8 -4 4 -6 -3
-13 -2 -17 4 -4 6 -11 8 -16 4 -14 -8 -39 58 -56 150 -18 95 -12 293 11 391
21 88 100 271 115 267 7 -1 10 2 6 8 -4 6 3 27 14 46 12 20 18 40 15 46 -4 7
-2 8 4 4 7 -4 12 -2 12 3 0 8 -70 11 -215 11 l-215 0 -40 -82 c-22 -46 -40
-86 -40 -90 0 -5 12 -8 28 -8 26 -1 26 -1 8 -15 -11 -8 -15 -15 -9 -15 5 0 18
9 28 20 10 11 21 17 26 15 10 -7 24 15 24 39 0 26 49 41 158 50 63 5 87 4 82
-4 -3 -5 -11 -7 -17 -4 -6 4 -8 3 -5 -3 8 -13 -22 -55 -34 -48 -5 3 -6 0 -3
-8 3 -8 -3 -20 -12 -28 -15 -12 -17 -12 -9 0 5 10 4 12 -4 7 -6 -4 -9 -11 -6
-16 9 -14 -15 -51 -27 -44 -6 4 -8 3 -5 -3 4 -6 -9 -44 -28 -85 -82 -179 -117
-399 -81 -521 9 -32 14 -63 10 -69 -4 -6 -3 -8 3 -5 6 4 18 -4 27 -18 19 -29
20 -39 4 -29 -7 4 3 -9 21 -29 34 -36 48 -47 36 -27 -10 17 12 11 26 -7 12
-14 12 -16 0 -8 -9 5 -12 4 -7 -3 4 -6 14 -8 23 -5 11 4 14 3 9 -5 -5 -8 -1
-10 10 -5 10 3 15 2 12 -3 -7 -10 -6 -10 137 -20 93 -6 106 -5 163 19 l62 25
0 -245 c0 -268 -12 -419 -38 -473 -19 -39 -69 -69 -117 -69 -33 -1 -128 40
-140 60 -6 8 -4 10 5 4 9 -5 11 -4 6 4 -4 6 -11 9 -15 6 -13 -8 -54 42 -46 56
5 7 4 10 -2 6 -28 -18 -114 268 -138 458 -10 79 -14 87 -38 79 -12 -3 -23 -8
-25 -9 -2 -2 -5 -121 -7 -266 -3 -197 -1 -267 8 -278 10 -12 9 -14 -5 -8 -16
6 -18 0 -18 -43 0 -45 -2 -50 -22 -49 -22 0 -22 1 -3 10 l20 9 -20 -3 c-11 -1
-20 -7 -20 -14 0 -6 -3 -14 -7 -18 -4 -4 -4 -14 -1 -23 4 -9 2 -13 -5 -8 -14
9 -24 -26 -16 -58 9 -37 41 -56 95 -56 39 0 51 5 68 26 12 16 21 42 21 63 0
49 14 69 37 55 10 -7 17 -19 16 -29 0 -9 1 -14 4 -11 4 3 24 -10 46 -30 63
-57 109 -74 208 -74 96 0 154 16 201 55 16 14 34 23 38 20 5 -3 12 0 16 6 4 8
3 9 -4 5 -19 -12 -14 3 17 47 52 77 62 124 71 352 5 116 11 467 13 782 3 451
6 575 16 587 16 19 35 21 25 4 -4 -7 2 -5 14 6 12 10 20 22 19 27 -1 5 11 19
27 32 18 15 26 28 22 36 -8 12 -26 12 -242 3z m-638 -147 c-1 -9 -6 -16 -12
-16 -5 0 -15 -6 -23 -12 -12 -10 -13 -9 -6 3 22 40 45 54 41 25z m99 -845 c10
-11 16 -20 13 -20 -3 0 -13 9 -23 20 -10 11 -16 20 -13 20 3 0 13 -9 23 -20z
m16 -587 c13 -16 12 -17 -3 -4 -17 13 -22 21 -14 21 2 0 10 -8 17 -17z"/>
<path d="M5651 1944 c0 -11 3 -14 6 -6 3 7 2 16 -1 19 -3 4 -6 -2 -5 -13z"/>
<path d="M766 1873 c-6 -14 -5 -15 5 -6 7 7 10 15 7 18 -3 3 -9 -2 -12 -12z"/>
<path d="M5228 1853 c12 -2 30 -2 40 0 9 3 -1 5 -23 4 -22 0 -30 -2 -17 -4z"/>
<path d="M833 1839 c-6 -6 -9 -18 -6 -27 5 -11 3 -13 -8 -7 -8 4 1 -8 19 -27
l32 -34 -6 -267 c-4 -159 -4 -267 2 -267 5 0 10 114 11 268 l2 267 -27 29 -27
29 32 -23 32 -23 0 -412 1 -412 -30 -28 c-17 -16 -30 -32 -30 -37 0 -4 91 -9
203 -11 l202 -3 -204 1 c-222 0 -235 4 -185 50 15 14 23 25 17 25 -5 0 -20
-11 -33 -25 -19 -21 -22 -29 -14 -43 10 -15 34 -17 219 -17 241 0 222 -11 199
119 -19 109 -18 146 2 146 12 0 14 -3 6 -12 -6 -8 -7 -35 -2 -73 l8 -60 -1 62
c0 40 5 68 14 79 8 10 9 15 4 12 -7 -4 -11 6 -11 27 0 21 4 31 11 28 5 -4 1 3
-9 15 -26 30 -62 28 -96 -6 -22 -22 -30 -42 -35 -88 -4 -32 -13 -78 -20 -101
-7 -24 -9 -41 -4 -38 11 7 29 72 29 105 0 41 20 100 41 121 19 19 64 26 73 10
3 -4 -5 -6 -17 -4 -44 9 -68 -25 -84 -118 -18 -112 -35 -133 -103 -137 l-53
-3 5 410 5 411 24 19 c13 11 29 20 34 20 6 0 -2 -9 -17 -20 -24 -18 -28 -27
-26 -67 l1 -47 4 44 c3 29 11 50 25 61 12 9 23 27 25 38 3 21 -1 22 -90 24
-50 1 -105 1 -122 1 -28 -1 -29 -1 -11 13 11 8 15 14 10 14 -6 0 -15 -5 -21
-11z"/>
<path d="M973 1841 c72 -5 91 -10 103 -25 8 -11 14 -15 14 -9 0 5 -8 17 -18
26 -15 13 -37 17 -103 15 l-84 -1 88 -6z"/>
<path d="M1380 1840 l-25 -8 28 -1 c15 -1 27 4 27 9 0 6 -1 10 -2 9 -2 -1 -14
-5 -28 -9z"/>
<path d="M1513 1843 c15 -2 39 -2 55 0 15 2 2 4 -28 4 -30 0 -43 -2 -27 -4z"/>
<path d="M1653 1843 c15 -2 37 -2 50 0 12 2 0 4 -28 4 -27 0 -38 -2 -22 -4z"/>
<path d="M1895 1836 c-40 -17 -100 -85 -113 -127 -35 -114 -18 -229 46 -311
51 -66 122 -136 122 -120 0 6 -8 16 -18 21 -31 17 -129 144 -142 185 -7 21
-12 74 -11 118 2 126 50 203 142 232 24 8 35 14 24 15 -11 0 -33 -6 -50 -13z"/>
<path d="M2024 1835 c25 -19 74 -19 106 1 17 10 18 13 5 8 -43 -14 -66 -16
-97 -5 -30 10 -31 9 -14 -4z"/>
<path d="M2200 1846 c0 -9 40 -13 46 -5 3 5 -6 9 -20 9 -14 0 -26 -2 -26 -4z"/>
<path d="M2293 1843 c9 -2 23 -2 30 0 6 3 -1 5 -18 5 -16 0 -22 -2 -12 -5z"/>
<path d="M2348 1843 c7 -3 16 -2 19 1 4 3 -2 6 -13 5 -11 0 -14 -3 -6 -6z"/>
<path d="M2393 1843 c9 -2 23 -2 30 0 6 3 -1 5 -18 5 -16 0 -22 -2 -12 -5z"/>
<path d="M2448 1843 c7 -3 16 -2 19 1 4 3 -2 6 -13 5 -11 0 -14 -3 -6 -6z"/>
<path d="M2578 1843 c6 -2 18 -2 25 0 6 3 1 5 -13 5 -14 0 -19 -2 -12 -5z"/>
<path d="M2634 1838 c-4 -7 -4 -10 1 -6 4 4 16 3 27 -3 15 -8 18 -17 14 -37
-5 -23 -5 -24 5 -9 13 22 6 42 -20 56 -15 8 -22 8 -27 -1z"/>
<path d="M3055 1840 c-3 -6 1 -7 9 -4 18 7 21 14 7 14 -6 0 -13 -4 -16 -10z"/>
<path d="M3228 1843 c7 -3 16 -2 19 1 4 3 -2 6 -13 5 -11 0 -14 -3 -6 -6z"/>
<path d="M3637 1843 c18 -2 50 -2 70 0 21 2 7 4 -32 4 -38 0 -55 -2 -38 -4z"/>
<path d="M3793 1843 c9 -2 23 -2 30 0 6 3 -1 5 -18 5 -16 0 -22 -2 -12 -5z"/>
<path d="M3875 1841 c47 -12 70 -27 113 -76 25 -28 43 -42 47 -35 4 6 4 14 1
17 -3 4 -6 0 -6 -7 0 -7 -13 5 -29 27 -36 49 -89 83 -127 82 l-29 -1 30 -7z"/>
<path d="M4069 1833 c-13 -17 -13 -17 6 -3 11 8 22 16 24 17 2 2 0 3 -6 3 -6
0 -17 -8 -24 -17z"/>
<path d="M4248 1843 c6 -2 18 -2 25 0 6 3 1 5 -13 5 -14 0 -19 -2 -12 -5z"/>
<path d="M4304 1842 c8 -13 -39 -17 -150 -13 -40 2 -64 -2 -71 -11 -17 -21
-47 -127 -39 -135 4 -4 20 7 34 25 18 22 41 36 67 42 74 17 77 15 50 -32 -59
-105 -101 -325 -104 -538 -2 -161 12 -221 66 -281 24 -27 30 -37 17 -33 -11 4
-16 3 -11 -2 5 -5 19 -9 30 -10 12 0 48 -1 80 -2 41 -1 56 -5 51 -14 -4 -7 -3
-8 5 -4 6 4 8 12 5 18 -4 6 2 8 17 3 16 -4 19 -3 11 3 -10 7 -10 11 1 21 12 9
16 7 20 -9 5 -19 12 -21 85 -18 58 1 85 -2 98 -12 11 -9 15 -10 10 -2 -6 9 22
12 126 12 90 0 128 -3 118 -10 -8 -5 -10 -10 -4 -10 6 0 17 7 24 15 15 18 1
38 -43 65 l-28 18 1 230 c0 138 -3 233 -9 236 -6 4 -9 -81 -8 -232 l2 -238 43
-27 c23 -14 42 -32 42 -38 0 -8 -7 -6 -17 5 -10 10 -32 26 -49 36 l-32 18 -1
255 0 254 38 -36 c63 -59 71 -78 86 -215 18 -161 36 -216 89 -272 33 -34 50
-44 74 -44 32 0 42 13 21 25 -22 14 -40 89 -74 305 -16 100 -32 147 -60 180
-11 13 -6 22 31 57 53 51 59 43 8 -10 -33 -34 -35 -39 -22 -55 28 -31 40 -64
54 -141 l14 -76 -6 70 c-4 51 -12 83 -32 118 l-28 49 32 33 c19 21 31 44 32
62 0 15 4 63 8 105 6 71 4 82 -20 132 -15 30 -43 67 -64 83 -36 27 -40 28
-197 34 -88 3 -151 6 -141 7 11 1 17 5 13 8 -3 4 -13 4 -21 1 -23 -9 -9 -40
30 -65 l34 -22 0 -419 c0 -392 -1 -419 -18 -434 -21 -19 -37 -23 -26 -6 5 8 1
8 -14 0 -11 -6 -22 -15 -24 -21 -1 -5 -18 0 -35 11 -31 20 -33 24 -32 77 2 53
2 54 10 22 7 -30 7 -29 3 10 -11 95 -12 150 -3 156 5 3 9 13 8 22 0 11 -3 12
-6 5 -16 -40 -20 17 -22 287 -2 190 1 300 7 300 6 0 8 -10 5 -22 -3 -13 -3
-20 0 -17 4 3 8 15 10 27 2 11 10 29 19 39 25 30 29 41 17 49 -8 4 -9 3 -5 -4
5 -8 -17 -12 -71 -14 l-78 -3 -5 -425 c-5 -453 -7 -464 -54 -476 -61 -15 -89
21 -107 136 -15 100 -6 419 16 520 20 93 54 202 68 215 7 7 8 4 4 -7 -4 -10
-3 -18 2 -18 5 0 11 9 14 20 3 13 1 18 -6 13 -6 -4 -8 2 -5 15 4 12 1 25 -4
29 -7 3 -8 1 -4 -5z m561 -116 c44 -45 48 -233 4 -268 -26 -22 -40 -22 -65 -2
-10 8 -14 13 -8 10 16 -8 54 23 54 44 0 43 -57 65 -90 35 -16 -15 -17 -9 -18
80 0 53 4 97 10 101 6 4 8 -24 6 -80 -3 -80 2 -101 17 -76 19 30 85 -18 85
-61 0 -10 4 -20 9 -24 27 -16 24 194 -3 230 -8 11 -34 20 -72 25 l-59 7 53 2
c43 1 57 -3 77 -23z m-9 -9 c7 -7 24 -118 24 -156 l0 -35 -34 33 c-24 24 -41
32 -55 28 -20 -5 -21 -1 -21 70 l0 76 41 -6 c22 -3 43 -7 45 -10z m-278 -847
c-7 -10 -14 -18 -15 -16 -6 6 9 36 18 36 5 0 4 -9 -3 -20z"/>
<path d="M4834 1469 c-19 -22 -19 -22 6 -14 32 10 36 13 24 25 -7 7 -17 3 -30
-11z"/>
<path d="M4453 1843 c9 -2 23 -2 30 0 6 3 -1 5 -18 5 -16 0 -22 -2 -12 -5z"/>
<path d="M4755 1841 c140 -6 156 -11 202 -65 48 -54 67 -114 60 -193 -2 -38
-8 -77 -12 -88 -6 -20 -6 -20 6 0 7 10 14 51 17 91 4 61 1 80 -20 125 -26 57
-78 115 -116 130 -13 5 -78 8 -145 7 l-122 -2 130 -5z"/>
<path d="M2176 1833 c-17 -17 -112 -26 -147 -14 -43 15 -122 4 -161 -23 -54
-36 -77 -97 -77 -201 -1 -115 16 -154 111 -251 39 -41 68 -74 64 -74 -4 0 10
-20 32 -45 64 -73 81 -187 36 -248 -25 -35 -39 -34 -79 6 -35 35 -65 115 -87
233 -11 61 -13 64 -37 61 -17 -2 -27 -11 -28 -23 -3 -18 -2 -18 6 1 6 13 10
-32 10 -134 1 -151 1 -154 -24 -177 -20 -18 -23 -28 -16 -46 7 -19 16 -23 47
-23 35 0 40 3 49 32 l11 32 30 -35 c30 -32 35 -34 96 -34 81 0 121 24 157 95
22 41 26 62 25 130 -1 115 -33 181 -148 305 l-61 65 60 -58 c33 -31 64 -57 69
-57 5 0 -35 42 -87 93 -94 90 -96 93 -102 148 -8 64 0 112 20 129 23 19 58 7
82 -29 27 -40 31 -32 6 10 -19 32 -49 45 -82 34 -29 -9 -45 -70 -36 -140 5
-46 14 -65 43 -97 20 -23 30 -39 22 -36 -34 11 -70 81 -76 148 -7 86 15 133
64 138 18 2 40 -2 48 -9 27 -23 51 -83 64 -159 7 -45 18 -80 28 -87 9 -7 11
-13 5 -13 -18 0 -32 24 -39 68 -4 23 -10 44 -14 47 -16 10 11 -91 29 -109 17
-17 48 -15 37 3 -4 7 6 154 19 273 7 62 26 74 36 23 4 -16 15 -65 25 -108 15
-68 16 -80 3 -88 -23 -15 -33 -10 -18 9 11 12 13 28 8 52 l-6 35 -2 -41 c0
-22 -4 -44 -8 -48 -12 -11 -12 -89 0 -103 5 -7 22 -13 38 -13 35 0 94 52 104
90 4 18 0 15 -15 -12 -11 -20 -30 -44 -42 -52 -25 -18 -74 -21 -83 -7 -3 6 9
8 29 4 28 -4 39 -1 60 20 24 25 26 32 26 125 0 54 3 101 6 105 4 3 19 -4 35
-15 l29 -22 0 -235 c0 -130 -3 -306 -7 -392 l-6 -155 -33 -22 c-19 -12 -34
-27 -34 -32 0 -6 46 -10 115 -10 106 0 115 1 126 21 7 15 8 19 0 15 -6 -4 -22
1 -36 11 l-25 18 1 390 1 390 30 24 c16 13 31 22 33 20 3 -3 17 -176 19 -230
0 -9 5 -16 11 -17 5 -1 24 -4 41 -8 21 -4 36 -1 46 10 9 8 19 12 22 8 4 -3 3
5 -2 18 -5 14 -19 29 -30 35 -12 5 -22 15 -22 20 0 15 38 189 46 209 7 19 13
19 -285 16 -144 -1 -201 2 -197 9 8 12 3 15 -8 4z m-160 -595 c62 -74 84 -181
50 -245 -9 -18 -21 -33 -27 -33 -6 0 -1 12 10 26 15 20 21 41 21 81 0 67 -20
117 -68 166 -20 20 -31 37 -25 37 6 0 24 -15 39 -32z"/>
<path d="M3347 1817 c-12 -14 -17 -16 -14 -6 5 14 -11 16 -129 18 -116 2 -135
0 -140 -14 -6 -13 -8 -14 -15 -3 -5 7 -9 8 -9 2 0 -10 26 -36 65 -64 18 -14
19 -14 6 3 -7 9 -9 17 -4 17 31 0 33 -26 33 -420 0 -384 -1 -396 -20 -408 -22
-14 -27 -51 -8 -70 18 -18 56 -14 78 8 11 11 20 16 20 12 0 -4 -5 -13 -10 -18
-7 -7 -6 -11 3 -11 16 0 16 -9 18 350 1 158 3 286 5 284 3 -2 20 -49 38 -103
52 -152 154 -433 161 -445 9 -13 -25 -50 -38 -42 -5 3 -7 1 -3 -5 3 -6 2 -13
-4 -17 -5 -3 -10 -12 -10 -19 0 -9 25 -12 103 -10 128 3 120 1 113 20 -3 8 -2
13 2 10 5 -3 21 4 38 15 16 10 25 19 19 19 -5 -1 -18 -7 -28 -15 -21 -15 -54
-12 -74 8 -10 10 -14 107 -20 419 l-6 407 36 41 c21 22 37 37 37 32 0 -4 16
-16 35 -26 l35 -19 2 -421 3 -421 -42 -40 -42 -40 142 3 c161 4 203 12 247 49
63 52 74 91 74 258 1 173 -7 207 -65 270 l-39 43 27 17 28 18 -18 -20 c-14
-16 -15 -23 -6 -29 7 -4 10 -3 6 3 -4 5 7 22 23 38 37 36 69 175 40 175 -5 0
-7 -6 -4 -14 7 -19 -13 -125 -27 -143 -19 -22 -20 -9 -4 30 20 49 19 126 -4
179 -18 42 -69 96 -94 100 -55 7 -529 3 -533 -4 -4 -6 10 -23 30 -40 l36 -29
-1 -242 0 -242 -24 65 c-150 410 -158 445 -113 445 9 0 23 7 32 14 15 12 21
10 51 -19 19 -19 37 -31 40 -28 3 3 -11 17 -30 32 -26 20 -34 33 -30 47 8 24
4 24 -18 -4z m-257 -32 c7 -8 8 -15 2 -15 -5 0 -15 7 -22 15 -7 8 -8 15 -2 15
5 0 15 -7 22 -15z m768 -36 c36 -12 52 -49 52 -118 0 -56 -24 -98 -77 -137
-21 -15 -46 -37 -55 -48 -17 -20 -18 -13 -18 147 l0 167 34 0 c18 0 47 -5 64
-11z m38 -340 c17 -19 19 -41 22 -211 4 -249 0 -260 -106 -274 l-51 -6 -3 43
c-2 24 -1 71 1 104 3 46 6 54 12 35 4 -17 7 -1 7 45 0 52 -2 62 -8 40 -5 -20
-8 4 -9 73 -1 94 0 102 15 88 18 -19 20 -19 45 -6 23 13 26 58 3 67 -13 5 -13
7 -2 14 23 15 54 10 74 -12z"/>
<path d="M3770 1738 c0 -4 14 -8 30 -8 17 0 30 2 30 4 0 2 -13 6 -30 8 -16 3
-30 1 -30 -4z"/>
<path d="M3876 1705 c4 -16 8 -51 8 -77 1 -25 5 -44 10 -41 11 7 -1 124 -15
138 -7 7 -8 1 -3 -20z"/>
<path d="M3774 1630 c0 -52 1 -74 3 -47 2 26 2 68 0 95 -2 26 -3 4 -3 -48z"/>
<path d="M3866 1553 c-4 -10 -24 -30 -46 -45 l-39 -27 -4 27 c-3 21 -4 19 -6
-10 l-1 -38 51 37 c49 35 67 58 56 69 -3 3 -8 -3 -11 -13z"/>
<path d="M3849 1413 c-1 -5 0 -19 0 -33 2 -32 -31 -64 -59 -57 -18 5 -20 1
-18 -46 1 -51 2 -51 5 -9 3 32 8 42 22 42 24 0 61 41 61 68 0 12 6 22 14 22
15 0 23 -34 30 -135 2 -27 2 -10 1 39 -1 74 -4 91 -20 102 -21 16 -34 18 -36
7z"/>
<path d="M3899 1073 c-3 -50 -10 -98 -17 -105 -6 -8 -31 -15 -56 -17 -44 -2
-45 -1 -49 31 -4 31 -4 30 -5 -8 l-2 -40 56 6 c75 8 88 33 82 160 -3 63 -3 62
-9 -27z"/>
<path d="M339 1809 l-24 -20 28 17 c15 9 27 18 27 20 0 8 -8 4 -31 -17z"/>
<path d="M403 1823 c9 -2 23 -2 30 0 6 3 -1 5 -18 5 -16 0 -22 -2 -12 -5z"/>
<path d="M454 1803 c2 -9 10 -17 19 -19 13 -2 14 1 4 17 -15 23 -26 25 -23 2z"/>
<path d="M741 1804 c0 -11 3 -14 6 -6 3 7 2 16 -1 19 -3 4 -6 -2 -5 -13z"/>
<path d="M1314 1809 c-3 -5 3 -6 13 -2 12 5 7 -6 -14 -30 -44 -50 -45 -102 -5
-139 22 -21 35 -26 70 -23 38 2 42 0 36 -18 -4 -13 -2 -17 5 -13 6 4 11 24 10
44 0 32 -1 34 -9 15 -5 -13 -15 -23 -22 -23 -9 0 -9 3 0 12 30 30 2 85 -39 75
-19 -5 -19 -4 -6 16 14 21 82 45 94 34 8 -9 -25 -348 -47 -477 -26 -150 -51
-237 -97 -330 -20 -41 -39 -79 -41 -84 -3 -4 6 -5 18 -1 17 5 21 4 15 -6 -5
-7 13 2 38 21 46 33 116 125 104 137 -4 3 -11 -6 -16 -20 -12 -30 -76 -103
-103 -118 -10 -5 2 11 27 36 51 50 92 129 127 241 l23 74 47 0 47 0 3 -145 3
-145 -37 -27 c-21 -16 -38 -35 -38 -43 0 -13 -1 -13 -10 0 -5 8 -10 10 -10 4
0 -6 8 -18 17 -25 11 -10 14 -10 9 -1 -5 9 16 12 96 12 137 0 146 3 145 46 -1
18 -4 29 -8 23 -11 -19 -29 0 -30 34 -2 32 -2 32 -6 3 -3 -20 2 -36 19 -54
l23 -25 -31 22 -30 22 -2 411 c-2 408 0 438 31 438 5 0 3 -8 -5 -17 -10 -12
-12 -26 -7 -43 7 -24 7 -23 8 7 1 19 8 36 19 42 13 8 13 10 3 11 -12 0 -12 3
-3 12 7 7 12 16 12 21 0 11 -439 7 -446 -4z m276 -265 l0 -204 -39 3 c-36 2
-39 4 -35 27 2 14 11 93 19 175 21 207 23 215 40 208 13 -4 15 -39 15 -209z
m30 -549 c0 -8 -2 -15 -4 -15 -2 0 -6 7 -10 15 -3 8 -1 15 4 15 6 0 10 -7 10
-15z"/>
<path d="M1560 1690 c0 -5 5 -10 11 -10 5 0 7 5 4 10 -3 6 -8 10 -11 10 -2 0
-4 -4 -4 -10z"/>
<path d="M1558 1628 c0 -13 -2 -27 -3 -33 -1 -5 -5 -41 -9 -80 -4 -38 -9 -89
-12 -111 -4 -37 -2 -42 18 -47 20 -5 21 -4 7 6 -15 11 -15 24 -5 117 l11 105
6 -75 c5 -67 6 -64 5 33 0 59 -4 107 -8 107 -5 0 -9 -10 -10 -22z"/>
<path d="M2820 1806 c-14 -8 -28 -12 -31 -10 -10 6 -34 -26 -34 -45 0 -9 -6
-16 -13 -16 -13 0 -32 -23 -31 -40 0 -5 7 1 15 15 10 16 13 18 8 5 -31 -86
-45 -174 -50 -315 -7 -163 5 -308 29 -375 32 -89 31 -83 13 -61 -20 25 -21 8
-1 -18 10 -13 15 -15 15 -6 0 7 17 -3 37 -24 43 -43 65 -50 138 -44 37 3 52 1
48 -6 -4 -6 -2 -7 3 -3 5 5 9 14 9 20 0 5 6 12 14 15 9 3 11 0 6 -9 -5 -8 4
-3 18 10 27 25 35 37 17 26 -16 -10 -12 3 10 33 40 54 51 130 53 360 2 233 -6
296 -49 387 -17 37 -20 51 -11 58 8 6 7 7 -4 4 -16 -5 -64 34 -55 44 13 12
-131 8 -154 -5z m-30 -20 c0 -2 -8 -10 -17 -17 -16 -13 -17 -12 -4 4 13 16 21
21 21 13z m159 -100 c21 -42 25 -66 29 -191 2 -79 1 -160 -2 -180 -9 -46 -37
-75 -66 -68 l-21 6 21 14 c16 11 20 22 15 40 -4 19 -3 23 7 17 10 -6 9 -3 -1
9 -15 18 -26 23 -16 7 4 -6 -5 -7 -23 -4 -20 4 -34 0 -46 -12 -17 -16 -18 -35
-4 -109 1 -6 8 -11 17 -12 9 0 37 -3 63 -5 25 -2 45 -1 42 3 -2 4 3 12 11 19
8 7 15 9 15 4 -3 -78 -23 -202 -39 -238 -18 -42 -23 -46 -54 -46 -47 0 -64 24
-84 111 -13 57 -16 121 -15 279 3 325 24 415 96 408 26 -3 35 -11 55 -52z"/>
<path d="M2880 1726 c0 -2 9 -6 20 -9 11 -3 18 -1 14 4 -5 9 -34 13 -34 5z"/>
<path d="M2812 1450 c0 -14 2 -19 5 -12 2 6 2 18 0 25 -3 6 -5 1 -5 -13z"/>
<path d="M2811 1334 c0 -11 3 -14 6 -6 3 7 2 16 -1 19 -3 4 -6 -2 -5 -13z"/>
<path d="M2937 1283 c-5 -26 -4 -26 9 -8 16 22 18 35 5 35 -5 0 -11 -12 -14
-27z"/>
<path d="M2801 1264 c0 -11 3 -14 6 -6 3 7 2 16 -1 19 -3 4 -6 -2 -5 -13z"/>
<path d="M2860 1194 c0 -2 9 -8 20 -14 11 -6 20 -7 20 -2 0 6 -9 12 -20 15
-11 3 -20 3 -20 1z"/>
<path d="M2963 1125 c0 -22 2 -30 4 -17 2 12 2 30 0 40 -3 9 -5 -1 -4 -23z"/>
<path d="M2952 1050 c0 -14 2 -19 5 -12 2 6 2 18 0 25 -3 6 -5 1 -5 -13z"/>
<path d="M2925 979 c-4 -6 -5 -12 -2 -15 2 -3 7 2 10 11 7 17 1 20 -8 4z"/>
<path d="M2151 1657 c-8 -81 -12 -150 -9 -152 3 -3 9 11 15 30 7 22 7 33 1 29
-9 -6 -7 25 9 131 6 37 7 38 14 15 l9 -25 -5 25 c-17 101 -21 95 -34 -53z"/>
<path d="M3576 1792 c-3 -4 11 -14 29 -21 l35 -12 3 -317 2 -317 0 318 0 318
-32 20 c-17 11 -34 16 -37 11z"/>
<path d="M4585 1774 c11 -8 19 -20 17 -25 -1 -6 2 -8 8 -4 6 4 11 -99 13 -307
l2 -313 3 313 2 314 -22 19 c-13 10 -27 18 -33 18 -5 0 -1 -7 10 -15z"/>
<path d="M5432 1738 c-12 -28 -20 -53 -18 -55 2 -2 13 19 25 48 12 28 21 53
19 55 -3 2 -14 -20 -26 -48z"/>
<path d="M4364 1660 c0 -69 1 -97 3 -62 2 34 2 90 0 125 -2 34 -3 6 -3 -63z"/>
<path d="M497 1725 c3 -27 7 -52 9 -54 8 -9 2 65 -6 84 -6 13 -7 2 -3 -30z"/>
<path d="M1266 1754 c-9 -22 -7 -102 2 -107 4 -3 7 24 7 59 0 35 -1 64 -1 64
-1 0 -5 -7 -8 -16z"/>
<path d="M3287 1763 c-10 -9 -9 -41 2 -47 4 -3 8 8 7 24 -1 17 -1 30 -2 30 0
0 -4 -3 -7 -7z"/>
<path d="M3540 1755 c-7 -9 -11 -17 -9 -20 3 -2 10 5 17 15 14 24 10 26 -8 5z"/>
<path d="M5646 1761 c-4 -7 -5 -15 -2 -18 9 -9 19 4 14 18 -4 11 -6 11 -12 0z"/>
<path d="M2660 1745 c0 -8 2 -15 4 -15 2 0 6 7 10 15 3 8 1 15 -4 15 -6 0 -10
-7 -10 -15z"/>
<path d="M295 1740 c-3 -5 -1 -10 4 -10 6 0 11 5 11 10 0 6 -2 10 -4 10 -3 0
-8 -4 -11 -10z"/>
<path d="M721 1734 c0 -11 3 -14 6 -6 3 7 2 16 -1 19 -3 4 -6 -2 -5 -13z"/>
<path d="M1385 1735 c-18 -8 -23 -14 -13 -15 9 0 24 -7 33 -17 14 -14 18 -14
26 -2 13 21 11 49 -3 48 -7 0 -26 -7 -43 -14z m45 -3 c0 -15 -11 -21 -27 -15
-12 5 -12 7 -1 14 17 11 28 11 28 1z"/>
<path d="M2500 1725 c-13 -14 -20 -25 -15 -25 4 0 14 8 21 18 11 15 14 5 14
-68 1 -47 6 -94 11 -105 7 -15 8 -12 4 15 -2 19 -5 70 -6 113 -1 42 -3 77 -4
77 -1 0 -12 -11 -25 -25z"/>
<path d="M2311 1688 c0 -29 4 -62 9 -73 6 -12 7 6 3 50 -5 63 -4 69 10 57 9
-8 18 -23 20 -35 4 -21 4 -21 6 2 1 21 -22 50 -41 51 -5 0 -8 -24 -7 -52z"/>
<path d="M4112 1733 c-7 -2 -17 -14 -23 -26 l-12 -22 24 22 c13 12 40 23 59
26 l35 4 -35 1 c-19 0 -41 -2 -48 -5z"/>
<path d="M2655 1708 c-11 -31 -25 -111 -21 -116 5 -4 8 5 25 86 8 39 6 58 -4
30z"/>
<path d="M3421 1704 c0 -11 3 -14 6 -6 3 7 2 16 -1 19 -3 4 -6 -2 -5 -13z"/>
<path d="M706 1664 c-3 -26 -4 -49 -2 -52 3 -2 8 17 11 43 4 25 5 48 3 51 -3
2 -8 -17 -12 -42z"/>
<path d="M5220 1690 c-6 -11 -8 -20 -6 -20 3 0 10 9 16 20 6 11 8 20 6 20 -3
0 -10 -9 -16 -20z"/>
<path d="M4492 1680 c0 -14 2 -19 5 -12 2 6 2 18 0 25 -3 6 -5 1 -5 -13z"/>
<path d="M1722 1670 c0 -14 2 -19 5 -12 2 6 2 18 0 25 -3 6 -5 1 -5 -13z"/>
<path d="M2491 1580 c-3 -63 -4 -234 -3 -379 1 -231 4 -287 15 -270 1 2 0 175
-3 384 -3 209 -7 328 -9 265z"/>
<path d="M4266 1668 c-3 -13 -5 -32 -5 -43 1 -11 5 -2 10 19 10 42 6 62 -5 24z"/>
<path d="M4145 1670 c-3 -5 -1 -10 4 -10 6 0 11 5 11 10 0 6 -2 10 -4 10 -3 0
-8 -4 -11 -10z"/>
<path d="M5893 1625 c0 -33 2 -45 4 -27 2 18 2 45 0 60 -2 15 -4 0 -4 -33z"/>
<path d="M512 1640 c0 -14 2 -19 5 -12 2 6 2 18 0 25 -3 6 -5 1 -5 -13z"/>
<path d="M2349 1653 c-4 -59 -2 -183 2 -183 4 0 7 43 8 95 1 52 0 95 -4 95 -3
0 -5 -3 -6 -7z"/>
<path d="M3321 1632 c6 -18 15 -35 20 -38 5 -3 4 7 -3 23 -17 41 -30 53 -17
15z"/>
<path d="M1008 1638 c-6 -18 -10 -703 -4 -697 6 5 18 709 12 709 -2 0 -6 -6
-8 -12z"/>
<path d="M2052 1630 c0 -14 2 -19 5 -12 2 6 2 18 0 25 -3 6 -5 1 -5 -13z"/>
<path d="M4493 1615 c0 -22 2 -30 4 -17 2 12 2 30 0 40 -3 9 -5 -1 -4 -23z"/>
<path d="M5186 1625 c-9 -26 -7 -32 5 -12 6 10 9 21 6 23 -2 3 -7 -2 -11 -11z"/>
<path d="M1721 1614 c0 -11 3 -14 6 -6 3 7 2 16 -1 19 -3 4 -6 -2 -5 -13z"/>
<path d="M3422 1610 c0 -14 2 -19 5 -12 2 6 2 18 0 25 -3 6 -5 1 -5 -13z"/>
<path d="M4122 1601 c-6 -17 -7 -31 -3 -31 8 0 22 52 16 58 -1 2 -7 -11 -13
-27z"/>
<path d="M2681 1604 c0 -11 3 -14 6 -6 3 7 2 16 -1 19 -3 4 -6 -2 -5 -13z"/>
<path d="M517 1589 c4 -13 8 -18 11 -10 2 7 -1 18 -6 23 -8 8 -9 4 -5 -13z"/>
<path d="M692 1580 c0 -14 2 -19 5 -12 2 6 2 18 0 25 -3 6 -5 1 -5 -13z"/>
<path d="M1338 1593 c7 -3 16 -2 19 1 4 3 -2 6 -13 5 -11 0 -14 -3 -6 -6z"/>
<path d="M4241 1537 c-6 -35 -11 -77 -10 -93 1 -16 7 11 15 60 16 103 12 129
-5 33z"/>
<path d="M1722 1565 c0 -16 2 -22 5 -12 2 9 2 23 0 30 -3 6 -5 -1 -5 -18z"/>
<path d="M5166 1575 c-9 -26 -7 -32 5 -12 6 10 9 21 6 23 -2 3 -7 -2 -11 -11z"/>
<path d="M3346 1567 c3 -10 9 -15 12 -12 3 3 0 11 -7 18 -10 9 -11 8 -5 -6z"/>
<path d="M1412 1550 c0 -14 2 -19 5 -12 2 6 2 18 0 25 -3 6 -5 1 -5 -13z"/>
<path d="M3532 1550 c0 -14 2 -19 5 -12 2 6 2 18 0 25 -3 6 -5 1 -5 -13z"/>
<path d="M4493 1535 c0 -22 2 -30 4 -17 2 12 2 30 0 40 -3 9 -5 -1 -4 -23z"/>
<path d="M5372 1550 c0 -14 2 -19 5 -12 2 6 2 18 0 25 -3 6 -5 1 -5 -13z"/>
<path d="M3423 1520 c0 -25 2 -35 4 -22 2 12 2 32 0 45 -2 12 -4 2 -4 -23z"/>
<path d="M531 1534 c0 -11 3 -14 6 -6 3 7 2 16 -1 19 -3 4 -6 -2 -5 -13z"/>
<path d="M3106 1533 c5 -5 12 -12 16 -18 4 -6 8 -2 8 8 0 9 -7 17 -17 17 -9 0
-12 -3 -7 -7z"/>
<path d="M5145 1530 c-3 -5 -1 -10 4 -10 6 0 11 5 11 10 0 6 -2 10 -4 10 -3 0
-8 -4 -11 -10z"/>
<path d="M1410 1515 c-8 -45 -8 -47 2 -37 5 5 8 18 5 28 -3 11 -6 15 -7 9z"/>
<path d="M1722 1500 c0 -14 2 -19 5 -12 2 6 2 18 0 25 -3 6 -5 1 -5 -13z"/>
<path d="M3371 1490 c6 -16 15 -32 20 -35 4 -3 3 8 -2 25 -6 16 -15 32 -20 35
-4 3 -3 -8 2 -25z"/>
<path d="M1 1494 c0 -11 3 -14 6 -6 3 7 2 16 -1 19 -3 4 -6 -2 -5 -13z"/>
<path d="M537 1489 c4 -13 8 -18 11 -10 2 7 -1 18 -6 23 -8 8 -9 4 -5 -13z"/>
<path d="M3541 1493 c0 -12 -4 -30 -7 -40 -5 -14 -4 -15 5 -7 7 6 11 24 8 40
-3 21 -4 23 -6 7z"/>
<path d="M2575 1489 c4 -5 22 -9 42 -9 45 0 40 5 -10 13 -22 3 -35 2 -32 -4z"/>
<path d="M5361 1484 c0 -11 3 -14 6 -6 3 7 2 16 -1 19 -3 4 -6 -2 -5 -13z"/>
<path d="M3124 1385 c0 -60 1 -84 3 -52 2 32 2 81 0 110 -2 29 -3 3 -3 -58z"/>
<path d="M801 1454 c0 -11 3 -14 6 -6 3 7 2 16 -1 19 -3 4 -6 -2 -5 -13z"/>
<path d="M1402 1438 c-1 -14 -5 -35 -8 -45 -5 -14 -4 -15 5 -7 7 7 11 26 8 45
-3 28 -4 29 -5 7z"/>
<path d="M1722 1440 c0 -14 2 -19 5 -12 2 6 2 18 0 25 -3 6 -5 1 -5 -13z"/>
<path d="M3422 1432 c-1 -18 -6 -31 -11 -28 -4 3 -3 -14 3 -37 l11 -42 3 38
c2 21 1 52 -1 70 l-4 32 -1 -33z"/>
<path d="M4087 1443 c-3 -4 -8 -39 -13 -78 -6 -57 -9 -64 -14 -40 -9 39 -34
88 -56 106 -11 8 -7 -1 9 -26 35 -54 46 -110 47 -240 0 -69 6 -127 15 -155
l15 -45 -6 45 c-9 64 -6 315 5 380 9 54 8 70 -2 53z"/>
<path d="M2664 1310 c0 -74 1 -105 3 -67 2 37 2 97 0 135 -2 37 -3 6 -3 -68z"/>
<path d="M3234 1382 c1 -34 6 -65 11 -70 4 -4 5 0 3 8 -3 8 -1 22 3 32 5 10 3
31 -6 55 l-14 38 3 -63z"/>
<path d="M4492 1391 c0 -29 4 -64 8 -79 5 -17 7 -1 4 47 -4 85 -13 108 -12 32z"/>
<path d="M2340 1370 c0 -35 2 -61 4 -59 8 8 10 108 3 116 -4 3 -7 -22 -7 -57z"/>
<path d="M4227 1403 c-9 -8 -8 -277 1 -328 4 -22 7 45 7 148 0 103 0 187 -1
187 0 0 -4 -3 -7 -7z"/>
<path d="M5353 1330 c0 -47 2 -66 4 -42 2 23 2 61 0 85 -2 23 -4 4 -4 -43z"/>
<path d="M1723 1345 c0 -27 2 -38 4 -22 2 15 2 37 0 50 -2 12 -4 0 -4 -28z"/>
<path d="M3537 1373 c-5 -10 0 -174 6 -179 2 -3 5 38 6 91 1 89 -1 106 -12 88z"/>
<path d="M1391 1358 c0 -9 -4 -25 -7 -35 -5 -14 -4 -15 5 -7 7 7 11 22 8 35
-2 13 -5 16 -6 7z"/>
<path d="M4802 1340 c12 -16 23 -30 25 -30 2 0 -4 14 -14 30 -9 17 -21 30 -25
30 -5 0 1 -13 14 -30z"/>
<path d="M240 1335 c0 -8 2 -15 4 -15 2 0 6 7 10 15 3 8 1 15 -4 15 -6 0 -10
-7 -10 -15z"/>
<path d="M3260 1337 c0 -7 7 -22 15 -33 13 -17 14 -16 4 14 -11 33 -19 41 -19
19z"/>
<path d="M2120 1339 c0 -3 11 -20 25 -39 13 -18 32 -55 41 -82 9 -27 18 -47
20 -45 9 8 -36 112 -61 142 -14 17 -25 27 -25 24z"/>
<path d="M4364 1210 c0 -74 1 -105 3 -67 2 37 2 97 0 135 -2 37 -3 6 -3 -68z"/>
<path d="M5102 1285 c0 -16 2 -22 5 -12 2 9 2 23 0 30 -3 6 -5 -1 -5 -18z"/>
<path d="M1381 1284 c0 -11 3 -14 6 -6 3 7 2 16 -1 19 -3 4 -6 -2 -5 -13z"/>
<path d="M1848 1290 c12 -5 22 -17 23 -27 0 -11 3 -13 6 -5 7 17 -15 42 -36
41 -11 0 -9 -3 7 -9z"/>
<path d="M4832 1285 c-1 -11 3 -38 7 -60 l9 -40 0 35 c0 19 -4 46 -8 60 -6 20
-8 21 -8 5z"/>
<path d="M2342 1121 c-1 -127 -5 -177 -14 -184 -10 -6 -9 -7 2 -4 12 3 16 28
20 123 3 65 2 146 -1 179 -3 35 -6 -12 -7 -114z"/>
<path d="M3290 1265 c0 -5 5 -17 10 -25 5 -8 10 -10 10 -5 0 6 -5 17 -10 25
-5 8 -10 11 -10 5z"/>
<path d="M4501 1254 c0 -11 3 -14 6 -6 3 7 2 16 -1 19 -3 4 -6 -2 -5 -13z"/>
<path d="M1372 1225 c0 -16 2 -22 5 -12 2 9 2 23 0 30 -3 6 -5 -1 -5 -18z"/>
<path d="M1800 1100 c-3 -74 -4 -137 -2 -139 9 -16 12 24 10 140 l-3 134 -5
-135z"/>
<path d="M1885 1194 c14 -114 74 -235 117 -234 7 1 1 7 -13 15 -32 17 -63 81
-90 183 -10 42 -17 59 -14 36z"/>
<path d="M1518 1213 c12 -2 32 -2 45 0 12 2 2 4 -23 4 -25 0 -35 -2 -22 -4z"/>
<path d="M3120 1175 c0 -27 -5 -45 -11 -45 -8 0 -8 -4 -1 -13 6 -6 12 -28 15
-47 2 -19 5 7 5 58 1 50 0 92 -3 92 -3 0 -5 -20 -5 -45z"/>
<path d="M3310 1206 c0 -8 4 -17 9 -20 5 -4 7 3 4 14 -6 23 -13 26 -13 6z"/>
<path d="M3242 1190 c0 -14 2 -19 5 -12 2 6 2 18 0 25 -3 6 -5 1 -5 -13z"/>
<path d="M5361 1194 c0 -11 3 -14 6 -6 3 7 2 16 -1 19 -3 4 -6 -2 -5 -13z"/>
<path d="M865 1148 c-4 -29 -2 -91 3 -138 l9 -85 1 138 c0 75 -1 137 -3 137
-2 0 -6 -24 -10 -52z"/>
<path d="M1574 1070 c0 -74 1 -105 3 -67 2 37 2 97 0 135 -2 37 -3 6 -3 -68z"/>
<path d="M1361 1174 c0 -11 3 -14 6 -6 3 7 2 16 -1 19 -3 4 -6 -2 -5 -13z"/>
<path d="M4845 1124 c16 -121 64 -220 127 -265 34 -25 74 -28 94 -8 12 12 10
21 -11 63 -14 27 -25 43 -25 35 0 -8 9 -29 20 -47 25 -40 19 -52 -24 -52 -72
0 -160 142 -168 270 -1 23 -6 44 -11 47 -5 3 -6 -16 -2 -43z"/>
<path d="M1271 1144 c0 -11 3 -14 6 -6 3 7 2 16 -1 19 -3 4 -6 -2 -5 -13z"/>
<path d="M3330 1155 c0 -5 5 -17 10 -25 5 -8 10 -10 10 -5 0 6 -5 17 -10 25
-5 8 -10 11 -10 5z"/>
<path d="M5371 1144 c0 -11 3 -14 6 -6 3 7 2 16 -1 19 -3 4 -6 -2 -5 -13z"/>
<path d="M1346 1124 c-4 -14 -5 -28 -3 -31 3 -2 8 8 11 23 4 14 5 28 3 31 -3
2 -8 -8 -11 -23z"/>
<path d="M3237 1128 c-3 -12 -3 -28 1 -35 5 -8 8 0 9 22 1 40 -2 44 -10 13z"/>
<path d="M2211 1124 c0 -11 3 -14 6 -6 3 7 2 16 -1 19 -3 4 -6 -2 -5 -13z"/>
<path d="M2672 1120 c0 -14 2 -19 5 -12 2 6 2 18 0 25 -3 6 -5 1 -5 -13z"/>
<path d="M5002 1100 c0 -19 2 -27 5 -17 2 9 2 25 0 35 -3 9 -5 1 -5 -18z"/>
<path d="M5885 1120 c3 -5 8 -10 11 -10 2 0 4 5 4 10 0 6 -5 10 -11 10 -5 0
-7 -4 -4 -10z"/>
<path d="M1463 1093 c-3 -10 -8 -22 -10 -28 -3 -5 3 -1 11 9 16 20 21 36 11
36 -3 0 -8 -8 -12 -17z"/>
<path d="M3543 1065 c0 -27 2 -38 4 -22 2 15 2 37 0 50 -2 12 -4 0 -4 -28z"/>
<path d="M4502 1090 c0 -14 2 -19 5 -12 2 6 2 18 0 25 -3 6 -5 1 -5 -13z"/>
<path d="M2209 1062 c-3 -20 -2 -29 4 -23 5 5 7 19 5 32 -3 20 -5 19 -9 -9z"/>
<path d="M1722 1055 c0 -16 2 -22 5 -12 2 9 2 23 0 30 -3 6 -5 -1 -5 -18z"/>
<path d="M2681 1064 c0 -11 3 -14 6 -6 3 7 2 16 -1 19 -3 4 -6 -2 -5 -13z"/>
<path d="M1327 1063 c-4 -3 -7 -13 -7 -22 1 -13 3 -13 11 2 11 19 8 33 -4 20z"/>
<path d="M5011 1039 c0 -13 4 -33 9 -44 7 -14 8 -8 3 20 -7 46 -13 59 -12 24z"/>
<path d="M3370 1041 c0 -12 29 -81 35 -81 2 0 -3 20 -12 45 -14 42 -23 56 -23
36z"/>
<path d="M2692 1015 c6 -14 13 -24 14 -22 6 6 -9 47 -17 47 -5 0 -3 -11 3 -25z"/>
<path d="M3643 1000 c0 -25 2 -35 4 -22 2 12 2 32 0 45 -2 12 -4 2 -4 -23z"/>
<path d="M4362 1015 c0 -16 2 -22 5 -12 2 9 2 23 0 30 -3 6 -5 -1 -5 -18z"/>
<path d="M3239 1013 c-1 -10 -3 -33 -5 -52 -2 -19 -2 -32 2 -29 7 8 17 98 10
98 -3 0 -7 -8 -7 -17z"/>
<path d="M4051 1012 c-1 -31 -17 -60 -54 -99 -17 -18 -26 -33 -19 -33 15 0 71
76 78 106 3 13 4 29 1 36 -3 7 -6 3 -6 -10z"/>
<path d="M1307 1013 c-4 -3 -7 -11 -7 -17 0 -6 5 -5 12 2 6 6 9 14 7 17 -3 3
-9 2 -12 -2z"/>
<path d="M2190 985 c-14 -44 -53 -91 -91 -110 -37 -20 -132 -19 -171 1 -16 9
-28 11 -24 6 11 -18 74 -42 108 -42 43 1 106 30 140 66 27 29 63 102 55 111
-3 2 -10 -12 -17 -32z"/>
<path d="M4240 1011 c0 -6 4 -13 10 -16 6 -3 7 1 4 9 -7 18 -14 21 -14 7z"/>
<path d="M3542 960 c0 -14 2 -19 5 -12 2 6 2 18 0 25 -3 6 -5 1 -5 -13z"/>
<path d="M3094 945 c-9 -14 -15 -27 -13 -30 3 -2 12 10 21 26 21 36 15 39 -8
4z"/>
<path d="M4343 959 c-5 -5 -19 -11 -31 -12 -11 0 -19 -4 -16 -8 6 -10 41 1 55
17 13 16 8 19 -8 3z"/>
<path d="M1030 950 c-11 -7 -5 -10 23 -10 23 0 36 4 32 10 -8 13 -35 13 -55 0z"/>
<path d="M1251 926 c-1 -24 1 -27 14 -16 16 14 21 25 6 15 -5 -3 -12 3 -14 12
-3 11 -5 6 -6 -11z"/>
<path d="M3400 935 c-11 -13 -10 -14 4 -9 9 3 16 10 16 15 0 13 -6 11 -20 -6z"/>
<path d="M4106 927 c3 -10 9 -15 12 -12 3 3 0 11 -7 18 -10 9 -11 8 -5 -6z"/>
<path d="M2284 909 c-14 -15 -16 -24 -8 -37 9 -14 31 -17 133 -20 66 -1 121 1
121 5 0 4 -54 7 -120 5 -103 -3 -121 -1 -126 13 -4 9 2 25 11 35 10 11 16 20
13 20 -3 0 -13 -9 -24 -21z"/>
<path d="M4520 916 c0 -2 8 -10 18 -17 15 -13 16 -12 3 4 -13 16 -21 21 -21
13z"/>
<path d="M1880 890 c-15 -29 -56 -43 -83 -29 -21 10 -21 10 -3 -5 25 -20 36
-20 64 0 21 14 48 54 38 54 -3 0 -10 -9 -16 -20z"/>
<path d="M5630 896 c0 -2 8 -10 18 -17 15 -13 16 -12 3 4 -13 16 -21 21 -21
13z"/>
<path d="M5358 873 c7 -3 16 -2 19 1 4 3 -2 6 -13 5 -11 0 -14 -3 -6 -6z"/>
<path d="M2820 864 c0 -2 9 -8 20 -14 11 -6 20 -7 20 -2 0 6 -9 12 -20 15 -11
3 -20 3 -20 1z"/>
<path d="M5428 863 c23 -2 61 -2 85 0 23 2 4 4 -43 4 -47 0 -66 -2 -42 -4z"/>
<path d="M1645 850 l-110 -6 112 -2 c66 -1 114 2 118 8 3 6 3 9 -2 8 -4 -1
-57 -5 -118 -8z"/>
<path d="M2928 853 c7 -3 16 -2 19 1 4 3 -2 6 -13 5 -11 0 -14 -3 -6 -6z"/>
<path d="M3113 848 c15 -10 54 -10 60 0 3 4 -12 7 -34 7 -22 1 -33 -2 -26 -7z"/>
<path d="M3880 840 c-18 -12 -2 -12 25 0 13 6 15 9 5 9 -8 0 -22 -4 -30 -9z"/>
<path d="M3470 830 c0 -5 16 -10 36 -10 21 0 33 4 29 10 -3 6 -19 10 -36 10
-16 0 -29 -4 -29 -10z"/>
<path d="M4615 830 c7 -12 52 -12 80 0 15 6 6 9 -33 9 -33 1 -51 -3 -47 -9z"/>
<path d="M4743 833 c9 -2 25 -2 35 0 9 3 1 5 -18 5 -19 0 -27 -2 -17 -5z"/>
<path d="M3205 821 c-15 -7 -11 -9 19 -9 26 0 34 3 25 9 -16 10 -18 10 -44 0z"/>
<path d="M2227 813 c18 -2 50 -2 70 0 21 2 7 4 -32 4 -38 0 -55 -2 -38 -4z"/>
<path d="M2458 813 c23 -2 59 -2 80 0 20 2 1 4 -43 4 -44 0 -61 -2 -37 -4z"/>
<path d="M2851 806 c-8 -10 -9 -16 -1 -21 6 -4 9 -1 8 7 -2 10 19 13 92 15 53
1 86 -1 76 -6 -18 -7 -18 -8 -2 -14 10 -4 19 -7 20 -7 1 0 2 9 3 20 2 19 -4
20 -91 20 -68 0 -97 -4 -105 -14z"/>
<path d="M3403 805 c0 -8 4 -12 9 -9 5 3 6 10 3 15 -9 13 -12 11 -12 -6z"/>
<path d="M5640 669 c0 -97 4 -148 10 -144 6 4 10 65 10 151 0 89 -4 144 -10
144 -6 0 -10 -57 -10 -151z"/>
<path d="M3465 799 c-4 -6 -5 -12 -4 -14 7 -7 59 8 59 16 0 13 -47 11 -55 -2z"/>
<path d="M2619 783 c-13 -16 -12 -17 4 -4 9 7 17 15 17 17 0 8 -8 3 -21 -13z"/>
<path d="M3435 790 c-3 -5 -1 -10 4 -10 6 0 11 5 11 10 0 6 -2 10 -4 10 -3 0
-8 -4 -11 -10z"/>
<path d="M5191 784 c0 -11 3 -14 6 -6 3 7 2 16 -1 19 -3 4 -6 -2 -5 -13z"/>
<path d="M5092 770 c0 -14 2 -19 5 -12 2 6 2 18 0 25 -3 6 -5 1 -5 -13z"/>
<path d="M548 753 c61 -2 163 -2 225 0 61 1 11 3 -113 3 -124 0 -174 -2 -112
-3z"/>
<path d="M2616 743 c-6 -14 -5 -15 5 -6 7 7 10 15 7 18 -3 3 -9 -2 -12 -12z"/>
<path d="M2338 723 c7 -3 16 -2 19 1 4 3 -2 6 -13 5 -11 0 -14 -3 -6 -6z"/>
<path d="M5201 704 c0 -11 3 -14 6 -6 3 7 2 16 -1 19 -3 4 -6 -2 -5 -13z"/>
<path d="M2320 700 c0 -13 11 -13 30 0 12 8 11 10 -7 10 -13 0 -23 -4 -23 -10z"/>
<path d="M5882 680 c0 -14 2 -19 5 -12 2 6 2 18 0 25 -3 6 -5 1 -5 -13z"/>
<path d="M3292 665 c0 -16 2 -22 5 -12 2 9 2 23 0 30 -3 6 -5 -1 -5 -18z"/>
<path d="M3420 670 c0 -5 5 -10 10 -10 6 0 10 5 10 10 0 6 -4 10 -10 10 -5 0
-10 -4 -10 -10z"/>
<path d="M5093 640 c0 -25 2 -35 4 -22 2 12 2 32 0 45 -2 12 -4 2 -4 -23z"/>
<path d="M3062 635 c0 -16 2 -22 5 -12 2 9 2 23 0 30 -3 6 -5 -1 -5 -18z"/>
<path d="M446 642 c-2 -4 2 -16 10 -27 8 -10 14 -14 14 -8 0 7 -5 15 -10 18
-6 4 -8 11 -5 16 4 5 4 9 1 9 -3 0 -7 -3 -10 -8z"/>
<path d="M521 630 c14 -31 19 -36 19 -24 0 6 -7 19 -16 30 -14 18 -14 18 -3
-6z"/>
<path d="M3002 620 c0 -14 2 -19 5 -12 2 6 2 18 0 25 -3 6 -5 1 -5 -13z"/>
<path d="M3620 629 c0 -5 5 -7 10 -4 6 3 10 8 10 11 0 2 -4 4 -10 4 -5 0 -10
-5 -10 -11z"/>
<path d="M2722 610 c0 -14 2 -19 5 -12 2 6 2 18 0 25 -3 6 -5 1 -5 -13z"/>
<path d="M779 603 c-11 -14 -13 -41 -8 -123 l5 -105 2 111 c1 70 6 114 14 122
7 7 10 12 7 12 -3 0 -12 -8 -20 -17z"/>
<path d="M543 545 c0 -22 2 -30 4 -17 2 12 2 30 0 40 -3 9 -5 -1 -4 -23z"/>
<path d="M2581 570 c0 -8 4 -22 9 -30 12 -18 12 -2 0 25 -6 13 -9 15 -9 5z"/>
<path d="M5093 445 c0 -27 2 -38 4 -22 2 15 2 37 0 50 -2 12 -4 0 -4 -28z"/>
<path d="M1 434 c0 -11 3 -14 6 -6 3 7 2 16 -1 19 -3 4 -6 -2 -5 -13z"/>
<path d="M543 335 c0 -38 2 -53 4 -32 2 20 2 52 0 70 -2 17 -4 1 -4 -38z"/>
<path d="M771 344 c0 -11 3 -14 6 -6 3 7 2 16 -1 19 -3 4 -6 -2 -5 -13z"/>
<path d="M5295 340 c3 -5 8 -10 11 -10 2 0 4 5 4 10 0 6 -5 10 -11 10 -5 0 -7
-4 -4 -10z"/>
<path d="M5632 305 c0 -16 2 -22 5 -12 2 9 2 23 0 30 -3 6 -5 -1 -5 -18z"/>
<path d="M5614 209 c-3 -6 -20 -19 -38 -30 -17 -10 -25 -19 -19 -19 13 0 83
59 71 60 -4 0 -10 -5 -14 -11z"/>
<path d="M485 189 c-16 -10 -25 -19 -19 -19 7 0 22 9 35 20 30 24 23 24 -16
-1z"/>
<path d="M368 173 c7 -3 16 -2 19 1 4 3 -2 6 -13 5 -11 0 -14 -3 -6 -6z"/>
<path d="M858 173 c12 -2 30 -2 40 0 9 3 -1 5 -23 4 -22 0 -30 -2 -17 -4z"/>
<path d="M805 160 c-3 -6 1 -7 9 -4 18 7 21 14 7 14 -6 0 -13 -4 -16 -10z"/>
<path d="M5458 163 c7 -3 16 -2 19 1 4 3 -2 6 -13 5 -11 0 -14 -3 -6 -6z"/>
<path d="M5818 153 c-18 -21 -31 -43 -25 -43 2 0 13 14 25 30 25 33 24 41 0
13z"/>
<path d="M5508 153 c6 -2 18 -2 25 0 6 3 1 5 -13 5 -14 0 -19 -2 -12 -5z"/>
<path d="M5292 66 c7 -8 15 -12 17 -11 5 6 -10 25 -20 25 -5 0 -4 -6 3 -14z"/>
<path d="M3803 43 c9 -2 25 -2 35 0 9 3 1 5 -18 5 -19 0 -27 -2 -17 -5z"/>
<path d="M5350 16 c0 -2 7 -7 16 -10 8 -3 12 -2 9 4 -6 10 -25 14 -25 6z"/>
<path d="M498 3 c6 -2 18 -2 25 0 6 3 1 5 -13 5 -14 0 -19 -2 -12 -5z"/>
</g>
</svg>
