<?xml version="1.0" encoding="UTF-8"?><svg id="uuid-a4dedca4-5eeb-42de-85b1-85bbacd73e4c" xmlns="http://www.w3.org/2000/svg" width="16.9mm" height="16.9mm" viewBox="0 0 47.91 47.91"><defs><style>.uuid-51af6434-905c-48af-9d94-b4b1723afced{fill:#ff8cfa;}</style></defs><path class="uuid-51af6434-905c-48af-9d94-b4b1723afced" d="M20.37,33.01c-.36-.15-.72-.29-1.07-.44-.3-.12-.65-.34-.98-.31-.2.02-.39.14-.54.28-.57.53-1.02,1.17-1.34,1.88-.21.47-.4,1.01-.29,1.53.23,1.04,1.5,1.1,2.31.75l2.84-2.47c.21-.24-.02-.63-.21-.81-.2-.19-.46-.3-.72-.4h0Z"/><path class="uuid-51af6434-905c-48af-9d94-b4b1723afced" d="M17.58,20.31c-.16.05-.27.22-.27.44,0,.33.27.44.49.49.16,0,.27-.05.33-.22.05-.16.05-.44-.16-.6-.11-.05-.27-.11-.38-.11h0Z"/><path class="uuid-51af6434-905c-48af-9d94-b4b1723afced" d="M31.95,31.16c-.1-.06-.2-.12-.31-.17-.1-.04-.21-.12-.32-.11-.05,0-.1.02-.14.04-.22.11-.39.3-.59.44-.29.21-.58.4-.88.59-.84.53-1.71,1-2.61,1.42-.51.23-1.02.44-1.55.63-.45.16-.9.29-1.37.4-.05.01-.1.02-.14.05-.05.03-.07.09-.09.15-.02.1-.01.22,0,.32.03.17.11.34.19.49.11.23.25.46.39.68.29.45.64.87,1.09,1.16.3.2.64.33.99.42,1.09.28,2.33.18,3.36-.29.82-.38,1.59-.9,2.21-1.56.14-.15.28-.3.41-.46.23-.29.42-.6.54-.94.35-.97.01-2.07-.67-2.81-.16-.17-.34-.33-.53-.45h0Z"/><path class="uuid-51af6434-905c-48af-9d94-b4b1723afced" d="M18.95,20.09c-.11-.33-.49-.93-1.42-.82.82-.05,1.31.61,1.42.82h0Z"/><path class="uuid-51af6434-905c-48af-9d94-b4b1723afced" d="M33.23,23.28c-.06-.04-.12-.07-.19-.09-.36-.15-.71-.35-.99-.63-.3-.31-.43-.69-.52-1.11-.18-.83-.06-1.6.27-2.37.23-.53.56-1,.68-1.58.03-.16.05-.32.06-.48,0-.11.02-.31-.07-.38-.04-.03-.09-.03-.13-.03-.15.01-.26.11-.39.16-.09.03-.18.06-.27.08-.21.04-.42.06-.63.05-.29-.02-.65-.1-.86-.31-.21-.22-.32-.5-.46-.78-.11-.23-.26-.46-.49-.56-.18-.08-.36-.04-.54-.07-.17-.02-.33-.13-.45-.24-.31-.27-.45-.59-.48-.99-.03-.39,0-.8.23-1.14.03-.04.06-.09.11-.11.1-.05.22.01.29.1.06.09.09.2.12.31.07.18.24.33.43.21.14-.08.2-.26.21-.42.04-.52.02-1.05-.18-1.54-.04-.1-.09-.2-.15-.3-.03-.05-.08-.18-.15-.19-.05-.01-.09.02-.13.05-.17.14-.39.2-.6.24-.22.04-.44.05-.65.11-.05.01-.1.03-.14.07-.04.04-.06.09-.08.13-.12.32-.17.66-.33.98-.14.29-.33.55-.55.77-.17.17-.36.31-.56.44-.1.06-.21.12-.32.17-.08.04-.25.14-.34.1-.04-.02-.07-.06-.08-.1-.03-.09-.03-.2-.05-.3,0-.03-.02-.07-.05-.08-.03-.01-.06,0-.09.03-.29.21-.56.44-.88.59-.13.06-.29.15-.44.08-.14-.07-.19-.26-.12-.4.04-.08.1-.15.15-.21.2-.26.27-.61.19-.93-.01-.04-.05-.14-.11-.14-.05,0-.08.1-.09.15-.04.09-.08.18-.12.26-.08.17-.17.33-.28.49-.2.28-.5.6-.85.69-1.25.33.16-.99-.38-1.54-.22.99-.71,1.76-1.69,2.36-.82.44-1.69.33-2.45-.05-.38-.22-.76-.66-.76-1.15.03-.31.16-.5.48-.41.26.07.59.28.85.1.07-.05.12-.11.16-.18.29-.47.12-1-.17-1.42-.08-.11-.18-.23-.3-.29-.09-.05-.2-.07-.28-.01-.04.03-.07.06-.09.1-.49.69-1.04,1.41-1.85,1.73-.44.28-.93.16-1.15-.05-.11-.11-.11-.31.04-.38.04-.02.09-.03.13-.04.32-.1.49-.38.64-.66.16-.3.35-.65.39-.99,0-.04,0-.08-.01-.12-.02-.05-.09-.08-.14-.1-.03-.01-.06,0-.09,0-.34.13-.57.4-.77.69-.12.17-.21.37-.3.56-.19.41-.35.84-.48,1.27-.33,1.07-.52,2.22-.44,3.34,0-.05.1-.18.13-.22.06-.11.11-.22.18-.31.44-.52,1.31-.6,1.93-.46.41.04.81.29,1.1.57.27.26.6.74.12.98-.09.05-.18.05-.28.03-.22-.05-.41-.2-.62-.28-.79-.31-1.85-.26-2.44.41-.31.23-.29.68-.26,1.02.03.48.07.95.1,1.43.08,1.23.1,2.46.19,3.68.09,1.23.23,2.46.52,3.66.38,1.54,1.8,2.91,3.27,3.35.37.1.75.17,1.12.26.19.05.39.09.56.21.1.07.18.15.25.24.05.06.09.13.14.19.08.09.2.16.3.22.44.26.96.37,1.47.46.94.16,1.95.22,2.88.03,1.22-.25,2.44-.59,3.59-1.06.53-.22,1.05-.47,1.55-.76.25-.15.49-.32.73-.49.13-.09.27-.19.4-.28.12-.09.28-.17.38-.27.33-.23.66-.45.96-.72.32-.29.59-.62.82-.98.09-.14.19-.27.19-.44,0-.32-.23-.55-.35-.83-.27-.66-.22-1.76.38-2.42.15-.16.81-.43.42-.71h0ZM20.65,25.51c.05-.17.22-.25.39-.24.17.02.39.12.53.21.11.07.26.38.04.43-.31.08-1.14.15-.97-.4ZM16.22,21.91c-.17-.26-.28-.57-.3-.88-.02-.27.08-.42.14-.66.05-.22.33-.44.22-.49-.38.11-.6.6-.65.99-.05.44.22,1.05-.05,1.1-.56-.04-.6-1.02-.71-1.42-.09-.3-.2-.55-.43-.77-.27-.25.04-.41.31-.45.11-.02.22,0,.33-.04.22-.07.4-.21.58-.34.36-.28.74-.64,1.23-.61.87,0,1.58.33,2.18.93.27.22.71,1.21.44,1.98-.05.22-.27.28-.44.28-.34.51-.81.92-1.43,1-.55.07-1.1-.14-1.41-.62h0ZM18.4,25.31c0-.18.1-.37.15-.54.05-.17.09-.36.14-.52.09-.31.22-.6.44-.84.22-.24.22-.45.32-.74.06-.16.25-.39.42-.16.15.2.05.58,0,.79-.11.43-.47.72-.56,1.15-.05.27,0,.54-.09.81-.03.1.54.26.61.32.14.12.14.23.07.31-.07.08-.21.13-.33.15-.27.03-.52-.07-.78-.12-.27-.05-.38-.33-.38-.6h0ZM23.51,28.76c-.08.12-.16.25-.24.37-.15.21-.3.42-.48.61-.26.28-.57.52-.94.63-.4.12-.84.1-1.22-.05-.36-.14-.61-.42-.85-.71-.14-.17-.28-.34-.43-.49-.07-.07-.14-.14-.22-.2-.08-.06-.2-.1-.27-.18-.03-.04-.04-.09-.04-.13-.02-.39.61-.31.84-.48.18-.14.3-.35.49-.49.18-.13.46-.23.66-.1.16.1.22.3.36.41.14.11.22,0,.26-.12.04-.12.13-.16.25-.18.08,0,.17,0,.25.04.18.06.34.18.49.29.16.12.29.24.48.3.18.06.38.1.57.12.02,0,.04,0,.05,0,.07.02.09.06.08.16-.01.08-.06.14-.1.21h0ZM30.02,20.53c-.16.39-.55.66-.82.55-.33-.16-.6-.55-.87-.83l-.33-.38c-.07-.08-.35-.37-.48-.32-.12.05.21.38.25.43.16.19.27.42.39.63.15.26.3.53.45.8.07.11.05.27-.08.31-.05.02-.11.01-.17,0-.16-.03-.33-.03-.49.03-.15.06-.25.19-.37.29-.14.12-.31.21-.49.26-.18.05-.37.07-.56.07-.16,0-.37,0-.51-.08-.3-.15-.55-.38-.72-.68-.08-.14-.13-.29-.17-.45-.05-.2,0-.38.04-.58.02-.08.06-.18.02-.26-.09.18-.2.34-.24.54-.04.19-.04.39,0,.58.04.17.1.34.08.52,0,0,0,.02,0,.03-.01.02-.04.02-.06.02-.44-.03-.55-.51-.64-.86-.04-.17-.08-.34-.16-.5-.08-.17-.25-.28-.31-.45-.08-.24-.09-.58.1-.77.28-.31.68-.4,1.08-.46.21-.03.43-.06.63-.14.19-.07.36-.17.53-.28.55-.33,1.24-.11,1.72.23.42.29.8.68,1.1,1.09.01.01.02.03.03.04.03.04.06.09.1.12.24.17.56,0,.81-.05.36-.06.22.33.15.54h0ZM30.1,18.37c-.18-.02-.25-.13-.35-.26-.06-.07-.12-.15-.18-.22-.14-.15-.29-.29-.45-.42-.01-.01-.03-.02-.04-.03-.43-.34-.95-.58-1.49-.69-.27-.05-.54-.08-.82-.06-.48.02-.91.1-1.34.3-.19.09-.38.18-.58.22-.14.03-.32.07-.46.02-.15-.06-.2-.24-.2-.39,0-.08.02-.17.06-.24.1-.21.34-.34.53-.46.45-.28.97-.45,1.5-.5.5-.05,1.09,0,1.55.21.98.44,2.07,1.1,2.51,2.2.07.18-.06.34-.24.32h0Z"/><path class="uuid-51af6434-905c-48af-9d94-b4b1723afced" d="M27.12,20.28c-.17-.08-.38,0-.49.14-.13.15-.17.39-.04.56.03.04.08.07.14.1.07.03.15.05.23.05.04,0,.09-.01.12-.03.29-.12.35-.67.04-.81Z"/><path class="uuid-51af6434-905c-48af-9d94-b4b1723afced" d="M21.18,29.16c-.1,0-.16.02-.25-.04-.06-.04-.11-.09-.17-.13-.11-.08-.28-.21-.4-.06-.15.17.07.3.21.35.05.02.11.04.16.06.2.07.4.14.61.15.17,0,.4-.04.38-.26-.11-.27-.38-.05-.55-.05h0Z"/><path class="uuid-51af6434-905c-48af-9d94-b4b1723afced" d="M36.78,34.33c-1.64-.44-2.18,1.21-3.16,1.98-.82.88-1.85,1.59-2.89,1.98-.29.11-.57.24-.87.33-.29.09-.58.15-.88.2-1.02.15-2.06.04-3.03-.29-.49-.17-.95-.39-1.39-.65-.22-.13-.44-.28-.64-.44-.17-.13-.33-.28-.49-.42-.03-.02-.06-.05-.09-.04-.02,0-.04.02-.06.04-.12.14-.15.32-.22.48-.07.17-.21.31-.35.43-.16.14-.38.23-.59.25-.21.03-.43,0-.61-.12-.18-.11-.3-.28-.41-.45-.05-.09-.25-.55-.35-.51-.51.23-1,.48-1.52.68-.31.12-.63.22-.96.28-.99.18-2.25.01-2.93-.81-.11-.13-.2-.28-.27-.44-.4-.9-.24-2.08.12-2.97.02-.04.03-.09.03-.13,0-.2-.36-.16-.49-.16-.56,0-1.12-.01-1.68.05-.51.06-1.01.17-1.5.31-1.07.31-2.08.78-3.04,1.35-.48.29-.95.6-1.41.92-.23.16-.45.33-.67.5-.21.16-.45.32-.64.5l-1.01,1c1.11,1.49,2.38,2.85,3.8,4.04-.02-.05.25-.58.28-.64.11-.24.23-.47.36-.7.62-1.08,1.14-2.21,1.74-3.3.14-.25.31-.71.62-.79.11-.03.3.03.32.16,0,.04,0,.09-.02.13v.02c-.31.94-.9,1.77-1.03,2.76,0,.02,0,.03,0,.05.01.03.04.04.07.03.11-.02.23-.15.31-.22.1-.09.21-.17.31-.26.2-.18.39-.36.57-.55.15-.16.3-.32.46-.48.13-.13.28-.25.47-.22.07.01.2.03.2.12,0,.04-.03.08-.06.11-.39.46-.8.91-1.21,1.35-.05.06-.11.12-.16.18-.51.57-.95,1.2-1.39,1.82-.06.08-.87,1.19-.84,1.24,4,3.03,8.98,4.82,14.39,4.82,1.89,0,3.73-.23,5.49-.64-.03,0-.06,0-.08,0,.01-.11.05-.21.09-.32.36-1.2.67-2.41,1.16-3.57.12-.28.24-.55.38-.81.19-.36.37-.89.73-1.12.02-.02.05-.03.08-.03.02,0,.04,0,.07,0,.08.01.14.08.17.16.09.27-.07.58-.16.83-.1.28-.19.55-.29.83-.28.84-.55,1.69-.74,2.55-.04.2-.08.39-.12.59,0,.05-.04.52-.07.56,4.64-1.36,8.7-4.08,11.7-7.7-.16-.39-.39-.82-.58-1.17-1.04-1.87-3.05-3.19-5.02-3.68h0ZM20.26,44.5c-.11.39-.45.73-.85.8-.32.05-.59-.08-.84-.26-.29-.21-.48-.48-.52-.84-.04-.34.06-.68.29-.94.16-.17.39-.32.62-.35.1-.01.21,0,.31.03.14.05.27.14.39.22.2.14.41.29.52.51.12.25.12.56.09.83h0Z"/><path class="uuid-51af6434-905c-48af-9d94-b4b1723afced" d="M18.88,43.56c-.09.01-.17.08-.21.16-.04.08-.05.19-.04.28,0,.07.03.14.08.19.08.08.14.08.2.05.11-.07.18-.32.2-.42.03-.15-.05-.27-.22-.25h0Z"/><path class="uuid-51af6434-905c-48af-9d94-b4b1723afced" d="M21.95,36.44c-.05-.07-.13-.09-.22-.07-.18.06-.25.36-.11.49.03.03.05.05.08.08.01.01.02.02.04.03,0,0,0,0,0,0,.02,0,.03,0,.05.01.06,0,.12,0,.17-.05.04-.04.06-.09.06-.14,0-.05,0-.11-.01-.16-.01-.07-.02-.13-.06-.19h0Z"/><path d="M11.83,39.96c.05-.06.11-.12.16-.18.41-.44.82-.89,1.21-1.35.03-.03.06-.07.06-.11,0-.09-.13-.11-.2-.12-.2-.03-.35.08-.47.22-.15.16-.3.32-.46.48-.18.19-.37.37-.57.55-.1.09-.2.18-.31.26-.08.07-.2.2-.31.22-.03,0-.06,0-.07-.03,0-.01,0-.03,0-.05.13-.99.72-1.83,1.02-2.76v-.02s.03-.09.02-.13c-.02-.13-.22-.18-.32-.16-.31.08-.48.54-.62.79-.6,1.09-1.13,2.22-1.74,3.3-.13.23-.25.46-.36.7-.03.06-.3.6-.28.64,0,0,0,0,0,0,.03.02.06.05.09.07.22.18.44.36.67.53.08.06.16.13.24.19,0,0,0,0,0,0-.03-.05.78-1.16.84-1.24.44-.62.89-1.25,1.39-1.82h0Z"/><path d="M30.87,45.73c.19-.86.46-1.72.74-2.55.09-.28.19-.55.29-.83.09-.25.25-.56.16-.83-.03-.08-.09-.15-.17-.16-.02,0-.04,0-.07,0-.03,0-.05.02-.08.03-.36.23-.54.76-.73,1.12-.14.26-.26.53-.38.81-.49,1.16-.79,2.37-1.16,3.57-.03.11-.07.21-.09.32.02,0,.05,0,.08,0,.06,0,.12-.02.17-.03.1-.02.19-.05.29-.07,0,0,.01,0,.02,0,.01,0,.03,0,.04-.01.23-.06.46-.12.68-.19,0,0,0,0,0,0,.02-.04.06-.51.07-.56.03-.2.07-.4.12-.59h0Z"/><path d="M29.87,19.99c-.25.04-.58.22-.81.05-.04-.03-.07-.07-.1-.12-.01-.01-.02-.03-.03-.04-.29-.41-.68-.8-1.1-1.09-.49-.34-1.18-.56-1.72-.23-.17.1-.34.21-.53.28-.2.08-.42.1-.63.14-.4.06-.79.15-1.08.46-.19.19-.18.54-.1.77.06.17.23.28.31.45.07.16.12.33.16.5.09.35.2.83.64.86.02,0,.05,0,.06-.02,0,0,0-.02,0-.03.02-.18-.05-.35-.08-.52-.04-.19-.04-.39,0-.58.05-.2.15-.36.24-.54.03.08,0,.18-.02.26-.04.2-.09.38-.04.58.04.15.1.31.17.45.16.29.42.52.72.68.14.07.36.08.51.08.19,0,.38-.01.56-.07.18-.05.35-.13.49-.26.12-.1.22-.24.37-.29.16-.06.32-.05.49-.03.06,0,.11.01.17,0,.14-.04.15-.21.08-.31-.15-.26-.3-.53-.45-.8-.12-.21-.23-.44-.39-.63-.04-.05-.36-.37-.25-.43.13-.06.41.24.48.32l.33.38c.27.28.55.66.87.83.27.11.65-.16.82-.55.08-.21.21-.6-.15-.54h0ZM27.08,21.09s-.08.03-.12.03c-.08,0-.16-.02-.23-.05-.05-.02-.1-.05-.14-.1-.13-.16-.09-.41.04-.56.11-.13.32-.22.49-.14.31.14.25.69-.04.81Z"/><path d="M19.65,43.16c-.12-.08-.25-.17-.39-.22-.1-.04-.21-.04-.31-.03-.24.03-.47.18-.62.35-.23.25-.33.6-.29.94.04.36.23.63.52.84.25.18.53.31.84.26.41-.06.74-.41.85-.8.04-.27.03-.58-.09-.83-.1-.22-.32-.37-.52-.51h0ZM19.09,43.8c-.02.1-.09.35-.2.42-.05.03-.12.03-.2-.05-.05-.05-.07-.12-.08-.19,0-.09,0-.19.04-.28.04-.08.12-.15.21-.16.17-.03.25.1.22.25h0Z"/><path d="M23.53,28.39s-.03,0-.05,0c-.19-.02-.39-.06-.57-.12-.19-.06-.33-.18-.48-.3-.15-.11-.31-.23-.49-.29-.08-.03-.16-.05-.25-.04-.13.01-.21.06-.25.18-.04.12-.12.23-.26.12-.14-.11-.21-.31-.36-.41-.2-.13-.49-.03-.66.1-.19.14-.31.35-.49.49-.23.17-.86.09-.84.48,0,.05.02.1.04.13.06.08.18.12.27.18.08.06.15.13.22.2.15.16.29.33.43.49.25.29.49.57.85.71.39.15.82.16,1.22.05.37-.11.68-.35.94-.63.18-.19.33-.39.48-.61.08-.12.15-.25.24-.37.04-.06.09-.13.1-.21.02-.1-.01-.15-.08-.16h0ZM21.35,29.48c-.21,0-.41-.07-.61-.15-.05-.02-.11-.04-.16-.06-.14-.05-.36-.18-.21-.35.12-.14.28-.02.4.06.06.04.11.09.17.13.09.06.15.04.25.04.16,0,.44-.22.55.05.03.22-.21.27-.38.26h0Z"/><path d="M27.84,15.86c-.47-.21-1.05-.25-1.55-.21-.53.05-1.05.22-1.5.5-.19.12-.43.25-.53.46-.04.08-.06.16-.06.24,0,.15.04.34.2.39.14.05.32.01.46-.02.2-.05.39-.13.58-.22.43-.21.86-.28,1.34-.3.27-.01.55.01.82.06.54.11,1.05.35,1.49.69.01,0,.03.02.04.03.16.13.31.27.45.42.06.07.13.14.18.22.1.13.18.24.35.26.19.02.32-.14.24-.32-.44-1.1-1.53-1.76-2.51-2.2h0Z"/><path d="M21.62,25.92c.22-.06.06-.36-.04-.43-.14-.1-.36-.19-.53-.21-.17-.02-.34.07-.39.24-.17.56.65.48.97.4Z"/><path d="M19.56,26.04c.13-.02.26-.07.33-.15.07-.08.08-.19-.07-.31-.07-.06-.64-.23-.61-.32.09-.26.04-.54.09-.81.08-.43.44-.73.56-1.15.05-.21.15-.59,0-.79-.17-.23-.36,0-.42.16-.1.29-.1.51-.32.74-.23.24-.36.53-.44.84-.05.16-.09.35-.14.52-.05.17-.15.36-.15.54,0,.27.11.55.38.6.26.05.5.15.78.12h0Z"/><path d="M19.06,21.52c.16,0,.38-.05.44-.28.27-.77-.16-1.76-.44-1.98-.6-.6-1.31-.93-2.18-.93-.49-.03-.87.33-1.23.61-.18.14-.36.28-.58.34-.11.04-.22.02-.33.04-.27.04-.57.2-.31.45.23.22.34.47.43.77.11.39.15,1.38.71,1.42.27-.05,0-.66.05-1.1.05-.39.27-.88.65-.99.11.05-.16.27-.22.49-.06.24-.16.39-.14.66.02.32.13.62.3.88.31.47.86.69,1.41.62.62-.08,1.09-.5,1.43-1h0ZM18.95,20.09c-.11-.22-.6-.88-1.42-.82.93-.11,1.31.5,1.42.82h0ZM18.13,21.02c-.05.17-.16.22-.33.22-.22-.05-.49-.17-.49-.49,0-.22.11-.38.27-.44.11,0,.27.05.38.11.22.16.22.44.16.6h0Z"/><path d="M43.99,10.96c-.35-.53-.72-1.05-1.11-1.56C38.52,3.74,31.68.09,23.98.09h-.04c-.23,0-.47.01-.7.02-.17,0-.34,0-.51.01-.24.01-.47.03-.7.05-.17.01-.34.02-.51.04-.23.02-.45.06-.67.09-.17.02-.35.04-.52.07-.21.03-.42.08-.63.11-.18.03-.36.06-.54.1-.21.04-.41.09-.61.14-.18.04-.36.08-.54.13-.19.05-.38.11-.57.16-.19.05-.37.1-.56.16-.18.06-.35.12-.53.18-.19.07-.39.13-.58.2-.17.06-.34.13-.5.2-.19.08-.39.15-.58.23-.16.07-.31.14-.47.21-.2.09-.4.17-.59.27-.14.07-.28.14-.42.21-.2.1-.41.2-.61.31-.13.07-.25.14-.38.22-.21.12-.42.23-.62.36-.11.07-.22.14-.33.21-.21.13-.43.27-.64.41-.1.07-.19.14-.28.2-.22.15-.44.3-.65.46-.08.06-.15.12-.23.18-.23.17-.45.35-.68.53-.05.04-.1.09-.15.13-.24.2-.48.41-.71.62-.03.03-.06.06-.1.09-.25.23-.49.46-.73.7-.02.02-.03.03-.04.05-.25.26-.5.52-.75.78,0,0,0,0,0,0C2.45,12.17.11,17.8.11,23.97c0,.05,0,.1,0,.15,0,.32,0,.64.02.95,0,.14.02.28.03.42.01.23.03.47.05.7.01.15.03.3.05.45.03.23.05.45.09.68.02.14.04.28.06.42.04.27.09.54.15.81.02.09.03.17.05.26.07.35.15.69.24,1.03.03.12.07.25.1.37.06.23.12.45.19.67.04.14.08.27.13.41.07.21.14.42.21.63.05.13.09.26.14.39.09.24.18.47.28.71.04.09.07.19.11.28.14.32.28.63.43.94.05.1.1.2.15.31.11.22.22.43.33.64.06.12.13.24.2.36.11.19.22.38.33.57.07.12.14.24.21.35.13.2.26.4.39.6.06.09.12.19.19.28.19.27.38.54.57.81h0s1.01-1,1.01-1c.19-.19.43-.34.64-.5.22-.17.45-.34.67-.5.46-.33.92-.64,1.41-.92.96-.57,1.97-1.04,3.04-1.35.49-.14,1-.25,1.5-.31.56-.07,1.12-.06,1.68-.05.13,0,.49-.04.49.16,0,.05-.02.09-.03.13-.35.89-.52,2.07-.12,2.97.07.16.16.3.27.44.68.83,1.94,1,2.93.81.33-.06.65-.16.96-.28.52-.2,1.02-.45,1.52-.68.1-.05.29.42.35.51.11.18.23.35.41.45.18.11.4.15.61.12.21-.03.43-.12.59-.25.14-.11.28-.26.35-.43.07-.16.09-.35.22-.48.02-.02.04-.04.06-.04.03,0,.07.02.09.04.16.14.32.29.49.42.21.16.42.3.64.44.44.27.91.49,1.39.65.97.33,2.01.44,3.03.29.3-.04.59-.11.88-.2.3-.09.58-.23.87-.33,1.04-.39,2.07-1.1,2.89-1.98.98-.77,1.53-2.42,3.16-1.98,1.96.49,3.98,1.81,5.02,3.68.2.34.42.77.58,1.17h0s0,0,.01-.01c.03-.04.06-.08.1-.12.19-.24.39-.48.57-.73.08-.1.15-.21.22-.31.14-.19.27-.38.41-.57.08-.12.16-.24.24-.36.12-.18.24-.37.35-.55.08-.13.16-.26.23-.39.11-.19.22-.37.32-.56.07-.13.15-.26.22-.4.1-.2.2-.39.3-.59.06-.13.13-.26.19-.39.1-.22.2-.44.3-.67.05-.11.1-.22.15-.33.14-.34.28-.67.4-1.02.02-.04.03-.08.04-.12.11-.3.21-.61.31-.92.04-.12.07-.25.11-.37.07-.23.14-.46.2-.7.04-.14.07-.29.11-.43.05-.22.11-.44.15-.66.03-.15.06-.3.09-.45.04-.22.08-.44.12-.66.03-.15.05-.31.07-.46.03-.23.06-.46.09-.69.02-.15.04-.3.05-.45.02-.25.04-.51.06-.76,0-.13.02-.26.03-.39.02-.37.03-.75.03-1.13,0,0,0-.02,0-.03,0-4.8-1.42-9.27-3.86-13.01h0ZM21.29,34.22l-2.84,2.47c-.81.34-2.08.29-2.31-.75-.11-.51.08-1.06.29-1.53.32-.71.77-1.35,1.34-1.88.15-.14.33-.26.54-.28.33-.03.68.19.98.31.36.15.72.29,1.07.44.26.1.52.21.72.4.19.18.41.57.21.81h0ZM21.96,36.93s-.11.05-.17.05c-.02,0-.03,0-.05-.01,0,0,0,0,0,0-.01,0-.03-.02-.04-.03-.03-.03-.05-.05-.08-.08-.14-.13-.07-.43.11-.49.08-.02.17,0,.22.07.04.06.05.12.06.19,0,.05.02.11.01.16,0,.05-.02.11-.06.14h0ZM33.15,34.42c-.12.34-.32.65-.54.94-.13.16-.26.32-.41.46-.62.65-1.39,1.18-2.21,1.56-1.02.47-2.27.57-3.36.29-.35-.09-.69-.22-.99-.42-.45-.29-.8-.71-1.09-1.16-.14-.22-.28-.45-.39-.68-.08-.16-.16-.32-.19-.49-.02-.1-.03-.22,0-.32.01-.06.04-.11.09-.15.04-.03.09-.04.14-.05.46-.11.92-.24,1.37-.4.53-.18,1.04-.4,1.55-.63.9-.41,1.77-.89,2.61-1.42.3-.19.59-.38.88-.59.2-.14.37-.33.59-.44.04-.02.09-.04.14-.04.11,0,.23.07.32.11.11.05.21.11.31.17.2.13.37.28.53.45.68.74,1.02,1.84.67,2.81h0ZM32.8,23.99c-.6.66-.65,1.76-.38,2.42.11.28.36.51.35.83,0,.17-.11.3-.19.44-.23.37-.49.7-.82.98-.3.27-.63.49-.96.72-.1.11-.26.19-.38.27l-.4.28c-.24.17-.48.34-.73.49-.49.3-1.01.55-1.55.76-1.15.47-2.38.8-3.59,1.06-.94.19-1.94.13-2.88-.03-.5-.09-1.02-.19-1.47-.46-.1-.06-.22-.13-.3-.22-.05-.06-.09-.13-.14-.19-.07-.09-.16-.17-.25-.24-.17-.11-.37-.16-.56-.21-.37-.09-.75-.16-1.12-.26-1.47-.44-2.89-1.81-3.27-3.35-.3-1.19-.44-2.43-.52-3.66-.09-1.23-.12-2.45-.19-3.68-.03-.48-.07-.95-.1-1.43-.02-.34-.04-.79.26-1.02.6-.66,1.66-.72,2.44-.41.21.08.4.23.62.28.1.02.19.02.28-.03.48-.25.15-.72-.12-.98-.29-.27-.69-.53-1.1-.57-.62-.14-1.48-.06-1.93.46-.08.09-.13.2-.18.31-.02.05-.13.17-.13.22-.08-1.12.11-2.27.44-3.34.13-.43.29-.86.48-1.27.09-.19.18-.38.3-.56.2-.29.43-.56.77-.69.03-.01.06-.02.09,0,.05.02.12.05.14.1.02.04.01.08.01.12-.04.34-.23.69-.39.99-.15.28-.33.56-.64.66-.04.01-.09.02-.13.04-.15.07-.14.27-.04.38.22.22.71.33,1.15.05.82-.32,1.36-1.04,1.85-1.73.03-.04.05-.08.09-.1.08-.05.2-.04.28.01.12.07.22.18.3.29.29.42.46.95.17,1.42-.04.07-.1.14-.16.18-.26.18-.59-.03-.85-.1-.32-.09-.45.1-.48.41,0,.5.38.93.76,1.15.76.38,1.64.49,2.45.05.98-.6,1.47-1.37,1.69-2.36.54.55-.87,1.87.38,1.54.34-.09.65-.41.85-.69.11-.15.2-.32.28-.49.04-.09.08-.18.12-.26.02-.04.04-.14.09-.15.06,0,.1.09.11.14.08.32.01.67-.19.93-.05.07-.11.13-.15.21-.06.14-.02.33.12.4.15.07.3-.02.44-.08.33-.15.59-.38.88-.59.03-.02.06-.04.09-.03.03.01.04.05.05.08.02.1.02.2.05.3.02.04.04.09.08.1.09.04.25-.06.34-.1.11-.05.22-.1.32-.17.2-.12.39-.27.56-.44.23-.22.41-.49.55-.77.15-.31.2-.66.33-.98.02-.05.04-.1.08-.13.04-.04.09-.05.14-.07.21-.06.43-.07.65-.11.22-.04.43-.1.6-.24.04-.03.08-.07.13-.05.06.02.12.14.15.19.06.1.11.2.15.3.2.49.22,1.02.18,1.54-.01.16-.07.33-.21.42-.2.12-.37-.03-.43-.21-.04-.1-.06-.22-.12-.31-.06-.09-.19-.15-.29-.1-.05.02-.08.07-.11.11-.22.33-.26.75-.23,1.14.03.4.17.73.48.99.13.11.28.22.45.24.18.03.36,0,.54.07.23.1.38.33.49.56.13.27.24.55.46.78.2.22.57.29.86.31.21.01.42,0,.63-.05.09-.02.18-.04.27-.08.13-.05.24-.15.39-.16.05,0,.1,0,.13.03.1.08.08.28.07.38,0,.16-.02.32-.06.48-.11.58-.45,1.05-.68,1.58-.33.77-.45,1.54-.27,2.37.09.42.22.8.52,1.11.27.28.62.49.99.63.07.03.13.05.19.09.38.28-.28.55-.42.71h0Z"/></svg>