<?xml version="1.0" encoding="UTF-8"?><svg id="uuid-b50771c6-97ed-448c-8317-dd04879a2798" xmlns="http://www.w3.org/2000/svg" width="150" height="100" viewBox="0 0 150 100"><defs><style>.uuid-61288a56-8650-42c8-ad33-4c9205d60668{fill:#fff;}</style></defs><g id="uuid-aaeb4145-b6c2-4007-a3c3-05473d181af6"><path class="uuid-61288a56-8650-42c8-ad33-4c9205d60668" d="M.57,56.33c0,1.35.8,2.23,2.15,2.23h6.92c1.19,0,1.91-.95,1.99-1.83,0-.95-.56-1.99-1.99-1.99h-4.93v-13.84c0-1.35-.88-2.15-2.07-2.15s-2.07.8-2.07,2.15c0,0,0,15.43,0,15.43ZM27.22,46.22c0-1.03,0-2.63-1.91-2.63-.95,0-1.83.72-1.91,1.67-.88-1.27-2.31-1.83-3.82-1.83-3.66,0-6.6,3.34-6.52,7.72,0,4.46,2.86,7.64,6.6,7.64,1.51,0,2.78-.64,3.82-1.83.32,1.03.72,1.67,1.91,1.67,1.91,0,1.91-1.59,1.91-2.63v-9.87l-.08.08ZM17.04,51.23c0-1.91.95-4.06,3.1-4.06s3.1,2.15,3.1,4.06-.95,3.98-3.02,4.06c-2.15,0-3.18-2.07-3.18-3.98M30.88,56.4c0,1.35.88,2.23,1.99,2.23,1.19,0,1.99-.88,1.99-2.23v-6.92c0-1.59.88-2.71,2.47-2.78,1.43,0,2.63.88,2.63,2.71v6.92c0,1.35.88,2.23,2.07,2.23s1.99-.88,1.99-2.23v-7.64c0-3.34-2.39-5.33-5.49-5.33-1.91,0-3.1.56-3.82,1.67-.16-.88-.8-1.43-1.83-1.43-1.19,0-1.99.88-1.99,2.23v10.66-.08ZM61.2,39.3c0-1.35-.88-2.23-1.99-2.23-1.19,0-1.99.88-1.99,2.23v5.41c-1.03-.88-2.39-1.35-3.74-1.35-4.3,0-6.36,4.06-6.36,7.88s2.55,7.48,6.6,7.48c1.35,0,2.94-.64,3.66-1.83.24,1.03.88,1.67,1.99,1.67,1.19,0,1.99-.88,1.99-2.23v-17.03h-.16ZM57.3,50.91c0,1.91-.95,4.14-3.1,4.14s-3.1-2.15-3.1-3.98,1.03-4.06,3.1-4.06,3.1,1.99,3.1,3.9M82.44,56.25c0,1.35.88,2.23,1.99,2.23s1.99-.88,1.99-2.23v-6.13c0-1.59,1.19-2.07,2.39-2.71,1.19-.56,2.39-.64,2.39-1.91,0-1.43-.95-2.15-1.91-2.15s-2.07.56-2.78,1.67h0c0-1.27-.88-1.67-1.91-1.67s-2.07.64-2.07,1.99v10.82l-.08.08Z"/><path class="uuid-61288a56-8650-42c8-ad33-4c9205d60668" d="M67.4,65.87c-.72-.08-1.19-.24-1.51-.56-.32-.32-.48-.64-.48-1.11,0-.4,0-.8.24-1.19.16-.4.4-.88.64-1.19.24-.4.56-.72.8-1.03l.72-.72c.24-.16.48-.32.8-.56.32-.24.64-.4.95-.56l.95-.48c.32-.08.56-.16.72-.16.08,0,.24,0,.4.08h-.24l.32.16h.4s.16,0,.24.08h.16l-.32.32v.32c.16,0,.24,0,.32-.16,0-.08.08-.24.08-.32v-.16c.24.16.4.4.4.48,0,.16-.08.32-.32.48-.16.16-.4.24-.48.32v.16c-.32.24-.56.48-.88.72s-.56.56-.64.88c0,0,0,.08-.08.16,0,0,0,.16-.08.16h0c2.23.72,4.93.95,8.04.8h1.11c0-.48-.16-1.11-.4-1.75-.24-.64-.56-1.35-.88-1.99-.32-.64-.72-1.35-1.03-1.99-.4-.64-.72-1.19-.95-1.67-.4.32-.8.56-1.35.8s-1.11.48-1.67.72c-.64.24-1.27.4-1.91.48-.64.16-1.27.24-1.91.24-1.11,0-2.15,0-3.1-.08-.95-.16-1.75-.32-2.47-.64-.72-.32-1.27-.72-1.67-1.19s-.64-1.03-.72-1.67c0-.72.08-1.43.4-2.23h0c.4-1.19,1.03-2.31,1.83-3.34s1.75-1.91,2.78-2.71,2.07-1.35,3.18-1.83,2.15-.72,3.1-.8c.56,0,1.03,0,1.59.16.56.08,1.03.32,1.51.56s.88.64,1.19,1.03.56.95.72,1.51c.08.56.16,1.03.24,1.35,0,.32.08.64.16.95s.16.64.32,1.03c.16.32.4.8.8,1.35.48.72.95,1.43,1.43,2.23.48.8.95,1.59,1.35,2.39.48.8.88,1.67,1.27,2.47.4.88.72,1.67.95,2.55v.48c0,.56-.08,1.11-.32,1.67s-.56,1.11-.95,1.67-.88.95-1.35,1.35-.95.64-1.43.8c-.24,0-.48.08-.8.16h-4.06c-1.11-.08-2.23-.24-3.34-.4-1.03-.16-2.07-.32-2.94-.48s-1.51-.24-1.99-.32M71.3,53.94c.56-.24.95-.56,1.27-.72.32-.24.56-.48.8-.72.16-.24.32-.48.32-.72v-1.19s-.08-.16-.16-.24l-.24.08h-.56c.56-.88.95-1.35.95-1.35-.48-.16-.64-.32-.72-.48,0-.08,0-.16.16-.24.08,0,.16-.08.32-.16.08,0,.24-.16.32-.24.08,0,.16-.16.16-.32,0-.24-.16-.4-.4-.56-.24-.08-.48-.16-.64-.16-.32,0-.72.16-1.19.32-.4.24-.88.48-1.35.88-.48.32-.88.8-1.35,1.19-.4.48-.8.88-1.11,1.35-.32.48-.64.95-.8,1.35-.16.48-.24.88-.24,1.19,0,.24.08.4.24.56.16.16.32.24.56.32.24.08.48.16.8.16h.88c.32,0,.72,0,1.03-.16.32-.08.64-.16.95-.32M71.86,59.19c-.95.8-1.59,1.35-1.99,1.75s-.64.64-.64.72h0c.08,0,.32-.08.72-.32s.88-.48,1.51-.88h-.24c-.16,0-.24,0-.24-.16,0-.24.24-.64.72-1.19M72.81,58.79h0ZM73.69,49.24h-.08.08ZM73.93,49.09h.08M74.01,49.16h-.08.08"/><path class="uuid-61288a56-8650-42c8-ad33-4c9205d60668" d="M108.46,44.63c-.08.08-.16.24-.32.4.16.72.32,1.43.48,2.15.16.72.32,1.43.48,2.15.16.72.4,1.35.64,2.07.24.64.48,1.27.8,1.83v.16c.08,0,0,0,0,0,0,.08.08.24.16.4,0,.24,0,.48-.24.8-.16.24-.4.48-.72.72-.24.24-.48.4-.72.56-.24.16-.4.24-.48.24v.48h-.24v.32c-.4-.08-.64-.16-.8-.16s-.24,0-.32-.08h-.24c-.08,0-.32,0-.64-.08v-.56c-.24-.4-.32-.8-.4-1.11s-.16-.64-.24-.95c0-.32-.16-.56-.24-.88-.08-.32-.24-.56-.48-.88-.08.16-.24.32-.32.48-.16.24-.32.4-.4.64-.16.24-.24.4-.4.56-.08.16-.16.32-.24.4h-.32c-1.03,1.35-2.07,2.39-3.34,3.18-1.19.8-2.47,1.19-3.66,1.27-.64,0-1.27,0-1.91-.32-.64-.24-1.27-.56-1.75-1.11-.56-.48-1.03-1.11-1.35-1.91-.4-.8-.56-1.67-.64-2.71,0-.88.16-1.67.48-2.47.4-.8.95-1.51,1.59-2.23.72-.72,1.43-1.35,2.39-1.91.88-.56,1.83-1.11,2.78-1.59.95-.48,1.91-.88,2.86-1.19.95-.32,1.83-.56,2.63-.8,0-.16.08-.32.24-.4s.4-.16.8-.16h1.11c.48.16.88.24,1.19.32l.95.24.88.32v.48c0,.24.08.56.24.8,0,0-.16.08-.16.16,0,0-.08.08-.16.16v.32M98.19,53.78s0-.08.16-.16c.08-.08.24-.16.4-.24.4-.16.8-.48,1.27-.95.4-.48.88-1.03,1.19-1.59.4-.56.72-1.11.95-1.67.24-.56.32-.95.32-1.27,0-.16,0-.24-.16-.32v-.8c0-.08,0-.16-.16-.16h-.32c-.64,0-1.27.16-1.99.4s-1.35.56-1.99.95-1.11.88-1.59,1.35c-.4.56-.64,1.11-.72,1.67h0c0,.4.24.88.64,1.27s1.03.88,1.91,1.35h0l.08.16Z"/><path class="uuid-61288a56-8650-42c8-ad33-4c9205d60668" d="M128.35,44.55c-.08.08-.16.24-.32.4.16.72.32,1.43.48,2.15.16.72.32,1.43.48,2.15.16.72.4,1.35.64,2.07.24.64.48,1.27.8,1.83v.16c.08,0,0,0,0,0,0,.08.08.24.16.4,0,.24,0,.48-.24.8-.16.24-.4.48-.72.72-.24.24-.48.4-.72.56-.24.16-.4.24-.48.24v.48h-.24v.32c-.4-.08-.64-.16-.8-.16s-.24,0-.32-.08h-.24c-.08,0-.32,0-.64-.08v-.56c-.24-.4-.32-.8-.4-1.11s-.16-.64-.24-.95c0-.32-.16-.56-.24-.88-.08-.32-.24-.56-.48-.88-.08.16-.24.32-.32.48-.16.24-.32.4-.4.64-.16.24-.24.4-.4.56-.08.16-.16.32-.24.4h-.32c-1.03,1.35-2.07,2.39-3.34,3.18-1.19.8-2.47,1.19-3.66,1.27-.64,0-1.27,0-1.91-.32-.64-.24-1.27-.56-1.75-1.11-.56-.48-1.03-1.11-1.35-1.91-.4-.8-.56-1.67-.64-2.71,0-.88.16-1.67.48-2.47.4-.8.95-1.51,1.59-2.23.72-.72,1.43-1.35,2.39-1.91.88-.56,1.83-1.11,2.78-1.59s1.91-.88,2.86-1.19c.95-.32,1.83-.56,2.63-.8,0-.16.08-.32.24-.4s.4-.16.8-.16h1.11c.48.16.88.24,1.19.32l.95.24.88.32v.48c0,.24.08.56.24.8,0,0-.16.08-.16.16,0,0-.08.08-.16.16v.32M118,53.7s0-.08.16-.16c.08-.08.24-.16.4-.24.4-.16.8-.48,1.27-.95.4-.48.88-1.03,1.19-1.59.4-.56.72-1.11.95-1.67.24-.56.32-.95.32-1.27,0-.16,0-.24-.08-.32v-.8c0-.08,0-.16-.16-.16h-.32c-.64,0-1.27.16-1.99.4s-1.35.56-1.99.95-1.11.88-1.59,1.35c-.4.56-.64,1.11-.72,1.67h0c0,.4.24.88.64,1.27s1.03.88,1.91,1.35h0v.16Z"/><path class="uuid-61288a56-8650-42c8-ad33-4c9205d60668" d="M136.46,56.64c-.24,0-.4-.16-.56-.4-.16-.16-.32-.32-.4-.48-.16-.16-.24-.32-.4-.56-.16-.16-.24-.32-.4-.4h0c-.16-.08-.4-.4-.64-.8-.24-.48-.48-.95-.72-1.51-.24-.56-.48-1.19-.72-1.75-.24-.64-.48-1.11-.64-1.51-.24-.72-.4-1.27-.56-1.67s-.32-.8-.4-1.03c-.16-.24-.24-.4-.4-.48s-.32-.16-.56-.16h-.64c-.08,0-.16-.16-.32-.32-.08-.16-.24-.24-.32-.4-.08-.16-.24-.32-.48-.48,0-.24.16-.4.32-.56.08-.08.24-.16.4-.24.16,0,.32-.16.48-.16s.4-.24.64-.4v-.56c-.08-1.35,0-2.63.48-3.66.4-1.11,1.03-1.99,1.67-2.71.72-.72,1.51-1.35,2.39-1.75s1.75-.64,2.55-.72c1.19,0,2.15.4,3.02,1.19h0c.72.64,1.11,1.59,1.19,2.78v.8c0,.24-.08.32-.24.48-.08.08-.16.16-.32.24h-1.59v.24c-.16,0-.24-.16-.24-.24,0,.24-.16.32-.32.32h-.16c-.24.16-.4.24-.56.24-.24,0-.48-.16-.64-.48-.16-.32-.24-.64-.32-1.03v-.48c0-.16,0-.32-.08-.48,0-.16-.16-.32-.24-.48-.32.4-.56.8-.72,1.19-.16.32-.32.72-.48,1.03-.08.32-.16.64-.16,1.03v1.99c.88,0,1.67-.16,2.47-.24.8,0,1.67-.16,2.63-.24.24,0,.32.08.4.4v.56-.16h0c.08.16.16.32.16.4,0,.16,0,.32-.16.4,0,.56,0,.88-.16,1.11-.16.24-.32.32-.48.32h-1.43c-.32,0-.64,0-.88.08-.24,0-.48,0-.64.08-.16,0-.32,0-.56.08-.16,0-.4,0-.56.08.16.64.4,1.35.72,2.15s.64,1.75.95,2.71h0c.16.56.4,1.03.64,1.59.24.48.4,1.03.64,1.51h0c.32.64.56,1.11.8,1.51s.32.72.4,1.03c0,.32,0,.48-.24.48-.16,0-.48-.16-.88-.56,0,.08.08.16.08.24v.16s-.08,0-.16-.08l-.16-.08h-.32c-.24,0-.4,0-.56.16h0c-.32.24-.72.4-1.11.4h-.48l-.08.24Z"/><path class="uuid-61288a56-8650-42c8-ad33-4c9205d60668" d="M145.45,48.13c-.16,0-.24,0-.32.08v-.16l-.32.4s-.16,0-.24.08c-.16,0-.48.08-.88.16,0-.56,0-1.27-.08-2.07v-8.35c0-.48,0-.95-.08-1.35v-1.59c0-.08,0-.16.08-.24,0,0,.16-.16.24-.16s.24-.16.4-.24h0c.32-.16.72-.4,1.11-.72s.95-.56,1.67-.8v.16h.32c.24,0,.4.08.56.16.16,0,.32.16.4.32.16.16.24.4.24.64v1.99c0,.4.08,1.11.24,2.07h0v.4c0,.16.08.24.24.4,0,0-.16.16-.4.32-.16.16-.32.24-.32.32-.08,1.03-.16,2.15-.16,3.26v3.1h0v.4c0,.32-.08.56-.32.72-.24.08-.48.16-.64.16h-.48c0,.24-.16.4-.32.4h-.64M145.53,49.72c.24.08.48.16.72.16h1.67c.32,0,.64,0,.8.24.24.24.4.48.48.72.08.32.16.56.24.88v3.1c-.24,0-.4.16-.48.24-.08,0-.24.16-.4.24-.16,0-.32.16-.56.24s-.56.24-.95.32c-.16-.08-.24-.16-.32-.24-.08-.08-.16-.16-.16-.16-.16.08-.32.16-.48.16-.24,0-.48-.16-.72-.64l-.48-.56c-.16-.4-.32-.72-.4-.95s-.24-.56-.32-.88c-.08-.32-.16-.64-.16-.95h.48c0-.48,0-.8-.08-.95v-.24c0-.16.08-.24.16-.32.08-.08.16-.16.32-.24.16,0,.32-.16.56-.16h.24-.16ZM146.01,48.13h.08-.08ZM146.49,47.73h.16M146.88,47.49h-.16.16M147.68,39.46h0"/></g></svg>