<?xml version="1.0" encoding="UTF-8"?><svg id="uuid-ac12069a-8c89-4177-bdcd-c5638d269381" xmlns="http://www.w3.org/2000/svg" width="150" height="100" viewBox="0 0 150 100"><defs><style>.uuid-96529878-eb8c-47bc-91c3-b7231e737f70{fill:#fff;}</style></defs><path class="uuid-96529878-eb8c-47bc-91c3-b7231e737f70" d="M132.56,36.07H57.58c-.61,0-1.13.17-1.48.61-.35.35-.43.87-.43,1.3,0,.96.78,1.74,1.82,1.82h75.16c6.6,0,12.77,7.21,12.77,15.21s-6.08,15.21-12.77,15.21h-57.52v3.74h57.43c8.34,0,16.51-9.04,16.51-18.94s-7.91-18.94-16.51-18.94ZM145.59,54.97s0,.03,0,.04c0,7.82-6.17,15.29-12.86,15.29h-.09c6.76,0,12.92-7.45,12.94-15.34Z"/><path class="uuid-96529878-eb8c-47bc-91c3-b7231e737f70" d="M26.91,39.81l-.17-.09s.05,0,.07,0c.03,0,.07,0,.1,0,.96,0,1.13-.26,1.48-.78.26-.43.52-.96.78-1.56.22-.46.46-.97.73-1.51,2.69-5.38,8.17-14.57,21.08-17.87,6.88-1.73,13.38-1.14,19.67.3-2.5-.59-5.03-1.03-7.6-1.25,4.89.4,9.63,1.63,14.33,3.06-2.22-.66-4.46-1.29-6.72-1.81,3.7.87,7.33,2.03,10.92,3.18,3.21,1.02,6.21,2.05,9.33,2.88-1.72,1.13-3.49,2.07-5.19,2.8-4.05-1.47-8.3-3.29-11.18-4.64-6.86-3.04-17.38-5.13-26.33-1.74-8.86,3.39-14.34,8.6-17.38,16.34v.09c-.05.15-.1.07-.14.17-.04,0-.04.04-.04.61,0,.96.87,1.82,1.91,1.82l.09.09c.78,0,1.39-.43,1.74-1.3v-.09c.87-2.52,4.78-11.21,16.77-14.6,10.43-2.95,18.94.87,27.28,4.52.32.15.65.29.97.43,0,0,0,0-.01,0-.63.03-1.23.04-1.8.02-.13,0-.26-.01-.39-.02-.37-.01-.74-.04-1.09-.07-.35-.03-.71-.07-1.04-.12-.05,0-.1-.01-.15-.02-2.3-.34-4.25-.98-6.29-1.63-.52-.17-1.04-.35-1.56-.52-2.95-.96-6.6-2.09-11.82-1.56-5.95.55-10.39,2.72-13.54,5.14-.07.05-.13.1-.2.15-.11.08-.21.17-.31.25-2.97,2.37-4.75,4.95-5.42,6.62,0,0-.01.01-.02.02-.07.05-.11.04-.13.08-.03.02-.03.11-.03.69,0,1.04.87,1.91,1.91,1.91l.17-.09c.87,0,1.56-.61,1.74-1.04s1.22-2.87,4.26-5.3c3.13-2.52,7.21-4.08,12.08-4.52,4.52-.43,8.08.7,11.9,1.82.96.27,1.91.55,2.89.81.07.02.14.04.2.05,3.04.8,6.26,1.41,10.2.96,1.52-.16,3.09-.53,4.67-1.05,3.48,1.29,6.96,2.18,10.62,2.18,5.13,0,6.95-1.3,8.25-2.17.09-.17.26-.26.43-.35.43-.26.78-.78.78-1.3.09-.61-.17-1.22-.61-1.56-.7-.7-1.74-.7-2.52,0-1.13,1.22-3.65,1.65-7.39,1.48-1.04-.06-2.42-.35-4-.79,1.56-.9,3.09-1.94,4.52-3.12.13-.11.26-.22.39-.33,2.3.37,4.73.59,7.43.59.02,0,.04,0,.06,0-.48,0-.96-.01-1.43-.03.48.02.96.03,1.44.03,0,0,0,0,0,0,.04,0,.07,0,.11,0,6.78,0,12.05-2.8,15.04-5.13.44-.31.8-.58,1.04-.78.02-.01.03-.03.04-.04l.04.04c.43-.26.7-.78.7-1.3,0-.4-.12-.76-.31-1.05-.32-.61-.96-1.03-1.68-1.03-.35,0-.7.09-1.04.35-2.61,2.17-6.86,5.13-13.21,5.21h-.35c-1.48,0-2.95-.1-4.43-.27,2.43-2.85,4.07-5.93,4.6-8.85.09-.43,0-1.04-.35-1.48-.26-.43-.7-.7-1.13-.7-.24-.05-.45-.04-.66-.01-.95.03-1.53.88-1.69,1.66-.81,3.25-2.89,6.16-5.49,8.58-4.04-.86-8.05-2.13-11.97-3.37-1.56-.43-3.21-.96-4.78-1.48-9.73-3.04-18.16-4.61-27.8-2.26-7.65,1.82-14.16,6.08-19.29,12.69-4.17,5.3-5.82,10.08-5.82,10.25-.09.26-.17-.26-.17.78s.87,1.91,1.91,1.91ZM39.37,38.06c-.08.16-.14.29-.19.39.05-.12.12-.25.19-.39ZM39.1,38.61s-.01.03-.02.04c0-.01.01-.03.02-.04ZM39.59,37.66s-.03.06-.05.08c.02-.03.03-.06.05-.08ZM98.13,25.68s-.06,0-.09-.01c.03,0,.06,0,.09.01ZM80.78,32.34c-.08,0-.15,0-.23.02l-.03-.02c1.56-.16,3.14-.51,4.71-1.02.02,0,.04.01.06.02-1.52.49-3.03.84-4.51,1ZM104.77,28.14c.09.06.17.12.25.2-.08-.08-.16-.14-.25-.2ZM95.46,25.73c-1.46,1.18-3.01,2.22-4.6,3.12-.03,0-.05-.02-.08-.02,1.72-.99,3.37-2.14,4.88-3.42.05,0,.1.02.15.03-.12.1-.23.2-.35.3ZM100.69,25.96c.27.02.54.04.81.05-.27-.02-.54-.03-.81-.05ZM99.28,25.82c.16.02.32.03.49.05-.16-.02-.32-.03-.49-.05ZM103.54,11.83c.35.43.43.96.35,1.39-.6,2.93-2.22,5.98-4.65,8.81-.05,0-.11-.01-.16-.02,2.36-2.76,4.04-5.82,4.63-8.88.16-.47,0-1.1-.39-1.55.08.07.15.16.22.24Z"/><path class="uuid-96529878-eb8c-47bc-91c3-b7231e737f70" d="M131.96,88.47c-.87,0-1.65-.7-1.65-1.39v-.26h2.87l-.09-.26v-.26c0-.7-.61-1.22-1.48-1.22-1.3,0-2.09,1.13-2.09,2.09s.78,1.82,1.91,1.74c.78,0,1.39-.43,1.82-.87h-.17c-.52.26-.78.43-1.13.43ZM130.22,86.29v-.09h.03c.12-.49.53-.96,1.1-.96.61,0,.87.26.87.7s-.17.26-.26.26h-1.71s-.02.06-.03.09Z"/><path class="uuid-96529878-eb8c-47bc-91c3-b7231e737f70" d="M138.65,88.03v-1.82h.09v-1.13s0-.09-.09-.09h-.17l-.7.26c-.43.09-.52.09-.52.17s.09.09.26.17c.43.09.43.17.43.7v1.74c0,.43-.17.43-.61.43s-.17,0-.17.09c0,.06.03.09.09.09h2.09v-.17c-.7,0-.7-.17-.7-.43Z"/><path class="uuid-96529878-eb8c-47bc-91c3-b7231e737f70" d="M85.04,85.08c-1.48,0-2.52,1.48-2.52,2.61l-.09-.09c0,.7.43,1.22,1.3,1.22s1.3-.26,1.74-.78c0-.09-.09-.09-.17-.09-.43.26-.7.52-1.22.52s-.87-.43-.87-.78,0-.43.09-.61c.87,0,2.87-.26,2.87-1.3s-.61-.7-1.13-.7ZM83.47,86.82c.17-.61.7-1.48,1.48-1.65.26,0,.52.17.52.52,0,.78-1.3,1.04-2,1.13Z"/><path class="uuid-96529878-eb8c-47bc-91c3-b7231e737f70" d="M138.3,83.51c.35,0,.61-.17.52-.52,0-.26-.17-.52-.52-.52s-.61.17-.61.52c0,.26.26.52.61.52Z"/><path class="uuid-96529878-eb8c-47bc-91c3-b7231e737f70" d="M7.62,82.73H3.45c-.09,0-.09.17-.09.17h.09c.17,0,.7,0,.7.26s0,.26-.17.61l-1.13,3.65-.09.17c-.26.78-.43.78-.78.78,0,0,0,.09-.09.09v.17h4.87l.7-1.13h-.26c-.61.7-.87.78-1.82.78h-1.13c-.43,0-.78-.09-.78-.26s.17-.61.26-1.04l.43-1.3h1.3c.26,0,.43.09.26.17,0,.09,0,.17-.09.43h.61l.52-1.39s-.17-.09-.26-.09c0,0-.09.09-.17.26-.09.09-.43.17-.87.17h-1.04l.7-1.91c.09-.17.17-.43.52-.26h1.04c.61,0,.78,0,.78.78h.26c0,.09.43-1.04.43-1.04,0-.09-.17-.09-.52-.09Z"/><path class="uuid-96529878-eb8c-47bc-91c3-b7231e737f70" d="M16.13,85.08c-.52,0-.43.17-.43.43s.43.09.43.7-1.22,2.09-2.09,2.09-.52-.17-.52-.61c0-.87.61-1.91,1.39-2.52l.09-.17h-1.74c-.09,0-.26,0-.43.09-.26.17-.87.78-1.04,1.3,0,.17.09.26.26.26s.43-.09.43-.26-.26-.17-.26-.26c0-.43.7-.52,1.04-.52h.87c-.61.61-1.3,1.65-1.3,2.35s.26,1.04.87,1.04c1.48,0,3.04-2.09,3.04-3.21s-.09-.7-.61-.7Z"/><path class="uuid-96529878-eb8c-47bc-91c3-b7231e737f70" d="M61.05,85.08c-1.48,0-2.52,1.48-2.52,2.61l-.09-.09c0,.7.43,1.22,1.3,1.22s1.3-.26,1.74-.78c0-.09-.09-.09-.17-.09-.43.26-.7.52-1.22.52s-.78-.43-.87-.78c0-.17.09-.43.09-.61.87,0,2.87-.26,2.87-1.3s-.61-.7-1.13-.7ZM61.49,85.69c0,.78-1.3,1.04-2,1.13.17-.61.7-1.48,1.65-1.65.17,0,.43.17.43.52h-.09Z"/><path class="uuid-96529878-eb8c-47bc-91c3-b7231e737f70" d="M124.74,84.99c-.61,0-1.13.61-1.39,1.04v-.87s0-.09-.09-.09c0,0-.17.09-.43.17l-.7.26c-.09,0-.09.09-.17.09,0,.09.26.17.26.17.17.09.26.17.26.26v1.82c0,.43-.09.61-.52.61s-.17,0-.17.09v.17h2.26c.06,0,.09-.03.09-.09s-.03-.09-.09-.09c-.78,0-.78-.26-.78-.61v-1.65l.17-.17c.17-.17.52-.52.78-.52s.43.09.7.09.43-.09.43-.26c0-.26-.17-.43-.61-.43Z"/><path class="uuid-96529878-eb8c-47bc-91c3-b7231e737f70" d="M71.05,87.6c-.17.17-.7.61-1.04.61s-.09,0-.09-.09.52-1.13.61-1.3c.26-.52.52-1.04.52-1.3s-.26-.43-.7-.43c-.87,0-1.91,1.04-2.43,1.48.09-.26.26-.7.26-1.04s-.09-.52-.43-.52c-.61,0-1.22,1.04-1.22,1.04,0,.09.17.17.17.17.09,0,.26-.52.7-.52s.17.09.26.17c0,.17-.26,1.04-.43,1.22s-.78,1.48-.78,1.65.26.17.43.17.52-.52.7-1.04c.09-.17.26-.52.43-.7.17-.17,1.3-1.74,2.09-1.74s.43.09.26.26c0,.43-1.3,2.61-1.22,2.95,0,.17.17.26.43.26.52,0,1.65-.78,1.82-1.13l-.52-.43.17.26Z"/><path class="uuid-96529878-eb8c-47bc-91c3-b7231e737f70" d="M148.64,88.29c-.26,0-.7,0-.61-.26v-2c0-.7-.43-1.13-1.3-1.13s-1.22.43-1.65.7v-.61s0-.09-.09-.09c0,0-.7.26-1.22.43,0,0,0,.09-.09.09,0,.06.03.09.09.09h.26c.09.09.17.17.17.43v2l.09.09c0,.43-.17.43-.61.43s-.17,0-.17.09c0,.06.03.09.09.09h2.09v-.17c-.7,0-.7-.17-.7-.43v-2.26c.26-.17.78-.43,1.22-.43.7,0,.87.26.87.78v1.91c0,.26-.52.26-.61.26s-.09,0-.09.09c0,0,0,.17.09.17h2.26v-.17s0-.09-.09-.09Z"/><path class="uuid-96529878-eb8c-47bc-91c3-b7231e737f70" d="M78,85.16h-.87v-.26c.17-.17.17-.43.17-.52s-.17-.17-.26-.17c-.17,0-.26.09-.26.26l-.17.61h-.87v.35h.78l-.61,1.74c-.09.17-.43,1.13-.43,1.3,0,.26.26.43.61.43.7,0,1.48-.61,1.91-1.04-.09-.09-.09-.17-.17-.17-.26.17-.7.61-1.13.61s-.43,0-.43-.26.26-.87.26-1.13l.52-1.48h1.13c.09,0,.09-.09.09-.17s-.09-.09-.26-.09Z"/><path class="uuid-96529878-eb8c-47bc-91c3-b7231e737f70" d="M41.07,85.08c-1.48,0-2.52,1.48-2.52,2.61l-.09-.09c0,.7.43,1.22,1.3,1.22s1.3-.26,1.74-.78c0-.09-.09-.09-.17-.09-.26.26-.7.52-1.22.52s-.87-.43-.87-.78.09-.43.09-.61c.87,0,2.87-.26,2.87-1.3s-.61-.7-1.13-.7ZM39.51,86.82c.17-.61.7-1.48,1.48-1.65.26,0,.52.17.52.52,0,.78-1.3,1.04-2,1.13Z"/><path class="uuid-96529878-eb8c-47bc-91c3-b7231e737f70" d="M52.97,88.12c-.26,0-.17-.09-.17-.09,0-.09.17-.52.17-.61l.61-1.22c.09-.17.17-.43.17-.61,0-.43-.43-.52-.7-.52-1.04,0-1.91.78-2.52,1.39.09-.17.17-.7.17-.87,0-.26-.09-.52-.52-.52-.78,0-1.91.87-2.26,1.39.09-.26.17-.61.17-.78s-.09-.52-.52-.52-1.04.78-1.22,1.13h.17c.17-.17.52-.52.7-.52s.26.09.26.17c0,.26-.17.87-.43,1.22-.26.61-.7,1.39-.7,1.48s.09.17.26.17.43-.43.43-.52l.26-.52c.52-1.04,1.65-2.43,2.35-2.43s.43.09.43.26-.17.78-.26,1.04c-.43.87-.78,1.82-.78,1.82,0,.17.17.17.26.17s.17,0,.26-.26l.78-1.3c.7-1.22,1.74-1.74,2.09-1.82.26,0,.52.09.52.26s-.09.43-.17.61l-.87,1.65.17.17c-.09.26-.17.52-.26.61,0,.17.17.26.43.26.43,0,.87-.26,1.91-1.22h-.17c-.17,0-.78.52-1.04.52Z"/><polygon class="uuid-96529878-eb8c-47bc-91c3-b7231e737f70" points="75.83 85.6 75.74 85.43 75.74 85.6 75.83 85.6"/><path class="uuid-96529878-eb8c-47bc-91c3-b7231e737f70" d="M101.54,88.38c-.52,0-.61-.26-.61-.7v-2.26h1.3c.06,0,.09-.06.09-.17s-.03-.17-.09-.17h-1.3v-.7c0-.06-.03-.09-.09-.09-.26.26-.78.61-1.13.78-.09.09-.17.09-.17.17s.09.09.17.09c.26,0,.52,0,.52.26v2.43h-.09l-.09.09c0,.52.52.78,1.13.78s1.04-.26,1.22-.78h-.17c-.09.09-.43.26-.7.26Z"/><path class="uuid-96529878-eb8c-47bc-91c3-b7231e737f70" d="M93.81,88.12c0-.09.52-1.13.61-1.3.26-.52.52-1.04.52-1.3s-.26-.43-.7-.43c-.78,0-1.91,1.04-2.43,1.48.09-.26.17-.7.26-1.04,0-.26-.09-.52-.52-.52-.61,0-1.22,1.04-1.22,1.04,0,.09.09.17.17.17,0,0,.26-.52.7-.52s.17.09.17.17c0,.17-.26,1.04-.43,1.22-.17.17-.78,1.48-.78,1.65s.17.17.43.17.52-.52.7-1.04c.09-.17.26-.52.43-.7.17-.17,1.3-1.74,2.09-1.74s.26.09.26.26c0,.43-1.3,2.61-1.3,2.95s.17.26.43.26c.52,0,1.65-.78,1.82-1.13v-.17c-.17.17-.7.61-1.04.61s-.09,0-.17-.09Z"/><path class="uuid-96529878-eb8c-47bc-91c3-b7231e737f70" d="M24.04,85.08c-1.48,0-2.52,1.48-2.52,2.61l-.09-.09c0,.7.43,1.22,1.3,1.22s1.3-.26,1.74-.78c0-.09-.09-.09-.17-.09-.43.26-.7.52-1.22.52s-.87-.43-.87-.78,0-.43.09-.61c.87,0,2.87-.26,2.87-1.3s-.61-.7-1.13-.7ZM24.3,85.69c0,.78-1.3,1.04-2,1.13.17-.61.7-1.48,1.48-1.65.43,0,.61.17.52.52Z"/><path class="uuid-96529878-eb8c-47bc-91c3-b7231e737f70" d="M32.73,88.12c0-.09.52-1.13.61-1.3.26-.52.52-1.04.52-1.3s-.26-.43-.7-.43c-.78,0-1.91,1.04-2.43,1.48.09-.26.17-.7.26-1.04,0-.26-.09-.52-.52-.52-.61,0-1.22,1.04-1.22,1.04,0,.09.09.17.17.17,0,0,.26-.52.7-.52s.17.09.17.17c0,.17-.26,1.04-.43,1.22-.09.17-.78,1.48-.78,1.65s.17.17.43.17.52-.52.7-1.04c.09-.17.26-.52.43-.7.09-.17,1.3-1.74,2.09-1.74s.26.09.26.26c0,.43-1.3,2.61-1.3,2.95s.17.26.43.26c.52,0,1.65-.78,1.82-1.13v-.17c-.17.17-.7.61-1.04.61s-.17,0-.17-.09Z"/><path class="uuid-96529878-eb8c-47bc-91c3-b7231e737f70" d="M117.27,84.99c-.61,0-1.13.61-1.39,1.04v-.87s0-.09-.09-.09c0,0-.17.09-.43.17l-.7.26c-.09,0-.17.09-.17.09,0,.09.26.17.26.17.17.09.26.17.26.26v1.82c0,.43-.09.61-.52.61s-.17,0-.17.09v.17h2.26c.06,0,.09-.03.09-.09s-.03-.09-.09-.09c-.78,0-.78-.26-.78-.61v-1.74h.09v.09l.17-.17c.17-.17.52-.52.7-.52.26,0,.43.09.7.09s.43-.09.43-.26c0-.26-.17-.43-.61-.43Z"/><path class="uuid-96529878-eb8c-47bc-91c3-b7231e737f70" d="M110.23,86.82l-.09-.26v-.26c0-.7-.61-1.22-1.48-1.22-1.3,0-2.09,1.13-2.09,2.09s.78,1.82,1.82,1.74c.78,0,1.39-.43,1.82-.87h-.17c-.52.26-.78.43-1.13.43-.87,0-1.65-.7-1.65-1.39v-.26h2.95ZM107.37,86.21h.03c.12-.49.53-.96,1.1-.96.61,0,.87.26.87.7s-.09.26-.26.26h-1.71s-.02.06-.03.09v-.09Z"/><path class="uuid-96529878-eb8c-47bc-91c3-b7231e737f70" d="M38.59,57.19c.06-.11.15.82.22-1.13.25-7.21-2.43-11.21-6.86-11.21-4.43.09-7.04,4.08-7.04,10.69,0,2.94.87,9.75,6.96,9.81h0s-.06,0-.09,0h.17s-.02,0-.03,0c.79,0,1.5-.11,2.14-.29,2.99-.36,3.47-1.5,3.84-2.26.18-.18.32-.33.42-.43.02-.01.03-.03.04-.04,0,0,.01-.01.02-.02h0s0-.06,0-.09l-2.01-2.09-.08-.09h0s-.09-.09-.09-.09c0,0-1.91,2.09-4.26,2.09s-3.56-2.43-3.56-4.87h9.3M35.04,51.48s.02.08.03.12c0,.03.01.06.02.09.21.92.24,1.74.24,2.03h-6.95c-.09-.7.17-3.04,1.39-4.43.06-.06.1-.12.12-.18.36-.36.8-.63,1.33-.77.21,0,.44,0,.72,0,.89,0,1.54.38,2.03.93.51.62.85,1.44,1.06,2.22ZM28.3,57.17s0-.05,0-.07h9.19c-.95,0-8,0-9.19.07Z"/><path class="uuid-96529878-eb8c-47bc-91c3-b7231e737f70" d="M55.15,45.37c-.63,0-2.77,0-2.69,0h-.26q-.17.17-.35.43c-.17.26-.34.35-.35.51.03,0,.05,0,.07,0-.04.01-.08.02-.12,0h.05s0,0,0,0c-.07-.01-.14-.05-.26-.17-.03-.03-.07-.05-.1-.07-.59-.61.67-.98-2.19-1.04-.33-.06-.69-.1-1.09-.1-1.49,0-2.79.54-3.87,1.42,1.08-.84,2.35-1.33,3.79-1.33.03,0,.05,0,.08,0-3.01,0-5.28,2.21-6.51,5.1.61-1.51,1.5-2.83,2.64-3.76-2.38,1.85-3.8,5.34-3.86,8.75-.09,3.39,1.13,6.6,3.04,8.52,1.3,1.3,2.87,1.82,4.61,1.82,1.39,0,3.04-.52,3.65-1.13h.17c.04.51.05,1.36-.06,2.28-.39,1.63-1.24,3.26-2.5,3.96-.39.12-.81.19-1.26.19-2.52,0-3.91-1.04-4.87-1.65-.09,0-.17-.17-.26-.17,0,0-.01.02-.01.03.09.05.21.17.28.23.96.7,2.26,1.65,4.69,1.65.3,0,.56,0,.79-.02-.22.06-.46.1-.7.1-2.75,0-4.23-1.28-5.1-1.89.01-.03.03-.05.05-.08-.03-.02-.05-.03-.07-.03-1.65,2.69-1.65,2.78-1.65,2.87.12.12.26.23.41.35.93,1.11.92,2.15,6.57,2.17l-.12.18c1.9,0,3.44-.56,4.61-1.67,2.43-2.13,2.95-6.12,2.95-9.27,0,0-.09-16.94,0-18.16h-.17ZM47.67,48.41c.7,0,1.3.21,1.81.57,1.49,1.17,2.13,3.7,2.19,5.95,0,1.91-.35,4.52-1.74,5.91-.61.7-1.48,1.04-2.35,1.04-1.39,0-2.43-.78-3.13-2.26-.52-1.22-.78-2.87-.78-4.61s.52-4.34,1.91-5.73c.52-.52,1.22-.78,1.91-.78v-.08c.06,0,.11-.01.17,0ZM52.18,45.66c-.08.09-.15.17-.2.24.04-.05.08-.11.13-.18.02-.02.05-.04.08-.06ZM51.76,46.15c.06-.06.12-.13.22-.25-.11.14-.17.25-.22.33-.04.02-.07.04-.11.06.06-.05.11-.14.11-.14ZM41.07,71.52c.17-.33.98-1.55,1.5-2.5l.15.15s-1.29,2.04-1.59,2.57c-.02-.02-.04-.03-.06-.05v-.17Z"/><path class="uuid-96529878-eb8c-47bc-91c3-b7231e737f70" d="M68.96,45.02c0,.09-.17.35-.26.52-.09.26-.26.43-.26.52-.06.03-.12.06-.17.08-.02-.02-.05-.04-.09-.08-.18-.1-.33-.2-.49-.3-.31-.53.61-.91-3.31-.91,0,0-.01,0-.02,0,0,0,0,0,0,0-.03,0-.05,0-.08,0-2.41,0-4.35,1.32-5.69,3.27-1.28,1.86-2.05,1.91-2.05,6.9,0,.31.01.62.03.94,0,.14.03.27.04.41.02.18.03.35.05.53.02.16.05.32.08.48.03.15.05.3.08.45.04.17.08.34.12.51.03.13.06.27.1.4.05.19.12.37.18.56.03.11.06.21.1.32.08.23.17.45.27.67.02.06.04.11.07.17,1.25,2.81,3.53,4.91,6.7,4.91l-.17-.09s.02,0,.04,0c.02,0,.03,0,.05,0,.34,0,.66-.04.96-.09,3.3-.05,1.92-.39,2.27-1.03.08-.06.17-.12.24-.18v-.03c.1-.05.17-.06.17-.06.09.09.17.17.17.35.09.26.17.52.35.7h3.21v-19.9s-2.69,0-2.61,0h-.09ZM68.96,45.2s0,.02-.01.03c0,0,0-.02,0-.03h0ZM68.7,45.63c.04-.08.1-.16.15-.24-.07.11-.14.22-.2.33.02-.03.04-.06.05-.09ZM61.05,59.62c-.52-1.22-.78-2.87-.78-4.61s.52-4.34,1.91-5.73c.52-.52,1.22-.78,1.91-.78v-.08s.08,0,.12,0c2.84.03,3.96,3.57,4.05,6.6,0,3.13-1.13,6.86-4.08,6.86-1.39,0-2.43-.78-3.13-2.26ZM67.74,63.88s-.02.02-.03.03l-.06-.11c.35-.17.43-.17.43-.09,0,0,0,0,0,0-.07.01-.17.05-.35.17ZM68.35,64.22c.07.2.13.39.26.52-.17-.17-.26-.35-.26-.52Z"/><polygon class="uuid-96529878-eb8c-47bc-91c3-b7231e737f70" points="75.22 45.11 75.22 65.01 86.86 65.01 86.95 65.01 86.95 56.49 83.38 56.49 83.38 61.27 78.87 61.27 78.87 45.11 75.22 45.11"/><polygon class="uuid-96529878-eb8c-47bc-91c3-b7231e737f70" points="119.79 65.62 119.7 65.53 119.7 65.7 119.79 65.62"/><path class="uuid-96529878-eb8c-47bc-91c3-b7231e737f70" d="M119.7,65.09v-19.9h-3.74v10.24l-1.56-1.69-8.43-9.16v20.51h3.74v-10.51l9.91,10.86.09.09v-.43ZM107.89,46.72l-1.56-1.69h0s1.56,1.69,1.56,1.69Z"/><path class="uuid-96529878-eb8c-47bc-91c3-b7231e737f70" d="M13.96,65.01c.11-.53.74-3.24,1.48-6.38-.74,3.13-1.39,5.83-1.54,6.38h.06Z"/><path class="uuid-96529878-eb8c-47bc-91c3-b7231e737f70" d="M24.01,65.09h.12c-.09-.78-2.95-21.64-3.21-23.11-.15-.85-.51-1.29-.99-1.53-.39-.36-.93-.5-1.61-.55-1.3-.17-2.35.43-2.69,1.82-.42,1.34-2.84,11.03-3.11,12.23-.44-1.75-2.91-10.77-3.24-12.06-.08-.41-.22-.74-.39-.99-.38-.74-.99-1.09-2.04-1.09-1.39,0-2.26.7-2.52,2-.09.52-.7,4.34-1.3,8.78-.87,6.26-2.09,13.99-2.09,14.42h.19s-.01.07-.01.09h3.65s0-.04.01-.09h.07c0-.43.35-2.69.7-5.21.51-4.08,1.19-9.56,1.54-11.59-.02-.07-.04-.16-.06-.22,0-.08.02-.18.09-.18.02,0,.03.01.04.02-.03.08-.04.19-.04.24,0,.04-.02.09-.02.14.56,2.03,1.88,7.57,2.8,11.59.7,2.95,1.3,5.04,1.3,5.3h2.69s.01-.05.03-.09h0c.26-1.26,3.23-13.75,4.07-16.94.26,1.56.78,5.56,1.3,9.38.52,3.91.96,7.3,1.04,7.73h3.82l-.12-.09ZM15.9,42.48c-.43,1.74-1.56,6.11-2.3,9.01.73-2.96,1.85-7.37,2.3-9.01ZM4.78,64.89c.09-.64.34-2.64.65-5.08-.31,2.62-.55,4.6-.65,5.08ZM5.8,56.92c.42-3.23.85-6.57,1.12-8.3-.24,1.79-.7,5.13-1.12,8.3Z"/><path class="uuid-96529878-eb8c-47bc-91c3-b7231e737f70" d="M17.96,48.06c-.44,1.76-1.57,6.52-2.52,10.57.96-4.05,2.09-8.81,2.52-10.57Z"/><path class="uuid-96529878-eb8c-47bc-91c3-b7231e737f70" d="M87.9,64.92h.02s-.02.08-.02.09h3.74l1.48-5.04h5.82l1.48,5.04h3.91l-6.08-19.9h-7.56v3.74h1.89l-4.75,16.07h.09ZM94.07,56.58l1.91-6.43,1.91,6.43h-3.82Z"/><path class="uuid-96529878-eb8c-47bc-91c3-b7231e737f70" d="M136.1,62.02c1.52-1.89,2.37-4.47,2.37-7.01,0-4.78-2.87-9.91-8.17-9.91h-7.21v19.9h7.21c2.42,0,4.39-1.21,5.8-2.99ZM129.96,61.36h-3.04v-12.43h3.04c2.69,0,4.43,2.43,4.43,6.17,0,3.49-1.98,5.92-4.01,6.22-.14.02-.28.03-.42.03Z"/></svg>