<svg fill="none" height="27" viewBox="0 0 145 27" width="145" xmlns="http://www.w3.org/2000/svg"><g fill="#000"><path d="m0 26.1569v-25.490152h13.927c6.3417 0 9.7171 1.955502 9.7171 6.114822 0 3.11087-1.9186 5.17293-4.8318 6.02593 3.1797.7288 5.6134 2.6663 5.6134 6.2213 0 5.4749-4.6184 7.1281-11.44 7.1281zm9.41498-5.2971h1.93622c1.9718 0 3.1797-.8178 3.1797-2.7196 0-1.7777-1.2259-2.5242-3.0556-2.5242h-2.06071v5.2438zm0-10.4343h2.06072c1.6877 0 2.789-.74651 2.789-2.41767 0-1.54662-1.1546-2.1153-2.7534-2.1153h-2.09632z"/><path d="m0 26.1569v-25.490152h13.927c6.3417 0 9.7171 1.955502 9.7171 6.114822 0 3.11087-1.9186 5.17293-4.8318 6.02593 3.1797.7288 5.6134 2.6663 5.6134 6.2213 0 5.4749-4.6184 7.1281-11.44 7.1281zm9.41498-5.2971h1.93622c1.9718 0 3.1797-.8178 3.1797-2.7196 0-1.7777-1.2259-2.5242-3.0556-2.5242h-2.06071v5.2438zm0-10.4343h2.06072c1.6877 0 2.789-.74651 2.789-2.41767 0-1.54662-1.1546-2.1153-2.7534-2.1153h-2.09632z"/><path d="m43.9324 26.1569-6.9992-12.3542v12.3542h-12.2037v-25.490152h12.2037v10.860852l6.7859-10.860852h14.2468l-8.9532 11.340952 9.1132 14.1495h-14.1935z"/><path d="m43.9324 26.1569-6.9992-12.3542v12.3542h-12.2037v-25.490152h12.2037v10.860852l6.7859-10.860852h14.2468l-8.9532 11.340952 9.1132 14.1495h-14.1935z"/><path d="m79.6537 26.1569v-6.3279l14.7606-6.5747c2.8538-1.2691 5.214-2.344 5.214-4.65324 0-1.6041-1.1451-2.67899-3.1353-2.67899s-3.5052 1.19867-3.5052 3.80715c0 .28208.0176.58168.0529.91668h-14.0036c.3347-7.56147 8.2259-10.6459 17.5792-10.6459 9.3537 0 16.8567 2.71425 16.8567 8.86586 0 5.44654-5.108 7.43804-11.149 9.28894l-5.3377 1.6393h16.8397v6.3632z"/><path d="m67.7211 26.7793c-7.0349 0-12.0443-2.3288-12.0443-7.9815h9.6106c0 1.813.9589 2.6488 2.4337 2.6488 1.1899 0 2.0427-.5335 2.0427-1.7241 0-1.2799-.9413-1.8486-2.7711-2.4885l-3.5174-1.2267c-4.2811-1.4929-7.5496-3.253-7.5496-7.7323 0-5.84811 5.3292-8.1768555 11.7954-8.1768555 5.5778 0 11.3688 2.1329255 11.3688 7.7503455h-9.3261c-.0356-1.67078-.9061-2.4529-2.2384-2.4529-1.2254 0-2.0607.63995-2.0607 1.65315 0 1.22664 1.1014 1.63552 2.7183 2.22183l3.2861 1.19103c4.6008 1.6708 8.1539 3.5017 8.1539 8.3366 0 5.7949-5.2227 7.9814-11.9019 7.9814z"/><path d="m120.507 26.1573c0-2.9861.729-5.9054 2.185-8.7579 1.469-2.8647 3.387-5.3349 5.754-7.41054 2.379-2.07567 4.874-3.50194 7.483-4.2788l.729 1.91181h-22.833v-7.5743846h31.026v7.7382546c-1.942 1.26239-3.623 2.71896-5.043 4.36986-1.421 1.6387-2.55 3.4594-3.387 5.4623-.838 2.0028-1.354 4.1574-1.548 6.4637-.06.7647-.091 1.4566-.091 2.0757z"/></g></svg>