<?xml version="1.0" encoding="UTF-8"?><svg id="uuid-24f32359-5788-4936-a227-0015f91782fc" xmlns="http://www.w3.org/2000/svg" width="48" height="48" viewBox="0 0 48 48"><defs><style>.uuid-19950271-00d2-412e-af6a-d9ca38b0c19e{fill:#fff;}</style></defs><path class="uuid-19950271-00d2-412e-af6a-d9ca38b0c19e" d="M20.37,33.08c-.36-.15-.72-.29-1.08-.44-.3-.12-.65-.34-.98-.31-.21.02-.39.14-.54.28-.58.53-1.02,1.18-1.35,1.89-.21.47-.41,1.02-.29,1.54.23,1.04,1.51,1.1,2.32.76l2.85-2.49c.21-.24-.01-.64-.21-.82-.2-.19-.47-.3-.72-.4h0Z"/><path class="uuid-19950271-00d2-412e-af6a-d9ca38b0c19e" d="M17.57,20.32c-.16.06-.27.22-.27.44,0,.33.27.44.49.5.16,0,.27-.06.33-.22.05-.17.05-.44-.16-.61-.11-.06-.27-.11-.38-.11h0Z"/><path class="uuid-19950271-00d2-412e-af6a-d9ca38b0c19e" d="M32.01,31.22c-.1-.06-.2-.13-.31-.17-.1-.04-.22-.12-.32-.11-.05,0-.1.02-.14.04-.22.11-.39.3-.59.44-.29.21-.58.4-.88.59-.84.53-1.72,1.01-2.62,1.42-.51.23-1.03.45-1.56.63-.45.16-.91.29-1.37.4-.05.01-.1.03-.14.05-.05.03-.08.09-.09.15-.02.1-.01.22,0,.32.03.18.11.34.19.5.12.24.25.46.4.68.29.45.64.87,1.1,1.17.3.2.64.33.99.42,1.1.28,2.35.18,3.37-.29.82-.38,1.6-.91,2.22-1.56.14-.15.28-.3.41-.47.23-.29.42-.6.54-.95.35-.97.01-2.08-.67-2.83-.16-.17-.34-.33-.54-.46h0Z"/><path class="uuid-19950271-00d2-412e-af6a-d9ca38b0c19e" d="M18.94,20.1c-.11-.33-.49-.94-1.43-.83.82-.05,1.32.61,1.43.83Z"/><path class="uuid-19950271-00d2-412e-af6a-d9ca38b0c19e" d="M33.29,23.31c-.06-.04-.12-.07-.19-.09-.37-.15-.72-.35-.99-.64-.3-.31-.43-.7-.53-1.12-.18-.83-.06-1.61.27-2.38.23-.53.57-1.01.68-1.58.03-.16.05-.32.06-.49,0-.11.02-.31-.07-.39-.04-.03-.09-.03-.13-.03-.15.01-.26.11-.39.17-.09.03-.18.06-.27.08-.21.05-.42.07-.63.05-.29-.02-.66-.1-.86-.31-.21-.22-.33-.5-.46-.78-.11-.23-.26-.46-.49-.56-.18-.08-.36-.04-.54-.07-.17-.03-.33-.13-.46-.24-.31-.27-.45-.59-.48-1-.03-.39,0-.81.23-1.14.03-.04.06-.09.11-.11.1-.05.22.01.29.1.06.09.09.2.12.31.07.18.24.33.44.21.14-.09.2-.26.21-.42.04-.52.02-1.06-.18-1.55-.04-.1-.09-.2-.15-.3-.03-.05-.08-.18-.15-.19-.05-.01-.09.03-.13.06-.17.14-.39.2-.61.24-.22.04-.44.05-.65.11-.05.01-.1.03-.14.07-.04.04-.06.09-.08.13-.12.33-.17.67-.33.98-.14.29-.33.55-.56.78-.17.17-.36.31-.56.44-.1.06-.21.12-.32.17-.09.04-.25.14-.34.1-.04-.02-.07-.06-.08-.1-.03-.1-.03-.2-.05-.3,0-.03-.02-.07-.05-.08-.03-.01-.06,0-.09.03-.29.21-.56.44-.89.59-.13.06-.29.15-.44.08-.14-.07-.19-.26-.12-.4.04-.08.1-.15.15-.22.2-.26.27-.62.19-.94-.01-.05-.05-.14-.12-.14-.05,0-.08.1-.09.15-.04.09-.08.18-.12.27-.08.17-.18.34-.29.49-.2.28-.51.61-.85.7-1.26.33.16-.99-.38-1.55-.22.99-.71,1.77-1.7,2.38-.82.44-1.7.33-2.47-.05-.38-.22-.77-.66-.77-1.16.03-.31.16-.5.48-.41.26.07.59.28.85.1.07-.05.12-.11.16-.18.29-.47.12-1-.17-1.42-.08-.11-.18-.23-.3-.3-.09-.05-.2-.07-.28-.01-.04.03-.07.07-.09.1-.5.69-1.04,1.42-1.86,1.74-.44.28-.93.17-1.15-.06-.11-.11-.11-.31.04-.38.04-.02.09-.03.13-.04.32-.1.49-.38.65-.66.16-.3.36-.65.39-.99,0-.04,0-.09-.01-.12-.02-.05-.09-.08-.14-.1-.03-.01-.06,0-.09,0-.34.13-.58.4-.78.69-.12.17-.21.37-.3.56-.19.41-.35.84-.48,1.28-.33,1.07-.52,2.23-.44,3.35,0-.05.1-.18.13-.23.06-.11.11-.22.19-.31.44-.52,1.31-.6,1.94-.46.41.04.81.3,1.1.57.27.26.6.74.12.99-.09.05-.19.05-.28.03-.22-.05-.41-.2-.63-.28-.79-.31-1.86-.26-2.46.41-.31.23-.29.69-.26,1.03.03.48.07.95.1,1.43.08,1.23.1,2.47.19,3.7.09,1.23.23,2.47.52,3.67.38,1.55,1.81,2.93,3.29,3.37.37.1.75.18,1.13.26.2.05.4.1.56.21.1.07.18.15.26.24.05.06.09.13.14.19.08.09.2.16.3.22.45.26.97.37,1.48.46.94.16,1.96.23,2.9.03,1.22-.25,2.45-.59,3.61-1.06.54-.22,1.06-.47,1.55-.77.25-.15.49-.32.73-.49.13-.1.27-.19.4-.28.12-.09.28-.17.39-.27.33-.23.66-.46.96-.73.32-.29.59-.62.82-.99.09-.14.19-.27.19-.44,0-.32-.23-.56-.35-.83-.27-.66-.22-1.77.38-2.43.15-.16.81-.43.43-.71h0ZM20.66,25.55c.05-.17.22-.26.39-.24.18.02.39.12.54.21.11.07.26.38.04.43-.31.08-1.15.16-.97-.41h0ZM16.2,21.93c-.17-.27-.29-.57-.3-.89-.02-.27.08-.42.14-.66.05-.22.33-.44.22-.5-.38.11-.6.61-.66.99-.05.44.22,1.05-.05,1.11-.56-.04-.6-1.03-.71-1.42-.09-.3-.2-.55-.43-.77-.27-.25.04-.41.31-.45.11-.02.22,0,.33-.04.22-.07.41-.21.58-.35.36-.28.74-.64,1.24-.61.88,0,1.59.33,2.19.94.27.22.71,1.22.44,1.99-.05.22-.27.28-.44.28-.34.51-.81.93-1.44,1.01-.55.07-1.11-.14-1.42-.62h0ZM18.39,25.35c0-.18.1-.37.15-.54.05-.17.09-.36.14-.52.09-.32.22-.61.45-.85.22-.24.22-.46.32-.75.06-.16.25-.39.42-.16.15.2.05.58,0,.79-.12.43-.47.73-.56,1.16-.05.27,0,.55-.09.81-.03.1.54.26.61.32.14.12.14.23.07.31-.07.08-.21.13-.34.15-.28.03-.52-.07-.78-.12-.27-.06-.38-.33-.38-.61h0ZM23.52,28.81c-.09.12-.16.25-.24.37-.15.21-.3.42-.48.61-.26.28-.57.52-.94.63-.4.12-.84.1-1.23-.05-.36-.14-.61-.42-.86-.71-.14-.17-.28-.34-.43-.5-.07-.07-.14-.14-.22-.2-.08-.07-.2-.1-.27-.18-.03-.04-.04-.09-.04-.14-.02-.39.61-.31.84-.49.18-.14.3-.35.49-.49.18-.13.46-.23.67-.1.16.1.22.3.37.41.14.11.22,0,.26-.12.04-.12.13-.16.25-.18.09,0,.17,0,.25.04.18.06.34.18.5.29.16.12.3.24.48.3.18.06.38.1.57.12.02,0,.04,0,.05,0,.07.02.09.06.08.16-.01.08-.06.14-.1.21h0ZM30.07,20.54c-.16.39-.55.66-.82.55-.33-.17-.6-.55-.88-.83l-.33-.39c-.07-.08-.35-.38-.48-.32-.12.05.21.38.25.43.16.19.27.42.39.64.15.27.3.54.45.8.07.11.05.27-.08.32-.05.02-.11.01-.17,0-.16-.03-.33-.03-.49.03-.15.06-.25.19-.37.29-.14.12-.31.21-.5.26-.18.05-.37.07-.56.07-.16,0-.37,0-.52-.08-.3-.15-.56-.39-.72-.68-.08-.14-.13-.29-.17-.45-.05-.2,0-.39.04-.58.02-.08.06-.18.03-.26-.09.18-.2.34-.25.54-.04.19-.05.39,0,.59.04.17.1.34.08.52,0,0,0,.02,0,.03-.01.02-.04.02-.06.02-.44-.03-.56-.51-.64-.86-.04-.17-.09-.35-.16-.51-.08-.17-.26-.28-.31-.45-.08-.24-.09-.59.1-.78.28-.31.68-.4,1.08-.46.22-.03.43-.06.64-.14.19-.07.36-.18.54-.28.55-.33,1.25-.11,1.73.23.42.29.81.68,1.11,1.1.01.01.02.03.03.04.03.04.06.09.1.12.24.18.57,0,.82-.05.36-.06.22.33.15.54h0ZM30.15,18.38c-.18-.02-.26-.13-.35-.26-.06-.07-.12-.15-.18-.22-.14-.15-.29-.29-.45-.42-.01-.01-.03-.02-.04-.03-.44-.34-.95-.58-1.49-.69-.27-.05-.55-.08-.82-.07-.48.02-.91.1-1.35.3-.19.09-.38.18-.59.22-.14.03-.32.07-.46.02-.16-.06-.2-.25-.2-.4,0-.08.02-.17.06-.24.1-.21.34-.34.53-.46.45-.28.97-.45,1.51-.5.5-.05,1.09,0,1.56.21.99.44,2.08,1.11,2.52,2.21.07.18-.06.35-.25.32h0Z"/><path class="uuid-19950271-00d2-412e-af6a-d9ca38b0c19e" d="M27.16,20.29c-.17-.08-.38,0-.49.14-.13.15-.17.4-.04.56.03.04.09.07.14.1.07.03.15.05.23.05.04,0,.09-.01.13-.03.29-.12.35-.67.04-.82h0Z"/><path class="uuid-19950271-00d2-412e-af6a-d9ca38b0c19e" d="M21.19,29.22c-.1,0-.16.01-.25-.04-.06-.04-.11-.09-.17-.13-.11-.08-.28-.21-.4-.06-.15.17.07.3.21.35.05.02.11.04.16.06.2.07.4.14.61.15.17,0,.41-.04.38-.26-.11-.28-.38-.06-.55-.06h0Z"/><path class="uuid-19950271-00d2-412e-af6a-d9ca38b0c19e" d="M36.87,34.41c-1.64-.44-2.19,1.22-3.18,1.99-.82.88-1.86,1.6-2.91,1.99-.29.11-.57.24-.87.34-.29.09-.58.15-.88.2-1.02.15-2.07.04-3.04-.29-.49-.17-.96-.39-1.4-.66-.22-.14-.44-.28-.64-.44-.17-.13-.33-.28-.5-.42-.03-.02-.06-.05-.09-.04-.03,0-.04.02-.06.04-.12.14-.15.32-.22.48-.07.17-.21.31-.35.43-.17.14-.38.23-.59.26-.21.03-.43,0-.61-.12-.18-.11-.3-.28-.41-.46-.05-.09-.25-.56-.35-.51-.51.23-1.01.49-1.53.69-.31.12-.64.22-.97.28-.99.18-2.26.01-2.94-.82-.11-.13-.2-.28-.27-.44-.4-.9-.24-2.09.12-2.98.02-.04.03-.09.03-.13,0-.2-.36-.16-.49-.16-.57,0-1.12-.01-1.69.06-.51.06-1.02.17-1.51.31-1.07.31-2.09.79-3.05,1.36-.48.29-.96.6-1.41.93-.23.16-.45.33-.68.5-.21.16-.45.32-.64.51l-1.01,1c1.11,1.5,2.4,2.86,3.82,4.06-.02-.05.25-.58.28-.65.11-.24.23-.47.36-.7.62-1.09,1.14-2.22,1.75-3.32.14-.26.31-.72.62-.8.11-.03.3.03.33.16,0,.04,0,.09-.02.13v.02c-.31.94-.9,1.78-1.03,2.78,0,.01,0,.03,0,.05.01.03.04.04.07.03.11-.02.23-.16.31-.22.1-.09.21-.18.31-.27.2-.18.39-.36.57-.55.16-.16.3-.33.46-.48.13-.13.28-.25.48-.22.07.01.2.03.2.12,0,.04-.03.08-.06.11-.39.46-.8.91-1.21,1.35-.05.06-.11.12-.16.18-.51.58-.95,1.2-1.4,1.83-.06.09-.87,1.19-.85,1.25,4.02,3.04,9.03,4.85,14.46,4.85,1.9,0,3.75-.23,5.52-.65-.03,0-.06,0-.08,0,.01-.11.06-.22.09-.32.37-1.2.67-2.43,1.16-3.59.12-.28.24-.55.38-.81.19-.36.37-.89.73-1.12.03-.02.05-.03.08-.03.02,0,.04,0,.07,0,.08.01.14.08.17.16.09.27-.07.58-.16.84-.1.28-.19.55-.29.83-.29.84-.56,1.7-.75,2.57-.04.2-.08.39-.12.6,0,.05-.04.52-.07.57,4.66-1.36,8.74-4.1,11.76-7.74-.16-.4-.39-.83-.59-1.17-1.04-1.88-3.07-3.21-5.04-3.7h0ZM20.26,44.64c-.11.39-.45.74-.86.8-.32.05-.6-.08-.85-.26-.29-.21-.48-.48-.53-.85-.04-.34.06-.69.29-.94.16-.18.39-.32.63-.36.1-.01.21,0,.31.03.14.05.27.14.39.22.2.14.41.29.52.51.12.25.13.56.09.84h0Z"/><path class="uuid-19950271-00d2-412e-af6a-d9ca38b0c19e" d="M18.87,43.69c-.09.01-.17.08-.21.16-.04.08-.05.19-.04.28,0,.07.03.14.08.19.08.08.14.08.2.05.11-.07.18-.32.2-.43.03-.15-.05-.28-.22-.25h0Z"/><path class="uuid-19950271-00d2-412e-af6a-d9ca38b0c19e" d="M21.95,36.53c-.05-.07-.13-.09-.22-.07-.18.06-.25.36-.12.49.03.03.05.05.08.08.01.01.02.02.04.03,0,0,0,0,0,0,.02,0,.03,0,.05.01.06,0,.13,0,.17-.05.04-.04.06-.09.06-.14s0-.11-.01-.16c-.01-.07-.02-.14-.06-.19h0Z"/><path d="M11.78,40.08c.05-.06.11-.12.16-.18.41-.44.82-.89,1.21-1.35.03-.03.06-.07.06-.11,0-.09-.13-.11-.2-.12-.2-.03-.35.08-.48.22-.16.16-.3.32-.46.48-.18.19-.37.37-.57.55-.1.09-.2.18-.31.27-.08.07-.2.21-.31.22-.03,0-.06,0-.07-.03,0-.01,0-.03,0-.05.13-1,.72-1.84,1.03-2.78v-.02s.03-.09.03-.13c-.02-.13-.22-.19-.33-.16-.32.08-.48.54-.62.8-.6,1.1-1.13,2.23-1.75,3.32-.13.23-.25.46-.36.7-.03.06-.3.6-.28.65h0s.06.05.09.08c.22.18.45.36.67.54.08.06.16.13.24.19h0c-.03-.06.79-1.16.85-1.25.44-.62.89-1.25,1.4-1.83h0Z"/><path d="M30.92,45.87c.19-.87.46-1.73.75-2.57.09-.28.19-.55.29-.83.09-.26.25-.56.16-.84-.03-.08-.09-.15-.17-.16-.02,0-.05,0-.07,0-.03,0-.06.02-.08.03-.36.23-.54.76-.73,1.12-.14.27-.27.54-.38.81-.49,1.16-.8,2.38-1.16,3.59-.03.11-.07.21-.09.32.02,0,.05,0,.08,0,.06,0,.12-.02.17-.03.1-.02.2-.05.29-.07,0,0,.01,0,.02,0,.01,0,.03,0,.04-.01.23-.06.46-.12.69-.19,0,0,0,0,0,0,.03-.04.06-.51.07-.57.03-.2.07-.4.12-.6h0Z"/><path d="M29.92,20c-.25.04-.58.22-.82.05-.04-.03-.07-.07-.1-.12-.01-.01-.02-.03-.03-.04-.3-.42-.69-.8-1.11-1.1-.49-.34-1.18-.56-1.73-.23-.17.1-.35.21-.54.28-.2.08-.42.1-.64.14-.4.06-.8.15-1.08.46-.19.19-.18.54-.1.78.06.17.23.28.31.45.07.16.12.33.16.51.09.35.2.83.64.86.02,0,.05,0,.06-.02,0,0,0-.02,0-.03.02-.18-.05-.35-.08-.52-.04-.19-.04-.39,0-.59.05-.2.15-.36.25-.54.03.08,0,.18-.03.26-.04.2-.09.38-.04.58.04.16.1.31.17.45.16.29.42.53.72.68.14.07.36.08.52.08.19,0,.38-.01.56-.07.18-.05.35-.14.5-.26.12-.1.22-.24.37-.29.16-.06.32-.05.49-.03.06,0,.11.01.17,0,.14-.04.15-.21.08-.32-.15-.27-.3-.54-.45-.8-.12-.22-.23-.44-.39-.64-.04-.05-.37-.38-.25-.43.13-.06.41.24.48.32l.33.39c.27.28.55.66.88.83.27.11.66-.17.82-.55.08-.21.21-.61-.15-.54h0ZM27.12,21.11s-.08.03-.13.03c-.08,0-.16-.02-.23-.05-.05-.02-.1-.05-.14-.1-.13-.16-.09-.41.04-.56.12-.13.33-.22.49-.14.31.14.25.7-.04.82h0Z"/><path d="M19.65,43.29c-.12-.09-.25-.17-.39-.22-.1-.04-.21-.04-.31-.03-.24.03-.47.18-.63.36-.23.25-.33.6-.29.94.04.36.24.64.53.85.25.18.53.31.85.26.41-.07.75-.41.86-.8.04-.27.03-.58-.09-.84-.1-.22-.32-.38-.52-.51h0ZM19.09,43.94c-.02.1-.09.35-.2.43-.05.03-.12.03-.2-.05-.05-.05-.07-.12-.08-.19,0-.09,0-.2.04-.28.04-.08.12-.15.21-.16.17-.03.25.1.22.25h0Z"/><path d="M23.55,28.44s-.03,0-.05,0c-.19-.02-.39-.07-.57-.12-.19-.06-.33-.18-.48-.3-.15-.11-.31-.23-.5-.29-.08-.03-.16-.05-.25-.04-.13.01-.21.06-.25.18-.04.12-.12.23-.26.12-.14-.11-.21-.31-.37-.41-.21-.13-.49-.03-.67.1-.19.14-.31.36-.49.49-.23.18-.87.09-.84.49,0,.05.02.1.04.14.06.08.19.12.27.18.08.06.15.13.22.2.15.16.29.33.43.5.25.29.49.57.86.71.39.15.83.17,1.23.05.37-.11.68-.35.94-.63.18-.19.34-.4.48-.61.08-.12.16-.25.24-.37.04-.06.09-.13.1-.21.02-.1-.01-.15-.08-.16h0ZM21.36,29.54c-.21,0-.41-.07-.61-.15-.05-.02-.11-.04-.16-.06-.14-.05-.36-.18-.21-.35.12-.14.29-.02.4.06.06.04.11.09.17.13.09.06.15.04.25.04.16,0,.44-.22.55.06.03.22-.21.27-.38.26h0Z"/><path d="M27.88,15.84c-.47-.21-1.06-.25-1.56-.21-.53.05-1.05.22-1.51.5-.19.12-.43.25-.53.46-.04.08-.06.16-.06.24,0,.15.04.34.2.4.14.05.32.01.46-.02.2-.05.4-.13.59-.22.44-.21.86-.28,1.35-.3.28-.01.55.01.82.07.54.11,1.06.35,1.49.69.01,0,.03.02.04.03.16.13.31.27.45.42.06.07.13.14.18.22.1.13.18.24.35.26.19.03.32-.14.25-.32-.44-1.11-1.54-1.77-2.52-2.21h0Z"/><path d="M21.63,25.96c.22-.06.07-.36-.04-.43-.14-.1-.36-.2-.54-.21-.17-.02-.34.07-.39.24-.17.56.66.49.97.41h0Z"/><path d="M19.56,26.08c.13-.02.27-.07.34-.15.07-.08.08-.19-.07-.31-.07-.06-.64-.23-.61-.32.09-.26.04-.54.09-.81.09-.43.44-.73.56-1.16.06-.21.15-.6,0-.79-.17-.23-.36,0-.42.16-.1.29-.1.51-.32.75-.23.24-.36.53-.45.85-.05.16-.09.35-.14.52-.05.17-.15.36-.15.54,0,.28.11.55.38.61.26.05.51.15.78.12h0Z"/><path d="M19.05,21.53c.16,0,.38-.06.44-.28.27-.77-.16-1.77-.44-1.99-.6-.61-1.32-.94-2.19-.94-.49-.03-.87.33-1.24.61-.18.14-.36.28-.58.35-.11.04-.22.02-.33.04-.27.04-.58.2-.31.45.23.22.34.47.43.77.11.39.15,1.38.71,1.42.27-.05,0-.66.05-1.11.05-.39.27-.88.66-.99.11.06-.16.28-.22.5-.06.24-.16.39-.14.66.02.32.13.62.3.89.31.47.86.69,1.42.62.63-.08,1.1-.5,1.44-1.01h0ZM18.94,20.1c-.11-.22-.6-.88-1.43-.83.93-.11,1.32.5,1.43.83ZM18.12,21.04c-.05.17-.16.22-.33.22-.22-.06-.49-.17-.49-.5,0-.22.11-.39.27-.44.11,0,.27.06.38.11.22.17.22.44.16.61h0Z"/><path d="M44.12,10.92c-.35-.54-.72-1.06-1.11-1.57C38.62,3.67,31.74,0,24,0h-.04c-.24,0-.47.01-.7.02-.17,0-.34,0-.51.01-.24.01-.47.03-.71.05-.17.01-.34.02-.51.04-.23.02-.45.06-.67.09-.18.02-.35.04-.53.07-.21.03-.43.08-.64.11-.18.03-.36.06-.54.1-.21.04-.41.09-.61.14-.18.04-.37.08-.55.13-.19.05-.39.11-.58.16-.19.05-.38.1-.56.16-.18.06-.36.12-.53.18-.19.07-.39.13-.58.2-.17.06-.34.13-.51.2-.19.08-.39.15-.58.23-.16.07-.31.14-.47.21-.2.09-.4.18-.59.27-.14.07-.28.14-.42.22-.21.1-.41.21-.61.32-.13.07-.25.15-.38.22-.21.12-.42.24-.63.36-.11.07-.22.14-.33.21-.22.14-.43.27-.64.41-.1.07-.19.14-.29.2-.22.15-.44.31-.65.47-.08.06-.15.12-.23.18-.23.18-.46.35-.68.54-.05.04-.1.09-.15.13-.24.2-.48.41-.72.62-.03.03-.07.06-.1.09-.25.23-.5.46-.73.7-.01.01-.03.03-.05.05-.26.26-.51.52-.75.79,0,0,0,0,0,0C2.35,12.14,0,17.8,0,24c0,.05,0,.1,0,.15,0,.32,0,.64.02.96,0,.14.02.28.03.42.01.23.03.47.05.7.01.15.03.3.05.45.03.23.05.46.09.68.02.14.04.28.06.42.04.27.09.55.15.82.02.09.03.18.05.26.07.35.15.69.24,1.03.03.12.07.25.1.37.06.23.12.45.19.68.04.14.09.27.13.41.07.21.14.43.22.64.05.13.09.26.14.39.09.24.18.48.28.71.04.09.08.19.12.29.14.32.28.64.43.95.05.1.1.2.15.31.11.22.22.43.33.64.07.12.13.24.2.37.11.19.22.39.33.58.07.12.14.24.21.36.13.2.26.41.39.61.06.09.12.19.19.28.19.27.38.55.58.81h0l1.01-1c.19-.19.43-.35.64-.51.22-.17.45-.34.68-.5.46-.33.93-.64,1.41-.93.96-.57,1.98-1.05,3.05-1.36.49-.14,1-.25,1.51-.31.56-.07,1.12-.06,1.69-.06.13,0,.49-.04.49.16,0,.05-.02.09-.03.13-.35.9-.52,2.08-.12,2.98.07.16.16.31.27.44.68.83,1.95,1,2.94.82.33-.06.65-.16.97-.28.52-.2,1.02-.45,1.53-.69.1-.05.3.42.35.51.11.18.23.35.41.46.18.11.4.15.61.12.21-.03.43-.12.59-.26.14-.12.28-.26.35-.43.07-.17.09-.35.22-.48.02-.02.04-.04.06-.04.03,0,.07.02.09.04.16.14.32.29.5.42.21.16.42.31.64.44.44.27.91.49,1.4.66.97.33,2.02.44,3.04.29.3-.04.59-.11.88-.2.3-.09.58-.23.87-.34,1.04-.39,2.08-1.11,2.91-1.99.99-.77,1.54-2.43,3.18-1.99,1.97.5,4,1.82,5.04,3.7.2.35.43.78.59,1.17h0s0,0,.01-.01c.03-.04.07-.08.1-.12.2-.24.39-.48.57-.73.08-.1.15-.21.23-.31.14-.19.28-.38.41-.58.08-.12.16-.24.24-.36.12-.18.24-.37.36-.56.08-.13.16-.26.24-.39.11-.19.22-.37.32-.56.07-.13.15-.26.22-.4.1-.2.21-.4.3-.6.06-.13.13-.26.19-.39.1-.22.2-.45.3-.67.05-.11.1-.22.15-.33.14-.34.28-.68.4-1.02.01-.04.03-.08.04-.12.11-.31.22-.61.31-.93.04-.12.07-.25.11-.37.07-.23.14-.47.2-.7.04-.14.07-.29.11-.43.05-.22.11-.44.15-.67.03-.15.06-.3.09-.46.04-.22.08-.44.12-.67.03-.15.05-.31.07-.46.03-.23.06-.46.09-.69.02-.15.04-.3.05-.45.02-.25.04-.51.06-.76,0-.13.02-.26.03-.39.02-.38.03-.76.03-1.14v-.03c0-4.83-1.43-9.32-3.88-13.08h0ZM21.3,34.3l-2.85,2.49c-.81.35-2.09.29-2.32-.76-.12-.52.08-1.07.29-1.54.32-.71.77-1.36,1.35-1.89.15-.14.33-.26.54-.28.33-.03.69.19.98.31.36.15.72.29,1.08.44.26.1.52.21.72.4.19.18.42.58.21.82h0ZM21.96,37.03s-.11.05-.17.05c-.02,0-.03,0-.05-.01,0,0,0,0,0,0-.01,0-.03-.02-.04-.03-.03-.03-.05-.05-.08-.08-.14-.13-.07-.43.12-.49.08-.02.17,0,.22.07.04.06.05.12.06.19,0,.05.02.11.01.16,0,.05-.02.11-.06.14h0ZM33.21,34.5c-.12.34-.32.66-.54.95-.13.16-.27.32-.41.47-.63.66-1.4,1.18-2.22,1.56-1.03.48-2.28.57-3.37.29-.35-.09-.69-.22-.99-.42-.45-.29-.8-.72-1.1-1.17-.14-.22-.28-.45-.4-.68-.08-.16-.16-.32-.19-.5-.02-.1-.03-.22,0-.32.01-.06.04-.11.09-.15.04-.03.09-.04.14-.05.47-.11.92-.24,1.37-.4.53-.19,1.05-.4,1.56-.63.9-.42,1.78-.89,2.62-1.42.3-.19.6-.39.88-.59.2-.14.37-.33.59-.44.04-.02.09-.04.14-.04.11,0,.23.07.32.11.11.05.21.11.31.17.2.13.38.28.54.46.68.74,1.02,1.85.67,2.83h0ZM32.87,24.02c-.6.66-.66,1.77-.38,2.43.12.28.36.51.35.83,0,.17-.11.31-.19.44-.23.37-.5.7-.82.99-.3.27-.64.49-.96.73-.1.11-.26.19-.39.27-.13.09-.27.19-.4.28-.24.17-.48.34-.73.49-.5.3-1.02.55-1.55.77-1.16.47-2.39.81-3.61,1.06-.94.2-1.96.13-2.9-.03-.51-.09-1.03-.19-1.48-.46-.1-.06-.22-.13-.3-.22-.05-.06-.09-.13-.14-.19-.08-.09-.16-.17-.26-.24-.17-.11-.37-.16-.56-.21-.38-.09-.75-.16-1.13-.26-1.48-.44-2.91-1.82-3.29-3.37-.3-1.2-.44-2.44-.52-3.67-.09-1.23-.12-2.47-.19-3.7-.03-.48-.07-.95-.1-1.43-.02-.34-.04-.8.26-1.03.6-.67,1.67-.72,2.46-.41.21.08.4.24.63.28.1.02.19.02.28-.03.48-.25.15-.73-.12-.99-.29-.27-.69-.53-1.1-.57-.62-.14-1.49-.06-1.94.46-.08.09-.13.2-.19.31-.03.05-.13.17-.13.23-.08-1.12.11-2.28.44-3.35.13-.44.29-.86.48-1.28.09-.19.18-.39.3-.56.2-.29.43-.57.78-.69.03-.01.06-.02.09,0,.05.02.12.05.14.1.02.04.01.08.01.12-.04.34-.23.69-.39.99-.15.28-.33.56-.65.66-.04.01-.09.02-.13.04-.15.07-.14.27-.04.38.22.22.71.33,1.15.06.82-.32,1.37-1.05,1.86-1.74.03-.04.06-.08.09-.1.08-.05.2-.04.28.01.12.07.22.18.3.3.29.42.46.95.17,1.42-.04.07-.1.14-.16.18-.26.18-.59-.03-.85-.1-.32-.09-.45.1-.48.41,0,.5.38.94.77,1.16.77.39,1.64.5,2.47.05.99-.61,1.48-1.38,1.7-2.38.55.55-.88,1.88.38,1.55.35-.09.65-.42.85-.7.11-.16.2-.32.29-.49.04-.09.08-.18.12-.27.02-.04.04-.14.09-.15.06,0,.1.09.12.14.08.32.01.67-.19.94-.05.07-.12.14-.15.22-.06.14-.02.34.12.4.15.07.31-.02.44-.08.33-.15.6-.38.89-.59.03-.02.06-.04.09-.03.03.01.04.05.05.08.02.1.02.2.05.3.01.04.04.09.08.1.09.04.26-.06.34-.1.11-.05.22-.1.32-.17.2-.12.39-.27.56-.44.23-.23.42-.49.56-.78.15-.32.2-.66.33-.98.02-.05.04-.1.08-.13.04-.04.09-.05.14-.07.21-.06.43-.07.65-.11.22-.04.44-.1.61-.24.04-.03.08-.07.13-.06.06.02.12.14.15.19.06.1.11.2.15.3.2.49.22,1.03.18,1.55-.01.16-.07.33-.21.42-.2.12-.37-.03-.44-.21-.04-.1-.06-.22-.12-.31s-.19-.15-.29-.1c-.05.02-.08.07-.11.11-.22.34-.26.75-.23,1.14.03.41.17.73.48,1,.13.11.29.22.46.24.18.03.36,0,.54.07.23.1.38.33.49.56.13.28.25.56.46.78.21.22.57.29.86.31.21.01.42,0,.63-.05.09-.02.18-.04.27-.08.13-.05.24-.15.39-.17.05,0,.1,0,.13.03.1.08.08.28.07.39,0,.16-.02.33-.06.49-.12.58-.45,1.05-.68,1.58-.33.78-.45,1.55-.27,2.38.09.42.22.8.53,1.12.27.29.63.49.99.64.07.03.13.05.19.09.39.29-.28.55-.43.71h0Z"/></svg>