<?xml version="1.0" encoding="UTF-8" standalone="no"?>
<svg
   version="1.1"
   width="800"
   height="400"
   id="svg50"
   sodipodi:docname="LOleft.svg"
   inkscape:version="1.4.4 (dcaf3e7d9e, 2026-05-05)"
   xml:space="preserve"
   xmlns:inkscape="http://www.inkscape.org/namespaces/inkscape"
   xmlns:sodipodi="http://sodipodi.sourceforge.net/DTD/sodipodi-0.dtd"
   xmlns:xlink="http://www.w3.org/1999/xlink"
   xmlns="http://www.w3.org/2000/svg"
   xmlns:svg="http://www.w3.org/2000/svg"><defs
     id="defs50"><linearGradient
       id="linearGradient54"
       x1="136.2"
       y1="79.800003"
       x2="194.5"
       y2="79.800003"
       gradientUnits="userSpaceOnUse"><stop
         offset=".1"
         stop-color="#fd911e"
         id="stop53" /></linearGradient><linearGradient
       id="linearGradient53"
       x1="136.2"
       y1="79.800003"
       x2="194.5"
       y2="79.800003"
       gradientUnits="userSpaceOnUse"><stop
         offset=".1"
         stop-color="#fd911e"
         id="stop52" /></linearGradient><linearGradient
       id="linearGradient51"
       x1="136.2"
       y1="79.800003"
       x2="194.5"
       y2="79.800003"
       gradientUnits="userSpaceOnUse"><stop
         offset=".1"
         stop-color="#fd911e"
         id="stop50" /><stop
         offset=".8"
         stop-color="#ffff80"
         id="stop51" /></linearGradient><linearGradient
       inkscape:collect="always"
       xlink:href="#linear-gradient1"
       id="linearGradient1"
       gradientUnits="userSpaceOnUse"
       x1="136.2"
       y1="79.800003"
       x2="194.5"
       y2="79.800003" /></defs><sodipodi:namedview
     id="namedview50"
     pagecolor="#ffffff"
     bordercolor="#000000"
     borderopacity="0.25"
     inkscape:showpageshadow="2"
     inkscape:pageopacity="0.0"
     inkscape:pagecheckerboard="0"
     inkscape:deskcolor="#d1d1d1"
     inkscape:zoom="1.715"
     inkscape:cx="199.70845"
     inkscape:cy="268.22157"
     inkscape:window-width="1210"
     inkscape:window-height="933"
     inkscape:window-x="0"
     inkscape:window-y="0"
     inkscape:window-maximized="1"
     inkscape:current-layer="g43" /><svg
     version="1.1"
     width="400"
     height="400"
     id="svg49"><svg
       version="1.1"
       viewBox="0 0 400 400"
       id="svg48"
       width="100%"
       height="100%"><!-- Generator: Adobe Illustrator 29.2.1, SVG Export Plug-In . SVG Version: 2.1.0 Build 116)  --><defs
         id="defs12"><style
           id="style1">
      .st0 {
        fill: url(#linear-gradient2);
      }

      .st1 {
        fill: url(#linear-gradient6);
      }

      .st2 {
        fill: url(#linear-gradient8);
      }

      .st3 {
        fill: url(#linear-gradient4);
      }

      .st4 {
        fill: url(#linear-gradient1);
      }

      .st4, .st5, .st6, .st7, .st8, .st9, .st10, .st11, .st12, .st13, .st14, .st15, .st16, .st17, .st18, .st19 {
        mix-blend-mode: screen;
      }

      .st5 {
        fill: url(#linear-gradient9);
      }

      .st6 {
        fill: url(#linear-gradient7);
      }

      .st7 {
        fill: url(#linear-gradient3);
      }

      .st8 {
        fill: url(#linear-gradient5);
      }

      .st20 {
        opacity: .8;
      }

      .st20, .st21 {
        mix-blend-mode: hard-light;
      }

      .st22 {
        fill: url(#linear-gradient30);
      }

      .st23 {
        fill: url(#linear-gradient32);
      }

      .st24 {
        fill: url(#linear-gradient28);
      }

      .st25 {
        fill: url(#linear-gradient18);
      }

      .st26 {
        fill: url(#linear-gradient12);
      }

      .st27 {
        fill: url(#linear-gradient16);
      }

      .st28 {
        fill: url(#linear-gradient10);
      }

      .st29 {
        fill: url(#linear-gradient14);
      }

      .st30 {
        fill: url(#linear-gradient22);
      }

      .st31 {
        fill: url(#linear-gradient24);
      }

      .st32 {
        fill: url(#linear-gradient20);
      }

      .st33 {
        fill: url(#linear-gradient26);
      }

      .st34, .st36 {
        isolation: isolate;
      }

      .st9 {
        fill: url(#linear-gradient31);
      }

      .st10 {
        fill: url(#linear-gradient23);
      }

      .st11 {
        fill: url(#linear-gradient21);
      }

      .st12 {
        fill: url(#linear-gradient27);
      }

      .st13 {
        fill: url(#linear-gradient25);
      }

      .st14 {
        fill: url(#linear-gradient19);
      }

      .st15 {
        fill: url(#linear-gradient11);
      }

      .st16 {
        fill: url(#linear-gradient15);
      }

      .st17 {
        fill: url(#linear-gradient17);
      }

      .st18 {
        fill: url(#linear-gradient13);
      }

      .st19 {
        fill: url(#linear-gradient29);
      }

      .st36 {
        fill: #353168;
      }
    </style><linearGradient
           id="linear-gradient"
           x1="436.79999"
           y1="336.70001"
           x2="-36.799999"
           y2="63.299999"
           gradientUnits="userSpaceOnUse"><stop
             offset=".1"
             stop-color="#6c0056"
             id="stop1" /><stop
             offset=".1"
             stop-color="#6c0056"
             id="stop2" /><stop
             offset=".2"
             stop-color="#6c3181"
             id="stop3" /><stop
             offset=".2"
             stop-color="#6d5ba5"
             id="stop4" /><stop
             offset=".3"
             stop-color="#6e7ec3"
             id="stop5" /><stop
             offset=".3"
             stop-color="#6e98da"
             id="stop6" /><stop
             offset=".4"
             stop-color="#6eabea"
             id="stop7" /><stop
             offset=".4"
             stop-color="#6eb7f4"
             id="stop8" /><stop
             offset=".5"
             stop-color="#6fbbf8"
             id="stop9" /><stop
             offset=".9"
             stop-color="#6c0056"
             id="stop10" /></linearGradient><linearGradient
           id="linear-gradient1"
           x1="136.2"
           y1="79.800003"
           x2="194.5"
           y2="79.800003"
           gradientUnits="userSpaceOnUse"><stop
             offset=".1"
             stop-color="#fd911e"
             id="stop11" /><stop
             offset=".8"
             stop-color="#ffff80"
             id="stop12" /></linearGradient><linearGradient
           id="linear-gradient2"
           y1="128.60001"
           y2="128.60001"
           xlink:href="#linear-gradient1" /><linearGradient
           id="linear-gradient3"
           x1="123.2"
           y1="106.8"
           x2="181.5"
           y2="106.8"
           xlink:href="#linear-gradient1" /><linearGradient
           id="linear-gradient4"
           x1="123.2"
           y1="155.60001"
           x2="181.5"
           y2="155.60001"
           xlink:href="#linear-gradient1" /><linearGradient
           id="linear-gradient5"
           x1="110"
           y1="134"
           x2="168.3"
           y2="134"
           xlink:href="#linear-gradient1" /><linearGradient
           id="linear-gradient6"
           x1="110"
           y1="182.8"
           x2="168.3"
           y2="182.8"
           xlink:href="#linear-gradient1" /><linearGradient
           id="linear-gradient7"
           x1="97"
           y1="161"
           x2="155.3"
           y2="161"
           xlink:href="#linear-gradient1" /><linearGradient
           id="linear-gradient8"
           x1="97"
           y1="209.8"
           x2="155.3"
           y2="209.8"
           xlink:href="#linear-gradient1" /><linearGradient
           id="linear-gradient9"
           x1="84"
           y1="187.89999"
           x2="142.2"
           y2="187.89999"
           xlink:href="#linear-gradient1" /><linearGradient
           id="linear-gradient10"
           x1="84"
           y1="236.7"
           x2="142.2"
           y2="236.7"
           xlink:href="#linear-gradient1" /><linearGradient
           id="linear-gradient11"
           x1="70.900002"
           y1="214.89999"
           x2="129.2"
           y2="214.89999"
           xlink:href="#linear-gradient1" /><linearGradient
           id="linear-gradient12"
           x1="70.900002"
           y1="263.70001"
           x2="129.2"
           y2="263.70001"
           xlink:href="#linear-gradient1" /><linearGradient
           id="linear-gradient13"
           x1="70.300003"
           y1="260.29999"
           x2="168.7"
           y2="260.29999"
           xlink:href="#linear-gradient1" /><linearGradient
           id="linear-gradient14"
           x1="70.300003"
           y1="306.70001"
           x2="168.7"
           y2="306.70001"
           xlink:href="#linear-gradient1" /><linearGradient
           id="linear-gradient15"
           x1="57.299999"
           y1="287.29999"
           x2="155.7"
           y2="287.29999"
           xlink:href="#linear-gradient1" /><linearGradient
           id="linear-gradient16"
           x1="57.299999"
           y1="333.60001"
           x2="155.7"
           y2="333.60001"
           xlink:href="#linear-gradient1" /><linearGradient
           id="linear-gradient17"
           x1="265.60001"
           y1="94.900002"
           x2="323.79999"
           y2="94.900002"
           xlink:href="#linear-gradient1" /><linearGradient
           id="linear-gradient18"
           x1="265.60001"
           y1="143.60001"
           x2="323.79999"
           y2="143.60001"
           xlink:href="#linear-gradient1" /><linearGradient
           id="linear-gradient19"
           x1="252.5"
           y1="121.8"
           x2="310.79999"
           y2="121.8"
           xlink:href="#linear-gradient1" /><linearGradient
           id="linear-gradient20"
           x1="252.5"
           y1="170.60001"
           x2="310.79999"
           y2="170.60001"
           xlink:href="#linear-gradient1" /><linearGradient
           id="linear-gradient21"
           x1="239.39999"
           y1="149.10001"
           x2="297.60001"
           y2="149.10001"
           xlink:href="#linear-gradient1" /><linearGradient
           id="linear-gradient22"
           x1="239.39999"
           y1="197.8"
           x2="297.60001"
           y2="197.8"
           xlink:href="#linearGradient53" /><linearGradient
           id="linear-gradient23"
           x1="226.3"
           y1="176"
           x2="284.60001"
           y2="176"
           xlink:href="#linear-gradient1" /><linearGradient
           id="linear-gradient24"
           x1="226.3"
           y1="224.8"
           x2="284.60001"
           y2="224.8"
           xlink:href="#linearGradient54" /><linearGradient
           id="linear-gradient25"
           x1="213.3"
           y1="203"
           x2="271.60001"
           y2="203"
           xlink:href="#linear-gradient1" /><linearGradient
           id="linear-gradient26"
           x1="213.3"
           y1="251.7"
           x2="271.60001"
           y2="251.7"
           xlink:href="#linear-gradient1" /><linearGradient
           id="linear-gradient27"
           x1="200.3"
           y1="229.89999"
           x2="258.5"
           y2="229.89999"
           xlink:href="#linear-gradient1" /><linearGradient
           id="linear-gradient28"
           x1="200.3"
           y1="278.70001"
           x2="258.5"
           y2="278.70001"
           xlink:href="#linear-gradient1" /><linearGradient
           id="linear-gradient29"
           x1="199.60001"
           y1="275.39999"
           x2="298"
           y2="275.39999"
           xlink:href="#linear-gradient1" /><linearGradient
           id="linear-gradient30"
           x1="199.60001"
           y1="321.70001"
           x2="298"
           y2="321.70001"
           xlink:href="#linear-gradient1" /><linearGradient
           id="linear-gradient31"
           x1="186.60001"
           y1="302.29999"
           x2="285"
           y2="302.29999"
           xlink:href="#linear-gradient1" /><linearGradient
           id="linear-gradient32"
           x1="186.60001"
           y1="348.70001"
           x2="285"
           y2="348.70001"
           xlink:href="#linearGradient51" /></defs><g
         class="st34"
         id="g48"><g
           id="Layer_1"><g
             class="st34"
             id="g43"><path
               class="st4"
               d="m 164.6,148.2 c 4.7,2.3 9.5,4.6 14.3,6.9 L 194.5,122.8 179.9,15 c -2.4,-1.2 -4.8,-2.3 -7.1,-3.4 -2.3,-1.1 -4.7,-2.3 -7.1,-3.4 C 163.3,7.1 161,5.9 158.6,4.8 L 150.8,21 v 0 c 0,0 -14.6,113.7 -14.6,113.7 4.8,2.3 9.6,4.6 14.3,6.9 4.7,2.3 9.4,4.5 14.1,6.8 z"
               id="path12"
               style="fill:url(#linearGradient1)" /><path
               class="st0"
               d="m 166.1,109 c 4.7,2.3 9.4,4.5 14.1,6.8 4.7,2.3 9.5,4.6 14.3,6.9 L 178.9,155 c -4.8,-2.3 -9.6,-4.6 -14.3,-6.9 -4.7,-2.3 -9.4,-4.5 -14.1,-6.8 -4.7,-2.3 -9.5,-4.6 -14.3,-6.9 l 15.6,-32.3 c 4.8,2.3 9.6,4.6 14.3,6.9 z"
               id="path13"
               style="fill:url(#linear-gradient2)" /><path
               class="st7"
               d="m 151.6,175.1 c 4.7,2.3 9.5,4.6 14.3,6.9 L 181.5,149.7 166.9,41.9 c -2.4,-1.2 -4.8,-2.3 -7.1,-3.4 -2.4,-1.1 -4.7,-2.3 -7.1,-3.4 -2.4,-1.1 -4.7,-2.3 -7.1,-3.4 l -7.8,16.2 v 0 l -14.6,113.7 c 4.8,2.3 9.6,4.6 14.3,6.9 4.7,2.3 9.4,4.5 14.1,6.8 z"
               id="path14"
               style="fill:url(#linear-gradient3)" /><path
               class="st3"
               d="m 153.1,136 c 4.7,2.3 9.4,4.5 14.1,6.8 4.7,2.3 9.5,4.6 14.3,6.9 L 165.9,182 c -4.8,-2.3 -9.6,-4.6 -14.3,-6.9 -4.7,-2.3 -9.4,-4.5 -14.1,-6.8 -4.7,-2.3 -9.5,-4.6 -14.3,-6.9 l 15.6,-32.3 c 4.8,2.3 9.6,4.6 14.3,6.9 z"
               id="path15"
               style="fill:url(#linear-gradient4)" /><path
               class="st8"
               d="m 138.4,202.4 c 4.7,2.3 9.5,4.6 14.3,6.9 L 168.3,177 153.7,69.2 c -2.4,-1.2 -4.8,-2.3 -7.1,-3.4 -2.4,-1.1 -4.7,-2.3 -7.1,-3.4 -2.4,-1.1 -4.7,-2.3 -7.1,-3.4 l -7.8,16.2 v 0 L 110,188.9 c 4.8,2.3 9.6,4.6 14.3,6.9 4.7,2.3 9.4,4.5 14.1,6.8 z"
               id="path16"
               style="fill:url(#linear-gradient5)" /><path
               class="st1"
               d="m 139.9,163.2 c 4.7,2.3 9.4,4.5 14.1,6.8 4.7,2.3 9.5,4.6 14.3,6.9 l -15.6,32.3 c -4.8,-2.3 -9.6,-4.6 -14.3,-6.9 -4.7,-2.3 -9.4,-4.5 -14.1,-6.8 -4.7,-2.3 -9.5,-4.6 -14.3,-6.9 l 15.6,-32.3 c 4.8,2.3 9.6,4.6 14.3,6.9 z"
               id="path17"
               style="fill:url(#linear-gradient6)" /><path
               class="st6"
               d="m 125.4,229.3 c 4.7,2.3 9.5,4.6 14.3,6.9 l 15.6,-32.3 v 0 L 140.7,96.1 c -2.4,-1.2 -4.8,-2.3 -7.1,-3.4 -2.4,-1.1 -4.7,-2.3 -7.1,-3.4 -2.4,-1.1 -4.7,-2.3 -7.1,-3.4 l -7.8,16.2 v 0 L 97,215.8 c 4.8,2.3 9.6,4.6 14.3,6.9 4.7,2.3 9.4,4.5 14.1,6.8 z"
               id="path18"
               style="fill:url(#linear-gradient7)" /><path
               class="st2"
               d="m 126.9,190.2 c 4.7,2.3 9.4,4.5 14.1,6.8 4.7,2.3 9.5,4.6 14.3,6.9 l -15.6,32.3 c -4.8,-2.3 -9.6,-4.6 -14.3,-6.9 -4.7,-2.3 -9.4,-4.5 -14.1,-6.8 -4.7,-2.3 -9.5,-4.6 -14.3,-6.9 l 15.6,-32.3 c 4.8,2.3 9.6,4.6 14.3,6.9 z"
               id="path19"
               style="fill:url(#linear-gradient8)" /><path
               class="st5"
               d="m 112.3,256.3 c 4.7,2.3 9.5,4.6 14.3,6.9 l 15.6,-32.3 -14.6,-107.8 c -2.4,-1.2 -4.8,-2.3 -7.1,-3.4 -2.4,-1.1 -4.7,-2.3 -7.1,-3.4 -2.4,-1.1 -4.7,-2.3 -7.1,-3.4 l -7.8,16.2 v 0 c 0,0 -14.6,113.7 -14.6,113.7 4.8,2.3 9.6,4.6 14.3,6.9 4.7,2.3 9.4,4.5 14.1,6.8 z"
               id="path20"
               style="fill:url(#linear-gradient9)" /><path
               class="st28"
               d="m 113.9,217.1 c 4.7,2.3 9.4,4.5 14.1,6.8 4.7,2.3 9.5,4.6 14.3,6.9 l -15.6,32.3 c -4.8,-2.3 -9.6,-4.6 -14.3,-6.9 -4.7,-2.3 -9.4,-4.5 -14.1,-6.8 -4.7,-2.3 -9.5,-4.6 -14.3,-6.9 l 15.6,-32.3 c 4.8,2.3 9.6,4.6 14.3,6.9 z"
               id="path21"
               style="fill:url(#linear-gradient10)" /><path
               class="st15"
               d="m 99.3,283.3 c 4.7,2.3 9.5,4.6 14.3,6.9 l 15.6,-32.3 -14.6,-107.8 c -2.4,-1.2 -4.8,-2.3 -7.1,-3.4 -2.4,-1.1 -4.7,-2.3 -7.1,-3.4 -2.4,-1.1 -4.7,-2.3 -7.1,-3.4 l -7.8,16.2 -14.6,113.7 c 4.8,2.3 9.6,4.6 14.3,6.9 4.7,2.3 9.4,4.5 14.1,6.8 z"
               id="path22"
               style="fill:url(#linear-gradient11)" /><path
               class="st26"
               d="m 100.8,244.1 c 4.7,2.3 9.4,4.5 14.1,6.8 4.7,2.3 9.5,4.6 14.3,6.9 l -15.6,32.3 c -4.8,-2.3 -9.6,-4.6 -14.3,-6.9 -4.7,-2.3 -9.4,-4.5 -14.1,-6.8 -4.7,-2.3 -9.5,-4.6 -14.3,-6.9 l 15.6,-32.3 c 4.8,2.3 9.6,4.6 14.3,6.9 z"
               id="path23"
               style="fill:url(#linear-gradient12)" /><path
               class="st18"
               d="m 132.4,332.9 c 6.9,3.3 13.8,6.7 20.7,10 l 15.6,-32.3 -24.6,-112.7 c -3.4,-1.7 -6.9,-3.3 -10.3,-5 -3.4,-1.7 -6.9,-3.3 -10.3,-5 -3.4,-1.7 -6.9,-3.3 -10.3,-5 -3.4,-1.7 -6.9,-3.3 -10.3,-5 L 95.1,194.1 70.5,303 c 6.9,3.3 13.8,6.7 20.7,10 6.9,3.3 13.8,6.7 20.7,10 6.9,3.3 13.8,6.7 20.7,10 z"
               id="path24"
               style="fill:url(#linear-gradient13)" /><path
               class="st29"
               d="m 106.6,280.5 c 6.9,3.3 13.8,6.7 20.7,10 6.9,3.3 13.8,6.7 20.7,10 6.9,3.3 13.8,6.7 20.7,10 l -15.6,32.3 c -6.9,-3.3 -13.8,-6.7 -20.7,-10 -6.9,-3.3 -13.8,-6.7 -20.7,-10 -6.9,-3.3 -13.8,-6.7 -20.7,-10 -6.9,-3.3 -13.8,-6.7 -20.7,-10 l 15.6,-32.3 c 6.9,3.3 13.8,6.7 20.7,10 z"
               id="path25"
               style="fill:url(#linear-gradient14)" /><path
               class="st16"
               d="m 119.3,359.8 c 6.9,3.3 13.8,6.7 20.7,10 L 155.6,337.5 131,224.8 c -3.4,-1.7 -6.9,-3.3 -10.3,-5 -3.4,-1.7 -6.9,-3.3 -10.3,-5 -3.4,-1.7 -6.9,-3.3 -10.3,-5 -3.4,-1.7 -6.9,-3.3 -10.3,-5 L 82,221 v 0 L 57.4,329.9 c 6.9,3.3 13.8,6.7 20.7,10 6.9,3.3 13.8,6.7 20.7,10 6.9,3.3 13.8,6.7 20.7,10 z"
               id="path26"
               style="fill:url(#linear-gradient15)" /><path
               class="st27"
               d="m 93.6,307.5 c 6.9,3.3 13.8,6.7 20.7,10 6.9,3.3 13.8,6.7 20.7,10 6.9,3.3 13.8,6.7 20.7,10 l -15.6,32.3 c -6.9,-3.3 -13.8,-6.7 -20.7,-10 -6.9,-3.3 -13.8,-6.7 -20.7,-10 -6.9,-3.3 -13.8,-6.7 -20.7,-10 -6.9,-3.3 -13.8,-6.7 -20.7,-10 l 15.6,-32.3 c 6.9,3.3 13.8,6.7 20.7,10 z"
               id="path27"
               style="fill:url(#linear-gradient16)" /><path
               class="st9"
               d="M 186.8,344.9 C 0,0 0,0 186.8,344.9 Z"
               id="path42"
               sodipodi:nodetypes="cc"
               style="fill:url(#linear-gradient31)" /><path
               class="st23"
               d="M 186.6,344.8 C 0,0 0,0 186.6,344.8 Z"
               id="path43"
               sodipodi:nodetypes="cc"
               style="fill:url(#linear-gradient32);fill-opacity:1" /><path
               d="m 217.49771,185.02548 c -34.13,0 -55.46,24.1 -55.46,53.82 0,29.73 21.33,53.82 55.46,53.82 34.12,0 55.45,-24.1 55.45,-53.82 -0.01,-29.73 -21.33,-53.82 -55.45,-53.82 z m 0,81.78 c -17.73,0 -28.82,-12.52 -28.82,-27.96 0,-15.44 11.08,-27.96 28.82,-27.96 17.73,0 28.81,12.52 28.81,27.96 -0.01,15.44 -11.09,27.96 -28.81,27.96 z"
               clip-rule="evenodd"
               fill="#40c0e7"
               fill-rule="evenodd"
               id="path1" /><path
               d="m 398.73101,196.47993 c -0.46,-0.57 -1.15,-0.91 -1.87,-0.91 h -24.79 c -1.14,0 -2.12,0.8 -2.33,1.92 l -9.58,48.68 -13.47,-48.86 c -0.08,-0.29 -0.22,-0.54 -0.39,-0.77 -0.01,-0.01 -0.01,-0.04 -0.03,-0.05 -0.03,-0.04 -0.08,-0.05 -0.11,-0.09 -0.17,-0.2 -0.37,-0.36 -0.6,-0.49 -0.08,-0.04 -0.15,-0.09 -0.23,-0.12 -0.29,-0.13 -0.6,-0.22 -0.94,-0.22 h -17.91 c -0.33,0 -0.65,0.09 -0.94,0.22 -0.08,0.04 -0.15,0.08 -0.23,0.12 -0.23,0.13 -0.43,0.29 -0.6,0.49 -0.04,0.04 -0.08,0.05 -0.11,0.09 -0.01,0.02 -0.01,0.04 -0.03,0.05 -0.17,0.23 -0.31,0.49 -0.39,0.77 l -13.45,48.86 -9.59,-48.68 c -0.22,-1.11 -1.2,-1.92 -2.33,-1.92 h -24.78 c -0.73,0 -1.43,0.34 -1.87,0.91 -0.46,0.57 -0.62,1.33 -0.45,2.03 l 24.79,100.45 c 0.01,0.03 0.04,0.06 0.04,0.1 0.06,0.19 0.13,0.36 0.23,0.53 0.03,0.05 0.05,0.1 0.09,0.15 0.02,0.03 0.03,0.06 0.06,0.09 0.12,0.16 0.25,0.29 0.41,0.42 0.02,0.02 0.05,0.03 0.08,0.05 0.16,0.12 0.34,0.22 0.53,0.29 0.05,0.02 0.11,0.04 0.17,0.06 0.22,0.07 0.46,0.12 0.7,0.12 h 19.78 c 0.33,0 0.63,-0.08 0.92,-0.21 0.08,-0.04 0.15,-0.08 0.23,-0.12 0.2,-0.12 0.39,-0.26 0.55,-0.44 0.04,-0.04 0.1,-0.06 0.14,-0.1 0.02,-0.03 0.02,-0.06 0.04,-0.09 0.19,-0.25 0.34,-0.52 0.42,-0.83 l 14.55,-56.6 14.55,56.61 c 0.08,0.31 0.23,0.58 0.42,0.83 0.02,0.03 0.02,0.06 0.05,0.09 0.03,0.04 0.09,0.06 0.13,0.1 0.16,0.18 0.34,0.32 0.55,0.44 0.08,0.04 0.15,0.09 0.23,0.12 0.29,0.12 0.59,0.21 0.92,0.21 h 19.78 c 0.24,0 0.47,-0.05 0.7,-0.12 0.06,-0.02 0.11,-0.04 0.18,-0.06 0.18,-0.07 0.36,-0.17 0.53,-0.29 0.03,-0.02 0.05,-0.03 0.08,-0.05 0.15,-0.12 0.29,-0.26 0.41,-0.42 0.02,-0.03 0.03,-0.06 0.06,-0.09 0.03,-0.05 0.05,-0.1 0.09,-0.15 0.09,-0.17 0.17,-0.34 0.23,-0.53 0.01,-0.03 0.04,-0.06 0.04,-0.1 l 24.79,-100.45 c 0.16,-0.71 0,-1.47 -0.45,-2.04 z"
               fill="#40c0e7"
               id="path1-3" /></g><g
             class="st21"
             id="g45"><path
               class="st36"
               d="m 127.3,290.7 c -3.8,-1.8 -7.5,-3.6 -11.3,-5.5 l 13.2,-27.3 v 0 l 13,-27 v 0 l 10.4,-21.6 v 0 L 165.8,182 v 0 l 13.2,-27.2 15.5,-32.1 c -4.8,-2.3 -9.6,-4.6 -14.3,-6.9 -4.7,-2.3 -9.4,-4.5 -14.1,-6.8 -4.7,-2.3 -9.5,-4.6 -14.3,-6.9 l -15.6,32.3 v 0 l -10.6,21.9 v 0 L 110,188.6 v 0 l -13,27 v 0 l -10.4,21.6 v 0 L 71,269.5 c 4.2,2 8.4,4.1 12.5,6.1 l -13.2,27.3 v 0 l -13,27 c 6.9,3.3 13.8,6.7 20.7,10 6.9,3.3 13.8,6.7 20.7,10 6.9,3.3 13.8,6.7 20.7,10 6.9,3.3 13.8,6.7 20.7,10 l 13,-27 v 0 l 15.6,-32.3 c -6.9,-3.3 -13.8,-6.7 -20.7,-10 -6.9,-3.3 -13.8,-6.7 -20.7,-10 z"
               id="path44" /></g><g
             class="st20"
             id="g47"><path
               class="st36"
               d="m 127.1,291.1 c -3.8,-1.8 -7.5,-3.6 -11.3,-5.5 L 129,258.3 v 0 l 13,-27 v 0 l 10.4,-21.6 v 0 l 13.2,-27.3 v 0 l 13.2,-27.2 15.5,-32.1 c -4.8,-2.3 -9.6,-4.6 -14.3,-6.9 -4.7,-2.3 -9.4,-4.5 -14.1,-6.8 -4.7,-2.3 -9.5,-4.6 -14.3,-6.9 L 136,134.8 v 0 l -10.6,21.9 v 0 L 109.8,189 v 0 l -13,27 v 0 l -10.4,21.6 v 0 l -15.6,32.3 c 4.2,2 8.4,4.1 12.5,6.1 l -13.2,27.3 v 0 l -13,27 c 6.9,3.3 13.8,6.7 20.7,10 6.9,3.3 13.8,6.7 20.7,10 6.9,3.3 13.8,6.7 20.7,10 6.9,3.3 13.8,6.7 20.7,10 l 13,-27 v 0 L 168.5,311 c -6.9,-3.3 -13.8,-6.7 -20.7,-10 -6.9,-3.3 -13.8,-6.7 -20.7,-10 z"
               id="path46" /></g></g></g></svg></svg><style
     id="style49">filter: none;filter: none;.light { :root }
.dark { :root }
</style></svg>
