<?xml version="1.0" encoding="UTF-8" standalone="no"?>
<svg
   version="1.1"
   width="400"
   height="400"
   id="svg50"
   sodipodi:docname="LOleft.svg"
   inkscape:version="1.4.4 (dcaf3e7d9e, 2026-05-05)"
   xml:space="preserve"
   xmlns:inkscape="http://www.inkscape.org/namespaces/inkscape"
   xmlns:sodipodi="http://sodipodi.sourceforge.net/DTD/sodipodi-0.dtd"
   xmlns:xlink="http://www.w3.org/1999/xlink"
   xmlns="http://www.w3.org/2000/svg"
   xmlns:svg="http://www.w3.org/2000/svg"><defs
     id="defs50"><linearGradient
       id="linearGradient54"
       x1="136.2"
       y1="79.8"
       x2="194.5"
       y2="79.8"
       gradientUnits="userSpaceOnUse"><stop
         offset=".1"
         stop-color="#fd911e"
         id="stop53" /></linearGradient><linearGradient
       id="linearGradient53"
       x1="136.2"
       y1="79.8"
       x2="194.5"
       y2="79.8"
       gradientUnits="userSpaceOnUse"><stop
         offset=".1"
         stop-color="#fd911e"
         id="stop52" /></linearGradient><linearGradient
       id="linearGradient51"
       x1="136.2"
       y1="79.8"
       x2="194.5"
       y2="79.8"
       gradientUnits="userSpaceOnUse"><stop
         offset=".1"
         stop-color="#fd911e"
         id="stop50" /><stop
         offset=".8"
         stop-color="#ffff80"
         id="stop51" /></linearGradient></defs><sodipodi:namedview
     id="namedview50"
     pagecolor="#ffffff"
     bordercolor="#000000"
     borderopacity="0.25"
     inkscape:showpageshadow="2"
     inkscape:pageopacity="0.0"
     inkscape:pagecheckerboard="0"
     inkscape:deskcolor="#d1d1d1"
     inkscape:zoom="1.715"
     inkscape:cx="199.70845"
     inkscape:cy="268.22157"
     inkscape:window-width="1210"
     inkscape:window-height="933"
     inkscape:window-x="0"
     inkscape:window-y="0"
     inkscape:window-maximized="1"
     inkscape:current-layer="g43" /><svg
     version="1.1"
     width="400"
     height="400"
     id="svg49"><svg
       version="1.1"
       viewBox="0 0 400 400"
       id="svg48"><!-- Generator: Adobe Illustrator 29.2.1, SVG Export Plug-In . SVG Version: 2.1.0 Build 116)  --><defs
         id="defs12"><style
           id="style1">
      .st0 {
        fill: url(#linear-gradient2);
      }

      .st1 {
        fill: url(#linear-gradient6);
      }

      .st2 {
        fill: url(#linear-gradient8);
      }

      .st3 {
        fill: url(#linear-gradient4);
      }

      .st4 {
        fill: url(#linear-gradient1);
      }

      .st4, .st5, .st6, .st7, .st8, .st9, .st10, .st11, .st12, .st13, .st14, .st15, .st16, .st17, .st18, .st19 {
        mix-blend-mode: screen;
      }

      .st5 {
        fill: url(#linear-gradient9);
      }

      .st6 {
        fill: url(#linear-gradient7);
      }

      .st7 {
        fill: url(#linear-gradient3);
      }

      .st8 {
        fill: url(#linear-gradient5);
      }

      .st20 {
        opacity: .8;
      }

      .st20, .st21 {
        mix-blend-mode: hard-light;
      }

      .st22 {
        fill: url(#linear-gradient30);
      }

      .st23 {
        fill: url(#linear-gradient32);
      }

      .st24 {
        fill: url(#linear-gradient28);
      }

      .st25 {
        fill: url(#linear-gradient18);
      }

      .st26 {
        fill: url(#linear-gradient12);
      }

      .st27 {
        fill: url(#linear-gradient16);
      }

      .st28 {
        fill: url(#linear-gradient10);
      }

      .st29 {
        fill: url(#linear-gradient14);
      }

      .st30 {
        fill: url(#linear-gradient22);
      }

      .st31 {
        fill: url(#linear-gradient24);
      }

      .st32 {
        fill: url(#linear-gradient20);
      }

      .st33 {
        fill: url(#linear-gradient26);
      }

      .st34, .st36 {
        isolation: isolate;
      }

      .st9 {
        fill: url(#linear-gradient31);
      }

      .st10 {
        fill: url(#linear-gradient23);
      }

      .st11 {
        fill: url(#linear-gradient21);
      }

      .st12 {
        fill: url(#linear-gradient27);
      }

      .st13 {
        fill: url(#linear-gradient25);
      }

      .st14 {
        fill: url(#linear-gradient19);
      }

      .st15 {
        fill: url(#linear-gradient11);
      }

      .st16 {
        fill: url(#linear-gradient15);
      }

      .st17 {
        fill: url(#linear-gradient17);
      }

      .st18 {
        fill: url(#linear-gradient13);
      }

      .st19 {
        fill: url(#linear-gradient29);
      }

      .st36 {
        fill: #353168;
      }
    </style><linearGradient
           id="linear-gradient"
           x1="436.8"
           y1="336.7"
           x2="-36.8"
           y2="63.3"
           gradientUnits="userSpaceOnUse"><stop
             offset=".1"
             stop-color="#6c0056"
             id="stop1" /><stop
             offset=".1"
             stop-color="#6c0056"
             id="stop2" /><stop
             offset=".2"
             stop-color="#6c3181"
             id="stop3" /><stop
             offset=".2"
             stop-color="#6d5ba5"
             id="stop4" /><stop
             offset=".3"
             stop-color="#6e7ec3"
             id="stop5" /><stop
             offset=".3"
             stop-color="#6e98da"
             id="stop6" /><stop
             offset=".4"
             stop-color="#6eabea"
             id="stop7" /><stop
             offset=".4"
             stop-color="#6eb7f4"
             id="stop8" /><stop
             offset=".5"
             stop-color="#6fbbf8"
             id="stop9" /><stop
             offset=".9"
             stop-color="#6c0056"
             id="stop10" /></linearGradient><linearGradient
           id="linear-gradient1"
           x1="136.2"
           y1="79.8"
           x2="194.5"
           y2="79.8"
           gradientUnits="userSpaceOnUse"><stop
             offset=".1"
             stop-color="#fd911e"
             id="stop11" /><stop
             offset=".8"
             stop-color="#ffff80"
             id="stop12" /></linearGradient><linearGradient
           id="linear-gradient2"
           y1="128.6"
           y2="128.6"
           xlink:href="#linear-gradient1" /><linearGradient
           id="linear-gradient3"
           x1="123.2"
           y1="106.8"
           x2="181.5"
           y2="106.8"
           xlink:href="#linear-gradient1" /><linearGradient
           id="linear-gradient4"
           x1="123.2"
           y1="155.6"
           x2="181.5"
           y2="155.6"
           xlink:href="#linear-gradient1" /><linearGradient
           id="linear-gradient5"
           x1="110"
           y1="134"
           x2="168.3"
           y2="134"
           xlink:href="#linear-gradient1" /><linearGradient
           id="linear-gradient6"
           x1="110"
           y1="182.8"
           x2="168.3"
           y2="182.8"
           xlink:href="#linear-gradient1" /><linearGradient
           id="linear-gradient7"
           x1="97"
           y1="161"
           x2="155.3"
           y2="161"
           xlink:href="#linear-gradient1" /><linearGradient
           id="linear-gradient8"
           x1="97"
           y1="209.8"
           x2="155.3"
           y2="209.8"
           xlink:href="#linear-gradient1" /><linearGradient
           id="linear-gradient9"
           x1="84"
           y1="187.9"
           x2="142.2"
           y2="187.9"
           xlink:href="#linear-gradient1" /><linearGradient
           id="linear-gradient10"
           x1="84"
           y1="236.7"
           x2="142.2"
           y2="236.7"
           xlink:href="#linear-gradient1" /><linearGradient
           id="linear-gradient11"
           x1="70.9"
           y1="214.9"
           x2="129.2"
           y2="214.9"
           xlink:href="#linear-gradient1" /><linearGradient
           id="linear-gradient12"
           x1="70.9"
           y1="263.7"
           x2="129.2"
           y2="263.7"
           xlink:href="#linear-gradient1" /><linearGradient
           id="linear-gradient13"
           x1="70.3"
           y1="260.3"
           x2="168.7"
           y2="260.3"
           xlink:href="#linear-gradient1" /><linearGradient
           id="linear-gradient14"
           x1="70.3"
           y1="306.7"
           x2="168.7"
           y2="306.7"
           xlink:href="#linear-gradient1" /><linearGradient
           id="linear-gradient15"
           x1="57.3"
           y1="287.3"
           x2="155.7"
           y2="287.3"
           xlink:href="#linear-gradient1" /><linearGradient
           id="linear-gradient16"
           x1="57.3"
           y1="333.6"
           x2="155.7"
           y2="333.6"
           xlink:href="#linear-gradient1" /><linearGradient
           id="linear-gradient17"
           x1="265.6"
           y1="94.9"
           x2="323.8"
           y2="94.9"
           xlink:href="#linear-gradient1" /><linearGradient
           id="linear-gradient18"
           x1="265.6"
           y1="143.6"
           x2="323.8"
           y2="143.6"
           xlink:href="#linear-gradient1" /><linearGradient
           id="linear-gradient19"
           x1="252.5"
           y1="121.8"
           x2="310.8"
           y2="121.8"
           xlink:href="#linear-gradient1" /><linearGradient
           id="linear-gradient20"
           x1="252.5"
           y1="170.6"
           x2="310.8"
           y2="170.6"
           xlink:href="#linear-gradient1" /><linearGradient
           id="linear-gradient21"
           x1="239.4"
           y1="149.1"
           x2="297.6"
           y2="149.1"
           xlink:href="#linear-gradient1" /><linearGradient
           id="linear-gradient22"
           x1="239.4"
           y1="197.8"
           x2="297.6"
           y2="197.8"
           xlink:href="#linearGradient53" /><linearGradient
           id="linear-gradient23"
           x1="226.3"
           y1="176"
           x2="284.6"
           y2="176"
           xlink:href="#linear-gradient1" /><linearGradient
           id="linear-gradient24"
           x1="226.3"
           y1="224.8"
           x2="284.6"
           y2="224.8"
           xlink:href="#linearGradient54" /><linearGradient
           id="linear-gradient25"
           x1="213.3"
           y1="203"
           x2="271.6"
           y2="203"
           xlink:href="#linear-gradient1" /><linearGradient
           id="linear-gradient26"
           x1="213.3"
           y1="251.7"
           x2="271.6"
           y2="251.7"
           xlink:href="#linear-gradient1" /><linearGradient
           id="linear-gradient27"
           x1="200.3"
           y1="229.9"
           x2="258.5"
           y2="229.9"
           xlink:href="#linear-gradient1" /><linearGradient
           id="linear-gradient28"
           x1="200.3"
           y1="278.7"
           x2="258.5"
           y2="278.7"
           xlink:href="#linear-gradient1" /><linearGradient
           id="linear-gradient29"
           x1="199.6"
           y1="275.4"
           x2="298"
           y2="275.4"
           xlink:href="#linear-gradient1" /><linearGradient
           id="linear-gradient30"
           x1="199.6"
           y1="321.7"
           x2="298"
           y2="321.7"
           xlink:href="#linear-gradient1" /><linearGradient
           id="linear-gradient31"
           x1="186.6"
           y1="302.3"
           x2="285"
           y2="302.3"
           xlink:href="#linear-gradient1" /><linearGradient
           id="linear-gradient32"
           x1="186.6"
           y1="348.7"
           x2="285"
           y2="348.7"
           xlink:href="#linearGradient51" /></defs><g
         class="st34"
         id="g48"><g
           id="Layer_1"><g
             class="st34"
             id="g43"><path
               class="st4"
               d="M164.6,148.2c4.7,2.3,9.5,4.6,14.3,6.9l15.6-32.3-14.6-107.8c-2.4-1.2-4.8-2.3-7.1-3.4s-4.7-2.3-7.1-3.4c-2.4-1.1-4.7-2.3-7.1-3.4l-7.8,16.2h0s-14.6,113.7-14.6,113.7c4.8,2.3,9.6,4.6,14.3,6.9,4.7,2.3,9.4,4.5,14.1,6.8Z"
               id="path12" /><path
               class="st0"
               d="M166.1,109c4.7,2.3,9.4,4.5,14.1,6.8,4.7,2.3,9.5,4.6,14.3,6.9l-15.6,32.3c-4.8-2.3-9.6-4.6-14.3-6.9-4.7-2.3-9.4-4.5-14.1-6.8-4.7-2.3-9.5-4.6-14.3-6.9l15.6-32.3c4.8,2.3,9.6,4.6,14.3,6.9Z"
               id="path13" /><path
               class="st7"
               d="M151.6,175.1c4.7,2.3,9.5,4.6,14.3,6.9l15.6-32.3-14.6-107.8c-2.4-1.2-4.8-2.3-7.1-3.4-2.4-1.1-4.7-2.3-7.1-3.4s-4.7-2.3-7.1-3.4l-7.8,16.2h0l-14.6,113.7c4.8,2.3,9.6,4.6,14.3,6.9,4.7,2.3,9.4,4.5,14.1,6.8Z"
               id="path14" /><path
               class="st3"
               d="M153.1,136c4.7,2.3,9.4,4.5,14.1,6.8,4.7,2.3,9.5,4.6,14.3,6.9l-15.6,32.3c-4.8-2.3-9.6-4.6-14.3-6.9-4.7-2.3-9.4-4.5-14.1-6.8-4.7-2.3-9.5-4.6-14.3-6.9l15.6-32.3c4.8,2.3,9.6,4.6,14.3,6.9Z"
               id="path15" /><path
               class="st8"
               d="M138.4,202.4c4.7,2.3,9.5,4.6,14.3,6.9l15.6-32.3-14.6-107.8c-2.4-1.2-4.8-2.3-7.1-3.4-2.4-1.1-4.7-2.3-7.1-3.4s-4.7-2.3-7.1-3.4l-7.8,16.2h0l-14.6,113.7c4.8,2.3,9.6,4.6,14.3,6.9,4.7,2.3,9.4,4.5,14.1,6.8Z"
               id="path16" /><path
               class="st1"
               d="M139.9,163.2c4.7,2.3,9.4,4.5,14.1,6.8,4.7,2.3,9.5,4.6,14.3,6.9l-15.6,32.3c-4.8-2.3-9.6-4.6-14.3-6.9-4.7-2.3-9.4-4.5-14.1-6.8-4.7-2.3-9.5-4.6-14.3-6.9l15.6-32.3c4.8,2.3,9.6,4.6,14.3,6.9Z"
               id="path17" /><path
               class="st6"
               d="M125.4,229.3c4.7,2.3,9.5,4.6,14.3,6.9l15.6-32.3h0l-14.6-107.8c-2.4-1.2-4.8-2.3-7.1-3.4-2.4-1.1-4.7-2.3-7.1-3.4-2.4-1.1-4.7-2.3-7.1-3.4l-7.8,16.2h0l-14.6,113.7c4.8,2.3,9.6,4.6,14.3,6.9s9.4,4.5,14.1,6.8Z"
               id="path18" /><path
               class="st2"
               d="M126.9,190.2c4.7,2.3,9.4,4.5,14.1,6.8,4.7,2.3,9.5,4.6,14.3,6.9l-15.6,32.3c-4.8-2.3-9.6-4.6-14.3-6.9-4.7-2.3-9.4-4.5-14.1-6.8s-9.5-4.6-14.3-6.9l15.6-32.3c4.8,2.3,9.6,4.6,14.3,6.9Z"
               id="path19" /><path
               class="st5"
               d="M112.3,256.3c4.7,2.3,9.5,4.6,14.3,6.9l15.6-32.3-14.6-107.8c-2.4-1.2-4.8-2.3-7.1-3.4-2.4-1.1-4.7-2.3-7.1-3.4-2.4-1.1-4.7-2.3-7.1-3.4l-7.8,16.2h0s-14.6,113.7-14.6,113.7c4.8,2.3,9.6,4.6,14.3,6.9,4.7,2.3,9.4,4.5,14.1,6.8Z"
               id="path20" /><path
               class="st28"
               d="M113.9,217.1c4.7,2.3,9.4,4.5,14.1,6.8,4.7,2.3,9.5,4.6,14.3,6.9l-15.6,32.3c-4.8-2.3-9.6-4.6-14.3-6.9s-9.4-4.5-14.1-6.8c-4.7-2.3-9.5-4.6-14.3-6.9l15.6-32.3c4.8,2.3,9.6,4.6,14.3,6.9Z"
               id="path21" /><path
               class="st15"
               d="M99.3,283.3c4.7,2.3,9.5,4.6,14.3,6.9l15.6-32.3-14.6-107.8c-2.4-1.2-4.8-2.3-7.1-3.4-2.4-1.1-4.7-2.3-7.1-3.4-2.4-1.1-4.7-2.3-7.1-3.4l-7.8,16.2-14.6,113.7c4.8,2.3,9.6,4.6,14.3,6.9,4.7,2.3,9.4,4.5,14.1,6.8Z"
               id="path22" /><path
               class="st26"
               d="M100.8,244.1c4.7,2.3,9.4,4.5,14.1,6.8,4.7,2.3,9.5,4.6,14.3,6.9l-15.6,32.3c-4.8-2.3-9.6-4.6-14.3-6.9-4.7-2.3-9.4-4.5-14.1-6.8-4.7-2.3-9.5-4.6-14.3-6.9l15.6-32.3c4.8,2.3,9.6,4.6,14.3,6.9Z"
               id="path23" /><path
               class="st18"
               d="M132.4,332.9c6.9,3.3,13.8,6.7,20.7,10l15.6-32.3-24.6-112.7c-3.4-1.7-6.9-3.3-10.3-5-3.4-1.7-6.9-3.3-10.3-5-3.4-1.7-6.9-3.3-10.3-5-3.4-1.7-6.9-3.3-10.3-5l-7.8,16.2-24.6,108.9c6.9,3.3,13.8,6.7,20.7,10,6.9,3.3,13.8,6.7,20.7,10s13.8,6.7,20.7,10Z"
               id="path24" /><path
               class="st29"
               d="M106.6,280.5c6.9,3.3,13.8,6.7,20.7,10s13.8,6.7,20.7,10c6.9,3.3,13.8,6.7,20.7,10l-15.6,32.3c-6.9-3.3-13.8-6.7-20.7-10-6.9-3.3-13.8-6.7-20.7-10s-13.8-6.7-20.7-10c-6.9-3.3-13.8-6.7-20.7-10l15.6-32.3c6.9,3.3,13.8,6.7,20.7,10Z"
               id="path25" /><path
               class="st16"
               d="M119.3,359.8c6.9,3.3,13.8,6.7,20.7,10l15.6-32.3-24.6-112.7c-3.4-1.7-6.9-3.3-10.3-5-3.4-1.7-6.9-3.3-10.3-5-3.4-1.7-6.9-3.3-10.3-5-3.4-1.7-6.9-3.3-10.3-5l-7.8,16.2h0l-24.6,108.9c6.9,3.3,13.8,6.7,20.7,10,6.9,3.3,13.8,6.7,20.7,10,6.9,3.3,13.8,6.7,20.7,10Z"
               id="path26" /><path
               class="st27"
               d="M93.6,307.5c6.9,3.3,13.8,6.7,20.7,10,6.9,3.3,13.8,6.7,20.7,10,6.9,3.3,13.8,6.7,20.7,10l-15.6,32.3c-6.9-3.3-13.8-6.7-20.7-10-6.9-3.3-13.8-6.7-20.7-10-6.9-3.3-13.8-6.7-20.7-10-6.9-3.3-13.8-6.7-20.7-10l15.6-32.3c6.9,3.3,13.8,6.7,20.7,10Z"
               id="path27" /><path
               class="st9"
               d="M 186.8,344.9 C 0,0 0,0 186.8,344.9 Z"
               id="path42"
               sodipodi:nodetypes="cc" /><path
               class="st23"
               d="M 186.6,344.8 C 0,0 0,0 186.6,344.8 Z"
               id="path43"
               sodipodi:nodetypes="cc"
               style="fill-opacity:1" /><path
               d="m 217.49771,185.02548 c -34.13,0 -55.46,24.1 -55.46,53.82 0,29.73 21.33,53.82 55.46,53.82 34.12,0 55.45,-24.1 55.45,-53.82 -0.01,-29.73 -21.33,-53.82 -55.45,-53.82 z m 0,81.78 c -17.73,0 -28.82,-12.52 -28.82,-27.96 0,-15.44 11.08,-27.96 28.82,-27.96 17.73,0 28.81,12.52 28.81,27.96 -0.01,15.44 -11.09,27.96 -28.81,27.96 z"
               clip-rule="evenodd"
               fill="#40c0e7"
               fill-rule="evenodd"
               id="path1" /></g><g
             class="st21"
             id="g45"><path
               class="st36"
               d="M127.3,290.7c-3.8-1.8-7.5-3.6-11.3-5.5l13.2-27.3h0l13-27h0l10.4-21.6h0l13.2-27.3h0l13.2-27.2,15.5-32.1c-4.8-2.3-9.6-4.6-14.3-6.9-4.7-2.3-9.4-4.5-14.1-6.8-4.7-2.3-9.5-4.6-14.3-6.9l-15.6,32.3h0l-10.6,21.9h0l-15.6,32.3h0l-13,27h0l-10.4,21.6h0l-15.6,32.3c4.2,2,8.4,4.1,12.5,6.1l-13.2,27.3h0l-13,27c6.9,3.3,13.8,6.7,20.7,10,6.9,3.3,13.8,6.7,20.7,10,6.9,3.3,13.8,6.7,20.7,10,6.9,3.3,13.8,6.7,20.7,10l13-27h0l15.6-32.3c-6.9-3.3-13.8-6.7-20.7-10-6.9-3.3-13.8-6.7-20.7-10Z"
               id="path44" /></g><g
             class="st20"
             id="g47"><path
               class="st36"
               d="M127.1,291.1c-3.8-1.8-7.5-3.6-11.3-5.5l13.2-27.3h0l13-27h0l10.4-21.6h0l13.2-27.3h0l13.2-27.2,15.5-32.1c-4.8-2.3-9.6-4.6-14.3-6.9-4.7-2.3-9.4-4.5-14.1-6.8-4.7-2.3-9.5-4.6-14.3-6.9l-15.6,32.3h0l-10.6,21.9h0l-15.6,32.3h0l-13,27h0l-10.4,21.6h0l-15.6,32.3c4.2,2,8.4,4.1,12.5,6.1l-13.2,27.3h0l-13,27c6.9,3.3,13.8,6.7,20.7,10,6.9,3.3,13.8,6.7,20.7,10,6.9,3.3,13.8,6.7,20.7,10,6.9,3.3,13.8,6.7,20.7,10l13-27h0l15.6-32.3c-6.9-3.3-13.8-6.7-20.7-10-6.9-3.3-13.8-6.7-20.7-10Z"
               id="path46" /></g></g></g></svg></svg><style
     id="style49">filter: none;filter: none;.light { :root }
.dark { :root }
</style></svg>
