<?xml version="1.0" encoding="UTF-8" standalone="no"?>
<svg
   version="1.1"
   width="400"
   height="400"
   id="svg50"
   sodipodi:docname="Lowlands2.svg"
   inkscape:version="1.4.4 (dcaf3e7d9e, 2026-05-05)"
   xmlns:inkscape="http://www.inkscape.org/namespaces/inkscape"
   xmlns:sodipodi="http://sodipodi.sourceforge.net/DTD/sodipodi-0.dtd"
   xmlns:xlink="http://www.w3.org/1999/xlink"
   xmlns="http://www.w3.org/2000/svg"
   xmlns:svg="http://www.w3.org/2000/svg">
  <sodipodi:namedview
     id="namedview50"
     pagecolor="#ffffff"
     bordercolor="#000000"
     borderopacity="0.25"
     inkscape:showpageshadow="2"
     inkscape:pageopacity="0.0"
     inkscape:pagecheckerboard="0"
     inkscape:deskcolor="#d1d1d1"
     showgrid="false"
     inkscape:zoom="1.4875"
     inkscape:cx="199.32773"
     inkscape:cy="198.9916"
     inkscape:window-width="1210"
     inkscape:window-height="933"
     inkscape:window-x="0"
     inkscape:window-y="0"
     inkscape:window-maximized="1"
     inkscape:current-layer="g43" />
  <svg
     version="1.1"
     width="400"
     height="400"
     id="svg49">
    <svg
       version="1.1"
       viewBox="0 0 400 400"
       id="svg48">
      <defs
         id="defs12">
        <style
           id="style1">
      .st36 {
        fill: #353168;
      }
    </style>
      </defs>
      <g
         class="st34"
         id="g48">
        <g
           id="Layer_1">
          <g
             class="st34"
             id="g43">
            <path
               class="st36" d="M309.6,131c-4.7-2.3-9.4-4.5-14.1-6.8-4.7-2.3-9.5-4.6-14.3-6.9l-13.2,27.2-15.5,32.1h0l-10.6,21.9h0l-15.6,32.3h0l-13,27h0l-13,27c4.2,2,8.4,4.1,12.5,6.1l-10.6,21.9h0l-15.6,32.3c6.9,3.3,13.8,6.7,20.7,10,6.9,3.3,13.8,6.7,20.7,10,6.9,3.3,13.8,6.7,20.7,10s13.8,6.7,20.7,10l15.6-32.3h0l13-27c-6.9-3.3-13.8-6.7-20.7-10-6.9-3.3-13.8-6.7-20.7-10-3.8-1.8-7.5-3.6-11.3-5.5l10.6-21.9h0l2.5-5.1v-.3h.1l10.4-21.6h0l13-27h0l15.6-32.3h0l13.2-27.3h0l13-27c-4.8-2.3-9.6-4.6-14.3-6.9Z"
               id="path45" />
          </g>
          <g
             class="st20"
             id="g47">
            <path
               class="st36" d="M127.1,291.1c-3.8-1.8-7.5-3.6-11.3-5.5l13.2-27.3h0l13-27h0l10.4-21.6h0l13.2-27.3h0l13.2-27.2,15.5-32.1c-4.8-2.3-9.6-4.6-14.3-6.9-4.7-2.3-9.4-4.5-14.1-6.8-4.7-2.3-9.5-4.6-14.3-6.9l-15.6,32.3h0l-10.6,21.9h0l-15.6,32.3h0l-13,27h0l-10.4,21.6h0l-15.6,32.3c4.2,2,8.4,4.1,12.5,6.1l-13.2,27.3h0l-13,27c6.9,3.3,13.8,6.7,20.7,10,6.9,3.3,13.8,6.7,20.7,10,6.9,3.3,13.8,6.7,20.7,10,6.9,3.3,13.8,6.7,20.7,10l13-27h0l15.6-32.3c-6.9-3.3-13.8-6.7-20.7-10-6.9-3.3-13.8-6.7-20.7-10Z"
               id="path46" />
            <path
               class="st36" d="M309.4,131.4c-4.7-2.3-9.4-4.5-14.1-6.8-4.7-2.3-9.5-4.6-14.3-6.9l-13.2,27.2-15.5,32.1h0l-10.6,21.9h0l-15.6,32.3h0l-13,27h0l-13,27c4.2,2,8.4,4.1,12.5,6.1l-10.6,21.9h0l-15.6,32.3c6.9,3.3,13.8,6.7,20.7,10,6.9,3.3,13.8,6.7,20.7,10,6.9,3.3,13.8,6.7,20.7,10,6.9,3.3,13.8,6.7,20.7,10l15.6-32.3h0l13-27c-6.9-3.3-13.8-6.7-20.7-10-6.9-3.3-13.8-6.7-20.7-10-3.8-1.8-7.5-3.6-11.3-5.5l10.6-21.9h0l2.5-5.1v-.3h.1l10.4-21.6h0l13-27h0l15.6-32.3h0l13.2-27.3h0l13-27c-4.8-2.3-9.6-4.6-14.3-6.9Z"
               id="path47" />
          </g>
        </g>
      </g>
    </svg>
  </svg>
</svg>
