<?xml version="1.0" encoding="UTF-8" standalone="no"?>
<svg
   width="2500"
   height="2500"
   viewBox="0 0 192.756 192.756"
   version="1.1"
   id="svg4"
   sodipodi:docname="Lowlands.svg"
   inkscape:version="1.4.4 (dcaf3e7d9e, 2026-05-05)"
   xmlns:inkscape="http://www.inkscape.org/namespaces/inkscape"
   xmlns:sodipodi="http://sodipodi.sourceforge.net/DTD/sodipodi-0.dtd"
   xmlns="http://www.w3.org/2000/svg"
   xmlns:svg="http://www.w3.org/2000/svg">
  <defs
     id="defs4" />
  <sodipodi:namedview
     id="namedview4"
     bordercolor="#000000"
     borderopacity="0.25"
     inkscape:showpageshadow="false"
     inkscape:pageopacity="0.0"
     inkscape:pagecheckerboard="true"
     inkscape:deskcolor="#d1d1d1"
     inkscape:zoom="0.2744"
     inkscape:cx="737.97376"
     inkscape:cy="1949.7085"
     inkscape:window-width="1210"
     inkscape:window-height="933"
     inkscape:window-x="0"
     inkscape:window-y="0"
     inkscape:window-maximized="1"
     inkscape:current-layer="g4"
     pagecolor="#ffffff"
     showborder="false"
     borderlayer="false" />
  <g
     fill-rule="evenodd"
     clip-rule="evenodd"
     id="g4">
    <path
       d="M20.749 82.526H12.83v26.679l12.045-.025.615-7.535-7.227 1.845 2.486-20.964zM58.781 88.446c.641-1.974 1.23-3.946 1.845-5.971l-8.636.025 6.689 26.654h5.126l2.255-8.074 2.127 8.074 5.049-.025 7.201-26.654h-8.585l1.819 5.895-3.101 8.15-2.435-9.714h-4.023l-2.614 9.714-2.717-8.074zM89.894 82.449l-7.919.026v26.654H94.02l.615-7.561-7.227 1.871 2.486-20.99zM110.295 82.449H102.4l-7.099 26.68 7.638-.025-.871-5.588 8.406-.025-1 5.613h7.971l-7.15-26.655zm-1.256 15.121h-5.459l2.613-6.613 2.846 6.613zM125.312 82.423h-5.689v26.681h7.611l-2.767-6.1.949-7.331 7.022 13.403h5.611V82.423h-7.611l2.716 6.074-1.025 7.099-6.817-13.173zM155.477 82.398l-12.43.025v26.653h12.48l4.973-5.92V89.753l-5.023-7.355zm-7.151 5.074l5.74 1.179.053 13.738-4.076.846-1.717-15.763zM166.881 82.398l-3.459 7.534 3.537 8.841h7.457v4.153l-3.869 1.051-6.586-3.665.896 8.739 12.789-.026 4.842-9.431-5.176-7.765-6.228 1.435v-5.126l3.152-.973 5.793 3.408-.718-8.201-12.43.026zM42.764 87.984c-.948-1.819-1.717-3.408-2.281-4.844l5.125 1.128c-.512-.872-1.357-1.538-2.511-1.999-1.436-.563-2.896-.563-4.434.025l-1.64.18-1.436-.18c-2.485-.102-4.152.974-4.972 3.229 2.486-.154 4.511.487 6.048 1.896 1.717 1.59 2.383 3.793 1.999 6.638 1.41.692 3.024 1.102 4.844 1.255l3.562-.23c-.512 2.051-1.102 3.665-1.794 4.87-.206-1.512-.949-2.588-2.205-3.127-.538-.23-1.332-.23-2.332-.025l-1.948.281c-.512-.127-1.102-.614-1.82-1.562-.743-.974-1.332-1.564-1.768-1.717-.718-.23-1.615-.103-2.768.384-1.153.513-1.974.692-2.46.539-.923-.308-1.614-.974-2.127-2.024-.205-.462-.385-.718-.487-.846l-.744.077c-.641.359-.717 1.154-.256 2.255.487 1.23 1.384 2.076 2.691 2.563.897.385 1.948.359 3.152-.051l2.076-.642c.308.026.615.231.922.563l.846 1.025c.794 1.025 1.64 1.564 2.562 1.691l1.691-.281 1.948-.205c.641.076 1.179.486 1.589 1.152.333.564.539 1.129.539 1.641-1.205.641-2.64.77-4.306.436-1.563-.307-2.87-.922-3.896-1.871-1.461 1.512-3.126 2.205-4.972 2.102-1.641-.102-3.076-.768-4.306-1.973-.128.385-.077 1.076.128 2.127.256 1.281.743 2.307 1.435 3.049.564.59 1.128.975 1.692 1.129l1.153.385 1.64 1.613c.641.641 1.23 1.025 1.769 1.104l2.563-.232c.743-.307 1.333-.436 1.845-.357l1.974.332a3.394 3.394 0 0 0 1.794-.332c.563-.283 1.102-.898 1.537-1.77.461-.82.872-1.332 1.23-1.512l2.152-1.076c1.025-.77 1.589-1.717 1.692-2.922.026-.154 0-.82-.077-1.998-.026-.693.103-1.256.384-1.691.897-1.307 1.358-2.307 1.461-3.025.128-1 .052-1.845-.256-2.589-.23-.589-.666-1.229-1.307-1.922l-.667 5.28c-1.102-1.025-2.332-2.384-3.639-3.947l-5.023.743 2.389-4.742z"
       id="path3" />
    <path
       d="m 48.299,82.706 -2.357,2.485 -3.819,-0.82 c 0.743,1.717 1.333,2.921 1.769,3.613 -0.513,0.82 -1.154,1.974 -1.897,3.511 l 3.768,-0.641 2.665,3.101 c 0.256,-1.614 0.436,-3.023 0.487,-4.202 1.409,-0.59 2.537,-1.18 3.409,-1.769 l -3.46,-1.768 c -0.18,-1.511 -0.36,-2.691 -0.565,-3.51 z m -4.664,7.611 c 0.333,-0.641 0.794,-1.41 1.41,-2.333 -0.563,-0.845 -1,-1.614 -1.281,-2.281 l 2.537,0.641 1.41,-1.64 0.256,2.281 2.383,1.025 c -0.308,0.256 -1.102,0.59 -2.358,1.025 l -0.18,2.742 c -0.794,-0.897 -1.332,-1.589 -1.64,-2.102 -1.383,0.411 -2.23,0.642 -2.537,0.642 z"
       id="path4"
       sodipodi:nodetypes="cccccccccccccccccccccc" />
  </g>
</svg>
