<?xml version="1.0" encoding="UTF-8"?><svg id="uuid-48dab808-5d88-41b1-97ba-7215a3da56fd" xmlns="http://www.w3.org/2000/svg" width="850.39" height="283.46" viewBox="0 0 850.39 283.46"><defs><style>.uuid-799d1784-fd15-4e97-9ece-3c38cec3c2f6{fill:#fff;}.uuid-97bc080e-fda2-4249-8aa6-f280b00ea83c{fill:#ff8cfa;}</style></defs><polygon class="uuid-97bc080e-fda2-4249-8aa6-f280b00ea83c" points="273.37 5.67 266 131.1 348.22 132.61 363.69 5.67 273.37 5.67"/><polygon class="uuid-97bc080e-fda2-4249-8aa6-f280b00ea83c" points="428.33 113.32 460.32 132.25 566.93 135.36 567.93 5.67 486.59 5.67 488.18 28.61 468.04 5.67 370.68 5.67 354.21 131.6 427.38 131.84 428.33 113.32"/><polygon class="uuid-97bc080e-fda2-4249-8aa6-f280b00ea83c" points="687.42 57.44 693.14 56.52 734.43 84.66 844.72 82.62 803 42.19 844.72 5.67 716.04 5.67 685.89 28.56 681.79 28.86 679.34 5.67 573.6 5.67 574.27 88.6 689.23 85.84 687.42 57.44"/><path class="uuid-97bc080e-fda2-4249-8aa6-f280b00ea83c" d="M575.05,94.69l-4.13,183.11h172.6l-7.51-36.1,98.7-2.22,10.01-9.29V97.33l-11.04-8.61-258.63,5.96h0ZM725.11,197.33l-5.31-40.55,22.9,1.54,6.15,37.1-23.74,1.9h0Z"/><path class="uuid-97bc080e-fda2-4249-8aa6-f280b00ea83c" d="M217.36,134.42L5.67,151.37v126.43h203.66l-9.08-36.65,96.97-4.42,9.63-10.72,1.22-85.62-90.72-5.97h0ZM185.13,201.28l-9.02-22.85,26.24-2.31,2.37,23.05-19.59,2.1h0Z"/><path class="uuid-97bc080e-fda2-4249-8aa6-f280b00ea83c" d="M252.49,5.67H5.67v140.78l139.66-11.58-1.7-18.23,107.22-5.35,9.75-8.51,5.57-87.58-13.67-9.52h-.01ZM185.78,75.46l-43.02,1.85-3-19.03,46.02,2.82v14.37h0Z"/><path class="uuid-97bc080e-fda2-4249-8aa6-f280b00ea83c" d="M429.12,202.58c.5,0,1.17-.17,1.33-.84.83-2.36-.5-5.38-1.34-6.06-1.84-1.85-4.01-2.86-6.68-2.86-1.5-.09-2.66,1.01-3.76,1.86-.54.42-1.11.85-1.77,1.06-.35.11-.67.07-1.01.12-.83.13-1.76.62-.94,1.38.7.66,1.05,1.42,1.31,2.35.34,1.2.46,4.21,2.17,4.33.83-.17,0-2.02.17-3.36.17-1.18.83-2.69,2-3.03.33.17-.5.84-.67,1.51-.18.74-.48,1.2-.43,2.02.06.97.4,1.9.92,2.71.94,1.44,2.63,2.11,4.31,1.89,1.91-.25,3.35-1.52,4.38-3.07h0ZM428.78,198.21c-.33-.67-1.84-2.69-4.34-2.52,2.84-.34,4.01,1.51,4.34,2.52ZM426.28,201.07c-.17.5-.5.67-1,.67-.67-.17-1.5-.5-1.5-1.51,0-.67.33-1.18.83-1.35.33,0,.83.17,1.17.34.67.5.67,1.35.5,1.85Z"/><path class="uuid-97bc080e-fda2-4249-8aa6-f280b00ea83c" d="M430.66,216.41c.39-.05.81-.21,1.02-.45.22-.25.23-.58-.21-.95-.23-.19-1.96-.7-1.86-.99.26-.81.11-1.65.27-2.47.26-1.31,1.35-2.22,1.7-3.53.17-.64.47-1.82.02-2.41-.52-.7-1.1,0-1.28.5-.32.89-.29,1.55-.98,2.28-.69.74-1.09,1.62-1.36,2.58-.14.49-.28,1.06-.42,1.58-.15.52-.47,1.1-.47,1.64,0,.84.33,1.68,1.17,1.85.8.16,1.54.47,2.38.37h.02Z"/><path class="uuid-97bc080e-fda2-4249-8aa6-f280b00ea83c" d="M436.96,216.04c.68-.17.2-1.11-.13-1.32-.44-.29-1.1-.6-1.63-.64-.53-.05-1.03.2-1.2.73-.53,1.71,2,1.48,2.96,1.24h0Z"/><path class="uuid-97bc080e-fda2-4249-8aa6-f280b00ea83c" d="M430.94,268.8c-.38-.26-.77-.52-1.2-.68-.31-.11-.64-.13-.96-.09-.73.1-1.43.55-1.91,1.08-.7.77-1,1.84-.88,2.86.13,1.1.71,1.93,1.6,2.58.77.56,1.61.94,2.58.79,1.25-.2,2.27-1.25,2.61-2.44.12-.83.09-1.78-.26-2.55-.32-.69-.98-1.15-1.58-1.56h0ZM429.23,270.78c-.07.31-.26,1.07-.61,1.29-.16.11-.36.09-.6-.14-.15-.15-.22-.36-.24-.57-.03-.28,0-.59.13-.85.13-.25.37-.45.65-.5.51-.08.77.31.66.76h0Z"/><path class="uuid-97bc080e-fda2-4249-8aa6-f280b00ea83c" d="M407,259.03c.16-.18.33-.37.5-.55,1.26-1.35,2.49-2.72,3.7-4.12.09-.1.18-.21.19-.35.02-.28-.4-.34-.6-.37-.6-.09-1.06.26-1.45.66-.47.49-.93.99-1.4,1.48-.56.58-1.14,1.14-1.75,1.68-.31.28-.62.55-.94.81-.25.2-.61.63-.94.68-.09.01-.18-.02-.22-.1-.02-.04-.01-.09,0-.14.4-3.03,2.2-5.59,3.13-8.45,0-.02.01-.04.02-.05.04-.13.08-.27.06-.4-.06-.39-.66-.56-.99-.48-.96.24-1.47,1.65-1.9,2.43-1.84,3.33-3.44,6.79-5.32,10.1-.4.7-.76,1.41-1.1,2.14-.18.33-.36.71-.53,1.11-.12.25-.22.49-.28.65-1.6,3.88-3.19,9.94-3.72,12.05h5.33c.62-3.94,2.2-10.19,4.37-13.78,1.22-1.71,2.46-3.42,3.86-4.99h-.02Z"/><path class="uuid-97bc080e-fda2-4249-8aa6-f280b00ea83c" d="M467.54,268.86c.29-.84.58-1.69.87-2.53.27-.77.77-1.7.48-2.54-.08-.24-.27-.46-.52-.49-.07,0-.13,0-.2.01-.09.02-.17.06-.24.1-1.11.69-1.65,2.31-2.22,3.41-.42.81-.81,1.64-1.16,2.48-1.39,3.28-2.04,5.29-3.01,8.49h3.52c.07-.38.14-.75.22-1.13.57-2.64,1.4-5.26,2.27-7.81h0Z"/><path class="uuid-97bc080e-fda2-4249-8aa6-f280b00ea83c" d="M462.21,197.9c-.77.13-1.77.67-2.49.14-.13-.09-.23-.22-.32-.35-.03-.04-.06-.09-.09-.13-.9-1.27-2.09-2.45-3.36-3.33-1.49-1.03-3.6-1.72-5.28-.7-.52.32-1.06.63-1.63.85-.62.24-1.29.32-1.94.42-1.21.19-2.43.46-3.29,1.41-.58.58-.55,1.64-.3,2.37.18.51.71.86.95,1.37.23.49.36,1.02.49,1.54.27,1.07.62,2.54,1.96,2.62.06,0,.14,0,.17-.05.02-.03.02-.06.03-.09.06-.54-.14-1.06-.25-1.58-.12-.59-.11-1.2.01-1.79.14-.62.46-1.09.75-1.65.1.25-.03.55-.08.79-.12.6-.26,1.16-.11,1.77.12.47.29.94.53,1.36.5.9,1.28,1.61,2.19,2.07.43.22,1.1.23,1.57.25.58.02,1.16-.04,1.72-.2.55-.16,1.08-.41,1.51-.79.36-.31.67-.73,1.13-.9.48-.18.99-.16,1.49-.08.17.03.35.04.51,0,.42-.13.47-.64.25-.96-.46-.81-.91-1.63-1.37-2.44-.37-.66-.71-1.35-1.19-1.94-.12-.15-1.11-1.15-.75-1.3.4-.18,1.26.73,1.47.97l1,1.18c.83.84,1.67,2.02,2.67,2.52.83.34,2-.5,2.5-1.68.23-.64.65-1.85-.45-1.66h0ZM453.67,201.28c-.12.05-.25.08-.38.08-.24,0-.48-.05-.7-.15-.16-.07-.31-.16-.42-.29-.41-.5-.26-1.26.12-1.71.35-.4.99-.67,1.5-.43.95.44.77,2.12-.13,2.49h.01Z"/><path class="uuid-97bc080e-fda2-4249-8aa6-f280b00ea83c" d="M455.99,185.26c-1.42-.64-3.22-.77-4.75-.63-1.62.15-3.2.67-4.59,1.52-.59.36-1.32.76-1.62,1.41-.11.23-.17.49-.18.74-.02.46.13,1.04.6,1.2.44.16.98.03,1.42-.07.62-.14,1.21-.41,1.78-.68,1.33-.63,2.63-.87,4.1-.93.84-.04,1.68.03,2.51.2,1.65.33,3.22,1.06,4.55,2.1.04.03.08.06.12.1.49.39.94.83,1.36,1.29.18.2.39.44.56.66.3.4.54.74,1.08.81.58.08.97-.43.75-.98-1.33-3.37-4.67-5.38-7.68-6.73h-.01Z"/><path class="uuid-97bc080e-fda2-4249-8aa6-f280b00ea83c" d="M556.84,140.83l-228.62-2.69-12.35,9.7-.23,121.32,9.95,8.64h52.78c.56-10.84,2.85-16.58,5.39-20.28,2.67-3.88,2.4-3.5,3.05-4.43s2.14-2.57,3.31-3.74c.61-.6,1.77-1.39,2.47-1.89,1.4-1,2.83-1.95,4.31-2.82,2.92-1.73,6.02-3.19,9.29-4.14,1.51-.43,3.05-.76,4.61-.94,1.71-.2,3.42-.17,5.14-.17.39,0,1.5-.12,1.5.5,0,.14-.05.27-.1.4-1.08,2.73-1.58,6.32-.36,9.08.21.48.48.93.81,1.33,2.07,2.53,5.94,3.05,8.96,2.49,1.01-.19,1.99-.49,2.94-.85,1.59-.61,3.11-1.38,4.66-2.08.3-.14.9,1.28,1.07,1.56.32.54.7,1.06,1.24,1.39.55.34,1.22.44,1.86.36.65-.09,1.3-.36,1.81-.78.43-.35.85-.79,1.06-1.31.21-.5.28-1.06.66-1.48.05-.06.11-.11.19-.12.11-.02.2.06.28.13.5.44.98.88,1.51,1.28.63.48,1.29.93,1.96,1.34,1.34.82,2.77,1.49,4.26,2,2.97,1.02,6.16,1.36,9.27.89.91-.14,1.81-.34,2.69-.6.92-.28,1.76-.69,2.65-1.02,3.17-1.18,6.34-3.36,8.85-6.06,3-2.36,4.67-7.4,9.68-6.06,6.01,1.51,12.18,5.55,15.35,11.27.59,1.04,6.21,9.94,7.81,24.74h47.07l10.46-9.63,2.95-121.41-10.17-5.92h-.02ZM435.96,241.45l-8.68,7.57c-2.47,1.05-6.37.88-7.07-2.3-.35-1.57.24-3.25.88-4.68.99-2.17,2.34-4.13,4.1-5.75.46-.43,1.02-.79,1.65-.85,1.01-.09,2.09.58,3,.95,1.09.45,2.19.89,3.28,1.34.78.32,1.58.65,2.2,1.22.59.55,1.27,1.75.64,2.49h0ZM437.98,249.74c-.14.12-.33.16-.52.15-.05,0-.11,0-.15-.03h-.01s-.08-.06-.12-.1c-.08-.08-.16-.16-.24-.24-.41-.41-.21-1.31.35-1.5.25-.06.51,0,.66.22.11.17.15.38.19.58.03.16.05.32.04.48-.01.16-.07.33-.19.43h-.01ZM472.23,242.06c-.38,1.04-.97,2-1.66,2.88-.39.5-.81.97-1.24,1.42-1.91,2-4.26,3.6-6.77,4.76-3.13,1.45-6.93,1.73-10.27.89-1.06-.27-2.1-.68-3.02-1.28-1.38-.9-2.45-2.19-3.34-3.56-.43-.67-.85-1.36-1.21-2.08-.24-.48-.48-.98-.58-1.51-.06-.32-.09-.67-.02-.99.04-.18.12-.35.27-.45.12-.09.27-.13.42-.17,1.42-.35,2.8-.74,4.18-1.22,1.61-.57,3.19-1.21,4.74-1.93,2.75-1.26,5.43-2.72,7.99-4.33.91-.58,1.81-1.17,2.69-1.8.61-.44,1.12-1.01,1.8-1.35.13-.07.28-.13.43-.13.33,0,.69.21.98.35.33.15.65.33.95.53.6.39,1.15.86,1.63,1.39,2.08,2.27,3.11,5.63,2.04,8.6v-.02ZM471.17,210.16c-1.84,2.02-2,5.38-1.17,7.4.35.85,1.09,1.56,1.06,2.54-.01.52-.33.93-.59,1.35-.69,1.13-1.52,2.13-2.5,3.02-.91.82-1.93,1.5-2.93,2.21-.32.32-.8.57-1.17.83l-1.22.86c-.73.52-1.47,1.02-2.24,1.49-1.51.9-3.1,1.67-4.73,2.34-3.52,1.43-7.27,2.46-10.99,3.23-2.87.6-5.95.4-8.83-.09-1.54-.27-3.13-.59-4.49-1.39-.31-.19-.68-.4-.92-.69-.15-.18-.27-.39-.43-.58-.23-.27-.48-.53-.77-.73-.51-.35-1.12-.5-1.72-.64-1.15-.26-2.29-.5-3.43-.8-4.51-1.35-8.85-5.55-10.01-10.26-.91-3.66-1.33-7.43-1.6-11.19-.26-3.75-.35-7.51-.58-11.26-.09-1.45-.2-2.91-.3-4.36-.07-1.04-.13-2.43.81-3.14,1.83-2.03,5.07-2.2,7.48-1.24.64.26,1.22.72,1.9.86.29.06.59.05.86-.09,1.46-.75.46-2.22-.38-3.01-.89-.84-2.11-1.62-3.35-1.74-1.9-.44-4.54-.19-5.89,1.4-.24.28-.39.62-.56.95-.08.14-.4.53-.38.69-.23-3.43.35-6.93,1.35-10.21.41-1.33.89-2.63,1.46-3.89.27-.59.54-1.18.91-1.71.62-.89,1.32-1.72,2.37-2.11.09-.03.19-.06.28-.02.15.07.37.16.44.32.05.12.04.25.03.38-.11,1.04-.69,2.11-1.19,3.02-.46.84-.99,1.7-1.97,2.01-.13.04-.27.07-.39.13-.45.21-.44.83-.12,1.15.67.67,2.17,1.01,3.5.17,2.49-.97,4.16-3.18,5.67-5.28.08-.12.17-.23.29-.31.25-.17.6-.12.86.03.36.21.68.56.92.9.89,1.28,1.4,2.9.51,4.33-.13.22-.3.42-.5.56-.78.55-1.81-.08-2.59-.31-.98-.28-1.37.32-1.48,1.25,0,1.51,1.17,2.86,2.34,3.53,2.34,1.18,5.01,1.51,7.51.17,3-1.85,4.51-4.21,5.17-7.23,1.67,1.68-2.67,5.72,1.17,4.71,1.05-.28,1.99-1.27,2.6-2.12.33-.47.62-.98.87-1.5.13-.27.25-.54.37-.81.05-.13.13-.42.29-.44.19-.02.31.28.35.42.25.97.04,2.05-.57,2.85-.16.21-.35.41-.46.66-.19.43-.05,1.03.38,1.22.45.21.93-.06,1.33-.24,1-.46,1.81-1.17,2.7-1.8.08-.06.18-.12.27-.08.1.04.13.15.15.26.05.3.05.62.15.91.05.13.12.26.25.32.28.13.78-.18,1.04-.29.33-.15.66-.32.97-.51.62-.37,1.2-.82,1.71-1.33.69-.69,1.27-1.49,1.69-2.36.47-.96.62-2,.99-3,.06-.15.12-.3.23-.41.12-.11.28-.17.43-.21.64-.18,1.32-.23,1.98-.34.66-.12,1.33-.31,1.85-.73.11-.09.25-.21.39-.17.19.05.35.43.45.59.17.29.32.6.45.91.61,1.5.68,3.13.54,4.72-.04.49-.22,1.02-.64,1.28-.6.37-1.12-.09-1.33-.65-.12-.32-.19-.66-.38-.94s-.57-.47-.88-.32c-.14.07-.24.2-.33.33-.68,1.02-.78,2.29-.71,3.48.08,1.24.5,2.22,1.46,3.04.39.33.87.66,1.39.74.56.08,1.11-.02,1.65.22.71.31,1.16,1.01,1.49,1.71.4.84.75,1.69,1.39,2.38.62.66,1.74.9,2.62.96.64.04,1.29-.02,1.92-.16.28-.06.56-.13.82-.24.41-.16.74-.46,1.2-.5.14,0,.3,0,.41.09.3.24.23.85.22,1.18-.02.5-.07.99-.17,1.48-.35,1.76-1.38,3.2-2.07,4.82-1.01,2.36-1.38,4.73-.82,7.26.28,1.27.69,2.44,1.6,3.39.84.87,1.91,1.49,3.02,1.94.2.08.4.16.57.29,1.18.87-.84,1.68-1.3,2.18v-.03Z"/><path class="uuid-97bc080e-fda2-4249-8aa6-f280b00ea83c" d="M442.8,223.61s-.1-.02-.17-.03c-.57-.06-1.19-.2-1.74-.38-.57-.19-1-.56-1.48-.91-.46-.35-.96-.7-1.51-.88-.24-.08-.5-.14-.76-.11-.38.04-.64.18-.77.54-.14.38-.38.71-.79.38-.43-.34-.64-.95-1.12-1.25-.62-.39-1.49-.09-2.02.31-.57.43-.94,1.08-1.5,1.5-.71.54-2.64.29-2.57,1.48,0,.15.05.29.13.41.19.26.57.36.81.56.24.19.46.39.67.61.46.48.88,1,1.31,1.51.75.89,1.5,1.74,2.61,2.17,1.19.46,2.52.5,3.74.14,1.13-.34,2.08-1.07,2.87-1.92.54-.57,1.02-1.2,1.47-1.86.25-.37.47-.77.73-1.14.13-.19.28-.39.32-.63.05-.31-.03-.45-.24-.5h.01ZM436.14,226.94c-.65,0-1.26-.22-1.86-.45-.16-.06-.33-.12-.49-.18-.43-.15-1.1-.54-.65-1.07.37-.44.87-.06,1.22.19.17.13.33.28.51.39.27.18.46.13.76.13.5,0,1.34-.67,1.67.17.08.67-.63.81-1.15.8v.02Z"/><path class="uuid-799d1784-fd15-4e97-9ece-3c38cec3c2f6" d="M425.78,199.22c-.33-.17-.83-.34-1.17-.34-.5.17-.83.67-.83,1.35,0,1.01.83,1.35,1.5,1.51.5,0,.83-.17,1-.67s.17-1.35-.5-1.85Z"/><path class="uuid-799d1784-fd15-4e97-9ece-3c38cec3c2f6" d="M435.62,225.97c-.3,0-.48.04-.76-.13-.18-.12-.34-.27-.51-.39-.35-.25-.84-.63-1.22-.19-.45.53.22.91.65,1.07.16.06.33.12.49.18.6.22,1.21.44,1.86.45.52,0,1.23-.13,1.15-.8-.33-.84-1.17-.17-1.67-.17v-.02Z"/><path class="uuid-799d1784-fd15-4e97-9ece-3c38cec3c2f6" d="M428.78,198.21c-.33-1.01-1.5-2.86-4.34-2.52,2.5-.17,4.01,1.85,4.34,2.52Z"/><path class="uuid-799d1784-fd15-4e97-9ece-3c38cec3c2f6" d="M468.56,232.07c-.3-.2-.62-.38-.95-.53-.29-.13-.66-.36-.98-.35-.15,0-.29.06-.43.13-.68.34-1.19.91-1.8,1.35-.87.63-1.77,1.23-2.69,1.8-2.56,1.62-5.23,3.07-7.99,4.33-1.55.71-3.13,1.36-4.74,1.93-1.38.48-2.76.88-4.18,1.22-.15.04-.3.07-.42.17-.14.11-.23.28-.27.45-.07.32-.04.67.02.99.11.53.34,1.03.58,1.51.35.72.77,1.41,1.21,2.08.89,1.37,1.96,2.66,3.34,3.56.92.6,1.96,1.01,3.02,1.28,3.34.85,7.14.56,10.27-.89,2.51-1.16,4.86-2.76,6.77-4.76.43-.45.85-.92,1.24-1.42.69-.88,1.28-1.83,1.66-2.88,1.07-2.97.04-6.33-2.04-8.6-.48-.53-1.03-1-1.63-1.39v.02Z"/><path class="uuid-799d1784-fd15-4e97-9ece-3c38cec3c2f6" d="M433.12,237.74c-1.09-.45-2.19-.89-3.28-1.34-.91-.37-1.99-1.05-3-.95-.63.06-1.18.42-1.65.85-1.76,1.62-3.11,3.58-4.1,5.75-.65,1.42-1.23,3.1-.88,4.68.71,3.18,4.6,3.35,7.07,2.3l8.68-7.57c.63-.74-.05-1.94-.64-2.49-.62-.57-1.42-.91-2.2-1.22h0Z"/><path class="uuid-799d1784-fd15-4e97-9ece-3c38cec3c2f6" d="M428.56,270.02c-.28.04-.52.25-.65.5s-.16.57-.13.85c.02.21.09.42.24.57.23.24.43.25.6.14.35-.22.54-.98.61-1.29.1-.46-.15-.84-.66-.76h0Z"/><path class="uuid-799d1784-fd15-4e97-9ece-3c38cec3c2f6" d="M483.36,241.78c-5.01-1.35-6.68,3.7-9.68,6.06-2.5,2.69-5.67,4.88-8.85,6.06-.89.33-1.74.75-2.65,1.02-.88.27-1.78.47-2.69.6-3.11.46-6.3.12-9.27-.89-1.49-.51-2.91-1.19-4.26-2-.68-.41-1.33-.86-1.96-1.34-.53-.4-1.01-.84-1.51-1.28-.08-.07-.18-.15-.28-.13-.08,0-.14.07-.19.12-.38.42-.45.97-.66,1.48-.22.52-.64.95-1.06,1.31-.5.41-1.16.69-1.81.78-.64.09-1.31-.02-1.86-.36-.54-.33-.92-.86-1.24-1.39-.16-.27-.76-1.7-1.07-1.56-1.55.7-3.07,1.48-4.66,2.08-.95.36-1.93.67-2.94.85-3.02.56-6.89.04-8.96-2.49-.33-.4-.6-.86-.81-1.33-1.23-2.76-.72-6.35.36-9.08.05-.13.1-.26.1-.4,0-.62-1.1-.5-1.5-.5-1.72,0-3.43-.04-5.14.17-1.56.19-3.1.51-4.61.94-3.27.94-6.37,2.4-9.29,4.14-1.48.88-2.91,1.82-4.31,2.82-.7.5-1.86,1.29-2.47,1.89-1.17,1.17-2.67,2.8-3.31,3.74s-.38.55-3.05,4.43c-2.54,3.7-4.83,9.44-5.39,20.28h15.08c.53-2.1,2.12-8.16,3.72-12.05.06-.16.16-.4.28-.65.18-.41.36-.78.53-1.11.34-.73.7-1.44,1.1-2.14,1.88-3.31,3.48-6.77,5.32-10.1.43-.78.94-2.19,1.9-2.43.33-.08.93.1.99.48.02.13-.02.27-.06.4,0,.02-.01.04-.02.05-.93,2.86-2.73,5.42-3.13,8.45,0,.05-.01.1,0,.14.03.08.13.12.22.1.33-.05.69-.47.94-.68.32-.26.63-.53.94-.81.6-.54,1.18-1.1,1.75-1.68.47-.49.92-.99,1.4-1.48.4-.41.85-.75,1.45-.66.2.03.62.09.6.37,0,.13-.1.24-.19.35-1.2,1.4-2.44,2.77-3.7,4.12-.17.18-.33.36-.5.55-1.4,1.58-2.63,3.28-3.86,4.99-2.18,3.58-3.75,9.84-4.37,13.78h62.76c.97-3.2,1.63-5.21,3.01-8.49.36-.84.74-1.67,1.16-2.48.57-1.1,1.12-2.72,2.22-3.41.07-.05.16-.08.24-.1.07-.02.13-.02.2-.01.25.03.44.25.52.49.29.84-.22,1.77-.48,2.54-.29.84-.59,1.68-.87,2.53-.87,2.56-1.7,5.17-2.27,7.81-.08.37-.15.75-.22,1.13h41.48c-1.6-14.8-7.22-23.7-7.81-24.74-3.17-5.72-9.35-9.76-15.35-11.27h.04ZM432.79,272.91c-.34,1.2-1.36,2.25-2.61,2.44-.98.15-1.81-.23-2.58-.79-.89-.64-1.48-1.47-1.6-2.58-.12-1.03.19-2.09.88-2.86.48-.53,1.18-.98,1.91-1.08.32-.04.64-.02.96.09.44.15.82.42,1.2.68.6.41,1.26.87,1.58,1.56.36.77.38,1.72.26,2.55h0Z"/><path class="uuid-799d1784-fd15-4e97-9ece-3c38cec3c2f6" d="M437.95,248.23c-.15-.23-.41-.29-.66-.22-.56.19-.77,1.09-.35,1.5.08.08.16.16.24.24.04.04.07.07.12.1h.01s.1.03.15.03c.18,0,.38-.03.52-.15.12-.11.18-.27.19-.43.01-.16-.01-.32-.04-.48-.03-.2-.07-.41-.19-.58h.01Z"/><path class="uuid-799d1784-fd15-4e97-9ece-3c38cec3c2f6" d="M453.8,198.78c-.51-.24-1.15.02-1.5.43-.39.45-.53,1.21-.12,1.71.11.13.26.22.42.29.22.1.46.16.7.15.13,0,.26-.03.38-.08.9-.37,1.08-2.05.13-2.49h-.01Z"/><path class="uuid-799d1784-fd15-4e97-9ece-3c38cec3c2f6" d="M472.47,207.98c-.17-.13-.38-.21-.57-.29-1.11-.45-2.18-1.07-3.02-1.94-.92-.95-1.32-2.13-1.6-3.39-.55-2.53-.19-4.89.82-7.26.7-1.62,1.72-3.06,2.07-4.82.1-.49.15-.98.17-1.48.01-.33.07-.94-.22-1.18-.11-.09-.27-.1-.41-.09-.46.04-.79.34-1.2.5-.27.11-.54.18-.82.24-.63.14-1.28.2-1.92.16-.88-.06-2-.3-2.62-.96-.65-.68-1-1.54-1.39-2.38-.33-.7-.78-1.4-1.49-1.71-.55-.24-1.09-.13-1.65-.22-.52-.08-1-.41-1.39-.74-.95-.82-1.38-1.81-1.46-3.04-.08-1.2.02-2.46.71-3.48.09-.13.19-.26.33-.33.3-.15.68.04.88.32.19.28.26.62.38.94.21.56.73,1.01,1.33.65.42-.26.6-.78.64-1.28.13-1.59.06-3.22-.54-4.72-.13-.31-.28-.62-.45-.91-.09-.16-.25-.54-.45-.59-.14-.04-.28.08-.39.17-.52.42-1.19.62-1.85.73-.66.12-1.33.16-1.98.34-.16.04-.31.1-.43.21s-.18.26-.23.41c-.37.99-.53,2.04-.99,3-.42.88-1,1.68-1.69,2.36-.51.51-1.09.96-1.71,1.33-.31.19-.64.36-.97.51-.26.12-.76.42-1.04.29-.13-.06-.2-.19-.25-.32-.1-.29-.1-.6-.15-.91-.02-.1-.05-.22-.15-.26-.09-.04-.19.03-.27.08-.89.64-1.7,1.34-2.7,1.8-.41.19-.89.45-1.33.24-.43-.2-.57-.79-.38-1.22.11-.24.3-.44.46-.66.61-.8.82-1.88.57-2.85-.04-.14-.16-.44-.35-.42-.16.02-.23.32-.29.44-.11.27-.24.54-.37.81-.25.52-.53,1.02-.87,1.5-.61.85-1.54,1.85-2.6,2.12-3.84,1.01.5-3.03-1.17-4.71-.67,3.03-2.17,5.38-5.17,7.23-2.5,1.35-5.17,1.01-7.51-.17-1.17-.67-2.34-2.02-2.34-3.53.1-.94.49-1.54,1.48-1.25.79.23,1.81.86,2.59.31.21-.15.37-.35.5-.56.88-1.43.38-3.05-.51-4.33-.23-.34-.56-.69-.92-.9-.26-.15-.61-.2-.86-.03-.12.08-.2.2-.29.31-1.51,2.1-3.17,4.32-5.67,5.28-1.33.84-2.84.5-3.5-.17-.32-.32-.33-.94.12-1.15.12-.06.26-.09.39-.13.97-.3,1.5-1.16,1.97-2.01.5-.91,1.08-1.97,1.19-3.02.01-.13.02-.26-.03-.38-.07-.16-.29-.25-.44-.32-.09-.04-.19,0-.28.02-1.04.39-1.75,1.22-2.37,2.11-.37.53-.64,1.12-.91,1.71-.58,1.26-1.06,2.56-1.46,3.89-1,3.27-1.58,6.78-1.35,10.21-.01-.16.31-.54.38-.69.17-.32.32-.66.56-.95,1.35-1.58,4-1.84,5.89-1.4,1.24.11,2.47.9,3.35,1.74.84.79,1.84,2.25.38,3.01-.27.14-.56.15-.86.09-.68-.14-1.26-.6-1.9-.86-2.41-.96-5.65-.79-7.48,1.24-.93.71-.87,2.1-.81,3.14.09,1.45.21,2.91.3,4.36.23,3.75.32,7.51.58,11.26.26,3.75.69,7.53,1.6,11.19,1.17,4.71,5.51,8.92,10.01,10.26,1.14.3,2.29.53,3.43.8.6.14,1.21.29,1.72.64.29.2.54.46.77.73.16.18.28.39.43.58.23.29.6.5.92.69,1.36.8,2.95,1.13,4.49,1.39,2.88.5,5.96.69,8.83.09,3.72-.77,7.47-1.8,10.99-3.23,1.63-.66,3.22-1.43,4.73-2.34.77-.46,1.5-.97,2.24-1.49l1.22-.86c.37-.26.85-.51,1.17-.83,1-.71,2.02-1.39,2.93-2.21.98-.89,1.8-1.89,2.5-3.02.26-.42.57-.84.59-1.35.02-.98-.71-1.69-1.06-2.54-.83-2.02-.67-5.38,1.17-7.4.45-.5,2.47-1.31,1.3-2.18v.03ZM434,214.81c.16-.53.67-.78,1.2-.73s1.2.35,1.63.64c.33.22.8,1.15.13,1.32-.96.24-3.49.47-2.96-1.24h0ZM420.42,203.77c-.53-.81-.87-1.74-.92-2.71-.05-.82.25-1.28.43-2.02.17-.67,1-1.35.67-1.51-1.17.34-1.84,1.85-2,3.03-.17,1.35.67,3.2-.17,3.36-1.71-.12-1.82-3.13-2.17-4.33-.26-.92-.61-1.69-1.31-2.35-.82-.77.11-1.26.94-1.38.35-.05.67,0,1.01-.12.66-.21,1.23-.64,1.77-1.06,1.1-.86,2.26-1.96,3.76-1.86,2.67,0,4.84,1.01,6.68,2.86.83.67,2.17,3.7,1.34,6.06-.17.67-.83.84-1.33.84-1.03,1.56-2.47,2.82-4.38,3.07-1.69.22-3.37-.44-4.31-1.89h0ZM427.11,214.19c0-.54.32-1.12.47-1.64s.29-1.09.42-1.58c.27-.96.67-1.85,1.36-2.58.69-.73.66-1.39.98-2.28.18-.5.76-1.19,1.28-.5.44.6.14,1.78-.02,2.41-.35,1.31-1.44,2.22-1.7,3.53-.16.82-.01,1.67-.27,2.47-.1.29,1.64.8,1.86.99.44.37.43.7.21.95-.22.24-.63.41-1.02.45-.84.1-1.58-.21-2.38-.37-.83-.17-1.17-1.01-1.17-1.85h-.02ZM443.04,224.11c-.04.24-.18.44-.32.63-.26.37-.47.77-.73,1.14-.45.65-.93,1.28-1.47,1.86-.8.84-1.75,1.58-2.87,1.92-1.22.36-2.56.32-3.74-.14-1.11-.43-1.86-1.29-2.61-2.17-.43-.51-.85-1.03-1.31-1.51-.21-.22-.43-.42-.67-.61-.25-.2-.62-.3-.81-.56-.09-.12-.13-.26-.13-.41-.07-1.19,1.86-.94,2.57-1.48.56-.42.93-1.08,1.5-1.5.54-.4,1.4-.71,2.02-.31.48.3.68.91,1.12,1.25.41.33.66,0,.79-.38.13-.36.38-.5.77-.54.26-.03.52.03.76.11.55.19,1.04.54,1.51.88.48.35.9.72,1.48.91.54.18,1.17.32,1.74.38.06,0,.12.02.17.03.21.06.29.19.24.5h-.01ZM462.66,199.56c-.5,1.18-1.67,2.02-2.5,1.68-1-.5-1.84-1.68-2.67-2.52l-1-1.18c-.21-.24-1.07-1.15-1.47-.97-.36.16.63,1.15.75,1.3.48.59.81,1.28,1.19,1.94.46.81.9,1.63,1.37,2.44.21.32.16.83-.25.96-.16.05-.34.04-.51,0-.5-.08-1-.1-1.49.08-.46.17-.77.58-1.13.9-.43.38-.96.63-1.51.79-.56.16-1.14.22-1.72.2-.48,0-1.14-.03-1.57-.25-.91-.46-1.69-1.17-2.19-2.07-.24-.43-.41-.89-.53-1.36-.15-.61,0-1.17.11-1.77.05-.25.18-.54.08-.79-.29.55-.61,1.02-.75,1.65-.13.58-.14,1.2-.01,1.79.11.52.31,1.04.25,1.58,0,.03,0,.06-.03.09-.04.05-.11.06-.17.05-1.34-.09-1.69-1.55-1.96-2.62-.13-.52-.26-1.05-.49-1.54-.24-.51-.78-.86-.95-1.37-.25-.73-.27-1.79.3-2.37.86-.95,2.07-1.22,3.29-1.41.66-.1,1.32-.19,1.94-.42.58-.22,1.11-.53,1.63-.85,1.68-1.02,3.79-.33,5.28.7,1.27.89,2.46,2.07,3.36,3.33.03.04.06.09.09.13.09.13.19.26.32.35.72.53,1.72,0,2.49-.14,1.1-.19.68,1.01.45,1.66h0ZM462.91,192.96c-.54-.07-.78-.41-1.08-.81-.17-.23-.38-.46-.56-.66-.42-.46-.88-.9-1.36-1.29-.04-.03-.08-.06-.12-.1-1.33-1.04-2.89-1.76-4.55-2.1-.82-.17-1.67-.23-2.51-.2-1.47.06-2.77.3-4.1.93-.57.27-1.16.54-1.78.68-.44.1-.98.23-1.42.07-.47-.17-.62-.75-.6-1.2.01-.26.07-.51.18-.74.31-.65,1.04-1.05,1.62-1.41,1.39-.85,2.97-1.37,4.59-1.52,1.53-.14,3.33,0,4.75.63,3,1.35,6.34,3.36,7.68,6.73.22.55-.17,1.06-.75.98h.01Z"/></svg>