<?xml version="1.0" encoding="UTF-8"?><svg id="uuid-7704e5d1-23c1-4a3e-8699-7976fa3e545e" xmlns="http://www.w3.org/2000/svg" width="481.9" height="737" viewBox="0 0 481.9 737"><defs><style>.uuid-590ae1bc-d3d5-4e7b-a76f-9c102a90bdce{fill:#fff;}.uuid-6b9bc3ec-9f21-4a85-ae79-ba0cba95c8e6{fill:#ff8cfa;}</style></defs><polygon class="uuid-6b9bc3ec-9f21-4a85-ae79-ba0cba95c8e6" points="278.1 5.6 266.7 245 476.2 243.2 476.2 5.6 278.1 5.6"/><polygon class="uuid-6b9bc3ec-9f21-4a85-ae79-ba0cba95c8e6" points="84.6 430.8 132.4 464.7 219.2 436.4 219.5 253.6 146.4 255.8 144.8 306.7 115 258.3 5.7 261.2 5.7 507.6 86.9 480.2 84.6 430.8"/><polygon class="uuid-6b9bc3ec-9f21-4a85-ae79-ba0cba95c8e6" points="326.3 356.5 334.6 354.5 373.5 431 477.3 418.4 420.8 332.1 476.2 251 344.1 252.1 327.5 301 324.6 300.3 324.7 251.7 227.6 252.8 225.3 434.6 326.8 408.1 326.3 356.5"/><path class="uuid-6b9bc3ec-9f21-4a85-ae79-ba0cba95c8e6" d="M341.1,442.3l-10.6,289h89.1l-1.1-64.5,51.3-6.6,6.3-9v-216.6l-14.2-6.5-120.9,14.2h.1ZM412.2,570.7s-.8-53.4-.3-58.8l14.4-.9-.7,59.7h-13.4Z"/><path class="uuid-6b9bc3ec-9f21-4a85-ae79-ba0cba95c8e6" d="M252.9,5.6H5.7v249l163.1-5.7-5.7-50.3,83.4-5.4,15-11.8,8.5-160.2-17.1-15.6h0ZM165.9,134.5l-16.1,5.1-9-61.6,25.1-6.4v62.9Z"/><path class="uuid-6b9bc3ec-9f21-4a85-ae79-ba0cba95c8e6" d="M182.3,661.3l3.2-191.9-19.6-6.8L5.7,514.5v216.8h90l-.7-43.5,71.2-9.6,16.2-16.9h-.1ZM131,592.2l-38.2,10.4v-26.3l34.7-5.5,3.5,2.8v18.7-.1Z"/><path class="uuid-6b9bc3ec-9f21-4a85-ae79-ba0cba95c8e6" d="M243.3,651.5c-.4,1-.3,1.7-1.1,2.5s-1.2,1.8-1.5,2.9c-.2.5-.3,1.2-.5,1.8s-.5,1.2-.5,1.8c0,.9.4,1.9,1.3,2.1.9.2,1.7.5,2.7.4.4,0,.9-.2,1.1-.5.2-.3.3-.6-.2-1.1-.2-.2-2.2-.8-2.1-1.1.3-.9.1-1.8.3-2.7.3-1.5,1.5-2.5,1.9-3.9.2-.7.5-2,0-2.7-.6-.8-1.2,0-1.4.6v-.1Z"/><path class="uuid-6b9bc3ec-9f21-4a85-ae79-ba0cba95c8e6" d="M230.3,638.8c-.6.5-1.2.9-2,1.2-.4.1-.7,0-1.1.1-.9.1-2,.7-1,1.5.8.7,1.2,1.6,1.5,2.6.4,1.3.5,4.7,2.4,4.8.9-.2,0-2.2.2-3.7.2-1.3.9-3,2.2-3.4.4.2-.6.9-.7,1.7-.2.8-.5,1.3-.5,2.2,0,1.1.4,2.1,1,3,1,1.6,2.9,2.3,4.8,2.1,2.1-.3,3.7-1.7,4.9-3.4.6,0,1.3-.2,1.5-.9.9-2.6-.6-6-1.5-6.7-2-2.1-4.5-3.2-7.4-3.2-1.7-.1-3,1.1-4.2,2.1h-.1ZM241.5,642.7c-.4-.7-2-3-4.8-2.8,3.2-.4,4.5,1.7,4.8,2.8ZM236.9,643.4c.4,0,.9.2,1.3.4.7.6.7,1.5.6,2.1-.2.6-.6.7-1.1.7-.7-.2-1.7-.6-1.7-1.7s.4-1.3.9-1.5Z"/><path class="uuid-6b9bc3ec-9f21-4a85-ae79-ba0cba95c8e6" d="M250.6,662.5c.8-.2.2-1.2-.1-1.5-.5-.3-1.2-.7-1.8-.7s-1.1.2-1.3.8c-.6,1.9,2.2,1.6,3.3,1.4h-.1Z"/><path class="uuid-6b9bc3ec-9f21-4a85-ae79-ba0cba95c8e6" d="M260.1,633c.5.2,1.1,0,1.6,0,.7-.2,1.3-.5,2-.8,1.5-.7,2.9-1,4.6-1,.9,0,1.9,0,2.8.2,1.8.4,3.6,1.2,5.1,2.3l.1.1c.5.4,1,.9,1.5,1.4.2.2.4.5.6.7.3.4.6.8,1.2.9.6,0,1.1-.5.8-1.1-1.5-3.7-5.2-6-8.5-7.5-1.6-.7-3.6-.9-5.3-.7-1.8.2-3.6.7-5.1,1.7-.7.4-1.5.8-1.8,1.6-.1.3-.2.5-.2.8,0,.5.1,1.2.7,1.3l-.1.1Z"/><path class="uuid-6b9bc3ec-9f21-4a85-ae79-ba0cba95c8e6" d="M259,644.6c.3.5.4,1.1.5,1.7.3,1.2.7,2.8,2.2,2.9h.2c0-.6-.2-1.2-.3-1.8-.1-.7-.1-1.3,0-2,.2-.7.5-1.2.8-1.8.1.3,0,.6,0,.9-.1.7-.3,1.3-.1,2,.1.5.3,1,.6,1.5.6,1,1.4,1.8,2.4,2.3.5.2,1.2.3,1.7.3.6,0,1.3,0,1.9-.2s1.2-.5,1.7-.9c.4-.3.7-.8,1.3-1,.5-.2,1.1-.2,1.7,0h.6c.5-.1.5-.7.3-1.1-.5-.9-1-1.8-1.5-2.7-.4-.7-.8-1.5-1.3-2.2-.1-.2-1.2-1.3-.8-1.4.4-.2,1.4.8,1.6,1.1l1.1,1.3c.9.9,1.9,2.2,3,2.8.9.4,2.2-.6,2.8-1.9.3-.7.7-2.1-.5-1.8-.9.1-2,.7-2.8.2-.1-.1-.3-.2-.4-.4l-.1-.1c-1-1.4-2.3-2.7-3.7-3.7-1.7-1.1-4-1.9-5.9-.8-.6.4-1.2.7-1.8.9-.7.3-1.4.4-2.2.5-1.3.2-2.7.5-3.7,1.6-.6.6-.6,1.8-.3,2.6.2.6.8,1,1.1,1.5l-.1-.3ZM267.7,643.8c.4-.4,1.1-.7,1.7-.5,1.1.5.9,2.4-.1,2.8h-.4c-.3,0-.5,0-.8-.2-.2,0-.3-.2-.5-.3-.5-.6-.3-1.4.1-1.9v.1Z"/><path class="uuid-6b9bc3ec-9f21-4a85-ae79-ba0cba95c8e6" d="M194.9,703.7c.7-1,2.4-2.9,3.7-4.2.7-.7,2-1.5,2.7-2.1,1.6-1.1,3.1-2.2,4.8-3.1,3.2-1.9,6.7-3.6,10.3-4.6,1.7-.5,3.4-.8,5.1-1,1.9-.2,3.8-.2,5.7-.2.4,0,1.7-.1,1.7.6s0,.3-.1.4c-1.2,3-1.8,7-.4,10.1.2.5.5,1,.9,1.5,2.3,2.8,6.6,3.4,10,2.8,1.1-.2,2.2-.5,3.3-.9,1.8-.7,3.5-1.5,5.2-2.3.3-.2,1,1.4,1.2,1.7.4.6.8,1.2,1.4,1.5.6.4,1.4.5,2.1.4.7,0,1.4-.4,2-.9.5-.4.9-.9,1.2-1.5.2-.6.3-1.2.7-1.6,0,0,.1-.1.2-.1s.2,0,.3.1c.6.5,1.1,1,1.7,1.4.7.5,1.4,1,2.2,1.5,1.5.9,3.1,1.7,4.7,2.2,3.3,1.1,6.8,1.5,10.3,1,1-.2,2-.4,3-.7s2-.8,3-1.1c3.5-1.3,7.1-3.7,9.8-6.7,3.3-2.6,5.2-8.2,10.8-6.7,6.7,1.7,13.5,6.2,17.1,12.5.4.7,3.1,4.9,5.4,12.1l9.3-289.7-11.7-8.4-119.7,30-10.3,15.7-4.8,254.2c1.1-3.9,2.5-6.8,4-8.9,3-4.3,2.7-3.9,3.4-4.9h0l-.2-.1ZM249.5,690.8l-9.6,8.4c-2.7,1.2-7.1,1-7.9-2.6-.4-1.8.3-3.6,1-5.2,1.1-2.4,2.6-4.6,4.6-6.4.5-.5,1.1-.9,1.8-.9,1.1-.1,2.3.6,3.3,1.1,1.2.5,2.4,1,3.7,1.5.9.4,1.8.7,2.5,1.4.7.6,1.4,1.9.7,2.8l-.1-.1ZM251.8,700c-.2.1-.4.2-.6.2h-.2l-.1-.1s-.2-.2-.3-.3c-.5-.5-.2-1.5.4-1.7.3,0,.6,0,.7.2.1.2.2.4.2.6v.5c0,.2,0,.4-.2.5l.1.1ZM289.8,691.5c-.4,1.2-1.1,2.2-1.8,3.2-.4.6-.9,1.1-1.4,1.6-2.1,2.2-4.7,4-7.5,5.3-3.5,1.6-7.7,1.9-11.4,1-1.2-.3-2.3-.8-3.4-1.4-1.5-1-2.7-2.4-3.7-4-.5-.7-.9-1.5-1.3-2.3-.3-.5-.5-1.1-.6-1.7,0-.4-.1-.7,0-1.1,0-.2.1-.4.3-.5.1-.1.3-.1.5-.2,1.6-.4,3.1-.8,4.6-1.4,1.8-.6,3.5-1.4,5.3-2.1,3.1-1.4,6-3,8.9-4.8,1-.6,2-1.3,3-2,.7-.5,1.2-1.1,2-1.5.1,0,.3-.1.5-.1.4,0,.8.2,1.1.4.4.2.7.4,1.1.6.7.4,1.3,1,1.8,1.5,2.3,2.5,3.5,6.3,2.3,9.6l-.3-.1ZM234.3,630c-1-.9-2.3-1.8-3.7-1.9-2.1-.5-5.1-.2-6.6,1.6-.3.3-.4.7-.6,1.1,0,.2-.4.6-.4.8-.3-3.8.4-7.7,1.5-11.3.5-1.5,1-2.9,1.6-4.3.3-.7.6-1.3,1-1.9.7-1,1.5-1.9,2.6-2.4h.3c.2,0,.4.2.5.4v.4c-.1,1.2-.8,2.3-1.3,3.4-.5.9-1.1,1.9-2.2,2.2-.1,0-.3,0-.4.1-.5.2-.5.9-.1,1.3.7.7,2.4,1.1,3.9.2,2.8-1.1,4.6-3.5,6.3-5.9,0-.1.2-.3.3-.3.3-.2.7-.1,1,0,.4.2.8.6,1,1,1,1.4,1.6,3.2.6,4.8-.1.2-.3.5-.6.6-.9.6-2,0-2.9-.3-1.1-.3-1.5.4-1.6,1.4,0,1.7,1.3,3.2,2.6,3.9,2.6,1.3,5.6,1.7,8.4.2,3.3-2.1,5-4.7,5.8-8,1.9,1.9-3,6.4,1.3,5.2,1.2-.3,2.2-1.4,2.9-2.4.4-.5.7-1.1,1-1.7.1-.3.3-.6.4-.9,0-.1.1-.5.3-.5s.3.3.4.5c.3,1.1,0,2.3-.6,3.2-.2.2-.4.5-.5.7-.2.5,0,1.1.4,1.4.5.2,1,0,1.5-.3,1.1-.5,2-1.3,3-2,0,0,.2-.1.3,0,.1,0,.1.2.2.3,0,.3,0,.7.2,1,0,.1.1.3.3.4.3.1.9-.2,1.2-.3.4-.2.7-.4,1.1-.6.7-.4,1.3-.9,1.9-1.5.8-.8,1.4-1.7,1.9-2.6.5-1.1.7-2.2,1.1-3.3,0-.2.1-.3.3-.5.1-.1.3-.2.5-.2.7-.2,1.5-.3,2.2-.4.7-.1,1.5-.3,2.1-.8.1-.1.3-.2.4-.2.2,0,.4.5.5.7.2.3.4.7.5,1,.7,1.7.8,3.5.6,5.2,0,.5-.2,1.1-.7,1.4-.7.4-1.2,0-1.5-.7-.1-.4-.2-.7-.4-1-.2-.3-.6-.5-1-.4-.2,0-.3.2-.4.4-.8,1.1-.9,2.5-.8,3.9,0,1.4.6,2.5,1.6,3.4.4.4,1,.7,1.5.8.6,0,1.2,0,1.8.2.8.3,1.3,1.1,1.7,1.9.4.9.8,1.9,1.5,2.6.7.7,1.9,1,2.9,1.1.7,0,1.4,0,2.1-.2.3,0,.6-.1.9-.3.5-.2.8-.5,1.3-.6.2,0,.3,0,.5.1.3.3.3.9.2,1.3,0,.6,0,1.1-.2,1.6-.4,2-1.5,3.6-2.3,5.4-1.1,2.6-1.5,5.3-.9,8.1.3,1.4.8,2.7,1.8,3.8.9,1,2.1,1.7,3.4,2.2.2,0,.4.2.6.3,1.3,1-.9,1.9-1.4,2.4-2,2.2-2.2,6-1.3,8.2.4.9,1.2,1.7,1.2,2.8,0,.6-.4,1-.7,1.5-.8,1.3-1.7,2.4-2.8,3.4-1,.9-2.1,1.7-3.3,2.5-.4.4-.9.6-1.3.9-.5.3-.9.6-1.4,1-.8.6-1.6,1.1-2.5,1.7-1.7,1-3.4,1.9-5.3,2.6-3.9,1.6-8.1,2.7-12.2,3.6-3.2.7-6.6.4-9.8-.1-1.7-.3-3.5-.7-5-1.5-.3-.2-.8-.4-1-.8-.2-.2-.3-.4-.5-.6-.3-.3-.5-.6-.9-.8-.6-.4-1.2-.6-1.9-.7-1.3-.3-2.6-.6-3.8-.9-5-1.5-9.8-6.2-11.1-11.4-1-4.1-1.5-8.3-1.8-12.4-.3-4.2-.4-8.3-.6-12.5,0-1.6-.2-3.2-.3-4.8,0-1.2-.1-2.7.9-3.5,2-2.3,5.6-2.4,8.3-1.4.7.3,1.4.8,2.1,1,.3,0,.7,0,1-.1,1.6-.8.5-2.5-.4-3.3h0l-.2-.6Z"/><path class="uuid-6b9bc3ec-9f21-4a85-ae79-ba0cba95c8e6" d="M243.9,670c-.8.6-2.9.3-2.9,1.6,0,.2,0,.3.1.5.2.3.6.4.9.6.3.2.5.4.7.7.5.5,1,1.1,1.5,1.7.8,1,1.7,1.9,2.9,2.4,1.3.5,2.8.6,4.2.2,1.3-.4,2.3-1.2,3.2-2.1.6-.6,1.1-1.3,1.6-2.1.3-.4.5-.9.8-1.3.1-.2.3-.4.4-.7,0-.3,0-.5-.3-.6h-.2c-.6,0-1.3-.2-1.9-.4-.6-.2-1.1-.6-1.6-1s-1.1-.8-1.7-1c-.3,0-.6-.2-.8-.1-.4,0-.7.2-.9.6-.1.4-.4.8-.9.4-.5-.4-.7-1.1-1.2-1.4-.7-.4-1.7,0-2.2.3-.6.5-1,1.2-1.7,1.7h0ZM246.4,672.8c.4-.5,1,0,1.4.2.2.1.4.3.6.4.3.2.5.1.8.1.6,0,1.5-.7,1.9.2,0,.7-.7.9-1.3.9-.7,0-1.4-.2-2.1-.5-.2,0-.4-.1-.5-.2-.5-.2-1.2-.6-.7-1.2l-.1.1Z"/><path class="uuid-6b9bc3ec-9f21-4a85-ae79-ba0cba95c8e6" d="M284.6,721.2c.3-.9.6-1.9,1-2.8.3-.9.9-1.9.5-2.8,0-.3-.3-.5-.6-.5h-.2s-.2,0-.3.1c-1.2.8-1.8,2.6-2.5,3.8-.5.9-.9,1.8-1.3,2.8-1.6,3.7-2.3,5.9-3.4,9.6h3.9c0-.5.2-.9.3-1.4.6-2.9,1.6-5.8,2.5-8.7l.1-.1Z"/><path class="uuid-6b9bc3ec-9f21-4a85-ae79-ba0cba95c8e6" d="M243.9,721.2c-.4-.3-.9-.6-1.3-.8-.3-.1-.7-.1-1.1,0-.8.1-1.6.6-2.1,1.2-.8.9-1.1,2-1,3.2s.8,2.2,1.8,2.9c.9.6,1.8,1,2.9.9,1.4-.2,2.5-1.4,2.9-2.7.1-.9.1-2-.3-2.8-.4-.8-1.1-1.3-1.8-1.7v-.2ZM242,723.4c0,.3-.3,1.2-.7,1.4-.2.1-.4.1-.7-.2-.2-.2-.2-.4-.3-.6,0-.3,0-.7.1-.9.1-.3.4-.5.7-.6.6,0,.9.3.7.8l.2.1Z"/><path class="uuid-6b9bc3ec-9f21-4a85-ae79-ba0cba95c8e6" d="M217.3,710.3c.2-.2.4-.4.6-.6,1.4-1.5,2.8-3,4.1-4.6,0-.1.2-.2.2-.4,0-.3-.4-.4-.7-.4-.7-.1-1.2.3-1.6.7-.5.5-1,1.1-1.6,1.6-.6.6-1.3,1.3-1.9,1.9-.3.3-.7.6-1,.9-.3.2-.7.7-1,.8,0,0-.2,0-.2-.1v-.2c.4-3.4,2.4-6.2,3.5-9.4h0v-.4c0-.4-.7-.6-1.1-.5-1.1.3-1.6,1.8-2.1,2.7-2,3.7-3.8,7.5-5.9,11.2-.4.8-.8,1.6-1.2,2.4-.2.4-.4.8-.6,1.2-.1.3-.2.5-.3.7-1.8,4.4-3.6,11.4-4.2,13.5h5.9c.7-4.4,2.4-11.4,4.9-15.5,1.4-1.9,2.7-3.8,4.3-5.5h-.1Z"/><path class="uuid-590ae1bc-d3d5-4e7b-a76f-9c102a90bdce" d="M237.6,646.6c.6,0,.9-.2,1.1-.7.2-.6.2-1.5-.6-2.1-.4-.2-.9-.4-1.3-.4-.6.2-.9.7-.9,1.5,0,1.1.9,1.5,1.7,1.7Z"/><path class="uuid-590ae1bc-d3d5-4e7b-a76f-9c102a90bdce" d="M247.1,673.9c.2,0,.4.1.5.2.7.2,1.3.5,2.1.5.6,0,1.4-.1,1.3-.9-.4-.9-1.3-.2-1.9-.2-.3,0-.5,0-.8-.1-.2-.1-.4-.3-.6-.4-.4-.3-.9-.7-1.4-.2-.5.6.2,1,.7,1.2l.1-.1Z"/><path class="uuid-590ae1bc-d3d5-4e7b-a76f-9c102a90bdce" d="M241.5,642.7c-.4-1.1-1.7-3.2-4.8-2.8,2.8-.2,4.5,2.1,4.8,2.8Z"/><path class="uuid-590ae1bc-d3d5-4e7b-a76f-9c102a90bdce" d="M285.8,680.4c-.3-.2-.7-.4-1.1-.6-.3-.1-.7-.4-1.1-.4-.2,0-.3,0-.5.1-.8.4-1.3,1-2,1.5-1,.7-2,1.4-3,2-2.8,1.8-5.8,3.4-8.9,4.8-1.7.8-3.5,1.5-5.3,2.1-1.5.5-3.1,1-4.6,1.4-.2,0-.3,0-.5.2-.2.1-.3.3-.3.5v1.1c.1.6.4,1.1.6,1.7.4.8.9,1.6,1.3,2.3,1,1.5,2.2,3,3.7,4,1,.7,2.2,1.1,3.4,1.4,3.7.9,7.9.6,11.4-1,2.8-1.3,5.4-3.1,7.5-5.3.5-.5.9-1,1.4-1.6.8-1,1.4-2,1.8-3.2,1.2-3.3,0-7-2.3-9.6-.5-.6-1.1-1.1-1.8-1.5l.3.1Z"/><path class="uuid-590ae1bc-d3d5-4e7b-a76f-9c102a90bdce" d="M246.4,686.6c-1.2-.5-2.4-1-3.7-1.5-1-.4-2.2-1.2-3.3-1.1-.7,0-1.3.5-1.8.9-2,1.8-3.5,4-4.6,6.4-.7,1.6-1.4,3.5-1,5.2.8,3.5,5.1,3.7,7.9,2.6l9.6-8.4c.7-.8,0-2.2-.7-2.8s-1.6-1-2.5-1.4l.1.1Z"/><path class="uuid-590ae1bc-d3d5-4e7b-a76f-9c102a90bdce" d="M241.3,722.5c-.3,0-.6.3-.7.6-.1.3-.2.6-.1.9,0,.2.1.5.3.6.3.3.5.3.7.2.4-.2.6-1.1.7-1.4.1-.5-.2-.9-.7-.8l-.2-.1Z"/><path class="uuid-590ae1bc-d3d5-4e7b-a76f-9c102a90bdce" d="M324.5,721.6l.2-5.9c-2.3-7.2-5-11.4-5.4-12.1-3.5-6.4-10.4-10.8-17.1-12.5-5.6-1.5-7.4,4.1-10.8,6.7-2.8,3-6.3,5.4-9.8,6.7-1,.4-1.9.8-3,1.1-1,.3-2,.5-3,.7-3.5.5-7,.1-10.3-1-1.7-.6-3.2-1.3-4.7-2.2-.8-.5-1.5-1-2.2-1.5-.6-.4-1.1-.9-1.7-1.4,0,0-.2-.2-.3-.1,0,0-.2,0-.2.1-.4.5-.5,1.1-.7,1.6-.2.6-.7,1.1-1.2,1.5-.6.5-1.3.8-2,.9-.7,0-1.5,0-2.1-.4s-1-1-1.4-1.5c-.2-.3-.8-1.9-1.2-1.7-1.7.8-3.4,1.6-5.2,2.3-1.1.4-2.2.7-3.3.9-3.4.6-7.7,0-10-2.8-.4-.4-.7-1-.9-1.5-1.4-3.1-.8-7.1.4-10.1,0-.1.1-.3.1-.4,0-.7-1.2-.6-1.7-.6-1.9,0-3.8,0-5.7.2-1.7.2-3.4.6-5.1,1-3.6,1-7.1,2.7-10.3,4.6-1.6,1-3.2,2-4.8,3.1-.8.6-2.1,1.4-2.7,2.1-1.3,1.3-3,3.1-3.7,4.2-.7,1-.4.6-3.4,4.9-1.5,2.2-2.9,5-4,8.9v4.1l7,9.7h7.8c.5-2.2,2.4-9.1,4.2-13.5,0-.2.2-.4.3-.7.2-.5.4-.9.6-1.2.4-.8.8-1.6,1.2-2.4,2.1-3.7,3.9-7.5,5.9-11.2.5-.9,1-2.4,2.1-2.7.4,0,1,.1,1.1.5v.4h0c-1,3.2-3,6-3.5,9.4v.2s.1.1.2.1c.4,0,.8-.5,1-.8.4-.3.7-.6,1-.9.7-.6,1.3-1.2,1.9-1.9.5-.5,1-1.1,1.6-1.6.4-.5.9-.8,1.6-.7.2,0,.7.1.7.4,0,.1-.1.3-.2.4-1.3,1.6-2.7,3.1-4.1,4.6-.2.2-.4.4-.6.6-1.6,1.8-2.9,3.6-4.3,5.5-2.4,4-4.2,11.1-4.9,15.5h69.7c1.1-3.6,1.8-5.9,3.4-9.6.4-.9.8-1.9,1.3-2.8.6-1.2,1.2-3,2.5-3.8,0,0,.2,0,.3-.1h.2c.3,0,.5.3.6.5.3.9-.2,2-.5,2.8-.3.9-.7,1.9-1,2.8-1,2.8-1.9,5.8-2.5,8.7-.1.5-.2.9-.3,1.4h32.7l10-9.7.2.2ZM246,725.8c-.4,1.3-1.5,2.5-2.9,2.7-1.1.2-2-.3-2.9-.9-1-.7-1.6-1.6-1.8-2.9-.1-1.1.2-2.3,1-3.2.5-.6,1.3-1.1,2.1-1.2h1.1c.5.2.9.5,1.3.8.7.5,1.4,1,1.8,1.7.4.9.4,1.9.3,2.8v.2Z"/><path class="uuid-590ae1bc-d3d5-4e7b-a76f-9c102a90bdce" d="M251.7,698.3c-.2-.3-.5-.3-.7-.2-.6.2-.9,1.2-.4,1.7,0,0,.2.2.3.3l.1.1h.2c.2,0,.4,0,.6-.2.1-.1.2-.3.2-.5v-.5c0-.2,0-.5-.2-.6l-.1-.1Z"/><path class="uuid-590ae1bc-d3d5-4e7b-a76f-9c102a90bdce" d="M268,646c.2.1.5.2.8.2h.4c1-.4,1.2-2.3.1-2.8-.6-.3-1.3,0-1.7.5-.4.5-.6,1.3-.1,1.9.1.1.3.2.5.3v-.1Z"/><path class="uuid-590ae1bc-d3d5-4e7b-a76f-9c102a90bdce" d="M234.7,633.4c-.3.2-.6.2-1,.1-.8-.2-1.4-.7-2.1-1-2.7-1.1-6.3-.9-8.3,1.4-1,.8-1,2.3-.9,3.5.1,1.6.2,3.2.3,4.8.3,4.2.4,8.4.6,12.5.3,4.2.8,8.4,1.8,12.4,1.3,5.2,6.1,9.9,11.1,11.4,1.3.3,2.5.6,3.8.9.7.2,1.3.3,1.9.7.3.2.6.5.9.8.2.2.3.4.5.6.3.3.7.6,1,.8,1.5.9,3.3,1.3,5,1.5,3.2.6,6.6.8,9.8.1,4.1-.9,8.3-2,12.2-3.6,1.8-.7,3.6-1.6,5.3-2.6.9-.5,1.7-1.1,2.5-1.7.5-.3.9-.6,1.4-1,.4-.3.9-.6,1.3-.9,1.1-.8,2.2-1.5,3.3-2.5,1.1-1,2-2.1,2.8-3.4.3-.5.6-.9.7-1.5,0-1.1-.8-1.9-1.2-2.8-.9-2.2-.7-6,1.3-8.2.5-.6,2.7-1.5,1.4-2.4-.2-.1-.4-.2-.6-.3-1.2-.5-2.4-1.2-3.4-2.2-1-1.1-1.5-2.4-1.8-3.8-.6-2.8-.2-5.4.9-8.1.8-1.8,1.9-3.4,2.3-5.4.1-.5.2-1.1.2-1.6,0-.4,0-1-.2-1.3-.1,0-.3-.1-.5-.1-.5,0-.9.4-1.3.6-.3.1-.6.2-.9.3-.7.2-1.4.2-2.1.2-1,0-2.2-.3-2.9-1.1-.7-.8-1.1-1.7-1.5-2.6-.4-.8-.9-1.6-1.7-1.9-.6-.3-1.2-.1-1.8-.2-.6,0-1.1-.5-1.5-.8-1.1-.9-1.5-2-1.6-3.4,0-1.3,0-2.7.8-3.9,0-.1.2-.3.4-.4.3-.2.8,0,1,.4.2.3.3.7.4,1,.2.6.8,1.1,1.5.7.5-.3.7-.9.7-1.4.1-1.8,0-3.6-.6-5.2-.1-.3-.3-.7-.5-1-.1-.2-.3-.6-.5-.7-.2,0-.3,0-.4.2-.6.5-1.3.7-2.1.8-.7.1-1.5.2-2.2.4-.2,0-.3.1-.5.2-.1.1-.2.3-.3.5-.4,1.1-.6,2.3-1.1,3.3s-1.1,1.9-1.9,2.6c-.6.6-1.2,1.1-1.9,1.5-.3.2-.7.4-1.1.6-.3.1-.8.5-1.2.3-.1,0-.2-.2-.3-.4-.1-.3-.1-.7-.2-1,0-.1,0-.2-.2-.3h-.3c-1,.7-1.9,1.5-3,2-.5.2-1,.5-1.5.3s-.6-.9-.4-1.4c.1-.3.3-.5.5-.7.7-.9.9-2.1.6-3.2,0-.2-.2-.5-.4-.5s-.3.4-.3.5c-.1.3-.3.6-.4.9-.3.6-.6,1.1-1,1.7-.7,1-1.7,2.1-2.9,2.4-4.3,1.1.6-3.4-1.3-5.2-.7,3.4-2.4,6-5.8,8-2.8,1.5-5.8,1.1-8.4-.2-1.3-.7-2.6-2.2-2.6-3.9.1-1,.5-1.7,1.6-1.4.9.3,2,1,2.9.3.2-.2.4-.4.6-.6,1-1.6.4-3.4-.6-4.8-.3-.4-.6-.8-1-1-.3-.2-.7-.2-1,0-.1,0-.2.2-.3.3-1.7,2.3-3.5,4.8-6.3,5.9-1.5.9-3.2.6-3.9-.2-.4-.4-.4-1,.1-1.3.1,0,.3-.1.4-.1,1.1-.3,1.7-1.3,2.2-2.2.6-1,1.2-2.2,1.3-3.4v-.4c0-.2-.3-.3-.5-.4h-.3c-1.2.4-1.9,1.4-2.6,2.4-.4.6-.7,1.2-1,1.9-.6,1.4-1.2,2.9-1.6,4.3-1.1,3.6-1.8,7.5-1.5,11.3,0-.2.3-.6.4-.8.2-.4.4-.7.6-1.1,1.5-1.8,4.4-2,6.6-1.6,1.4.1,2.7,1,3.7,1.9.9.9,2,2.5.4,3.3h0l.2.6ZM259.6,630.9c.3-.7,1.2-1.2,1.8-1.6,1.5-.9,3.3-1.5,5.1-1.7,1.7-.2,3.7,0,5.3.7,3.3,1.5,7.1,3.7,8.5,7.5.2.6-.2,1.2-.8,1.1-.6,0-.9-.5-1.2-.9-.2-.3-.4-.5-.6-.7-.5-.5-1-1-1.5-1.4l-.1-.1c-1.5-1.2-3.2-2-5.1-2.3-.9-.2-1.9-.3-2.8-.2-1.6,0-3.1.3-4.6,1-.6.3-1.3.6-2,.8-.5.1-1.1.3-1.6,0-.5-.2-.7-.8-.7-1.3,0-.3,0-.6.2-.8l.1-.1ZM258.2,640.5c1-1.1,2.3-1.4,3.7-1.6.7-.1,1.5-.2,2.2-.5.6-.2,1.2-.6,1.8-.9,1.9-1.1,4.2-.4,5.9.8,1.4,1,2.7,2.3,3.7,3.7l.1.1c0,.1.2.3.4.4.8.6,1.9,0,2.8-.2,1.2-.2.8,1.1.5,1.8-.6,1.3-1.9,2.2-2.8,1.9-1.1-.6-2-1.9-3-2.8l-1.1-1.3c-.2-.3-1.2-1.3-1.6-1.1s.7,1.3.8,1.4c.5.7.9,1.4,1.3,2.2.5.9,1,1.8,1.5,2.7.2.4.2.9-.3,1.1h-.6c-.6,0-1.1-.1-1.7,0-.5.2-.9.6-1.3,1-.5.4-1.1.7-1.7.9s-1.3.2-1.9.2c-.5,0-1.3,0-1.7-.3-1-.5-1.9-1.3-2.4-2.3-.3-.5-.5-1-.6-1.5-.2-.7,0-1.3.1-2,0-.3.2-.6,0-.9-.3.6-.7,1.1-.8,1.8-.1.6-.2,1.3,0,2,.1.6.3,1.2.3,1.8h-.2c-1.5,0-1.9-1.7-2.2-2.9-.1-.6-.3-1.2-.5-1.7-.3-.6-.9-1-1.1-1.5-.3-.8-.3-2,.3-2.6l.1.3ZM247.3,661.2c.2-.6.7-.9,1.3-.8.6,0,1.3.4,1.8.7.4.2.9,1.3.1,1.5-1.1.3-3.9.5-3.3-1.4h.1ZM245.6,668.3c.6-.4,1.6-.8,2.2-.3.5.3.8,1,1.2,1.4.5.4.7,0,.9-.4.1-.4.4-.6.9-.6.3,0,.6,0,.8.1.6.2,1.2.6,1.7,1s1,.8,1.6,1,1.3.4,1.9.4h.2c.2,0,.3.2.3.6,0,.3-.2.5-.4.7-.3.4-.5.9-.8,1.3-.5.7-1,1.4-1.6,2.1-.9.9-1.9,1.8-3.2,2.1-1.4.4-2.8.4-4.2-.2-1.2-.5-2.1-1.4-2.9-2.4-.5-.6-.9-1.1-1.5-1.7-.2-.2-.5-.5-.7-.7-.3-.2-.7-.3-.9-.6,0-.1-.1-.3-.1-.5,0-1.3,2.1-1.1,2.9-1.6.6-.5,1-1.2,1.7-1.7h0ZM244.7,650.9c.5.7.2,2,0,2.7-.4,1.5-1.6,2.5-1.9,3.9-.2.9,0,1.9-.3,2.7-.1.3,1.8.9,2.1,1.1.5.4.5.8.2,1.1-.2.3-.7.5-1.1.5-.9.1-1.8-.2-2.7-.4s-1.3-1.1-1.3-2.1.4-1.2.5-1.8c.2-.6.3-1.2.5-1.8.3-1.1.7-2.1,1.5-2.9.8-.8.7-1.5,1.1-2.5.2-.6.8-1.3,1.4-.6v.1ZM241.9,639.9c.9.7,2.4,4.1,1.5,6.7-.2.7-.9.9-1.5.9-1.1,1.7-2.7,3.1-4.9,3.4-1.9.2-3.7-.5-4.8-2.1-.6-.9-1-1.9-1-3,0-.9.3-1.4.5-2.2.2-.7,1.1-1.5.7-1.7-1.3.4-2,2.1-2.2,3.4-.2,1.5.7,3.6-.2,3.7-1.9-.1-2-3.5-2.4-4.8-.3-1-.7-1.9-1.5-2.6-.9-.9.1-1.4,1-1.5.4,0,.7,0,1.1-.1.7-.2,1.4-.7,2-1.2,1.2-1,2.5-2.2,4.2-2.1,3,0,5.4,1.1,7.4,3.2h.1Z"/></svg>