<?xml version="1.0" standalone="no"?>
<!DOCTYPE svg PUBLIC "-//W3C//DTD SVG 20010904//EN"
 "http://www.w3.org/TR/2001/REC-SVG-20010904/DTD/svg10.dtd">
<svg version="1.0" xmlns="http://www.w3.org/2000/svg"
 width="576.000000pt" height="576.000000pt" viewBox="0 0 576.000000 576.000000"
 preserveAspectRatio="xMidYMid meet">
<metadata>
Created by potrace 1.14, written by Peter Selinger 2001-2017
</metadata>
<g transform="translate(0.000000,576.000000) scale(0.100000,-0.100000)"
fill="#000000" stroke="none">
<path d="M1139 5756 c-2 -2 -26 -6 -54 -10 -27 -3 -75 -10 -105 -16 -30 -6
-64 -13 -75 -15 -11 -1 -42 -8 -70 -15 -27 -6 -57 -13 -65 -15 -37 -7 -196
-58 -203 -65 -4 -4 7 -13 25 -20 191 -75 330 -177 378 -278 36 -73 36 -74 34
-134 -3 -98 -58 -227 -97 -229 -12 0 -29 -2 -37 -4 -39 -8 -88 -17 -115 -21
-16 -2 -41 -6 -55 -9 -14 -3 -41 -8 -60 -11 -19 -3 -42 -7 -50 -10 -8 -3 -35
-7 -59 -10 -57 -6 -62 -11 -31 -36 84 -68 121 -101 189 -168 74 -73 161 -172
161 -184 0 -3 13 -26 30 -52 65 -104 92 -272 63 -402 -8 -37 -15 -71 -16 -77
-2 -5 -5 -14 -8 -20 -4 -5 -12 -28 -19 -50 -28 -88 -180 -354 -203 -356 -20
-1 -147 -8 -240 -12 -48 -3 -90 -7 -93 -10 -3 -3 3 -13 14 -23 11 -11 45 -53
76 -94 30 -41 59 -80 64 -86 5 -6 37 -56 71 -112 55 -92 87 -154 134 -262 16
-36 55 -160 63 -195 2 -11 6 -31 9 -45 16 -75 20 -118 19 -245 0 -149 -17
-256 -58 -375 -25 -71 -61 -156 -76 -180 -5 -8 -19 -33 -31 -55 -40 -73 -102
-161 -194 -274 -11 -13 -64 -69 -118 -123 -53 -55 -97 -101 -97 -103 0 -6 227
7 330 20 88 11 137 18 155 21 11 2 34 7 50 9 17 3 73 15 125 26 52 11 103 22
113 24 10 2 27 7 37 10 10 3 27 8 37 10 48 10 182 51 322 96 156 51 226 76
561 199 182 67 483 168 517 175 10 2 18 4 18 6 0 1 9 3 20 4 11 2 45 10 75 18
30 9 82 20 115 26 33 6 71 13 85 16 112 23 352 24 470 1 83 -16 164 -38 205
-56 11 -5 50 -23 88 -39 64 -28 225 -129 257 -161 8 -8 36 -32 61 -52 l45 -37
50 48 c28 27 68 70 90 97 21 27 41 51 44 54 11 10 86 136 107 180 12 25 34 83
49 129 25 77 30 85 71 110 386 228 702 517 863 790 39 66 96 199 104 242 3 13
5 24 7 24 2 0 3 8 17 96 23 151 -21 370 -98 489 -8 14 -22 37 -29 52 -8 15
-22 37 -33 47 -10 11 -18 23 -18 26 0 16 -198 219 -250 255 -19 13 -42 31 -50
39 -59 58 -368 235 -555 318 -156 69 -563 214 -635 226 -14 2 -32 7 -40 10
-39 16 -427 108 -550 130 -60 11 -106 20 -125 24 -11 2 -31 6 -45 8 -35 5 -90
14 -120 20 -61 11 -97 17 -128 20 -18 2 -36 7 -41 10 -5 3 -12 1 -15 -4 -3 -5
11 -12 31 -16 67 -12 397 -125 501 -171 70 -31 327 -157 332 -163 3 -3 21 -15
40 -25 142 -77 315 -211 455 -351 212 -211 337 -403 431 -662 18 -51 31 -93
28 -93 -2 0 0 -8 5 -19 6 -10 13 -33 16 -52 3 -19 8 -42 11 -52 6 -19 7 -26
21 -127 14 -109 7 -436 -12 -492 -2 -7 -6 -31 -9 -53 -3 -22 -10 -56 -16 -75
-6 -19 -13 -51 -16 -70 -3 -19 -9 -39 -12 -45 -4 -5 -7 -16 -8 -24 -4 -24 -59
-171 -64 -171 -3 0 -6 35 -6 78 -6 371 -196 723 -529 980 -32 24 -151 95 -215
127 -41 21 -77 39 -79 41 -2 2 10 25 26 51 73 120 101 221 98 344 -8 225 -154
437 -429 623 -73 49 -323 176 -348 176 -8 0 -18 4 -24 8 -5 5 -40 18 -79 31
-38 13 -77 25 -85 28 -16 7 -23 8 -60 17 -14 3 -62 15 -107 26 -46 11 -101 22
-124 25 -22 3 -50 7 -62 10 -79 18 -237 29 -422 29 -161 -1 -226 -4 -360 -19
-22 -2 -71 -7 -110 -10 -38 -3 -83 -8 -100 -10 -16 -2 -61 -6 -100 -10 -38 -3
-89 -8 -112 -11 -24 -2 -43 -2 -43 0 0 5 253 130 345 171 179 78 366 94 492
42 34 -14 68 -30 75 -36 7 -6 35 -27 61 -47 l48 -36 -5 102 c-3 55 -8 105 -11
110 -3 6 -8 20 -10 32 -10 50 -75 167 -123 219 -82 89 -240 174 -365 194 -23
4 -51 10 -62 13 -22 5 -361 13 -366 8z m1784 -1760 c15 -3 37 -8 50 -10 22 -4
41 -10 75 -23 9 -3 19 -7 22 -8 54 -16 172 -91 230 -147 38 -36 110 -122 110
-130 0 -3 -12 -6 -27 -5 -16 0 -86 -3 -158 -7 -252 -12 -311 -15 -425 -21 -63
-3 -146 -7 -185 -10 -75 -4 -299 -16 -405 -20 -259 -12 -333 -16 -390 -20 -65
-4 -208 -11 -433 -21 -66 -2 -122 -5 -125 -5 -49 -7 -2 13 168 71 113 38 214
74 225 80 82 40 644 224 725 236 19 3 43 10 53 15 9 5 17 8 17 5 0 -2 17 0 38
5 20 4 62 11 92 14 30 4 56 8 58 9 5 6 256 -2 285 -8z"/>
<path d="M5360 2430 c-8 -5 -17 -7 -21 -4 -10 6 -88 -86 -114 -134 -34 -63
-88 -146 -107 -163 -10 -9 -18 -19 -18 -23 0 -11 -142 -146 -216 -206 -28 -22
-143 -100 -148 -100 -3 0 -27 -13 -53 -28 -47 -28 -190 -90 -222 -97 -9 -2
-53 -15 -98 -29 -45 -13 -95 -27 -110 -30 -15 -2 -53 -9 -83 -15 -30 -6 -65
-13 -77 -15 -11 -3 -43 -8 -70 -12 -26 -3 -57 -8 -68 -10 -11 -2 -42 -7 -70
-10 -27 -3 -63 -7 -80 -9 -30 -4 -151 -15 -215 -20 -19 -2 -64 -6 -100 -9 -36
-3 -92 -8 -125 -11 -33 -3 -82 -8 -110 -10 -84 -9 -137 -13 -220 -20 -44 -3
-93 -8 -110 -10 -16 -2 -68 -6 -115 -10 -47 -4 -98 -8 -115 -10 -133 -13 -181
-17 -340 -31 -38 -3 -83 -7 -100 -9 -147 -13 -185 -17 -220 -21 -22 -2 -71 -6
-110 -9 -38 -3 -88 -8 -110 -9 -22 -2 -76 -7 -120 -11 -44 -3 -96 -8 -115 -10
-38 -5 -125 -13 -210 -20 -131 -11 -237 -20 -325 -29 -48 -5 -140 -13 -235
-21 -25 -2 -69 -6 -99 -10 -120 -14 -418 -21 -466 -11 -104 21 -101 21 -139
-31 -32 -44 -36 -54 -36 -116 0 -48 6 -79 19 -106 30 -58 43 -65 95 -52 24 6
61 13 83 17 21 3 49 7 63 10 14 2 49 6 78 10 29 3 62 7 74 9 11 3 55 7 97 10
42 4 87 8 101 10 14 3 54 7 90 10 36 3 90 7 120 10 30 3 82 7 115 10 l60 5
-25 -21 c-142 -119 -203 -211 -228 -349 -7 -39 -7 -171 -1 -210 7 -40 42 -130
51 -130 4 0 8 -7 8 -15 0 -21 133 -155 154 -155 9 0 16 -4 16 -9 0 -10 126
-64 185 -80 110 -28 165 -33 407 -33 215 -1 217 -1 237 -24 19 -22 29 -24 111
-24 84 0 93 2 114 25 32 35 92 34 125 0 21 -23 30 -25 111 -25 103 0 116 4
134 39 12 22 20 26 57 24 68 -2 69 -2 69 -17 0 -31 46 -46 143 -46 79 0 97 3
114 19 12 11 23 25 25 32 3 8 88 12 323 15 176 1 331 6 345 9 14 4 32 7 40 7
61 1 270 70 335 111 160 100 253 199 308 332 22 52 30 80 44 145 7 35 3 189
-6 213 -6 15 -9 27 -6 27 2 0 -3 19 -11 43 -9 23 -17 47 -18 52 -2 11 -27 52
-58 98 -19 27 -19 27 4 28 13 0 50 3 83 5 95 7 376 7 424 0 196 -29 306 -134
452 -431 78 -158 111 -195 175 -195 25 0 57 6 72 14 114 59 227 312 277 616 4
25 9 52 10 61 20 108 27 482 11 619 -5 41 -10 86 -11 100 -1 14 -5 36 -9 50
-3 14 -8 39 -10 55 -6 44 -16 87 -22 97 -3 5 -7 18 -9 31 -7 36 -55 149 -78
182 -31 45 -69 81 -94 89 -43 14 -68 15 -83 6z m-254 -952 c-1 -203 5 -326 19
-418 2 -14 6 -43 10 -65 6 -43 9 -62 20 -110 4 -19 -6 -5 -27 35 -52 99 -82
154 -88 160 -3 3 -18 22 -33 43 -37 49 -88 81 -175 107 -66 20 -84 21 -313 16
-134 -3 -273 -8 -309 -11 -163 -14 -162 -14 -215 16 -27 15 -78 35 -112 45
-68 19 -79 29 -35 30 48 1 206 14 232 18 14 3 59 7 100 11 41 3 93 8 115 11
22 2 60 6 85 8 25 3 68 7 95 10 28 3 76 8 108 11 60 5 114 13 151 21 11 3 32
7 46 10 60 12 157 67 205 117 51 53 115 140 115 158 0 5 1 9 3 9 2 0 3 -105 3
-232z m-1480 -383 c92 -27 143 -53 194 -101 27 -25 49 -49 48 -53 -1 -3 7 -24
17 -46 29 -62 28 -253 -1 -315 -36 -75 -116 -149 -206 -187 -24 -11 -27 -10
-41 20 -34 71 -113 117 -192 111 -205 -13 -448 -26 -515 -28 l-55 -1 2 135 c5
315 10 440 16 447 4 3 31 8 59 9 29 2 91 6 138 9 47 3 130 8 185 11 55 3 101
7 102 8 9 8 207 -7 249 -19z m-1013 -120 c-4 -287 -11 -483 -16 -491 -4 -8
-53 -10 -100 -5 -7 1 4 544 12 582 0 3 25 5 54 4 l52 0 -2 -90z m-379 24 c-1
-19 -4 -148 -7 -288 -4 -139 -8 -256 -11 -258 -6 -6 -69 -11 -82 -6 -7 3 -10
34 -8 91 2 48 5 176 8 284 2 108 7 201 10 206 3 5 25 8 48 7 42 -2 43 -3 42
-36z m-379 7 c-4 -10 -16 -396 -16 -523 l-1 -53 -41 -1 c-23 0 -69 -2 -102 -5
-33 -2 -86 -6 -118 -8 -65 -4 -98 -22 -135 -77 -23 -33 -38 -38 -82 -26 -8 2
-34 8 -57 12 -24 4 -43 11 -43 16 0 5 -7 9 -15 9 -23 0 -88 44 -129 87 -73 76
-89 179 -48 297 38 106 106 170 241 225 89 36 116 40 320 46 85 3 156 7 158 8
1 2 18 3 37 4 22 1 33 -3 31 -11z"/>
</g>
</svg>
