<?xml version="1.0" encoding="UTF-8" standalone="no"?>
<svg
   width="2500"
   height="2500"
   viewBox="0 0 192.756 192.756"
   version="1.1"
   id="svg6"
   sodipodi:docname="north-sea-jazz-festival.svg"
   inkscape:version="1.4.4 (dcaf3e7d9e, 2026-05-05)"
   xmlns:inkscape="http://www.inkscape.org/namespaces/inkscape"
   xmlns:sodipodi="http://sodipodi.sourceforge.net/DTD/sodipodi-0.dtd"
   xmlns="http://www.w3.org/2000/svg"
   xmlns:svg="http://www.w3.org/2000/svg">
  <defs
     id="defs6" />
  <sodipodi:namedview
     id="namedview6"
     pagecolor="#ffffff"
     bordercolor="#000000"
     borderopacity="0.25"
     inkscape:showpageshadow="2"
     inkscape:pageopacity="0.0"
     inkscape:pagecheckerboard="0"
     inkscape:deskcolor="#d1d1d1"
     inkscape:zoom="0.0686"
     inkscape:cx="2733.2361"
     inkscape:cy="1632.6531"
     inkscape:window-width="1210"
     inkscape:window-height="933"
     inkscape:window-x="0"
     inkscape:window-y="0"
     inkscape:window-maximized="1"
     inkscape:current-layer="g6" />
  <g
     fill-rule="evenodd"
     clip-rule="evenodd"
     id="g6">
    <path
       fill="#aaaaaa"
       d="m 154.985,140.057 c 0.19218,0.38112 -0.119,-0.239 0,0 z M 18.037,124.189 c 0.06,1.961 2.272,2.199 4.007,2.199 0.837,0 3.109,-0.061 3.349,-1.309 0.24,-1.01 -2.512,-1.246 -3.229,-1.307 -4.246,-0.594 -9.269,-1.484 -8.192,-7.012 0.418,-2.318 2.093,-4.219 4.306,-5.408 2.272,-1.307 4.665,-1.604 6.997,-1.604 3.946,0 7.773,1.484 8.372,5.406 l -6.399,1.189 c -0.359,-1.426 -1.854,-1.842 -3.29,-1.842 -0.658,0 -2.631,0.178 -2.811,1.068 -0.119,0.654 0.479,0.951 1.017,1.07 0.837,0.238 2.452,0.357 3.409,0.475 1.854,0.238 3.887,0.535 5.382,1.545 1.674,1.248 2.333,3.092 1.914,5.289 -1.136,5.766 -7.535,7.369 -12.26,7.369 -4.605,0 -8.611,-1.486 -9.27,-6.299 z m 38.572,-0.238 c -2.213,5.053 -7.176,7.369 -12.14,7.369 -3.05,0 -5.92,-0.654 -7.894,-2.734 -1.854,-1.961 -2.452,-4.812 -1.914,-7.783 0.538,-2.793 2.272,-5.883 4.604,-7.846 2.572,-2.197 5.98,-3.207 8.911,-3.207 6.998,0 10.346,4.457 9.03,11.289 l -0.239,1.07 H 42.974 c -0.538,2.258 -0.06,3.863 2.392,3.863 1.854,0 3.049,-0.713 3.708,-2.496 z m -6.997,-5.883 c 0.359,-2.02 0.06,-3.564 -2.272,-3.564 -2.093,0 -3.29,1.662 -3.588,3.564 z m 21.828,12.836 c 0,-0.951 0.12,-1.9 0.299,-2.852 -2.094,2.377 -4.605,3.268 -7.476,3.268 -3.888,0 -6.877,-2.139 -6.041,-6.24 0.658,-3.326 3.648,-5.525 6.698,-6.418 2.811,-0.771 5.741,-1.129 8.492,-1.307 v -0.119 c 0.419,-1.902 0.06,-2.615 -1.914,-2.615 -1.614,0 -3.049,0.596 -3.647,2.318 l -7.296,-0.713 c 2.213,-5.17 7.415,-6.477 12.14,-6.477 2.452,0 5.562,0.297 7.296,1.781 2.392,1.902 1.495,4.576 0.957,7.547 l -1.436,7.25 c -0.299,1.545 -0.598,3.15 -0.239,4.576 H 71.44 Z m 1.196,-9.685 c -1.974,0.178 -5.382,0.771 -5.861,3.328 -0.239,1.307 0.479,1.9 1.735,1.9 3.109,0 3.647,-2.555 4.066,-4.812 z m 45.45,9.685 c 0,-0.951 0.121,-1.9 0.299,-2.852 -2.092,2.377 -4.605,3.268 -7.475,3.268 -3.887,0 -6.877,-2.139 -6.039,-6.24 0.656,-3.326 3.646,-5.525 6.697,-6.418 2.811,-0.771 5.74,-1.129 8.49,-1.307 l 0.061,-0.119 c 0.359,-1.902 0,-2.615 -1.973,-2.615 -1.615,0 -3.051,0.596 -3.648,2.318 l -7.295,-0.713 c 2.211,-5.17 7.475,-6.477 12.139,-6.477 2.451,0 5.562,0.297 7.297,1.781 2.393,1.902 1.494,4.576 0.957,7.547 l -1.436,7.25 c -0.299,1.545 -0.539,3.15 -0.24,4.576 h -7.834 z m 1.256,-9.685 c -2.033,0.178 -5.441,0.771 -5.92,3.328 -0.238,1.307 0.479,1.9 1.734,1.9 3.109,0 3.648,-2.555 4.066,-4.812 z m 27.092,9.685 h -18.42 l 0.896,-4.515 11.004,-11.233 -2.631,0.061 h -5.443 l 1.017,-5.053 h 17.342 l -0.896,4.398 -11.123,11.172 h 9.269 z M 26.827,84.968 26.289,87.88 h 0.06 c 1.435,-2.317 4.066,-3.328 6.578,-3.328 1.974,0 4.126,0.594 5.023,2.139 0.957,1.724 0.538,4.101 0.12,6.24 l -2.512,12.777 h -8.133 l 2.512,-12.599 c 0.239,-1.248 0.538,-2.972 -1.196,-2.972 -2.272,0 -2.811,1.902 -3.169,3.625 l -2.332,11.946 h -8.074 l 4.006,-20.741 h 7.655 z m 36.121,10.578 c -1.196,6.299 -7.176,10.579 -13.515,10.579 -6.399,0 -10.705,-4.279 -9.449,-10.579 1.316,-6.655 7.117,-10.994 13.635,-10.994 6.579,10e-4 10.645,4.339 9.329,10.994 z M 48.715,95.249 c -1.076,5.587 0.18,6.003 1.675,6.003 1.435,0 2.87,-0.416 3.946,-6.003 0.419,-2.02 1.077,-5.585 -1.674,-5.585 -2.81,0 -3.588,3.565 -3.947,5.585 z m 24.878,-6.001 c 1.256,-2.912 3.17,-4.932 6.339,-4.695 l 1.076,0.059 -1.435,7.31 c -0.478,-0.119 -0.957,-0.238 -1.495,-0.238 -1.315,0 -2.691,0.297 -3.588,1.426 -0.777,1.07 -1.016,2.377 -1.255,3.625 l -1.794,8.975 h -8.074 l 4.067,-20.741 h 6.877 l -0.837,4.279 z m 9.15,1.01 1.077,-5.29 h 3.349 l 1.914,-6.596 7.117,-0.297 -1.375,6.893 h 4.187 l -1.018,5.29 h -4.126 l -1.375,7.131 c -0.299,1.486 -0.718,2.674 1.256,2.674 0.718,0 1.555,-0.119 2.392,-0.357 l -1.136,5.824 -4.903,0.596 c -2.213,0.297 -4.187,-0.416 -5.442,-2.08 -1.256,-1.725 -0.837,-3.744 -0.419,-5.943 l 1.555,-7.844 h -3.053 z m 14.532,17.531 -2.452,12.301 c -0.24,1.129 -0.479,2.496 -1.375,3.387 -0.718,0.771 -2.213,1.07 -3.11,1.07 -1.196,0 -2.273,-0.238 -3.289,-0.535 l -1.316,6.654 c 1.794,0.477 3.708,0.654 5.622,0.654 2.93,0 5.921,-0.475 8.253,-2.912 2.152,-2.316 2.811,-5.586 3.289,-8.318 l 2.393,-12.301 z"
       id="path1"
       sodipodi:nodetypes="ccsccsccccsccscccccssccscccscccssccsccccsccccsccsccccscccsccccsccccsccsccccscccscccccccccccccccccscccccscccccccsccccscccccccsccccccccccccccccccscccccccccccsccscc" />
    <path
       d="M109.236 87.405c2.092-20.74 16.863-33.754 34.744-33.754 18.898 0 34.268 15.273 34.268 34.051 0 8.616-3.289 16.521-8.611 22.462h-16.326l-1.018 5.053h5.443l2.631-.061-11.004 11.232-.896 4.516h18.418l1.018-5.17h-9.27l11.123-11.172v-.059c7.176-6.715 11.662-16.225 11.662-26.802 0-20.501-16.805-37.2-37.438-37.2-17.223 0-31.754 11.588-36.119 27.336h-4.785l-5.441 27.871h8.072l2.393-12.48c.119-.653.299-1.367.838-1.961.598-.654 1.375-1.01 2.152-1.01 1.674 0 1.734 1.188 1.436 2.555l-2.512 12.896h8.072l2.572-12.956c.418-2.139.777-4.16-.061-5.942-.777-1.664-2.871-2.258-4.904-2.258-2.451.001-4.484 1.011-6.457 2.853z"
       fill="#aaa"
       id="path2" />
    <path
       d="M143.502 65.893c14.893 3.625 18.061 14.024 13.457 22.7 15.547-8.795 9.807-19.551-13.457-22.7z"
       fill="#aaa"
       id="path3" />
    <path
       d="M125.502 95.427c12.439-.119 20.932-10.161 29.064-2.555 5.801-4.992 2.93-13.133-3.768-15.748l-24.281 1.248c5.024 5.943 4.786 11.826-1.015 17.055z"
       fill="#aaa"
       id="path4" />
    <path
       d="M127.355 67.676s5.682-.951 10.047-1.188c9.449-.476 18.24 5.467 13.396 11.172-4.426-7.369-14.113.772-22.008 1.188 3.829-5.348 2.991-7.547-1.435-11.172z"
       fill="#aaa"
       id="path5" />
    <path
       d="M139.975 66.25c.357-4.754-4.365-6.774-12.08-4.219 3.527 1.248 4.484 3.03 2.869 5.408 2.752-.773 6.22-4.101 9.211-1.189zM168.32 94.121c-.119 4.754-1.555 7.784-2.869 7.844-.6 0-.779-.238-1.436-1.545-.299-.535-.539-1.07-.957-1.605l-.121-.178c-1.195-1.604-1.973-1.842-6.996-1.545.719.713 1.316 1.188 1.256 2.852-.061 3.209-3.828 6.359-6.877 6.359h-.18l-.061-.178c-.059-.299-.357-.654-.836-.773H146.253v.059c-.061.299-.539.535-1.197.535-.598 0-1.076-.236-1.076-.535h-.838c0 .299-.477.535-1.076.535-.598 0-1.076-.236-1.076-.535h-.777c0 .299-.479.535-1.076.535-.537 0-.957-.236-.957-.535v.061h-2.271c-3.588.059-5.92-1.961-5.861-4.279 0-1.307.777-2.555 2.213-3.564-3.229.297-6.938.713-7.355.891l-.121.061-.119-.061c-.658-.832-.598-1.604.119-2.377l.061-.06h.119s1.496.298 4.846-.06l23.621-2.199c4.965-.475 7.416-1.426 9.629-3.685.598-.594 1.016-1.069 1.375-1.723.537-1.07.896-1.426 1.375-1.486 1.433-.238 2.57 2.555 2.509 7.191zm-25.117 8.318l.838-.059.119-4.695h-.838l-.119 4.754zm-2.871-4.634l-.059 4.754.777-.059.119-4.695h-.837zm-4.305 4.873l2.213-.061.061-4.693h-1.258l-.955.119c-2.453.178-4.127 1.545-4.188 3.029 0 1.309 1.137 2.318 2.99 2.615a1.16 1.16 0 0 1 1.137-1.009zm13.098-6.121l-.061.238c.957.119 1.674.416 2.152.771l-4.844.238-.061 4.516 5.742-.178c.299 0 .598.061.777.178 1.076-.713 1.555-1.484 1.615-2.316.061-2.912-5.32-3.447-5.32-3.447zm15.189 2.793c-.539-1.961-.719-5.111-.479-6.894 0-.06 0-.06-.061 0-1.076 1.783-1.854 2.199-3.768 2.437 0 0-3.828.475-6.818.713a8.37 8.37 0 0 1 1.676.712c.539-.059.896-.117.896-.117 3.289-.239 4.965-.18 5.562-.061.479.119 1.076.356 1.375.654.658.652 1.195 1.783 1.555 2.555.121.239.182.239.062.001z"
       fill="#aaa"
       id="path6" />
  </g>
</svg>
