<?xml version="1.0" encoding="UTF-8" standalone="no"?>
<svg
   id="Logo"
   version="1.1"
   viewBox="0 0 1080 1080"
   sodipodi:docname="Reggae Lake.svg"
   inkscape:version="1.4.4 (dcaf3e7d9e, 2026-05-05)"
   xmlns:inkscape="http://www.inkscape.org/namespaces/inkscape"
   xmlns:sodipodi="http://sodipodi.sourceforge.net/DTD/sodipodi-0.dtd"
   xmlns="http://www.w3.org/2000/svg"
   xmlns:svg="http://www.w3.org/2000/svg">
  <sodipodi:namedview
     id="namedview36"
     pagecolor="#ffffff"
     bordercolor="#000000"
     borderopacity="0.25"
     inkscape:showpageshadow="2"
     inkscape:pageopacity="0.0"
     inkscape:pagecheckerboard="0"
     inkscape:deskcolor="#d1d1d1"
     inkscape:zoom="0.63518519"
     inkscape:cx="750.17493"
     inkscape:cy="540"
     inkscape:window-width="1210"
     inkscape:window-height="933"
     inkscape:window-x="0"
     inkscape:window-y="0"
     inkscape:window-maximized="1"
     inkscape:current-layer="g34" />
  <defs
     id="defs1">
    <style
       id="style1"> .st0 { fill: #f5b725; } .st1 { fill: #020205; } .st2 { isolation: isolate; } .st3 { fill: #fff; } .st4 { fill: #03a550; } .st5 { fill: #e5292a; } </style>
  </defs>
  <polygon
     class="st0"
     points="902.65 552.35 755.88 517.62 618.26 554.76 480.63 517.62 343 554.76 214.53 520.03 186.8 458.22 223.94 380.25 186.8 302.28 223.94 224.3 196.22 130.16 342.99 164.89 480.61 127.75 618.23 164.89 755.86 127.75 884.34 162.47 912.06 224.29 874.92 302.26 912.06 380.23 874.95 459.19 902.65 552.35"
     id="polygon1" />
  <polygon
     class="st0"
     points="346.41 451.7 487.88 489.23 617.68 448.06 747.48 489.23 877.29 448.06 995.42 485.6 1027.68 558.07 986.51 647.5 1027.68 736.93 994.73 839.27 839.09 815.59 682.59 860.36 600.13 831.97 487.89 936.4 384.84 888.89 337.5 826.39 378.67 736.96 337.5 647.53 378.63 556.86 346.41 451.7"
     id="polygon2" />
  <polygon
     class="st0"
     points="591.6 720.62 518.13 620.62 510.27 600.75 511.44 572.68 475.11 562.57 474.18 547.23 453.34 552.41 470.84 540.87 458.23 519.59 447.43 497.33 362.33 498.15 350.1 486.09 316.38 511.24 304.14 494.98 264.67 476.75 211.76 467.01 178.6 439.53 118.61 422.3 108.22 446.6 93.46 454.31 86.97 485.43 72.21 491.29 72.08 534.74 20.1 568.5 26.23 631.41 19.9 650 53.65 669.83 80.18 686.69 40.71 697.72 38.75 725.62 44.47 753 69.61 754.9 30.72 788.58 40.8 814.33 56.78 836.91 83.45 823.43 71.93 844.22 90.64 861.7 109.62 878.87 159.79 854.35 163.27 899.51 193.55 907.09 262.02 916.5 274.32 895.95 304.19 869.64 347.9 917.76 362.74 939.44 377.21 918.32 405.39 895.84 444.87 912.71 473.61 924.33 573.76 842.7 582.72 813.29 548.43 776.16 596.07 757.93 596.06 734.43 591.6 720.62"
     id="polygon3" />
  <g
     id="g17">
    <polygon
       class="st5"
       points="188.86 492.17 226.34 490.63 252.02 502.96 294.12 519.39 314.66 524.53 319.29 549.68 291.04 568.17 289.5 591.28 314.66 600.52 366.01 590.25 397.85 607.2 390.66 647.76 358.31 664.19 295.66 633.9 207.86 638.52 226.34 615.41 214.53 548.66 190.91 506.04 188.86 492.17"
       id="polygon4" />
    <path
       class="st1"
       d="M269.07,540.12s-11.4-5.84-23.13-27.66c-10.31-19.19-30.85,4.07-34.18,5.7,0,0,1.85,11.24,23.31,16.12,18.38,4.18,34,5.84,34,5.84h0Z"
       id="path4" />
    <path
       class="st5"
       d="M123.13,444.42c-3.36,1.05-6.59,5.39-8.72,7.76-3.29,3.67-3.84,5.23-3.53,11.16.86.13,2.64-.13,3.44-.51-1.05-4.87,1.65-10,7.57-7.9,3.04,1.08,7.91,8.3,7.91,8.3l8.54-13.7s-11.05-6.72-16.09-5.11c.37-.01,1.05-.13,1.39-.01"
       id="path5" />
    <path
       class="st1"
       d="M96.43,486.53l52.89,50.84,17.46,32.35-6.16,35.94-12.32,15.92-61.62-8.22-36.46-18.48-11.3-10.27,3.59-9.24,6.68-2.05,5.65,6.67,17.46,5.14,6.16-5.14s26.19,6.68,26.7,8.22c.51,1.54,39.54,13.35,39.54,13.35l14.38-26.19-15.4-33.89-47.76-48.78.51-6.16h0Z"
       id="path6" />
    <polygon
       class="st5"
       points="97.45 483.45 111.83 467.01 150.35 480.36 183.72 489.61 179.62 523.5 142.64 522.47 97.45 483.45"
       id="polygon6" />
    <polygon
       class="st1"
       points="115.94 458.8 115.94 465.47 147.26 473.18 126.21 465.47 122.1 457.26 115.94 458.8"
       id="polygon7" />
    <polygon
       class="st4"
       points="134.43 464.96 141.1 451.61 166.26 461.88 198.1 488.07 186.8 487.04 154.97 477.8 150.86 470.61 134.43 464.96"
       id="polygon8" />
    <polygon
       class="st3"
       points="94.37 498.85 86.16 508.09 84.1 516.31 101.05 509.12 103.1 507.07 94.37 498.85"
       id="polygon9" />
    <polygon
       class="st3"
       points="83.08 539.42 105.16 510.66 114.91 522.99 83.59 543.01 83.08 539.42"
       id="polygon10" />
    <polygon
       class="st3"
       points="91.29 517.34 75.37 540.44 76.91 545.07 81.54 543.01 81.54 538.39 98.48 516.82 91.29 517.34"
       id="polygon11" />
    <path
       class="st3"
       d="M118,527.09c1.54,1.03,35.43,46.73,35.43,46.73l-5.65,6.67-2.57-9.76-6.16,1.03-2.05-11.81-7.19,3.08,3.08-10.78-8.73,5.65v-15.4l-4.62-3.59-1.54-11.81h0Z"
       id="path11" />
    <path
       class="st3"
       d="M53.29,573.82c.51-1.54,16.43-29.27,16.43-29.27v14.89l11.81,18.48-7.7.51-2.57,4.11-17.97-8.73h0Z"
       id="path12" />
    <polygon
       class="st3"
       points="104.64 584.6 112.86 582.55 112.35 589.22 118.51 585.12 119.54 588.2 125.7 582.55 129.29 589.22 132.37 590.76 138.02 585.12 143.16 590.76 146.24 589.22 143.67 597.44 115.43 591.28 104.64 584.6"
       id="polygon12" />
    <path
       class="st4"
       d="M34.81,591.28l46.73,26.7,69.84,9.76,16.95-21.05,5.65-37.48-19.51-36.46-8.73-6.16,39.54,3.08,2.05-20.03s22.59,40.05,23.11,41.59c.51,1.54,10.78,63.16,10.78,63.16l-26.7,32.35-57.51,22.59-29.27-28.24-16.43,2.05-31.84,14.89-24.13-29.27-.51-37.48h-.02Z"
       id="path13" />
    <path
       class="st1"
       d="M320.82,523.5l40.57-13.35,85.76,12.84-17.46,37.48,40.05,12.84,29.27,21.57-6.67,35.43,95,103.73-57.51,39.03,33.89,60.08-103.21,72.92-58.03-46.73-38,56.49-56.49-91.4-49.3,67.78-69.83,4.11-20.03-59.57-72.92,17.46s7.19-47.24,5.65-46.22c-1.54,1.03-53.4,2.05-53.4,2.05l45.19-65.73-45.19-18.49,88.84-51.36,68.3-27.73,88.83-6.68,63.68,33.38,40.57-19.51,7.19-50.84-41.59-21.57-51.86,13.86-16.95-8.22,2.57-13.86,29.27-21.05-6.16-28.75h-.03Z"
       id="path14" />
    <path
       class="st3"
       d="M238.92,521.96c0,4.4-3.56,7.96-7.96,7.96s-7.96-3.56-7.96-7.96,3.56-7.96,7.96-7.96,7.96,3.56,7.96,7.96Z"
       id="path15" />
    <path
       class="st1"
       d="M235.84,521.96c0,2.69-2.18,4.88-4.88,4.88s-4.88-2.18-4.88-4.88,2.19-4.88,4.88-4.88,4.88,2.18,4.88,4.88Z"
       id="path16" />
    <polygon
       class="st1"
       points="330.92 607.22 372.11 613.12 384.84 630.1 373.79 644.56 351.16 649.08 364.27 632.11 362.16 624.7 330.92 607.22"
       id="polygon16" />
    <polygon
       class="st0"
       points="334.69 533.77 364.99 518.36 419.93 534.79 402.99 572.28 463.07 595.39 457.42 639.55 506.2 671.9 452.8 684.74 559.09 739.17 448.17 720.17 523.15 810.03 421.47 745.84 470.77 877.3 370.12 774.09 370.64 877.82 318.26 759.2 214.02 872.68 264.85 745.33 170.89 800.28 229.94 710.93 143.16 767.41 206.32 701.68 109.78 717.09 195.02 665.73 288.48 663.17 354.72 698.6 425.07 654.95 419.42 591.79 349.58 568.17 309.01 579.98 338.8 557.9 334.69 533.77"
       id="polygon17" />
  </g>
  <g
     id="g22">
    <path
       class="st1"
       d="M277.14,335.59c-4.03,2.69-4.37,6.05-4.03,9.41,1.01,12.78,0,25.55-1.34,37.99-.34,3.36-.67,6.72,0,9.75,3.03,17.15-.34,34.29,0,51.44,0,1.68,0,3.7-.67,5.04-.34,2.02-1.68,4.37-3.03,6.05-1.01,1.01-2.69.34-8.07-3.03.34-6.05,1.01-12.44,1.34-18.83.67-12.44,1.34-24.54.34-36.98-.67-11.43.67-22.86,1.01-34.29,1.01-21.18,2.02-42.02,2.35-62.87.34-19.5,0-39.33,0-58.83,0-4.71-.34-9.08-.34-13.78.34-11.43.67-22.86-2.35-33.96-2.35-7.4,2.02-10.09,7.73-10.76,3.36,0,7.4,1.01,11.09,2.35,4.37,2.02,8.07,4.71,12.1,7.06,15.8,10.09,23.2,25.89,26.56,44.04,3.03,17.15,3.7,34.29-1.01,51.44-2.35,8.4-6.39,14.46-13.11,19.5-6.05,4.71-12.1,10.09-17.48,14.79-1.34,9.08,1.34,16.14,4.37,23.53,6.39,15.8,12.78,31.6,19.5,47.4,1.34,3.36,2.35,6.72,3.36,10.42,3.36,14.12,8.74,27.9,15.46,40.68,1.34,2.02,2.02,4.37,3.03,6.72,1.01,2.02.34,3.03-2.69,8.07-4.71-.67-8.07-3.36-10.09-8.07-6.39-15.47-12.44-30.93-16.81-47.07-5.04-17.82-12.44-34.63-20.17-51.1-2.35-5.04-4.37-10.09-7.06-16.14v.03ZM273.45,194.06c1.01,20.84,2.02,41.35,2.35,61.52,0,20.51-.67,40.68-1.01,61.52,1.68-.67,3.03-.67,4.03-1.34,7.4-6.05,14.12-12.1,21.52-18.15,5.38-4.37,7.73-9.75,9.08-16.47,2.35-14.79,2.35-29.25,0-44.04-1.34-9.08-4.71-17.15-9.08-24.88-5.72-10.42-14.46-16.47-26.9-18.15h.01Z"
       id="path17" />
    <path
       class="st1"
       d="M376.99,439.48c4.37-.34,8.07-.67,12.44-1.34,1.01,0,2.02,0,3.03-.34h11.77c3.7,0,7.4,0,11.77-1.34,1.68-.34,3.36-.34,5.04-1.01h1.68c3.36,0,5.38,2.35,5.72,4.71.34,2.35,0,5.72-1.34,7.73-.67,1.68-2.69,4.37-5.72,4.37-.67,0-1.34-.34-2.35-.67-1.01-.67-2.02-.67-3.03-.67-1.68,0-3.36.34-5.04.67l-.34.34c-.34,0-.67,0-1.01.34-1.01.34-2.02.67-3.03.67-.34,0-.67,0-.67-.34-2.02-.34-4.37-.34-6.72-.34-3.7,0-7.06.34-10.76.67-3.7.34-7.06.67-10.42.67h-1.68c-3.36,0-7.4-.34-12.1-1.01-2.69-.34-5.38-4.71-5.38-8.07v-1.68c0-.34.34-.67.34-1.01,1.68-13.45,1.68-27.23,1.34-42.36,0-3.36.34-6.39.67-9.75l.67-6.72v-8.4c.34-12.44,1.01-24.88,2.02-36.98.67-7.4.34-14.46-.34-21.18-1.34-22.86-1.01-46.39-.67-68.92v-7.73c0-9.75-.34-20.17-1.01-29.58-.34-4.03-.34-8.07-.67-12.1,0-.67,0-1.68-.34-2.69,0-2.02-.34-4.03-.34-5.72.34-2.02,2.69-5.71,4.71-5.71h.34c2.35,0,4.37-.34,7.06-1.01,2.69,0,5.38-.34,8.07-.34h3.36c6.05.67,12.78,1.01,18.83,1.01,2.69.34,6.05.34,8.74.34h1.68c2.02.34,3.7.34,5.38.67,2.02.34,3.03,1.68,4.03,3.36,1.01,1.34,1.34,3.36,1.01,4.71-1.01,4.03-3.36,6.05-6.05,6.05h-1.68c-5.04-1.68-10.42-2.35-17.15-2.35h-8.07c-3.03.34-6.39.34-9.75,0-1.01,0-1.68-.34-2.02-.34-2.35,0-4.03.67-5.38,1.68v37.99c0,3.7,0,7.06-.34,11.09v24.88c0,5.38,0,11.43.34,17.15v6.39c2.35,0,4.71,0,6.72-.34,6.72-.67,13.45-1.34,19.84-1.68.67,0,1.34,0,2.35-.34,1.34,0,2.69-.34,3.7-.34,2.02,0,4.71.34,7.4,3.03l.67.67v.67c-1.01,6.72-2.02,11.77-7.73,11.77-1.01,0-2.35-.34-4.37-.67-2.69-.67-6.39-1.01-10.09-1.01-5.72,0-11.43,1.01-18.49,3.03v1.01c2.35,15.46,1.34,30.26,0,45.39-.67,8.74-1.01,17.82-1.01,27.57v55.47h4.37v-.02Z"
       id="path18" />
    <path
       class="st1"
       d="M524.57,293.57c-7.4-2.02-14.46-2.69-22.19-1.68-2.02.34-3.7,1.01-5.72,1.01-3.03,0-5.72-3.7-6.05-6.39,0-2.69,2.02-4.71,5.38-5.71,1.68-.34,3.36-.34,4.71-.34,11.09.34,22.19,1.01,32.95,1.68,2.69,2.02,3.36,5.04,3.03,8.41-1.34,23.2.34,46.06-.67,68.92-.67,13.11-.67,26.9-.34,40.34,0,12.44.34,17.15-1.34,29.58-.67,4.37-.34,7.4-2.35,11.09-4.71,10.42-6.72,15.46-19.16,17.15-8.07-1.01-13.11.34-21.18-1.68-14.12-3.36-22.53-13.45-26.22-27.23-3.03-9.08-3.7-19.16-4.37-28.58-.67-18.49-.67-37.32-1.01-55.81,0-8.07.34-17.15.34-25.21,0-9.41.34-18.83-1.34-28.24-1.01-4.03-.67-8.07-.67-12.44v-34.29c0-4.03.67-7.73,1.34-11.77l2.69-19.84c1.01-4.37,2.35-9.41,4.71-13.45,5.72-10.76,13.78-15.8,26.56-16.47,1.68,0,3.03-.34,4.71-.67,17.48-.34,32.61,8.07,36.98,24.88,1.34,4.03,1.01,9.75,1.01,14.46,0,3.36-2.35,5.72-5.04,5.72-2.69.34-6.72-2.35-7.06-5.04-.34-2.69-.34-5.72,0-8.74,0-6.72-3.7-11.77-8.74-14.79-9.75-6.05-20.84-5.38-30.59-1.68-7.06,3.36-10.76,10.42-11.43,17.48-1.68,11.09-3.03,22.19-4.03,32.95-.34,10.76-.34,21.52-.67,31.94-.34,1.34-.34,2.69,0,4.03,2.02,12.44,1.01,25.89,1.34,39,0,13.78,1.01,27.57,1.68,41.35v19.84c.34,9.75.34,19.5,1.01,29.25.67,11.43,5.04,21.52,14.46,28.24,2.02,1.68,4.37,2.69,6.05,3.03,7.73,1.68,10.42,2.69,20.51,2.69,3.03,1.01,7.06-7.4,8.07-9.75,1.34-3.03,1.68-5.72,1.68-9.08,1.68-11.09.67-14.79,1.01-26.22,2.35-41.35,1.68-66.9.67-102.88.34-1.68-.34-3.03-.67-5.04l-.05-.02Z"
       id="path19" />
    <path
       class="st1"
       d="M635.51,293.57c-7.4-2.02-14.46-2.69-22.19-1.68-2.02.34-3.7,1.01-5.72,1.01-3.03,0-5.72-3.7-6.05-6.39,0-2.69,2.02-4.71,5.38-5.71,1.68-.34,3.36-.34,4.71-.34,11.09.34,22.19,1.01,32.95,1.68,2.69,2.02,3.36,5.04,3.03,8.41-1.34,23.2.34,46.06-.67,68.92-.67,13.11-.67,26.9-.34,40.34,0,12.44.34,17.15-1.34,29.58-.67,4.37-.34,7.4-2.35,11.09-4.71,10.42-6.72,15.46-19.16,17.15-8.07-1.01-13.11.34-21.18-1.68-14.12-3.36-22.53-13.45-26.22-27.23-3.03-9.08-3.7-19.16-4.37-28.58-.67-18.49-.67-37.32-1.01-55.81,0-8.07.34-17.15.34-25.21,0-9.41.34-18.83-1.34-28.24-1.01-4.03-.67-8.07-.67-12.44v-34.29c0-4.03.67-7.73,1.34-11.77l2.69-19.84c1.01-4.37,2.35-9.41,4.71-13.45,5.72-10.76,13.78-15.8,26.56-16.47,1.68,0,3.03-.34,4.71-.67,17.48-.34,32.61,8.07,36.98,24.88,1.34,4.03,1.01,9.75,1.01,14.46,0,3.36-2.35,5.72-5.04,5.72-2.69.34-6.72-2.35-7.06-5.04-.34-2.69-.34-5.72,0-8.74,0-6.72-3.7-11.77-8.74-14.79-9.75-6.05-20.84-5.38-30.59-1.68-7.06,3.36-10.76,10.42-11.43,17.48-1.68,11.09-3.03,22.19-4.03,32.95-.34,10.76-.34,21.52-.67,31.94-.34,1.34-.34,2.69,0,4.03,2.02,12.44,1.01,25.89,1.34,39,0,13.78,1.01,27.57,1.68,41.35v19.84c.34,9.75.34,19.5,1.01,29.25.67,11.43,5.04,21.52,14.46,28.24,2.02,1.68,4.37,2.69,6.05,3.03,7.73,1.68,10.42,2.69,20.51,2.69,3.03,1.01,7.06-7.4,8.07-9.75,1.34-3.03,1.68-5.72,1.68-9.08,1.68-11.09.67-14.79,1.01-26.22,2.35-41.35,1.68-66.9.67-102.88.34-1.68-.34-3.03-.67-5.04l-.05-.02Z"
       id="path20" />
    <path
       class="st1"
       d="M743.76,417.29c-18.49-3.7-35.3,3.03-53.12,2.02l-2.02,8.4c-1.34,6.39-2.35,13.11-3.36,19.5-1.01,4.03-3.36,5.38-7.06,4.71-3.7-1.01-5.38-3.03-4.71-7.4l3.03-15.8c1.68-8.74,3.03-17.82,4.71-26.56l4.37-26.56c3.03-21.18,6.39-42.36,9.41-63.2,2.69-20.51,6.05-40.68,8.4-60.85,2.02-15.8,3.03-31.94,4.37-47.74.34-6.72,3.03-11.77,8.74-15.13,2.35-1.68,6.39-.67,7.4,2.02,1.34,3.7,3.03,7.73,3.03,11.77-.67,9.41,1.01,18.49,2.35,27.9,2.02,14.12,3.03,28.58,4.71,42.7,2.69,22.86,5.72,45.39,8.74,68.25l8.07,57.15c1.01,6.39,2.35,12.77,3.7,19.16,1.68,8.4,3.36,16.81,4.71,25.21.34,2.02.34,4.03.34,6.05-.34,3.03-3.36,5.38-6.05,5.04-3.03,0-5.72-2.35-6.05-5.04-1.01-7.4-1.68-14.46-2.35-21.85-.34-2.69-1.01-5.71-1.34-9.75h-.02ZM716.86,227.67c-1.68,14.46-2.69,25.89-4.37,37.32-1.34,8.4-3.36,16.81-4.71,25.21-2.35,15.47-4.03,30.93-6.05,46.39-2.02,14.12-4.71,28.24-6.39,42.36-1.01,8.4-4.37,16.47-2.69,25.89,2.35,1.01,4.71,2.35,7.4,2.69,3.7.34,7.4,0,11.09-.34,9.75-1.01,19.16-2.02,29.25-3.03v-5.72c-1.68-12.1-3.7-24.21-5.38-36.31-2.35-17.48-5.04-34.96-7.4-52.11-1.68-13.11-3.7-25.89-5.04-39-1.01-11.77-1.68-23.53-3.03-35.64,0-1.68-1.01-3.36-2.69-7.73v.02Z"
       id="path21" />
    <path
       class="st1"
       d="M793.85,439.48c4.37-.34,8.07-.67,12.44-1.34,1.01,0,2.02,0,3.03-.34h11.77c3.7,0,7.4,0,11.77-1.34,1.68-.34,3.36-.34,5.04-1.01h1.68c3.36,0,5.38,2.35,5.72,4.71.34,2.35,0,5.72-1.34,7.73-.67,1.68-2.69,4.37-5.71,4.37-.67,0-1.34-.34-2.35-.67-1.01-.67-2.02-.67-3.03-.67-1.68,0-3.36.34-5.04.67l-.34.34c-.34,0-.67,0-1.01.34-1.01.34-2.02.67-3.03.67-.34,0-.67,0-.67-.34-2.02-.34-4.37-.34-6.72-.34-3.7,0-7.06.34-10.76.67-3.7.34-7.06.67-10.42.67h-1.68c-3.36,0-7.4-.34-12.1-1.01-2.69-.34-5.38-4.71-5.38-8.07v-1.68c0-.34.34-.67.34-1.01,1.68-13.45,1.68-27.23,1.34-42.36,0-3.36.34-6.39.67-9.75l.67-6.72v-8.4c.34-12.44,1.01-24.88,2.02-36.98.67-7.4.34-14.46-.34-21.18-1.34-22.86-1.01-46.39-.67-68.92v-7.73c0-9.75-.34-20.17-1.01-29.58-.34-4.03-.34-8.07-.67-12.1,0-.67,0-1.68-.34-2.69,0-2.02-.34-4.03-.34-5.72.34-2.02,2.69-5.71,4.71-5.71h.34c2.35,0,4.37-.34,7.06-1.01,2.69,0,5.38-.34,8.07-.34h3.36c6.05.67,12.78,1.01,18.83,1.01,2.69.34,6.05.34,8.74.34h1.68c2.02.34,3.7.34,5.38.67,2.02.34,3.03,1.68,4.03,3.36,1.01,1.34,1.34,3.36,1.01,4.71-1.01,4.03-3.36,6.05-6.05,6.05h-1.68c-5.04-1.68-10.42-2.35-17.15-2.35h-8.07c-3.03.34-6.39.34-9.75,0-1.01,0-1.68-.34-2.02-.34-2.35,0-4.03.67-5.38,1.68v37.99c0,3.7,0,7.06-.34,11.09v24.88c0,5.38,0,11.43.34,17.15v6.39c2.35,0,4.71,0,6.72-.34,6.72-.67,13.45-1.34,19.84-1.68.67,0,1.34,0,2.35-.34,1.34,0,2.69-.34,3.7-.34,2.02,0,4.71.34,7.4,3.03l.67.67v.67c-1.01,6.72-2.02,11.77-7.73,11.77-1.01,0-2.35-.34-4.37-.67-2.69-.67-6.39-1.01-10.09-1.01-5.72,0-11.43,1.01-18.49,3.03v1.01c2.35,15.46,1.34,30.26,0,45.39-.67,8.74-1.01,17.82-1.01,27.57v55.47h4.37v-.02Z"
       id="path22" />
  </g>
  <g
     id="g26">
    <path
       class="st1"
       d="M604.01,503.16c8.41-1.68,10.42-.34,10.76,7.06.67,18.49,1.34,36.98.34,55.13-.67,10.09.34,19.83-.34,29.92-.67,11.77-1.01,23.87-.67,35.64,1.01,52.44,0,62.87.34,73.29.34,14.79.67,29.58.34,44.38v12.1c4.37,3.36,9.08,1.34,13.11.34,8.07-2.02,16.47-2.35,24.88-2.02,3.36.34,6.72.67,10.09,1.34,1.34,0,3.03,1.01,4.37,1.68,3.36,2.69,3.03,7.73-.67,9.75-2.02,1.01-3.7,1.34-5.72,1.34-1.34.34-3.7-.34-5.04-1.01-9.08-3.36-18.15-2.02-27.23-.34l-18.83,4.03c-4.03.67-8.4-4.03-7.4-8.4,3.7-15.47,1.34-30.93,1.68-46.39v-1.35c.67-21.18,0-90.43.67-104.22.34-5.71.67-11.43.67-16.81l-1.01-63.2c-.34-9.41-.34-18.49-.67-27.57,0-1.68.34-3.36.34-4.71v.02Z"
       id="path23" />
    <path
       class="st1"
       d="M746.55,737.48c-18.49-3.7-35.3,3.03-53.12,2.02l-2.02,8.4c-1.34,6.39-2.35,13.11-3.36,19.5-1.01,4.03-3.36,5.38-7.06,4.71-3.7-1.01-5.38-3.03-4.71-7.4l3.03-15.8c1.68-8.74,3.03-17.82,4.71-26.56l4.37-26.56c3.03-21.18,6.39-42.36,9.41-63.2,2.69-20.51,6.05-40.68,8.4-60.85,2.02-15.8,3.03-31.94,4.37-47.74.34-6.72,3.03-11.77,8.74-15.13,2.35-1.68,6.39-.67,7.4,2.02,1.34,3.7,3.03,7.73,3.03,11.77-.67,9.41,1.01,18.49,2.35,27.9,2.02,14.12,3.03,28.58,4.71,42.7,2.69,22.86,5.72,45.39,8.74,68.25l8.07,57.15c1.01,6.39,2.35,12.77,3.7,19.16,1.68,8.4,3.36,16.81,4.71,25.21.34,2.02.34,4.03.34,6.05-.34,3.03-3.36,5.38-6.05,5.04-3.03,0-5.72-2.35-6.05-5.04-1.01-7.4-1.68-14.46-2.35-21.85-.34-2.69-1.01-5.72-1.34-9.75h-.02ZM719.65,547.87c-1.68,14.46-2.69,25.89-4.37,37.32-1.34,8.4-3.36,16.81-4.71,25.21-2.35,15.47-4.03,30.93-6.05,46.39-2.02,14.12-4.71,28.24-6.39,42.36-1.01,8.4-4.37,16.47-2.69,25.89,2.35,1.01,4.71,2.35,7.4,2.69,3.7.34,7.4,0,11.09-.34,9.75-1.01,19.16-2.02,29.25-3.03v-5.71c-1.68-12.1-3.7-24.21-5.38-36.31-2.35-17.48-5.04-34.96-7.4-52.11-1.68-13.11-3.7-25.89-5.04-39-1.01-11.77-1.68-23.53-3.03-35.64,0-1.68-1.01-3.36-2.69-7.73h.01Z"
       id="path24" />
    <path
       class="st1"
       d="M801.34,631.92c.67-1.68,2.02-2.69,3.03-4.37l8.07-16.14,21.18-49.42c3.36-7.4,6.72-14.46,9.75-21.85,5.38-10.76,9.75-22.19,14.79-33.62.67-2.35,1.35-4.71,3.03-6.39,1.01-1.35,3.03-2.35,4.37-2.02,2.02.34,3.7,2.35,3.7,5.38-.67,2.69-1.34,5.71-2.35,8.07-1.34,4.03-3.03,7.4-5.04,10.76-2.69,5.04-5.38,9.41-6.39,15.13-1.01,3.36-2.69,6.72-4.03,10.09-9.08,15.8-15.8,32.95-24.21,49.08l-1.34,4.03c3.7,4.04,4.71,9.41,5.04,15.13,1.68,13.11,3.7,25.89,7.4,38.33,3.7,14.46,5.38,29.58,6.72,44.38,0,2.35,0,5.04.67,7.4l9.08,37.65c1.35,5.38,3.36,10.76,4.71,16.47.34,1.68,1.01,3.7,1.01,5.71.34,3.03-1.68,5.71-4.03,6.39-2.69.34-4.71-1.01-6.05-4.03l-1.01-3.36c-3.03-15.8-6.39-31.27-9.75-46.73-1.68-9.08-3.7-18.49-4.71-27.57-.67-11.09-2.02-22.52-5.38-33.28-3.7-12.1-6.05-24.54-7.73-36.98,0-1.34-.67-2.02-1.68-4.03-4.03,5.38-4.71,12.1-7.73,17.48l-9.75,15.13c-.34,11.77,0,24.21-1.34,36.31-1.35,5.38.34,11.77.67,18.15,0,4.71.34,9.75,0,14.46-.34,15.46-1.68,31.27-.67,46.73,0,2.69-.34,5.72-1.01,8.4-.34,2.35-1.68,4.04-3.36,3.7-2.02-.34-3.7-1.01-4.71-2.69s-1.68-4.37-1.68-6.72c0-7.4.67-14.79.67-22.19.67-13.45,2.35-26.9.67-40.34-.34-7.4-.34-15.13.67-21.85,2.69-16.47,1.34-32.61-1.34-48.75-.34-4.03-.67-8.07-.34-12.1.34-11.77,1.34-23.87,1.34-35.64.34-16.47,0-32.95-.34-49.08,0-9.08-.67-18.49-1.34-27.9-.67-8.4,1.34-10.42,10.09-8.74,1.34,21.85.67,43.37,1.01,65.56.34,21.85-2.69,43.37-2.69,65.22,1.01.34,1.68.34,2.35.67l-.02-.02Z"
       id="path25" />
    <path
       class="st1"
       d="M910.94,759.67c4.37-.34,8.07-.67,12.44-1.34,1.01,0,2.02,0,3.03-.34h11.77c3.7,0,7.4,0,11.77-1.34,1.68-.34,3.36-.34,5.04-1.01h1.68c3.36,0,5.38,2.35,5.72,4.71.34,2.35,0,5.71-1.34,7.73-.67,1.68-2.69,4.37-5.72,4.37-.67,0-1.34-.34-2.35-.67-1.01-.67-2.02-.67-3.03-.67-1.68,0-3.36.34-5.04.67l-.34.34c-.34,0-.67,0-1.01.34-1.01.34-2.02.67-3.03.67-.34,0-.67,0-.67-.34-2.02-.34-4.37-.34-6.72-.34-3.7,0-7.06.34-10.76.67-3.7.34-7.06.67-10.42.67h-1.68c-3.36,0-7.4-.34-12.1-1.01-2.69-.34-5.38-4.71-5.38-8.07v-1.68c0-.34.34-.67.34-1.01,1.68-13.45,1.68-27.23,1.35-42.36,0-3.36.34-6.39.67-9.75l.67-6.72v-8.4c.34-12.44,1.01-24.88,2.02-36.98.67-7.4.34-14.46-.34-21.18-1.34-22.86-1.01-46.39-.67-68.92v-7.73c0-9.75-.34-20.17-1.01-29.58-.34-4.04-.34-8.07-.67-12.1,0-.67,0-1.68-.34-2.69,0-2.02-.34-4.03-.34-5.71.34-2.02,2.69-5.71,4.71-5.71h.34c2.35,0,4.37-.34,7.06-1.01,2.69,0,5.38-.34,8.07-.34h3.36c6.05.67,12.77,1.01,18.83,1.01,2.69.34,6.05.34,8.74.34h1.68c2.02.34,3.7.34,5.38.67,2.02.34,3.03,1.68,4.03,3.36,1.01,1.34,1.34,3.36,1.01,4.71-1.01,4.04-3.36,6.05-6.05,6.05h-1.68c-5.04-1.68-10.42-2.35-17.15-2.35h-8.07c-3.03.34-6.39.34-9.75,0-1.01,0-1.68-.34-2.02-.34-2.35,0-4.03.67-5.38,1.68v37.99c0,3.7,0,7.06-.34,11.09v24.88c0,5.38,0,11.43.34,17.14v6.39c2.35,0,4.71,0,6.72-.34,6.72-.67,13.45-1.34,19.84-1.68.67,0,1.34,0,2.35-.34,1.34,0,2.69-.34,3.7-.34,2.02,0,4.71.34,7.4,3.03l.67.67v.67c-1.01,6.72-2.02,11.77-7.73,11.77-1.01,0-2.35-.34-4.37-.67-2.69-.67-6.39-1.01-10.09-1.01-5.72,0-11.43,1.01-18.49,3.03v1.01c2.35,15.47,1.34,30.26,0,45.39-.67,8.74-1.01,17.82-1.01,27.57v55.47h4.37v-.02Z"
       id="path26" />
  </g>
  <g
     id="g36">
    <g
       class="st2"
       id="g35">
      <g
         class="st2"
         id="g34" />
    </g>
  </g>
</svg>
