<?xml version="1.0" standalone="no"?>
<!DOCTYPE svg PUBLIC "-//W3C//DTD SVG 20010904//EN"
 "http://www.w3.org/TR/2001/REC-SVG-20010904/DTD/svg10.dtd">
<svg version="1.0" xmlns="http://www.w3.org/2000/svg"
 width="1752.000000pt" height="357.000000pt" viewBox="0 0 1752.000000 357.000000"
 preserveAspectRatio="xMidYMid meet">
<metadata>
Created by potrace 1.16, written by Peter Selinger 2001-2019
</metadata>
<g transform="translate(0.000000,357.000000) scale(0.100000,-0.100000)"
fill="#000000" stroke="none">
<path d="M5760 3036 c-329 -70 -523 -320 -600 -771 -34 -203 -43 -385 -37
-758 7 -415 22 -553 83 -752 78 -253 197 -408 379 -496 108 -52 202 -71 355
-71 151 -1 242 18 357 73 265 127 399 409 419 888 l7 161 -265 0 -265 0 -6
-187 c-6 -198 -15 -256 -52 -338 -43 -94 -104 -137 -194 -137 -96 0 -142 31
-190 128 -42 84 -52 170 -58 495 l-5 306 248 6 c137 4 370 7 518 7 l269 0 -6
293 c-9 427 -41 615 -137 814 -82 168 -196 267 -375 323 -90 28 -343 37 -445
16z m264 -460 c101 -42 165 -221 166 -461 l0 -111 -237 3 c-131 2 -244 3 -252
3 -12 0 -13 20 -8 118 16 278 57 400 151 443 49 22 133 25 180 5z"/>
<path d="M9285 3046 c-5 -2 -37 -10 -70 -17 -129 -27 -264 -112 -349 -218
-110 -136 -179 -315 -223 -576 -16 -96 -18 -170 -18 -590 0 -499 5 -578 46
-772 73 -343 218 -543 466 -645 15 -6 33 -12 38 -13 6 -2 37 -9 70 -16 100
-22 314 -17 414 10 369 99 536 406 558 1028 l6 183 -271 0 -272 0 0 -178 c0
-338 -35 -481 -136 -558 -27 -21 -50 -29 -94 -32 -152 -11 -225 77 -256 308
-16 125 -20 1091 -4 1255 19 196 59 298 138 347 52 32 152 32 203 1 109 -68
149 -222 149 -575 l0 -188 98 0 c53 0 175 3 271 7 l174 6 -6 176 c-14 379 -82
654 -200 810 -62 82 -95 112 -177 160 -114 68 -181 83 -375 87 -93 2 -174 2
-180 0z"/>
<path d="M14291 3034 c-81 -17 -200 -73 -269 -126 -135 -105 -238 -296 -291
-541 -42 -193 -51 -328 -51 -748 0 -516 16 -677 87 -894 86 -264 258 -445 483
-509 141 -40 356 -40 492 1 172 51 318 176 401 343 85 173 115 313 124 578 l6
172 -264 -2 -264 -3 -6 -190 c-8 -230 -25 -304 -91 -398 -39 -55 -128 -83
-209 -66 -61 13 -97 42 -131 106 -50 92 -60 169 -65 517 l-5 319 516 -6 516
-5 0 231 c0 436 -40 688 -142 897 -32 66 -58 102 -119 163 -89 89 -174 135
-301 161 -96 20 -327 20 -417 0z m285 -463 c53 -24 81 -54 111 -119 34 -73 52
-185 53 -329 l0 -123 -252 0 -251 0 6 135 c7 138 27 262 53 325 45 108 174
159 280 111z"/>
<path d="M1634 3010 c-116 -37 -189 -132 -231 -296 -15 -58 -18 -117 -18 -359
0 -268 2 -297 22 -377 28 -111 61 -174 112 -221 75 -68 159 -93 280 -84 109 8
165 32 231 97 92 93 126 212 136 485 7 190 -7 411 -32 496 -26 88 -70 165
-116 202 -89 72 -257 97 -384 57z m203 -224 c16 -14 35 -42 42 -63 18 -52 27
-537 12 -655 -11 -97 -34 -153 -57 -144 -8 3 -13 2 -10 -3 8 -13 -46 -30 -78
-24 -33 7 -73 53 -85 101 -13 53 -22 519 -12 634 13 137 39 176 123 177 25 1
46 -7 65 -23z"/>
<path d="M2385 3009 c-2 -3 -2 -629 0 -1392 l4 -1387 563 0 563 0 7 207 c3
115 11 395 17 623 10 389 23 821 39 1300 l7 205 72 3 71 3 6 -73 c3 -40 10
-302 16 -583 6 -280 15 -661 20 -845 5 -184 12 -449 16 -588 l7 -252 568 0
569 0 0 1390 0 1390 -261 0 -261 0 6 -92 c3 -51 7 -577 8 -1168 l3 -1075 -110
0 -110 0 -12 405 c-6 223 -21 679 -32 1015 -12 335 -21 668 -21 740 0 71 -3
140 -6 153 l-6 22 -474 0 -474 0 0 -22 c-1 -75 -60 -1938 -68 -2148 l-7 -165
-110 0 -110 0 2 605 c2 333 6 858 9 1167 l6 562 -257 3 c-141 2 -258 1 -260
-3z"/>
<path d="M11748 3012 l-268 -2 0 -374 c0 -205 -3 -468 -7 -584 l-6 -212 -249
0 -248 0 0 585 0 585 -275 0 -275 0 0 -1390 0 -1389 275 -3 275 -3 0 578 0
577 248 0 249 0 6 -407 c4 -223 7 -482 7 -575 l0 -168 273 0 272 0 4 1389 c2
798 0 1390 -5 1392 -5 2 -129 3 -276 1z"/>
<path d="M15470 3015 c-1 0 -3 -626 -5 -1392 l-5 -1392 276 -3 c152 -2 278 -1
280 1 2 2 4 229 4 503 l0 498 215 0 215 0 0 -500 0 -499 258 -3 c143 -2 266
-2 275 0 16 3 17 42 17 450 0 492 -3 524 -61 632 -37 69 -106 140 -176 177
l-52 29 59 47 c169 135 248 355 237 657 -6 166 -32 274 -95 395 -51 99 -183
229 -282 279 -40 20 -79 36 -87 36 -8 0 -11 5 -7 12 4 6 3 8 -3 5 -5 -3 -37 3
-72 13 -120 38 -183 43 -589 49 -221 3 -402 6 -402 6z m801 -480 c85 -30 146
-113 169 -233 8 -40 11 -113 7 -209 -6 -175 -25 -246 -88 -317 -60 -67 -112
-89 -236 -94 l-103 -5 0 443 0 443 103 -6 c56 -3 123 -13 148 -22z"/>
<path d="M550 2350 l0 -660 130 0 130 0 0 235 0 235 100 0 100 0 1 -220 c1
-121 2 -226 3 -232 1 -10 36 -14 134 -16 l132 -3 0 200 c0 110 -5 223 -11 250
-13 62 -44 109 -91 140 l-36 23 32 28 c72 64 113 192 103 323 -15 195 -121
310 -321 348 -27 5 -129 9 -227 9 l-179 0 0 -660z m411 415 c36 -33 49 -78 49
-173 0 -71 -4 -96 -22 -132 -27 -52 -74 -80 -135 -80 l-43 0 0 204 c0 142 3
205 11 208 27 9 119 -9 140 -27z"/>
<path d="M6920 1620 l0 -1390 269 0 268 0 7 493 c4 270 8 493 9 493 1 1 98 4
215 6 l212 5 0 -498 0 -499 276 0 275 0 -3 472 c-4 460 -4 475 -26 532 -44
116 -123 211 -220 260 l-43 22 47 34 c97 72 167 181 220 340 27 82 28 93 28
280 0 169 -3 205 -21 272 -74 263 -245 436 -508 513 -151 44 -283 55 -662 55
l-343 0 0 -1390z m791 915 c127 -43 189 -177 189 -405 0 -236 -62 -366 -205
-429 -16 -7 -74 -15 -127 -18 l-98 -6 0 437 0 436 98 0 c62 0 115 -6 143 -15z"/>
<path d="M12162 2783 l3 -228 231 -3 231 -2 6 -218 c4 -119 7 -641 7 -1159 l0
-942 270 -3 270 -3 0 1162 0 1163 238 2 237 3 3 228 2 227 -750 0 -750 0 2
-227z"/>
<path d="M824 1557 c-170 -44 -260 -184 -285 -445 -15 -156 -6 -463 16 -562
52 -226 158 -329 346 -338 256 -12 389 157 389 495 0 83 -2 94 -16 89 -9 -3
-65 -6 -125 -6 l-109 0 0 -82 c0 -173 -32 -262 -99 -274 -54 -11 -83 5 -111
61 l-25 50 0 320 c0 347 6 404 51 448 53 53 123 35 155 -38 16 -37 21 -73 24
-173 l4 -127 128 0 128 0 -3 110 c-7 251 -74 397 -209 457 -56 25 -190 32
-259 15z"/>
<path d="M1420 890 l0 -660 120 0 120 0 2 231 3 232 68 -129 c37 -71 91 -175
119 -231 l52 -103 153 0 153 0 -30 49 c-17 26 -30 51 -30 55 0 3 -11 23 -23
44 -27 42 -195 343 -247 441 l-34 63 62 122 c34 66 109 212 167 323 58 112
105 207 105 213 0 6 -51 10 -135 10 l-135 0 -54 -112 c-30 -62 -83 -175 -119
-251 -36 -75 -68 -137 -71 -137 -3 0 -2 113 1 250 l6 250 -126 0 -127 0 0
-660z"/>
<path d="M14914 33 c8 -9 95 -32 116 -32 8 1 -12 9 -45 20 -64 20 -83 23 -71
12z"/>
</g>
</svg>
