<?xml version="1.0" encoding="UTF-8" standalone="no"?>
<svg
   xmlns:dc="http://purl.org/dc/elements/1.1/"
   xmlns:cc="http://creativecommons.org/ns#"
   xmlns:rdf="http://www.w3.org/1999/02/22-rdf-syntax-ns#"
   xmlns:svg="http://www.w3.org/2000/svg"
   xmlns="http://www.w3.org/2000/svg"
   viewBox="0 0 449.65332 172.36"
   height="172.36"
   width="449.65332"
   xml:space="preserve"
   id="svg2"
   version="1.1"><metadata
     id="metadata8"><rdf:RDF><cc:Work
         rdf:about=""><dc:format>image/svg+xml</dc:format><dc:type
           rdf:resource="http://purl.org/dc/dcmitype/StillImage" /></cc:Work></rdf:RDF></metadata><defs
     id="defs6" /><g
     transform="matrix(1.3333333,0,0,-1.3333333,0,172.36)"
     id="g10"><g
       transform="scale(0.1)"
       id="g12"><path
         id="path14"
         style="fill:#f36717;fill-opacity:1;fill-rule:nonzero;stroke:none"
         d="m 1350.29,1033.76 -0.03,0.03 c 0,0 -0.04,0.01 0.03,-0.03" /><path
         id="path16"
         style="fill:#f36717;fill-opacity:1;fill-rule:nonzero;stroke:none"
         d="m 2094.88,1229.56 h -10.5 c -52.92,-89.8 -138.58,-157.05 -233.75,-187.64 -193.57,-62.197 -408.05,45.35 -544.45,250.77 h -18.51 C 1264.79,1027.74 1112.6,803.109 885.16,647.539 v -13.93 c 72.633,25.668 180.29,21.321 232.45,-10.164 84.15,-50.765 126.92,-156.035 128.83,-287.039 h 19.88 c 83.21,341.571 323.71,583.172 601.61,563.614 226.7,-15.993 378.36,-153.868 459.02,-411.422 h 11.33 c 23.79,30.332 75.14,75.773 129.34,82.109 v 9.063 c -169.44,122.699 -341.69,382.55 -372.74,649.79" /><path
         id="path18"
         style="fill:#f36717;fill-opacity:1;fill-rule:nonzero;stroke:none"
         d="m 78.3906,220.352 v -55.18 h 17.9961 c 13.9963,0 24.7893,12.387 24.7893,27.187 0,14.801 -10.793,27.993 -24.7893,27.993 z M 0,289.941 h 99.9805 c 55.1995,0 99.9925,-43.589 99.9925,-97.582 0,-30.39 -13.606,-57.179 -36.793,-75.578 L 214.371,3.98828 H 128.777 L 89.1914,97.5781 H 78.3906 V 3.98828 L 0,3.98828 V 289.941" /><path
         id="path20"
         style="fill:#f36717;fill-opacity:1;fill-rule:nonzero;stroke:none"
         d="m 366.172,145.98 c 0,65.168 -17.203,77.18 -31.992,77.18 -14.801,0 -31.989,-12.012 -31.989,-77.18 0,-64.3902 16.789,-76.3902 31.989,-76.3902 15.191,0 31.992,12 31.992,76.3902 m -142.367,0 c 0,116.77 49.187,147.165 110.375,147.165 60.793,0 110.383,-30.395 110.383,-147.165 C 444.563,29.9883 394.973,0 334.18,0 272.992,0 223.805,29.9883 223.805,145.98" /><path
         id="path22"
         style="fill:#f36717;fill-opacity:1;fill-rule:nonzero;stroke:none"
         d="m 541.238,101.578 c 0,-23.1991 8,-30.3983 18.789,-30.3983 12.407,0 19.203,9.1992 19.203,18.3984 0,13.9919 -16.796,20.7929 -34.8,27.9999 -30.793,11.992 -76.379,30.391 -76.379,85.172 0,52.41 41.988,90.395 93.582,90.395 48.789,0 89.988,-33.997 89.988,-90.786 H 577.23 c 0,15.602 -5.597,24 -16.402,24 -11.187,0 -15.598,-9.199 -15.598,-15.597 0,-11.203 14,-17.203 34,-25.59 34.387,-14.41 78.79,-34 78.79,-89.1915 C 658.02,42.7891 617.23,0 559.23,0 510.438,0 463.254,29.9883 463.254,101.172 l 77.984,0.406" /><path
         id="path24"
         style="fill:#f36717;fill-opacity:1;fill-rule:nonzero;stroke:none"
         d="M 831.711,175.969 907.699,3.98828 H 821.711 L 781.719,109.98 762.922,80.3789 V 3.98828 H 684.531 V 289.941 h 78.391 V 183.559 l 59.187,106.382 h 79.59 L 831.711,175.969" /><path
         id="path26"
         style="fill:#f36717;fill-opacity:1;fill-rule:nonzero;stroke:none"
         d="M 1002.92,3.98828 H 924.527 V 289.949 h 78.393 V 3.98828" /><path
         id="path28"
         style="fill:#f36717;fill-opacity:1;fill-rule:nonzero;stroke:none"
         d="M 1216.5,3.98828 H 1044.53 V 289.941 h 78.39 V 73.1797 h 93.58 V 3.98828" /><path
         id="path30"
         style="fill:#f36717;fill-opacity:1;fill-rule:nonzero;stroke:none"
         d="M 1322.92,220.352 V 73.1797 h 22.39 c 19.6,0 31.6,12.8008 31.6,73.1993 0,61.18 -12,73.973 -31.6,73.973 z m 22.39,69.589 c 64,0 109.98,-30.39 109.98,-143.562 0,-111.9884 -45.98,-142.39072 -109.98,-142.39072 H 1244.53 V 289.941 h 100.78" /><path
         id="path32"
         style="fill:#f36717;fill-opacity:1;fill-rule:nonzero;stroke:none"
         d="M 1671.87,3.98828 H 1484.3 V 289.941 h 179.96 v -69.589 h -101.57 v -38.793 h 70.39 V 115.98 h -70.39 V 73.1797 h 109.18 V 3.98828" /><path
         id="path34"
         style="fill:#f36717;fill-opacity:1;fill-rule:nonzero;stroke:none"
         d="m 1952.23,109.18 h -82.79 V 3.98828 h -78.39 V 289.941 h 184.37 v -69.589 h -105.98 v -45.18 h 82.79 V 109.18" /><path
         id="path36"
         style="fill:#f36717;fill-opacity:1;fill-rule:nonzero;stroke:none"
         d="M 2189.51,3.98828 H 2001.94 V 289.941 h 179.97 v -69.589 h -101.58 v -38.793 h 70.39 V 115.98 h -70.39 V 73.1797 h 109.18 V 3.98828" /><path
         id="path38"
         style="fill:#f36717;fill-opacity:1;fill-rule:nonzero;stroke:none"
         d="m 2280.99,101.578 c 0,-23.1991 7.99,-30.3983 18.79,-30.3983 12.4,0 19.19,9.1992 19.19,18.3984 0,13.9919 -16.79,20.7929 -34.79,27.9999 -30.79,11.992 -76.39,30.391 -76.39,85.172 0,52.41 42,90.395 93.59,90.395 48.79,0 89.99,-33.997 89.99,-90.786 h -74.4 c 0,15.602 -5.59,24 -16.39,24 -11.2,0 -15.6,-9.199 -15.6,-15.597 0,-11.203 13.99,-17.203 33.99,-25.59 34.4,-14.41 78.79,-34 78.79,-89.1915 C 2397.76,42.7891 2356.97,0 2298.97,0 2250.19,0 2203,29.9883 2203,101.172 l 77.99,0.406" /><path
         id="path40"
         style="fill:#f36717;fill-opacity:1;fill-rule:nonzero;stroke:none"
         d="m 2403.85,289.941 h 201.16 v -69.589 h -61.19 V 3.98828 h -78.39 V 220.352 h -61.58 v 69.589" /><path
         id="path42"
         style="fill:#f36717;fill-opacity:1;fill-rule:nonzero;stroke:none"
         d="m 2711.44,3.98828 h -78.39 V 289.949 h 78.39 V 3.98828" /><path
         id="path44"
         style="fill:#f36717;fill-opacity:1;fill-rule:nonzero;stroke:none"
         d="M 2967.41,289.941 2889.02,3.98828 h -74.78 L 2737.05,289.941 h 78.79 l 35.99,-165.972 35.99,165.972 h 79.59" /><path
         id="path46"
         style="fill:#f36717;fill-opacity:1;fill-rule:nonzero;stroke:none"
         d="m 3043.85,111.578 h 29.99 l -15.21,75.981 z m 43.19,-65.9882 h -56.4 l -7.99,-41.60152 h -82.79 l 77.99,285.95272 h 81.98 l 78.4,-285.95272 h -82.79 l -8.4,41.60152" /><path
         id="path48"
         style="fill:#f36717;fill-opacity:1;fill-rule:nonzero;stroke:none"
         d="M 3372.42,3.98828 H 3200.45 V 289.941 h 78.39 V 73.1797 h 93.58 V 3.98828" /></g></g></svg>