<?xml version="1.0" standalone="no"?>
<!DOCTYPE svg PUBLIC "-//W3C//DTD SVG 20010904//EN"
 "http://www.w3.org/TR/2001/REC-SVG-20010904/DTD/svg10.dtd">
<svg version="1.0" xmlns="http://www.w3.org/2000/svg"
 width="700.000000pt" height="700.000000pt" viewBox="0 0 700.000000 700.000000"
 preserveAspectRatio="xMidYMid meet">
<metadata>
Created by potrace 1.14
</metadata>
<g transform="translate(0.000000,700.000000) scale(0.100000,-0.100000)"
fill="#000000" stroke="none">
<path d="M1809 5608 c-4 -14 -10 -53 -14 -98 -7 -61 -7 -65 -30 -200 -76 -446
-265 -919 -528 -1319 -51 -78 -230 -320 -263 -356 -11 -11 -50 -56 -89 -100
-200 -228 -535 -525 -773 -685 -44 -30 -52 -40 -52 -67 l0 -32 39 13 c211 75
569 80 804 11 309 -90 532 -358 657 -790 9 -33 27 -119 36 -179 3 -21 7 -47 9
-58 4 -17 11 -106 20 -233 1 -16 3 -34 4 -40 0 -5 19 -10 41 -10 45 -1 36 -18
90 180 27 97 96 303 110 327 5 10 10 23 10 29 0 5 11 35 25 65 14 30 25 57 25
59 0 6 51 119 91 200 28 59 93 180 138 260 31 53 183 282 213 319 12 16 52 65
88 110 105 131 294 316 457 447 147 118 427 272 616 338 144 50 249 75 427
100 78 11 402 12 462 1 24 -5 62 -11 85 -14 22 -3 52 -8 65 -10 12 -3 34 -8
48 -10 57 -9 200 -47 270 -71 515 -177 915 -550 1195 -1114 78 -157 153 -341
202 -493 10 -32 24 -58 31 -59 6 -1 17 -2 23 -3 6 0 52 40 103 90 135 134 264
214 407 251 55 14 68 21 65 35 -1 10 -50 56 -109 103 -98 77 -339 308 -433
415 -382 430 -724 1025 -902 1570 -40 121 -86 279 -96 330 -2 14 -14 66 -24
115 -11 50 -25 124 -31 165 -7 41 -14 90 -17 108 -8 54 -37 42 -90 -40 -91
-141 -235 -302 -374 -417 -240 -200 -580 -353 -854 -386 -22 -3 -52 -7 -66
-10 -14 -3 -74 -6 -135 -6 -355 -5 -687 93 -1034 302 -217 131 -521 402 -681
609 -19 24 -43 53 -52 64 -10 11 -44 57 -75 103 -55 79 -60 83 -95 83 -21 0
-38 -1 -39 -2z"/>
</g>
</svg>
