<svg width="140" height="56" viewBox="0 0 140 56" fill="none" xmlns="http://www.w3.org/2000/svg">
<g clip-path="url(#clip0_13428_90110)">
<path d="M9.05571 3.40015C9.06295 3.28207 9.12092 3.20496 9.23204 3.1664C9.28759 3.15435 9.32866 3.14712 9.35764 3.14471L10.5847 3.10134C10.691 3.0917 11.0147 3.08688 11.5533 3.08447C12.0413 3.07965 12.4495 3.22423 12.7804 3.52063C13.0534 3.75197 13.2055 4.04596 13.2418 4.40501C13.278 4.79057 13.1572 5.12552 12.8819 5.40987C12.8287 5.4677 12.8287 5.52072 12.8867 5.56891L12.9471 5.60024C13.435 5.92074 13.6379 6.40509 13.5534 7.05813C13.5196 7.35694 13.3819 7.62683 13.1427 7.87022C12.9302 8.08468 12.6838 8.23409 12.4012 8.31602C12.1886 8.37385 11.8722 8.41964 11.4471 8.45096C11.2127 8.46542 10.906 8.47506 10.5316 8.48229L9.50499 8.5088C9.33107 8.49193 9.2417 8.40759 9.23445 8.25819L9.20305 7.87263C9.19097 7.71117 9.18614 7.58105 9.18856 7.48707C9.18856 7.11838 9.16682 6.56173 9.13059 5.81712L9.06054 3.7857C9.05329 3.59051 9.05087 3.46039 9.05571 3.40015ZM10.1886 4.22669C10.2031 4.62911 10.2151 4.899 10.2248 5.03154C10.2272 5.13757 10.2876 5.19781 10.3987 5.20986C10.4277 5.21468 10.4905 5.21468 10.592 5.20986L11.1306 5.19058C11.3118 5.20022 11.5606 5.15685 11.8843 5.05564C11.9736 5.02431 12.0364 4.96889 12.0727 4.88937C12.1669 4.70623 12.1765 4.53754 12.0968 4.38332C12.0171 4.22428 11.877 4.1303 11.6741 4.10379C11.5727 4.09174 11.3166 4.09174 10.9084 4.10379L10.2949 4.12548C10.2224 4.12789 10.1862 4.15921 10.1886 4.22187V4.22669ZM10.3263 7.45574C10.3432 7.47261 10.3963 7.48466 10.4881 7.49189C10.5267 7.49671 10.5895 7.49189 10.6741 7.47743C10.7586 7.46779 10.8214 7.46779 10.8673 7.4702C10.9688 7.48466 11.0678 7.48948 11.162 7.48466L11.7659 7.42923C12.1186 7.40514 12.3408 7.23886 12.4302 6.92801C12.5123 6.69667 12.4471 6.49666 12.2321 6.33039C12.0944 6.22195 11.8988 6.16894 11.6451 6.16653C11.5388 6.16653 11.1185 6.17617 10.3842 6.20268C10.3118 6.20509 10.2707 6.24846 10.2635 6.3328L10.2973 7.29911C10.2997 7.38345 10.3094 7.43646 10.3287 7.45815L10.3263 7.45574ZM17.8312 7.7666C17.481 8.15939 16.9013 8.37144 16.0945 8.39795C15.9254 8.40277 15.7587 8.39795 15.5896 8.38108C14.9302 8.2871 14.464 8.02926 14.1911 7.60755C13.9543 7.25091 13.8239 6.71113 13.7973 5.98339L13.7828 5.10142C13.7756 4.74237 13.7635 4.44597 13.7442 4.21223C13.7345 4.11825 13.7321 3.97366 13.7369 3.78329C13.7418 3.59292 13.7369 3.45075 13.7225 3.35436C13.7152 3.31098 13.72 3.25556 13.7345 3.19532C13.7466 3.08929 13.8046 3.03386 13.906 3.02904C14.2804 3.017 14.5051 3.01459 14.58 3.02182C14.6983 3.03386 14.7684 3.08688 14.7877 3.18327C14.7998 3.217 14.807 3.2893 14.8118 3.40015C14.8698 4.59779 14.9036 5.38818 14.9109 5.77374C14.9109 6.04363 14.923 6.31111 14.9568 6.5786C15.0389 7.15934 15.4302 7.43646 16.1307 7.41237C16.5969 7.3955 16.8988 7.28224 17.0365 7.07018C17.1694 6.89186 17.2418 6.70149 17.2515 6.49907L17.2612 5.82676C17.2443 5.33999 17.2177 4.85804 17.1863 4.38332C17.1718 4.11584 17.1621 3.88691 17.1621 3.69413V3.2652C17.1573 3.05314 17.2201 2.93507 17.353 2.91338C17.7732 2.89892 17.9979 2.8941 18.0269 2.89892C18.1742 2.91097 18.2491 2.9929 18.2539 3.1423C18.2998 3.64594 18.3264 4.14717 18.3312 4.65321L18.3675 5.68458C18.3989 6.61956 18.2225 7.31116 17.8336 7.76178L17.8312 7.7666ZM18.6791 3.10616C18.6839 2.8941 18.7829 2.78325 18.9786 2.77602L20.5269 2.72301C21.0487 2.72301 21.3603 2.72783 21.4617 2.73988C22.2733 2.8459 22.8458 3.21941 23.1767 3.85559C23.4424 4.36163 23.5608 4.92069 23.539 5.53277C23.5221 5.87013 23.4932 6.11351 23.4473 6.26774C23.1405 7.43164 22.4134 8.03408 21.2709 8.07504C21.2033 8.06059 21.1574 8.05577 21.1356 8.063C20.9062 8.10396 20.6066 8.12806 20.2371 8.13529C19.795 8.14493 19.4931 8.15939 19.3385 8.17384H19.237C19.08 8.15939 18.9762 8.13047 18.9303 8.08709C18.8771 8.0389 18.8506 7.93528 18.8433 7.77865L18.7032 3.97607C18.6887 3.53991 18.6815 3.24833 18.6815 3.10375L18.6791 3.10616ZM20.0994 7.14007C20.4182 7.12802 20.7419 7.11115 21.0656 7.08946C21.6936 7.06777 22.0994 6.80752 22.2854 6.30629C22.3144 6.2099 22.3603 5.91351 22.4231 5.41951C22.4545 5.01467 22.3555 4.62429 22.1284 4.24597C21.9086 3.87727 21.5294 3.70377 20.9907 3.72305C20.5873 3.72546 20.2636 3.7351 20.0245 3.74715C19.8675 3.75197 19.7999 3.82667 19.8216 3.97366C19.8482 4.09174 19.8602 4.24597 19.8554 4.44356C19.853 4.66767 19.8554 4.82189 19.8627 4.90623C19.8699 4.97853 19.8747 5.11347 19.8772 5.30866C19.8772 5.47734 19.8868 5.60988 19.9086 5.71109L19.952 6.98584C19.9569 7.09187 20.0052 7.14247 20.1018 7.14007H20.0994ZM27.9014 7.70153L27.7758 7.45333L27.3555 6.52558C27.3193 6.4316 27.2517 6.38582 27.1575 6.39064C27.027 6.39064 26.7734 6.39545 26.3918 6.40991L25.9884 6.4316C25.8193 6.44365 25.6864 6.44847 25.585 6.44606C25.4207 6.44124 25.3169 6.51353 25.2734 6.66776L24.9304 7.67021C24.8531 7.89672 24.7009 8.00516 24.4714 7.99793C24.4086 7.98829 24.3289 7.98588 24.2275 7.9907L23.9835 8.00034C23.7806 7.97866 23.7105 7.87986 23.7709 7.70635C23.8265 7.51358 23.9207 7.25091 24.056 6.91596L24.9787 4.43874C25.1309 3.97366 25.2806 3.5857 25.4256 3.27243C25.457 3.19291 25.4787 3.11098 25.4932 3.02664C25.5029 2.98808 25.5391 2.89651 25.6019 2.75433C25.643 2.6459 25.7227 2.58806 25.841 2.57842C26.0657 2.55915 26.2806 2.5471 26.4884 2.53987C26.5995 2.53505 26.6889 2.58806 26.7541 2.69891C26.7662 2.70855 26.8145 2.80494 26.899 2.98808C27.2082 3.62666 27.457 4.15439 27.6454 4.56646C28.0029 5.30384 28.1696 5.65084 28.1454 5.60747C28.23 5.77856 28.3652 6.05809 28.5536 6.45088C28.7179 6.81475 28.8532 7.09669 28.9618 7.29429C29.0029 7.37622 29.0367 7.46538 29.0633 7.55936C29.0971 7.72081 29.0367 7.81238 28.8797 7.83407L28.2324 7.8654C28.0923 7.8919 27.9836 7.8413 27.9063 7.70876L27.9014 7.70153ZM25.7178 5.45807C25.7516 5.48939 25.8096 5.50626 25.8869 5.50144C25.9884 5.4918 26.1889 5.48216 26.4932 5.47252C26.527 5.47252 26.6019 5.46047 26.7203 5.43879C26.8145 5.42433 26.8435 5.37372 26.8072 5.28456C26.6116 4.8484 26.428 4.44597 26.2517 4.07728C26.2203 4.11102 26.1164 4.3544 25.9401 4.80262C25.8145 5.08696 25.742 5.30625 25.7178 5.45807ZM28.9498 2.75674C28.9594 2.56155 29.0971 2.45794 29.3604 2.4483C30.4208 2.41215 31.1261 2.39046 31.4788 2.38323C31.916 2.36878 32.3025 2.44589 32.6407 2.61939C33.0344 2.8194 33.2808 3.1158 33.3798 3.51099C33.5151 4.13994 33.4209 4.66044 33.0972 5.07492C32.8049 5.40505 32.3605 5.61229 31.7638 5.70145C31.6189 5.71832 31.1793 5.7376 30.445 5.7641L30.2855 5.76892C30.2131 5.77615 30.1768 5.81471 30.1793 5.88218C30.1768 6.26292 30.1793 6.51594 30.1889 6.63884L30.2227 7.63647C30.2227 7.69672 30.1841 7.74491 30.102 7.77624C29.9836 7.79792 29.8677 7.80997 29.7493 7.81238C29.614 7.8172 29.4739 7.8172 29.329 7.81238C29.2324 7.81479 29.1672 7.75696 29.1285 7.63406C29.1213 7.60033 29.1019 7.14247 29.073 6.2581L28.9498 3.23628C28.9449 3.07483 28.9449 2.91338 28.9498 2.75674ZM31.9039 4.63634C32.1986 4.55441 32.3387 4.33994 32.3291 4.00017C32.317 3.6363 32.1431 3.4387 31.8121 3.40496C31.5875 3.37364 31.329 3.364 31.0368 3.37364C30.4812 3.39292 30.2276 3.40496 30.2711 3.40978C30.1575 3.40255 30.0996 3.46039 30.0923 3.58329C30.0923 3.69413 30.0923 3.86523 30.102 4.09656C30.114 4.32067 30.1213 4.49176 30.1189 4.60743C30.1213 4.70864 30.1793 4.76165 30.2928 4.76888L30.8556 4.7496C31.2276 4.77129 31.5754 4.73273 31.9039 4.63634ZM33.3967 2.54228C33.4184 2.39528 33.5102 2.31094 33.6648 2.28925L33.8243 2.2748C34.2011 2.27962 34.7615 2.25793 35.5054 2.21696L37.2808 2.15431C37.4886 2.14708 37.5948 2.21455 37.5997 2.35432C37.6359 2.58324 37.6432 2.77602 37.619 2.93266C37.6069 3.06278 37.5393 3.13266 37.4161 3.1423C36.8847 3.17845 36.532 3.19291 36.3557 3.18809L35.6745 3.21219C35.5852 3.22182 35.4281 3.22423 35.2035 3.21941C35.0078 3.22664 34.8533 3.23387 34.7421 3.24351C34.6238 3.25315 34.5561 3.27243 34.5344 3.30135C34.5078 3.33026 34.4958 3.40255 34.5006 3.52063C34.5103 3.62666 34.5199 3.83872 34.532 4.15921C34.5489 4.29416 34.6165 4.35922 34.7421 4.3544L36.8944 4.2797C36.9668 4.2797 37.0973 4.2797 37.2808 4.29175C37.4161 4.3038 37.4886 4.37127 37.4982 4.49417C37.5224 4.70623 37.532 4.87732 37.5248 5.00503C37.5248 5.06528 37.5006 5.12311 37.4475 5.17613C37.3944 5.22914 37.3364 5.25565 37.2736 5.25806C36.9161 5.28215 36.2035 5.31107 35.1383 5.34963H34.718C34.6334 5.34963 34.5924 5.40023 34.5972 5.49421C34.5779 5.74241 34.5851 5.94483 34.619 6.10629C34.6262 6.14002 34.6238 6.24605 34.6141 6.42678C34.6069 6.56173 34.6769 6.63402 34.8243 6.64607H34.9837C35.2301 6.63402 35.6021 6.61956 36.1021 6.60269C36.5948 6.58582 36.9644 6.56896 37.2108 6.5545C37.4233 6.54727 37.5634 6.54486 37.6311 6.54727C37.8171 6.55691 37.9064 6.6533 37.9016 6.83162C37.8968 7.00994 37.8992 7.15211 37.9089 7.25091C37.9258 7.41237 37.8436 7.50635 37.6649 7.52803C37.6263 7.53526 37.5514 7.54008 37.4378 7.5449L36.8823 7.55695L33.9233 7.66057C33.6817 7.6678 33.5585 7.59069 33.5537 7.42923L33.387 2.89651C33.3822 2.77843 33.387 2.66035 33.3991 2.54228H33.3967ZM37.8823 6.07496C37.8557 5.9858 37.8412 5.85085 37.834 5.6653C37.8292 5.54723 37.8944 5.47493 38.0296 5.44843C38.0635 5.4412 38.1504 5.42915 38.2905 5.41469C38.392 5.40023 38.4741 5.38577 38.5417 5.37131L38.5997 5.36168C38.7398 5.35686 38.8388 5.43156 38.8944 5.58578L38.9041 5.65325C39.0369 6.21472 39.5079 6.4798 40.3219 6.45329C40.4959 6.44606 40.7398 6.38582 41.0563 6.26774C41.2157 6.19545 41.3196 6.02917 41.3679 5.76892C41.3727 5.73519 41.3582 5.68458 41.3292 5.61952C41.2326 5.44361 41.0273 5.3183 40.7108 5.24601L39.735 5.04359C39.2543 4.93756 38.9137 4.82912 38.7132 4.71827C38.4089 4.54959 38.177 4.28452 38.0127 3.91824C37.9644 3.81462 37.9427 3.68931 37.9499 3.54232C37.9644 3.00977 38.1842 2.60252 38.6069 2.31817C38.9693 2.07479 39.4355 1.94466 40.0079 1.92538C41.0683 1.88924 41.7664 2.23865 42.107 2.97844C42.1263 3.01218 42.1577 3.16881 42.2085 3.45316C42.235 3.60256 42.1674 3.69654 41.9983 3.73028C41.735 3.76643 41.5321 3.78811 41.3848 3.79293C41.2616 3.80739 41.1867 3.76161 41.1601 3.64835L41.1022 3.46521C40.9717 3.06519 40.6166 2.87723 40.0393 2.89651C39.6867 2.90856 39.4065 2.98808 39.1963 3.13507C39.0876 3.22423 39.0321 3.32785 39.0297 3.45075C39.0345 3.57847 39.0949 3.68449 39.2084 3.76402C39.2495 3.80257 39.3171 3.83631 39.4137 3.86523L40.7036 4.1303C41.2012 4.21946 41.5973 4.3785 41.892 4.60984C42.1674 4.81225 42.3437 5.08215 42.4162 5.41469C42.4838 5.74241 42.4403 6.07014 42.2833 6.39545C42.0684 6.83403 41.665 7.14247 41.0683 7.3208C40.7785 7.40996 40.5224 7.4461 40.2978 7.43164C39.8727 7.46779 39.45 7.40996 39.0297 7.25814C38.4717 7.06536 38.0924 6.66776 37.8847 6.07014L37.8823 6.07496ZM45.1554 1.90611C45.4259 1.90129 45.6312 1.89165 45.7786 1.87719C45.8631 1.86755 46.1216 1.86514 46.5539 1.86755C46.6989 1.87237 46.7858 1.93984 46.8124 2.06756C46.8462 2.2507 46.8438 2.46517 46.8003 2.70614C46.7858 2.79048 46.7182 2.83627 46.595 2.83868C46.4936 2.84831 46.2906 2.85795 45.9815 2.86759L45.2423 2.8941C45.1409 2.89892 45.0853 2.94952 45.0708 3.05073C45.0853 3.49172 45.1071 3.9327 45.1336 4.36886L45.1988 6.22436C45.2158 6.35931 45.2206 6.62679 45.2182 7.02922C45.2133 7.1979 45.1409 7.28224 45.0008 7.27983C44.9283 7.27742 44.8244 7.27983 44.6892 7.28947C44.5539 7.29429 44.4549 7.29429 44.3872 7.28947C44.2471 7.28947 44.1626 7.222 44.136 7.08705C44.1239 7.06054 44.1167 7.00753 44.1143 6.92801C44.0829 6.02194 44.0708 5.6147 44.0805 5.71109C44.0515 5.33758 44.037 4.96166 44.0418 4.58574L43.9911 3.40978C43.9863 3.25797 43.979 3.14712 43.9718 3.07483C43.9694 2.98567 43.921 2.94229 43.8317 2.9447L42.7978 2.98085C42.6529 2.98567 42.5563 2.98567 42.5128 2.98085C42.3679 2.97603 42.2809 2.89892 42.2519 2.75433C42.2374 2.66517 42.2254 2.49167 42.2157 2.23383C42.2109 2.0772 42.3268 1.99527 42.5684 1.98563L44.5273 1.91815C44.6554 1.90851 44.8655 1.90129 45.1578 1.89647L45.1554 1.90611Z" fill="#FFF53C"/>
<path d="M7.53636 4.17608C7.84071 4.60261 8.31898 4.97853 8.83107 5.31589C9.34557 5.65325 9.89872 5.95929 10.4422 6.21954C11.348 6.65812 12.3698 7.00753 13.4109 7.31839C14.4544 7.62683 15.522 7.89191 16.551 8.15457C17.2612 8.33771 17.9182 8.52567 18.6428 8.67748C19.5462 8.8558 20.283 8.94737 21.039 9.02689C21.7951 9.11123 22.5704 9.18835 23.5608 9.34016C25.4328 9.61728 26.7154 9.9185 28.8073 10.0486C30.1648 10.1281 31.3339 10.1209 32.7131 10.1522C34.1455 10.1836 35.3508 10.2173 36.561 10.2125C37.7688 10.2053 38.9862 10.1691 40.4137 9.99079C41.5732 9.84621 42.7495 9.70162 43.909 9.4992C45.0612 9.29196 46.2158 9.04135 47.2375 8.59314C47.6747 8.39554 48.0202 8.18348 48.2738 7.92805C48.5274 7.67503 48.7013 7.38345 48.7255 7.0509C48.7448 6.77137 48.6409 6.4557 48.4163 6.15448C48.1941 5.85085 47.8752 5.5665 47.525 5.30625C46.8221 4.78334 45.9936 4.36886 45.3317 4.06041C44.4959 3.67727 43.566 3.33749 42.6432 3.04832C42.2544 2.92302 41.2592 2.6459 40.3123 2.41215C39.3654 2.17359 38.4693 1.96876 38.305 1.87719C38.0804 1.7567 38.8654 1.89647 39.7712 2.11575C40.677 2.33263 41.7012 2.62903 41.9838 2.72301C42.9259 3.00977 43.8244 3.3399 44.6988 3.69413C45.3293 3.94957 45.8897 4.17608 46.4259 4.43151C46.9622 4.68695 47.4887 4.95684 48.0008 5.34963C48.3873 5.65084 48.7062 5.99303 48.8728 6.39304C48.8922 6.44365 48.9187 6.49184 48.9308 6.54245L48.9646 6.69908L48.9815 6.77619V6.85572V7.01476C48.9815 7.06777 48.9622 7.11838 48.9525 7.17139C48.938 7.222 48.9356 7.27742 48.9115 7.32561C48.8632 7.422 48.8318 7.53044 48.7617 7.61719C48.7206 7.67503 48.6844 7.73527 48.6434 7.78588C48.5975 7.83648 48.5516 7.88468 48.5081 7.93287C48.467 7.98347 48.4187 8.02444 48.3704 8.06541C48.3221 8.10637 48.2762 8.14734 48.2303 8.18589C48.1361 8.26301 48.0346 8.32566 47.9429 8.39554C47.8487 8.46301 47.7472 8.51603 47.6506 8.57868C47.2569 8.8052 46.8511 9.0028 46.3245 9.19076C45.6433 9.43655 44.8148 9.63415 43.9742 9.77873C43.1336 9.92573 42.2785 10.0221 41.5394 10.0992C40.6191 10.1956 39.8099 10.251 39.0055 10.3041C38.2011 10.3595 37.3992 10.4004 36.4837 10.4462C35.0827 10.5113 33.8653 10.5547 32.4064 10.4824C30.5706 10.3908 28.9039 10.1884 26.9787 10.0293C25.9473 9.94501 25.2637 9.89199 24.5801 9.82693C23.8965 9.75704 23.2105 9.6727 22.1888 9.48233C21.0173 9.26305 20.0728 9.08232 18.8095 8.8558C17.4617 8.61001 16.2201 8.34012 14.9906 8.01962C13.7635 7.69431 12.5413 7.33766 11.2659 6.83885C10.1185 6.39064 9.46634 6.09183 8.87696 5.76651C8.73203 5.67976 8.5871 5.59783 8.447 5.50626C8.30932 5.40746 8.15956 5.31589 8.01946 5.19299C7.94941 5.13275 7.87694 5.0701 7.79965 5.00503C7.7296 4.93515 7.65955 4.86045 7.58467 4.78334C7.44215 4.62188 7.30206 4.43392 7.18853 4.20982C7.14022 4.10138 7.10882 3.99535 7.08225 3.90619C7.07017 3.8098 7.06292 3.72787 7.05809 3.65799C7.07258 3.51822 7.10399 3.43147 7.13056 3.40255C7.15954 3.37364 7.18853 3.40255 7.21751 3.4869C7.23442 3.53027 7.23925 3.5857 7.26582 3.65799C7.28032 3.69413 7.29481 3.73269 7.31172 3.77366C7.32863 3.81703 7.3407 3.86282 7.37211 3.91101C7.42283 4.00258 7.46873 4.09656 7.54119 4.18331M32.7904 1.05547C33.6624 1.17113 34.7977 1.33259 35.503 1.39524C36.433 1.47958 35.4837 1.21933 34.5851 1.07233C33.6769 0.92775 32.8991 0.886784 31.9716 0.759068C31.2421 0.657859 30.6648 0.537372 29.9039 0.450621C29.2203 0.371099 28.8193 0.373509 28.1913 0.337363C26.9111 0.26748 25.6478 0.122896 24.37 0.0987985C24.1357 0.0915693 23.7178 0.0987985 23.7347 0.130125C23.7589 0.17591 24.5608 0.195188 24.9086 0.214466C26.498 0.289168 28.1816 0.520503 29.7566 0.6434C30.4981 0.701234 30.8387 0.749429 31.5199 0.860277C31.9329 0.93016 32.3556 0.997632 32.7904 1.05547ZM22.8265 0.113257C23.0439 0.028916 21.1767 -0.0216886 20.5366 0.00722832C20.1863 0.0144575 19.5752 0.0433745 19.3578 0.0747011C18.7733 0.163862 19.9448 0.166271 20.5946 0.166271C21.2926 0.156632 22.6212 0.187959 22.8265 0.113257ZM15.6235 0.310856C15.6041 0.286758 15.2201 0.296397 14.7949 0.330134C14.3674 0.359051 13.9012 0.414475 13.7104 0.436162C12.9133 0.537372 12.4833 0.607254 11.7587 0.783165C11.5147 0.843409 11.348 0.884374 11.1741 0.92775C11.0002 0.968715 10.8214 1.00968 10.5557 1.06992C9.39388 1.335 8.71754 1.70851 8.74894 1.74706C8.76102 1.76393 8.84073 1.74706 8.96875 1.7061C9.10402 1.66995 9.2876 1.59766 9.5219 1.51814C9.72722 1.44584 9.93737 1.36391 10.1499 1.29403C10.3601 1.21692 10.5751 1.15427 10.778 1.10125C11.7079 0.872326 12.4398 0.816902 13.464 0.660268C13.708 0.624122 14.2587 0.544601 14.7442 0.479538C15.2297 0.409655 15.65 0.354231 15.621 0.313266M16.6935 0.216876C16.6984 0.250612 17.0752 0.255432 17.5414 0.226515C18.0051 0.204827 18.3771 0.163862 18.3747 0.130125C18.3723 0.0963888 17.9931 0.0867498 17.5269 0.108437C17.0607 0.134945 16.6887 0.185549 16.6935 0.216876ZM7.48563 2.63626C7.51462 2.62662 7.57984 2.5736 7.65713 2.4989C7.74409 2.42902 7.85279 2.34227 7.9639 2.25311C8.08226 2.17118 8.17405 2.09166 8.23685 2.04346C8.29966 1.99527 8.3214 1.96635 8.29 1.96876C8.25859 1.97117 8.17405 2.00009 8.07502 2.06274C7.97598 2.12298 7.84554 2.19768 7.73926 2.29889C7.6837 2.34709 7.63298 2.39287 7.59433 2.43384C7.5581 2.47962 7.52911 2.51818 7.50737 2.54951C7.46389 2.61216 7.45423 2.6459 7.48563 2.63385M7.12089 3.1905C7.09191 3.39051 7.11606 3.4146 7.14746 3.35195C7.18128 3.29171 7.20544 3.14471 7.25858 2.9929C7.28032 2.90856 7.27065 2.88687 7.23925 2.92061C7.22476 2.93747 7.20302 2.9688 7.18128 3.01459C7.16196 3.06037 7.12572 3.1158 7.12089 3.1905Z" fill="#FFF53C"/>
<path d="M88.8639 6.90391C88.8784 5.47734 88.888 4.11825 88.888 2.70614V2.66035C88.8566 2.34709 88.888 1.86755 88.888 1.55428C88.9025 1.19282 88.8832 0.990403 88.475 0.990403C88.3494 0.990403 88.1126 0.959077 87.9556 1.0386C87.8131 1.10125 87.7624 1.24343 87.6368 1.36873C87.3228 1.682 86.9918 1.95189 86.6464 2.2507C86.5208 2.37601 86.359 2.41456 86.1875 2.46276C85.987 2.53746 85.7648 2.66035 85.6464 2.82663V2.59288C85.6464 2.18564 85.6609 1.77839 85.6464 1.36873C85.6464 1.12535 85.516 0.992813 85.2575 0.968716C85.1319 0.968716 85.0184 0.983174 84.8928 0.968716C84.7503 0.968716 84.6343 1.02414 84.5401 1.13258L84.3638 1.34464C84.2213 1.51814 84.0884 1.69405 83.9169 1.85068C83.7599 2.00731 83.5546 2.10129 83.3976 2.2748C83.3034 2.38564 83.1826 2.42661 83.0546 2.4748C82.9749 2.50613 82.9096 2.56878 82.8299 2.61698C82.7502 2.64831 82.656 2.65554 82.5932 2.68686C82.342 2.81217 82.3251 3.08206 82.3565 3.38087C82.371 3.52304 82.3517 3.65076 82.3686 3.79293C82.3831 3.99776 82.5063 4.11102 82.6633 4.11102C82.8613 4.11102 83.8155 3.6363 83.9725 3.51099C84.0522 3.43147 84.1609 3.49413 84.1609 3.60497C84.1609 3.91824 84.1923 4.19777 84.1609 4.51104C84.1295 4.98094 84.1754 5.46288 84.1609 5.93278C84.1464 6.04363 84.1222 6.14002 84.1367 6.25087C84.1367 6.4075 84.173 6.54004 84.173 6.69667C84.173 6.96415 84.1343 7.23645 84.1488 7.5208C84.1633 7.75696 84.1101 7.98829 84.173 8.23891C84.2044 8.42687 84.2672 8.50157 84.4556 8.5329C84.7696 8.58109 85.0957 8.52808 85.4097 8.49675C85.5522 8.47265 85.6247 8.3859 85.6343 8.23891C85.6488 8.1136 85.6464 8.01239 85.6464 7.88709V4.02668C85.6851 4.06764 85.7406 4.08933 85.8227 4.08933C85.8855 4.08933 85.9653 4.07728 86.0595 4.05319C86.3904 3.99053 86.5981 3.79052 86.8952 3.66522C87.0063 3.57847 87.1078 3.53509 87.202 3.53509C87.2648 3.53509 87.3083 3.5616 87.3324 3.61702C87.3807 4.36886 87.3252 5.12311 87.3083 5.87495C87.2769 6.62679 87.3952 7.34489 87.3324 8.09673C87.3324 8.53772 87.8155 8.60519 88.1803 8.54254C88.3373 8.54254 88.487 8.58591 88.6271 8.50639C89.1296 8.1618 88.7697 7.40755 88.8639 6.90632V6.90391Z" fill="#FFF53C"/>
<path d="M98.4727 4.69418C98.4727 4.38091 98.3399 4.16885 98.0718 4.058C97.8664 3.97125 97.4582 3.77606 96.8447 3.47003L94.736 2.44589C94.6248 2.4001 94.5403 2.37118 94.4775 2.36395C94.2891 2.33263 94.1756 2.41938 94.1369 2.6218C94.1055 2.84108 94.0886 3.06519 94.0886 3.29171C94.0886 3.57364 94.2214 3.76883 94.4896 3.87968C94.5789 3.91342 94.6852 3.9592 94.806 4.01222C94.5427 4.01704 94.2843 4.04355 94.0185 4.04355C93.8446 4.04355 93.6804 4.02909 93.5234 3.99535C92.8639 4.08933 92.2359 3.94957 91.5789 4.04355C91.2649 4.01222 90.8518 3.99053 90.789 4.39537C90.789 4.79056 90.6682 5.42192 91.1079 5.54722C91.2818 5.57855 91.4774 5.59542 91.6514 5.59542C91.8253 5.59542 91.9968 5.58096 92.1707 5.54722C92.376 5.53277 92.5234 5.63638 92.7118 5.65325C93.0427 5.5906 93.3639 5.55204 93.7263 5.58337C94.0282 5.60747 94.3301 5.55445 94.6321 5.57132L94.5161 5.61952C94.2335 5.76169 94.091 5.91832 94.091 6.08942L94.0789 6.80752C94.0789 6.9256 94.1176 7.01958 94.1973 7.08946C94.2842 7.17621 94.3664 7.20754 94.4437 7.18344C94.6079 7.12801 94.707 7.09428 94.7384 7.07741C95.5862 6.66293 96.2819 6.32798 96.8254 6.07737C97.2819 5.85808 97.7094 5.67012 98.1104 5.51349C98.3471 5.41951 98.4727 5.23637 98.4872 4.96166C98.48 5.00985 98.4751 4.91828 98.4751 4.69177L98.4727 4.69418Z" fill="#FFF53C"/>
<path d="M103.106 0.966305H102.741C102.601 0.966305 102.482 1.02173 102.388 1.13017L102.212 1.34222C101.999 1.60007 101.85 1.76875 101.765 1.84827C101.719 1.89647 101.632 1.96153 101.507 2.04828C101.388 2.13503 101.301 2.20973 101.248 2.27239C101.185 2.34227 101.072 2.40974 100.908 2.47239C100.932 2.46516 100.857 2.51095 100.683 2.61457L100.446 2.68445C100.251 2.77843 100.171 3.00977 100.212 3.37846C100.219 3.42665 100.219 3.49171 100.212 3.57847C100.212 3.67245 100.217 3.74233 100.224 3.79052C100.238 4.00258 100.337 4.10861 100.519 4.10861C100.888 4.10861 101.323 3.9086 101.828 3.50858C101.866 3.47003 101.908 3.46039 101.946 3.48449C101.992 3.50858 102.016 3.54714 102.016 3.60256L102.004 5.21468C102.011 5.55927 102.016 5.79784 102.016 5.93278C101.992 6.09665 101.985 6.20267 101.992 6.25087L102.028 6.69908C102.028 6.76173 102.021 6.89427 102.004 7.0991L101.992 7.87504C101.992 8.02444 102.004 8.14493 102.028 8.23891C102.052 8.41 102.147 8.5088 102.311 8.5329C102.468 8.55699 102.787 8.54494 103.265 8.49675C103.408 8.47265 103.482 8.3859 103.49 8.23891C103.497 8.17625 103.502 8.05818 103.502 7.88708V1.36632C103.502 1.12294 103.371 0.990402 103.113 0.966305H103.106Z" fill="#FFF53C"/>
<path d="M108.606 1.11089C108.606 1.11089 108.601 1.11089 108.586 1.10848C108.594 1.10848 108.599 1.11089 108.606 1.11089Z" fill="#FFF53C"/>
<path d="M108.362 3.858C107.898 3.52063 107.367 3.35195 106.77 3.35195C106.637 3.35195 106.499 3.364 106.357 3.3881C106.318 3.39533 106.236 3.41942 106.108 3.45798C105.997 3.48931 105.915 3.50617 105.859 3.50617C105.813 3.50617 105.777 3.49172 105.753 3.45798C105.729 3.42665 105.741 3.3399 105.789 3.20014C105.845 3.02905 105.871 2.91338 105.871 2.86036C105.871 2.8435 105.883 2.80253 105.908 2.73024C105.963 2.5736 106.072 2.49408 106.239 2.49408L108.466 2.48203C108.567 2.48203 108.673 2.4748 108.784 2.45794C108.879 2.44348 108.929 2.39528 108.937 2.31817C108.999 1.93502 109.007 1.63621 108.961 1.42416C108.922 1.22656 108.804 1.12535 108.603 1.11089C108.603 1.11571 108.408 1.11812 108.004 1.11812C107.226 1.09402 106.717 1.08679 106.473 1.09402C105.813 1.09402 105.437 1.0892 105.342 1.08197L105.178 1.09402C104.92 1.12535 104.763 1.25066 104.707 1.46994L104.354 3.10375C104.103 4.38091 103.992 4.95443 104.024 4.81948C103.992 4.95202 103.992 5.046 104.024 5.10142C104.055 5.14962 104.142 5.1954 104.282 5.2436C104.376 5.27493 104.502 5.28938 104.659 5.28938C104.84 5.28938 104.966 5.29661 105.036 5.31348C105.231 5.33758 105.379 5.27493 105.473 5.12552C105.724 4.83635 106.014 4.68936 106.345 4.68936C107.311 4.68936 107.794 5.08938 107.794 5.88941C107.818 6.20268 107.727 6.53281 107.524 6.8774C107.318 7.222 106.978 7.3955 106.497 7.3955C106.016 7.3955 105.661 7.15211 105.47 6.66535L105.4 6.4075C105.33 6.20268 105.2 6.10147 105.011 6.10147C104.743 6.10147 104.473 6.11352 104.197 6.13761C103.946 6.15448 103.833 6.28943 103.854 6.54968C103.934 7.30152 104.28 7.85576 104.891 8.20758C105.417 8.52085 105.956 8.67748 106.504 8.67748C107.118 8.67748 107.666 8.51362 108.154 8.18348C108.642 7.84612 108.987 7.38827 109.19 6.80752C109.355 6.33039 109.379 5.80748 109.26 5.2436C109.142 4.67008 108.84 4.20982 108.352 3.85559L108.362 3.858Z" fill="#FFF53C"/>
<path d="M119.372 7.77383C119.229 7.49189 119.053 7.09187 118.84 6.57377C118.596 6.01712 118.42 5.61711 118.309 5.37372C118.34 5.43638 118.125 4.94238 117.661 3.89173C117.417 3.30375 117.096 2.55432 116.695 1.64585C116.584 1.38801 116.524 1.25065 116.507 1.23379C116.42 1.07715 116.299 0.997631 116.142 0.997631C115.852 0.997631 115.548 1.00486 115.234 1.02173C115.07 1.02896 114.956 1.10848 114.893 1.25788C114.799 1.45307 114.744 1.57838 114.729 1.6338C114.705 1.75188 114.671 1.86514 114.623 1.97599C114.403 2.40733 114.176 2.9447 113.939 3.5881L112.524 7.00994C112.318 7.47261 112.173 7.83648 112.086 8.10396C111.992 8.34734 112.086 8.48711 112.369 8.52808H112.712C112.855 8.52808 112.968 8.53531 113.055 8.55217C113.376 8.57627 113.599 8.43169 113.715 8.11842L114.246 6.73041C114.316 6.51835 114.466 6.41955 114.693 6.43642C114.835 6.44365 115.024 6.44365 115.258 6.43642L115.823 6.42437C116.357 6.42437 116.715 6.42919 116.896 6.43642C117.029 6.43642 117.12 6.50389 117.166 6.63643L117.707 7.95215L117.872 8.30397C117.973 8.49193 118.123 8.57145 118.318 8.54012L119.227 8.52808C119.447 8.50398 119.538 8.37867 119.497 8.15216C119.466 8.01962 119.422 7.89431 119.367 7.77624L119.372 7.77383ZM116.331 5.08214C116.166 5.10624 116.06 5.11829 116.012 5.11829C115.587 5.11829 115.304 5.12311 115.164 5.13034C115.053 5.13034 114.975 5.10624 114.93 5.06046C114.968 4.8484 115.082 4.54718 115.27 4.15439C115.538 3.53509 115.695 3.20255 115.741 3.15435C115.968 3.67967 116.21 4.25078 116.461 4.87009C116.509 4.99539 116.466 5.06528 116.331 5.08214Z" fill="#FFF53C"/>
<path d="M125.56 1.10848C125.522 1.10125 125.207 1.09643 124.618 1.09643C124.43 1.12053 124.335 1.27957 124.335 1.57838L124.311 2.17841C124.304 2.44589 124.304 2.76638 124.311 3.1423C124.335 3.80739 124.348 4.48212 124.348 5.16408L124.299 6.10388C124.275 6.38582 124.166 6.64848 123.968 6.89186C123.763 7.18103 123.335 7.32803 122.683 7.32803C121.7 7.32803 121.166 6.92078 121.079 6.10388C121.048 5.72796 121.041 5.35204 121.055 4.97612C121.062 4.43634 121.055 3.32544 121.031 1.64826C121.031 1.49163 121.024 1.39042 121.007 1.34223C120.983 1.20969 120.889 1.13017 120.724 1.10607C120.623 1.09161 120.309 1.08197 119.782 1.08197C119.64 1.08197 119.558 1.15668 119.533 1.30608C119.509 1.39283 119.502 1.46753 119.509 1.53019C119.526 1.66272 119.526 1.86273 119.509 2.13021C119.495 2.39769 119.49 2.5977 119.497 2.73024C119.514 3.06037 119.517 3.47485 119.509 3.97607L119.485 5.20986C119.485 6.22918 119.642 6.99307 119.956 7.50394C120.319 8.10637 120.959 8.49193 121.877 8.65579C122.113 8.68712 122.348 8.70399 122.584 8.70399C123.717 8.70399 124.536 8.43651 125.048 7.90395C125.613 7.29188 125.896 6.3328 125.896 5.0219V3.57606C125.91 2.87 125.901 2.16395 125.86 1.4603C125.86 1.24825 125.758 1.13017 125.553 1.10848H125.56Z" fill="#FFF53C"/>
<path d="M133.966 4.76406C133.935 4.552 133.804 4.44597 133.577 4.44597L130.867 4.45802L130.642 4.47007C130.437 4.5014 130.324 4.6002 130.302 4.76406C130.285 5.01467 130.285 5.27011 130.302 5.52795C130.309 5.70145 130.403 5.79784 130.584 5.82194C130.654 5.83639 130.804 5.84603 131.034 5.84603H132.425C132.449 5.91592 132.461 6.12315 132.461 6.47016C132.461 6.64366 132.386 6.76415 132.237 6.83403C131.93 6.98343 131.811 7.04609 131.884 7.02199C131.468 7.19549 131.031 7.27983 130.575 7.27983C129.947 7.27983 129.42 7.11838 128.995 6.79788C128.538 6.46052 128.268 5.9858 128.181 5.37613C128.08 4.65562 128.174 3.99535 128.464 3.40015C128.84 2.64831 129.512 2.27239 130.478 2.27239C130.809 2.27239 131.135 2.33022 131.456 2.4483C131.857 2.5977 132.109 2.79771 132.21 3.04832C132.29 3.25315 132.355 3.40015 132.41 3.49413C132.505 3.71341 132.662 3.80016 132.882 3.75197C133.188 3.66522 133.42 3.60015 133.577 3.55196C133.804 3.48208 133.896 3.30376 133.848 3.02182C133.833 2.95916 133.799 2.88928 133.754 2.80976C133.691 2.72301 133.654 2.66035 133.647 2.6218C133.191 1.49404 132.179 0.92775 130.606 0.92775C129.584 0.92775 128.717 1.17354 128.002 1.66754C127.374 2.06033 126.944 2.71337 126.717 3.63148C126.449 4.66526 126.509 5.62193 126.894 6.50148C127.232 7.27019 127.773 7.83407 128.519 8.19553C129.195 8.51603 129.86 8.67748 130.512 8.67748C131.534 8.67748 132.57 8.36421 133.623 7.73768C133.874 7.59792 134 7.37381 134 7.06777V5.39782C134 5.18576 133.988 4.97371 133.964 4.76165L133.966 4.76406Z" fill="#FFF53C"/>
<path d="M138.082 16.0778C138.428 15.4898 138.63 14.8079 138.63 14.0801C138.63 11.8969 136.85 10.1185 134.659 10.1185H95.6732C93.5282 10.1185 91.7818 11.8607 91.7818 14.0006V30.5844C91.6417 30.0447 91.3881 29.5483 91.0475 29.1217L91.0354 26.406C91.0209 25.912 90.9098 25.4396 90.7238 25.0059C90.9388 24.5023 91.0499 23.9601 91.0499 23.389C91.0499 22.4636 90.7624 21.4949 90.1779 20.437C90.0861 20.2635 89.9822 20.0924 89.8735 19.9213C90.074 19.4346 90.1803 18.9092 90.1803 18.3598C90.1803 17.4345 89.8929 16.4658 89.3083 15.4079C88.8035 14.456 88.0426 13.5476 86.9725 12.6295C85.9532 11.7764 84.644 11.0824 83.0884 10.5643C81.5352 10.039 79.7622 9.7715 77.8178 9.7715C77.7501 9.7715 77.6825 9.77391 77.6124 9.77632C77.54 9.76668 77.4675 9.75223 77.3926 9.74741C77.2936 9.74259 77.1946 9.73536 77.0955 9.73054C77.0303 9.72572 76.9603 9.76668 76.8951 9.79319C76.8008 9.79801 76.7091 9.80524 76.6148 9.81006C76.5762 9.81006 76.54 9.80524 76.5013 9.80765C76.4023 9.81006 76.3057 9.81729 76.209 9.82452C76.11 9.83175 76.0061 9.79801 75.9071 9.81247C75.8081 9.82693 75.6994 9.76427 75.6003 9.77632C75.54 9.78355 75.4941 9.85343 75.4433 9.90886C75.3419 9.92091 75.2404 9.93296 75.139 9.94741C75.1027 9.94019 75.0689 9.93296 75.0351 9.93778C74.9385 9.94982 74.8298 9.89922 74.7332 9.91127C74.6341 9.92332 74.5496 10.0077 74.453 10.0221C74.3564 10.0366 74.1824 9.88235 74.081 9.89922C73.9844 9.91609 73.9022 10.0052 73.8032 10.0245C73.7066 10.0438 73.5931 10.0197 73.4964 10.0438C73.3998 10.0679 73.3129 10.1209 73.2162 10.1498C73.1196 10.1763 73.0133 10.1739 72.9167 10.2004C72.8201 10.2269 72.7138 10.2197 72.6172 10.2486C72.5206 10.2751 72.4433 10.3474 72.3467 10.3763C72.25 10.4053 72.1607 10.4462 72.064 10.4727C71.9674 10.4992 71.8781 10.5764 71.779 10.5956L71.5012 10.6631C71.407 10.6872 71.3249 10.7547 71.2355 10.7812C71.1462 10.8077 71.0205 10.6944 70.9312 10.7234C70.8394 10.7547 70.7838 10.9065 70.6945 10.9378C70.6051 10.9691 70.5109 10.9812 70.4215 11.0173C70.3321 11.0511 70.2403 11.0776 70.1534 11.1161C70.0664 11.1547 69.9408 11.0993 69.8514 11.1402C69.7645 11.1812 69.75 11.3908 69.663 11.4318C69.5761 11.4728 69.4432 11.4125 69.3587 11.4559C69.2717 11.4993 69.1824 11.5354 69.0978 11.5812C69.0109 11.6294 68.8901 11.6198 68.8031 11.6704C68.7162 11.721 68.721 11.9306 68.6365 11.9812C68.5519 12.0343 68.4384 12.0367 68.3538 12.0945C68.2717 12.1499 68.1799 12.1981 68.1026 12.2608C68.0253 12.3234 67.8876 12.3403 67.8152 12.4102C67.7475 12.4752 67.7403 12.5837 67.6751 12.6487C67.6075 12.7138 67.477 12.7234 67.4094 12.7861C67.3417 12.8512 67.4094 13.0319 67.3417 13.0945C67.2741 13.1572 67.0833 13.109 67.0156 13.1741C66.948 13.2391 66.8176 13.3452 66.7499 13.4102C66.6847 13.4753 66.5954 13.5162 66.5277 13.5837C66.4601 13.6488 66.4263 13.7476 66.3562 13.8126C66.2813 13.8873 66.1485 13.8994 66.0736 13.9741C65.9963 14.0488 65.9239 14.1211 65.849 14.1934C65.7862 14.256 65.9094 14.485 65.9166 14.603C65.878 14.6488 65.8417 14.6946 65.8031 14.738C65.7499 14.7693 65.6944 14.7982 65.6557 14.844C65.6243 14.8777 65.6195 14.9211 65.6147 14.9645C65.5035 15.1019 65.3997 15.2416 65.2934 15.3838C65.2185 15.4007 65.1243 15.3983 65.0808 15.4513C65.0204 15.5236 64.9721 15.6199 64.919 15.6995C64.8659 15.7766 64.8755 15.9067 64.8272 15.9886C64.8055 16.0224 64.7982 16.0658 64.7934 16.1115C64.7306 16.2103 64.6702 16.3091 64.6098 16.4079C64.5808 16.4296 64.5567 16.4537 64.5422 16.4826C64.4987 16.567 64.3803 16.62 64.3393 16.7067C64.32 16.7501 64.332 16.8055 64.3465 16.861C64.2427 17.0489 64.1436 17.2417 64.0494 17.4369C64.0325 17.4586 64.0204 17.4779 64.0108 17.502C64.0108 17.5068 64.0108 17.5116 64.0108 17.514C63.7885 17.9719 63.5881 18.4466 63.4141 18.9382C63.3682 19.0707 63.3272 19.2056 63.2837 19.3406C63.2692 19.3647 63.2547 19.3888 63.2475 19.4153C63.2209 19.5117 63.1412 19.584 63.117 19.6731C63.1025 19.7213 63.117 19.7816 63.1315 19.8418C63.1122 19.9117 63.0929 19.984 63.0736 20.0563C63.0132 20.0972 62.931 20.131 62.9093 20.196C62.8948 20.2346 62.9359 20.3165 62.9794 20.4009C62.8054 21.0997 62.675 21.825 62.5832 22.5696C62.5639 22.6299 62.5446 22.6877 62.5373 22.7335C62.5204 22.8251 62.4769 23.1142 62.4745 23.2155H62.518H62.4793C62.4648 23.3287 62.4866 23.4612 62.489 23.5384C62.4504 24.0516 62.431 24.5746 62.431 25.1071C62.4383 25.7047 62.4697 26.2903 62.5228 26.8614C62.3827 26.5144 62.1967 26.1939 61.9769 25.8975V23.4805C61.9769 21.0467 59.9793 19.0683 57.5276 19.0683C56.3391 19.0683 55.228 19.531 54.3971 20.3671C53.5661 21.2057 53.1169 22.3239 53.1289 23.507V31.3507L44.8824 31.3821L52.1168 21.0226C52.9091 19.8804 52.9864 18.3839 52.3197 17.114C52.0613 16.6248 51.7183 16.2127 51.3149 15.8947C52.042 14.7669 52.0975 13.3211 51.4502 12.0897C50.798 10.8487 49.6023 10.1089 48.2545 10.1089H15.5172C14.4954 10.1137 13.3625 10.2149 12.1934 10.4245C12.1693 10.4173 12.1427 10.4149 12.1186 10.4197C12.1089 10.4221 12.0992 10.4318 12.0872 10.4438C11.7103 10.5137 11.3311 10.5956 10.9495 10.6872C10.9229 10.6824 10.8963 10.6776 10.8697 10.6824C10.8432 10.6872 10.8214 10.7065 10.7997 10.7258C10.6499 10.7643 10.5002 10.8005 10.3504 10.8414C10.2949 10.8607 10.2224 10.8318 10.1668 10.8511C10.1113 10.8679 10.0678 10.9234 10.0147 10.945H10.0074C9.95186 10.9619 9.87215 10.9041 9.81659 10.921C9.76103 10.9378 9.71997 11.0125 9.662 11.0294C9.60403 11.0463 9.53639 11.0222 9.47842 11.0366C9.42045 11.0511 9.38663 11.1475 9.33108 11.1643C9.19822 11.2101 9.06779 11.2559 8.93493 11.3041C8.89387 11.3065 8.85522 11.3065 8.81657 11.3186C8.76102 11.3354 8.68855 11.2993 8.63058 11.3186C8.57261 11.3354 8.55087 11.4583 8.4929 11.4752C8.48082 11.4776 8.47357 11.4848 8.46391 11.4896C8.19337 11.6005 7.92284 11.7162 7.65713 11.8415C7.6523 11.8415 7.64747 11.8415 7.64264 11.8415C7.58467 11.8632 7.48563 11.7957 7.42766 11.8198C7.36969 11.8439 7.30688 11.8415 7.24891 11.8656C7.19336 11.8897 7.12814 11.8993 7.07017 11.9234C7.01219 11.9475 6.9977 12.0608 6.94214 12.0897C6.88659 12.1162 6.78755 12.0728 6.73441 12.1041C6.68127 12.1355 6.65712 12.2053 6.60639 12.2415C6.55566 12.2776 6.53392 12.3523 6.48561 12.3885C6.43489 12.4246 6.29479 12.3451 6.24648 12.3861C6.19817 12.427 6.14744 12.4222 6.09913 12.4632C6.05082 12.5042 6.05566 12.6078 6.00976 12.6487C5.96387 12.6897 5.83826 12.6367 5.78995 12.6777C5.74164 12.721 5.74889 12.8271 5.70058 12.868C5.65227 12.9066 5.52183 12.8343 5.46869 12.868C5.41796 12.9042 5.42038 13.0174 5.36724 13.0488C5.3141 13.0777 5.23922 13.0704 5.18608 13.1018C5.13293 13.1307 5.09429 13.1861 5.03873 13.2126C4.98317 13.2391 4.89863 13.2054 4.84307 13.2319C4.78752 13.2584 4.80201 13.4271 4.74645 13.4536C4.6909 13.4825 4.74404 13.644 4.68848 13.6729C4.63534 13.7018 4.5822 13.7283 4.52906 13.7572C4.4735 13.7861 4.49041 13.8608 4.43727 13.8898C4.40828 13.9066 4.39138 13.9476 4.37447 13.9837C4.34065 14.0126 4.30925 14.044 4.27785 14.0753C4.22954 14.0849 4.16915 14.0825 4.13533 14.1114C4.08944 14.1524 4.07494 14.2343 4.03388 14.2777C4.0218 14.2922 4.01456 14.309 4.00731 14.3259C3.98316 14.35 3.95659 14.3717 3.93243 14.3958C3.90586 14.4223 3.88171 14.4512 3.85513 14.4777C3.82132 14.4801 3.7875 14.485 3.77059 14.5066C3.73436 14.5548 3.63774 14.5332 3.60151 14.5789C3.56527 14.6271 3.50972 14.6609 3.4759 14.7067C3.43967 14.7548 3.37203 14.7789 3.33822 14.8271C3.3044 14.8777 3.33822 14.9765 3.3044 15.0247C3.27058 15.0753 3.25126 15.1356 3.21503 15.1838C3.18121 15.232 3.04594 15.2079 3.00971 15.2585C2.97348 15.3067 2.98314 15.3886 2.94932 15.4392C2.91309 15.4922 2.83579 15.5163 2.79715 15.5669C2.7585 15.6175 2.79714 15.726 2.75608 15.7766C2.71743 15.8272 2.53386 15.779 2.49521 15.8296C2.45897 15.8826 2.3696 15.8995 2.33095 15.9525C2.29231 16.0055 2.2295 16.0368 2.19085 16.0898C2.15221 16.1429 2.14254 16.2224 2.10631 16.2754C2.06766 16.3284 2.10148 16.4272 2.07008 16.4826C2.03626 16.5381 1.96621 16.5718 1.93481 16.6272C1.90099 16.6851 1.91066 16.7622 1.87925 16.8176C1.84785 16.8778 1.75123 16.9019 1.72466 16.9646C1.70051 17.0272 1.65703 17.0827 1.6377 17.1477C1.61838 17.2128 1.52176 17.2538 1.50244 17.3188C1.48311 17.3839 1.47345 17.4514 1.45171 17.514C1.42997 17.5791 1.41065 17.6393 1.38891 17.7044C1.36717 17.7622 1.37925 17.8297 1.35268 17.8851C1.32852 17.9405 1.32852 18.008 1.30195 18.061C1.27538 18.1164 1.33335 18.2104 1.30678 18.2658L1.29229 18.2875C1.27055 18.3068 1.14977 18.4875 1.13286 18.514C1.11596 18.5406 1.0918 18.5574 1.07489 18.5863C1.05798 18.6153 1.06282 18.649 1.05074 18.6779C1.03624 18.7068 0.985519 18.849 0.978273 18.8803C0.96378 18.9502 0.956533 19.0273 0.951702 19.0852C0.946871 19.1574 0.927547 19.2346 0.927547 19.29C0.927547 19.3647 0.876822 19.4032 0.881653 19.4587C0.886484 19.531 0.96378 19.5792 0.971026 19.637C0.983104 19.6972 0.995181 19.7623 1.00967 19.8298C1.01692 19.8707 0.855082 19.9358 0.828512 20.0177C0.809188 20.078 0.903392 20.1792 0.879237 20.2442C0.855082 20.3093 0.871991 20.3575 0.852667 20.4153C0.823681 20.4973 0.799526 20.5768 0.804357 20.6153C0.794695 20.6949 0.852667 20.7623 0.857498 20.8178C0.864744 20.8949 0.731892 20.9455 0.746385 21.0057C0.760878 21.066 0.685997 21.1286 0.685997 21.2081C0.685997 21.2636 0.816434 21.3359 0.811603 21.413C0.801941 21.4588 0.734307 21.4973 0.727061 21.5431C0.719814 21.5889 0.792279 21.6443 0.789864 21.6925C0.780202 21.7768 0.780202 21.854 0.782617 21.9383C0.777786 21.9985 0.760878 22.0636 0.756047 22.1238C0.751216 22.1841 0.785033 22.2467 0.782617 22.307C0.782617 22.3696 0.734307 22.4275 0.734307 22.4901C0.734307 22.5528 0.814019 22.6082 0.81885 22.6684C0.821265 22.7287 0.855082 22.7889 0.859913 22.8492C0.864744 22.9094 0.792279 22.9721 0.801941 23.0347C0.809188 23.0926 0.77054 23.16 0.775371 23.2203C0.782617 23.2805 0.830927 23.3335 0.843005 23.3938C0.855082 23.454 0.785033 23.5263 0.794695 23.5866C0.804357 23.6468 0.874406 23.6998 0.884068 23.7601C0.89373 23.8203 0.859913 23.8878 0.869575 23.948C0.879237 24.0083 0.968611 24.0565 0.975857 24.1167C0.983104 24.1769 1.00726 24.2372 1.01451 24.2974C1.02175 24.3577 1.04832 24.4155 1.06282 24.4733C1.07489 24.5336 1.06282 24.5986 1.07489 24.6565C1.08697 24.7167 1.04591 24.7866 1.05798 24.8469C1.07006 24.8999 1.15944 24.936 1.19084 24.9818C1.28021 25.3433 1.39132 25.6879 1.51934 26.0156C1.50727 26.0517 1.49761 26.0879 1.50727 26.1168C1.52901 26.177 1.52418 26.2421 1.54833 26.3047C1.57007 26.365 1.57732 26.4325 1.60872 26.4903C1.63529 26.5433 1.73916 26.5626 1.77539 26.6132C1.78022 26.6204 1.78263 26.6301 1.78747 26.6373C1.78263 26.7867 1.78022 26.9361 1.78022 27.0855C1.52659 33.5629 6.42281 35.9509 10.1234 37.1823C10.2465 37.2257 10.4011 37.2763 10.5823 37.3341C11.7925 37.7341 14.1355 38.5125 16.022 39.4836C15.5921 39.6282 15.0582 39.6836 14.3771 39.674C13.1137 39.6499 11.476 39.2499 9.36248 38.4474C9.2417 38.4041 9.07262 38.3294 8.87696 38.245C7.23201 37.5341 3.3817 35.869 1.03866 39.6981C0.545898 40.6162 0.263285 42.209 0.746385 43.6934C0.944456 44.3079 1.25847 44.8381 1.66911 45.2766C1.3406 46.2092 1.21982 47.5008 1.61597 48.7202C1.97346 49.8238 2.69086 50.6672 3.6933 51.1636C6.25614 52.7468 11.6161 53.5565 14.5051 53.5252C14.807 53.5372 15.1017 53.5421 15.3964 53.5421C19.1936 53.5421 22.2443 52.5637 24.469 50.6359C26.9256 48.5732 28.4039 45.5345 28.6768 42.0163C28.8097 42.703 29.1382 43.3489 29.6334 43.8645C30.3145 44.5754 31.2421 44.9658 32.2421 44.9658H33.8532C33.8943 45.0236 33.8798 45.1296 33.9668 45.1586C34.061 45.1899 34.2977 45.0694 34.4088 45.0911C34.5127 45.1104 34.5755 45.1971 34.6914 45.2092C34.8001 45.2212 34.8822 45.2212 35.0006 45.2236C35.0876 45.2164 35.1818 45.2068 35.2518 45.1995C35.3388 45.1923 35.4354 45.1947 35.503 45.1851C35.5924 45.173 35.6528 45.214 35.7156 45.1995C35.8025 45.1803 35.8436 45.0959 35.9112 45.0766C35.9813 45.0549 36.0538 45.026 36.1383 45.0068C36.1866 44.9947 36.2953 45.1465 36.4016 45.1634C36.4765 45.1754 36.5876 45.0718 36.6697 45.0863C36.7518 45.1007 36.8098 45.0815 36.8847 45.0935C36.991 45.1104 37.0876 45.1297 37.1383 45.1224C37.2374 45.1272 37.3171 45.067 37.3847 45.0598C37.4813 45.0501 37.5514 45.1803 37.6263 45.1634C37.6987 45.1465 37.7808 45.2188 37.8775 45.214C37.9475 45.2116 38.0321 45.0742 38.1311 45.0863C38.1891 45.0983 38.2398 45.1634 38.2978 45.173C38.3581 45.1827 38.4258 45.108 38.4862 45.1152C38.5925 45.1248 38.6915 45.1272 38.7978 45.1272C38.8751 45.1345 38.9572 45.1513 39.0345 45.1562C39.1118 45.161 39.1891 45.1345 39.2664 45.1369C39.3437 45.1417 39.4161 45.1923 39.4934 45.1947C39.5707 45.1947 39.648 45.12 39.7253 45.12C39.8026 45.12 39.8799 45.0911 39.9572 45.0887C40.0345 45.0887 40.1046 45.1634 40.1843 45.1586C40.2591 45.1537 40.3389 45.1971 40.4137 45.1947C40.4886 45.1923 40.5635 45.1441 40.6384 45.1417C40.7133 45.1417 40.7906 45.2188 40.8679 45.2188C40.9427 45.2188 41.0176 45.1586 41.0925 45.1586C41.1674 45.1586 41.2423 45.2019 41.3171 45.2019C41.392 45.2019 41.4693 45.1224 41.5442 45.1224C41.6191 45.1224 41.6964 45.1104 41.7713 45.1128C41.8461 45.1128 41.921 45.0959 41.9959 45.0983C42.0708 45.1007 42.1457 45.1297 42.2181 45.1345C42.293 45.1369 42.363 45.1971 42.4379 45.1995C42.5128 45.2019 42.5949 45.0959 42.6674 45.0983C42.7471 45.1031 42.8147 45.0694 42.892 45.0718C42.9452 45.0718 43.0056 45.0116 43.0635 44.9706H43.6312C43.7012 44.9899 43.7713 45.0622 43.8389 45.0646C43.9162 45.0646 43.9959 45.1706 44.0756 45.173C44.1529 45.173 44.2254 45.2019 44.3027 45.2043C44.38 45.2043 44.4573 45.2236 44.537 45.226C44.6143 45.226 44.694 45.1297 44.7737 45.1297C44.851 45.1297 44.938 45.2164 45.0153 45.2116C45.0926 45.2068 45.1578 45.1562 45.2351 45.1465C45.3124 45.1393 45.38 45.0815 45.4573 45.0694C45.5346 45.0598 45.6409 45.1995 45.7182 45.1875C45.7955 45.1754 45.8486 45.2068 45.9259 45.1947C46.0032 45.1827 46.0636 45.0911 46.1409 45.079C46.2182 45.067 46.3196 45.1754 46.3945 45.1634C46.4718 45.1537 46.537 45.0598 46.6143 45.0525C46.6916 45.0453 46.781 45.1778 46.8583 45.1754C46.9356 45.173 47.0105 45.0742 47.0878 45.0766C47.1626 45.0766 47.2351 45.1297 47.31 45.1369C47.3849 45.1441 47.4646 45.1224 47.5395 45.1321C47.6143 45.1417 47.6747 45.2188 47.7496 45.2309C47.8245 45.2429 47.9332 45.0935 48.0081 45.108C48.083 45.12 48.1554 44.961 48.2303 44.973C48.3052 44.9851 48.3776 44.9971 48.4525 45.0068C48.5033 45.014 48.5395 44.9875 48.5806 44.9706H49.0467C49.0709 44.9827 49.0926 44.9899 49.1168 44.9899C49.1482 44.9899 49.182 44.9802 49.2158 44.9706H49.8704C49.9163 44.9923 49.9598 45.026 50.0057 45.0212C50.0806 45.014 50.1555 45.0308 50.2303 45.0212C50.3028 45.014 50.3825 45.0429 50.4574 45.0357C50.5033 45.0308 50.5444 44.9971 50.5854 44.9682H51.0395C51.0685 44.9875 51.0999 45.0043 51.1265 45.0043C51.1651 45.0043 51.2014 44.9851 51.24 44.9682H51.5009C51.5299 44.9754 51.5589 44.9827 51.5878 44.9827C51.6072 44.9827 51.6265 44.9778 51.6458 44.9682H51.9357C51.9792 45.0164 52.0226 45.0694 52.0661 45.0694C52.1458 45.0694 52.2231 45.1393 52.3028 45.1417C52.3825 45.1441 52.455 45.1827 52.5347 45.1851C52.6144 45.1875 52.7014 45.1562 52.7811 45.1586C52.8608 45.161 52.9454 45.0815 53.0227 45.0863C53.1024 45.0887 53.1797 45.1345 53.257 45.1369C53.3367 45.1369 53.4164 45.0959 53.4961 45.0959C53.5782 45.0959 53.6555 45.1682 53.7401 45.1634C53.8222 45.1586 53.9067 45.1778 53.9889 45.1682C54.071 45.1586 54.1628 45.2309 54.2449 45.2236C54.327 45.214 54.4043 45.1971 54.4865 45.1923C54.5686 45.1875 54.6459 45.1803 54.728 45.1803C54.8005 45.1803 54.8753 45.1489 54.9502 45.1537C55.0227 45.1586 55.1 45.1345 55.1749 45.1417C55.2473 45.1489 55.3367 45.0622 55.4116 45.0694C55.4237 45.0694 55.4333 45.0742 55.443 45.0766C55.4744 45.0887 55.728 45.1586 55.7642 45.1682C55.8029 45.1778 55.8295 45.1971 55.8681 45.2043C55.9068 45.2116 55.9454 45.1995 55.9841 45.2043C56.0227 45.2116 56.2063 45.2212 56.2425 45.2212L56.5034 45.2092C56.571 45.2044 56.6507 45.1803 56.7063 45.1706C56.7836 45.1562 56.8536 45.1827 56.9189 45.1634C56.9962 45.1417 57.0735 45.108 57.1338 45.0815C57.2063 45.0501 57.2353 45.0429 57.2884 45.0019C57.3005 44.9923 57.315 44.9802 57.3295 44.9682H58.3174C60.8151 44.9682 62.8465 42.9416 62.8465 40.4475V32.1146C63.0083 33.6183 63.3272 35.0328 63.8127 36.3413C64.5325 38.2089 65.6364 39.9029 67.006 41.2403C68.3925 42.5946 70.0713 43.6284 71.9916 44.3079C73.7066 44.9248 75.7115 45.2357 77.9482 45.2357C78.0472 45.2357 78.1511 45.2357 78.2501 45.2357C78.3395 45.2357 78.4265 45.2357 78.5134 45.2357C80.5545 45.2357 82.272 45.0405 83.7599 44.6357C85.3541 44.2043 87.0257 43.5224 88.7213 42.6066C89.4605 42.2066 90.0209 41.8114 90.4243 41.409C91.0233 40.8716 91.4291 40.2451 91.6296 39.5631C91.8253 38.9776 91.917 38.286 91.917 37.3871V37.1076C92.062 37.6209 92.3084 38.0932 92.6369 38.498V41.0837C92.6369 43.1223 94.219 44.7947 96.2239 44.9489C96.236 44.9634 96.248 44.9802 96.2698 44.9947C96.3157 45.0284 96.422 45.0092 96.4678 45.0381C96.5186 45.067 96.6031 45.0381 96.6514 45.0574C96.7046 45.079 96.7625 45.0863 96.8181 45.0911C96.8181 45.0598 96.8181 44.9706 96.8181 44.9706V44.9658V45.0983C96.8447 45.0983 96.9002 45.0863 96.9268 45.0839C96.9534 45.0839 96.9824 45.0453 97.0089 45.0429C97.0355 45.0405 97.1418 45.0043 97.1684 44.9995C97.1949 44.9947 97.2263 45.0935 97.2529 45.0887C97.2795 45.0839 97.3036 44.9947 97.3302 44.9875C97.3423 44.9851 97.3543 44.9754 97.3664 44.9634H98.5186C98.5331 44.9754 98.55 44.9827 98.5645 44.9827C98.579 44.9827 98.5935 44.9754 98.608 44.9634H98.8785C98.8785 44.9634 98.8906 44.9706 98.8954 44.9706C98.9123 44.9706 98.9292 44.9658 98.9462 44.9634H99.1563C99.1805 44.9682 99.2046 44.973 99.2288 44.9754C99.2843 44.9778 99.3399 44.9827 99.3954 44.9851C99.4124 44.9851 99.4317 44.9754 99.4486 44.9634H101.052C101.052 44.9634 101.069 44.973 101.079 44.973C101.089 44.973 101.096 44.9682 101.106 44.9634H102.854C102.854 44.9634 102.864 44.973 102.869 44.973C102.879 44.973 102.888 44.9682 102.898 44.9634H103.405C103.437 44.9947 103.47 45.0357 103.504 45.0381C103.528 45.0381 103.553 45.0043 103.579 44.9634H103.784C103.799 44.9754 103.811 44.9851 103.825 44.9851C103.879 44.9875 103.932 44.9995 103.982 45.0019C104.038 45.0043 104.091 45.0718 104.147 45.0742C104.178 45.0742 104.212 45.014 104.246 44.961H104.673C104.722 44.973 104.775 45.0116 104.818 45.0019C104.838 44.9971 104.857 44.9802 104.874 44.961H106.074C106.074 44.961 106.089 44.9682 106.096 44.9682C106.154 44.9706 106.207 44.9827 106.265 44.9875C106.275 44.9875 106.284 44.9754 106.294 44.961H109.608C109.623 44.9682 109.64 44.9754 109.654 44.9754C109.666 44.9754 109.681 44.9706 109.695 44.961H109.886C109.91 45.0043 109.932 45.0501 109.963 45.0574C109.983 45.0622 110.019 45.014 110.055 44.961H110.939C110.961 44.9754 110.985 44.9899 111.007 44.9923C111.065 44.9995 111.123 44.9827 111.178 44.9899C111.234 44.9971 111.33 45.0501 111.386 45.0598C111.437 45.0694 111.601 45.0935 111.657 45.0935V44.961V45.0887C111.724 45.0983 111.799 45.0646 111.843 45.0622C111.925 45.0574 111.995 44.9947 112.038 44.9827C112.099 44.9658 112.178 44.973 112.243 44.961H112.485C114.63 44.961 116.376 43.2187 116.376 41.0789C116.376 39.8644 115.814 38.78 114.934 38.0667C115.294 37.4787 115.507 36.7895 115.507 36.0522C115.507 34.6545 114.76 33.4328 113.647 32.7484C114.42 32.0568 114.91 31.0568 114.91 29.941C114.91 28.7265 114.33 27.647 113.434 26.9554C113.816 26.365 114.041 25.6662 114.041 24.9119C114.041 24.2685 113.879 23.6637 113.594 23.1335C113.608 23.1287 113.623 23.1239 113.637 23.1239C113.71 23.1239 113.782 23.095 113.855 23.0926C113.927 23.0926 113.992 23.1673 114.065 23.1624C114.135 23.1576 114.21 23.201 114.28 23.1986C114.35 23.1962 114.417 23.148 114.487 23.1456C114.558 23.1456 114.63 23.2227 114.7 23.2227C114.77 23.2227 114.84 23.1624 114.91 23.1624C114.98 23.1624 115.05 23.2058 115.12 23.2058C115.19 23.2058 115.263 23.1263 115.333 23.1263C115.403 23.1263 115.475 23.1142 115.545 23.1167C115.616 23.1167 115.686 23.0998 115.756 23.1022C115.826 23.1046 115.893 23.1335 115.963 23.1383C116.033 23.1408 116.099 23.201 116.169 23.2034C116.239 23.2058 116.314 23.0998 116.384 23.1022C116.459 23.107 116.521 23.0733 116.594 23.0757C116.623 23.0757 116.654 23.054 116.688 23.0275H117.381C117.413 23.0492 117.446 23.0685 117.478 23.0685C117.55 23.0685 117.625 23.1745 117.698 23.1769C117.77 23.1769 117.838 23.2058 117.91 23.2082C117.983 23.2082 118.055 23.2275 118.128 23.2299C118.2 23.2299 118.275 23.1335 118.347 23.1335C118.42 23.1335 118.5 23.2203 118.572 23.2155C118.645 23.2106 118.705 23.16 118.777 23.1504C118.85 23.1432 118.913 23.0853 118.985 23.0733C119.058 23.0636 119.157 23.2034 119.229 23.1914C119.302 23.1793 119.35 23.2106 119.422 23.1962C119.495 23.1841 119.55 23.0926 119.623 23.0805C119.695 23.0685 119.79 23.1769 119.86 23.1649C119.932 23.1552 119.992 23.0612 120.065 23.054C120.137 23.0468 120.219 23.1793 120.294 23.1769C120.367 23.1745 120.434 23.0757 120.509 23.0781C120.579 23.0781 120.647 23.1311 120.717 23.1383C120.787 23.1456 120.86 23.1239 120.93 23.1335C121 23.1432 121.058 23.2203 121.128 23.2323C121.152 23.2371 121.181 23.2203 121.212 23.1986V35.9413C121.212 36.9245 121.538 37.8305 122.082 38.5655V40.968C122.082 43.4163 124.079 45.4068 126.531 45.4068C128.983 45.4068 130.981 43.4163 130.981 40.968V23.0227H135.51C137.698 23.0227 139.481 21.2467 139.481 19.0611C139.481 17.8465 138.93 16.7598 138.063 16.032L138.082 16.0778ZM64.1799 19.2129C64.8224 17.4152 65.7958 15.8465 67.0712 14.55C68.3563 13.268 69.9215 12.28 71.7259 11.6101C73.5568 10.921 75.6076 10.5715 77.8202 10.5715C79.6777 10.5715 81.3661 10.8246 82.8372 11.321C84.301 11.8077 85.5208 12.4535 86.4604 13.2391C87.4484 14.0874 88.1513 14.9187 88.6102 15.7886C89.132 16.7308 89.3856 17.5718 89.3856 18.3598C89.3856 19.2972 89.0329 20.1141 88.3397 20.7792C87.6368 21.4322 86.8059 21.7624 85.8686 21.7624C85.3131 21.7624 84.7889 21.6419 84.3082 21.4033C83.8082 21.1648 83.4024 20.8322 83.0836 20.3985C83.0328 20.3238 81.8637 18.5912 81.4458 18.1164C81.0521 17.6947 80.5569 17.3501 79.9458 17.073C79.3347 16.7694 78.5569 16.632 77.4144 16.632C76.2839 16.661 75.3177 16.8513 74.5424 17.1983C73.7259 17.5646 73.0351 18.0755 72.4288 18.7671C71.837 19.4707 71.3805 20.3503 71.0737 21.3792C70.7404 22.4636 70.5761 23.6323 70.5761 24.9577C70.6051 27.7916 71.2476 29.9531 72.4843 31.3821C73.7066 32.799 75.3902 33.4882 77.6366 33.4882C78.8105 33.4882 79.883 33.3388 80.8227 33.0448C81.5546 32.8111 82.342 32.4906 83.1657 32.0929C83.3058 32.0255 83.3928 31.8833 83.3928 31.7291L83.3662 29.7362C83.3638 29.5169 83.185 29.3338 82.9628 29.3434L79.2357 29.3699C77.5907 29.3699 76.2501 28.047 76.2501 26.418C76.2501 24.789 77.5762 23.4396 79.2115 23.4396L87.0981 23.3865C88.7841 23.3865 90.1924 24.7529 90.2407 26.418L90.2673 32.3966C90.2673 33.2038 90.19 33.8159 90.0161 34.3316C89.8542 34.8834 89.5257 35.3847 89.0233 35.8353C88.661 36.1967 88.1585 36.5486 87.4919 36.91C85.8493 37.7944 84.2358 38.4547 82.6995 38.8691C81.2792 39.2523 79.6318 39.4403 77.6559 39.4403C75.4361 39.4692 73.4675 39.1704 71.8008 38.5607C70.0254 37.9197 68.4794 36.9486 67.2041 35.6762C65.9287 34.4039 64.9238 32.8207 64.2596 31.064C63.6122 29.2808 63.2716 27.2783 63.2451 25.1119C63.2451 22.9793 63.5591 20.9913 64.1799 19.2105V19.2129ZM76.3177 31.4423C76.3177 31.8544 76.3878 32.2472 76.511 32.6183C75.0665 32.4279 73.9385 31.8496 73.0858 30.8592C72.7597 30.4832 72.4795 30.0447 72.2476 29.5483C72.279 28.4856 72.4288 27.5313 72.7042 26.6373C72.9795 25.7119 73.3853 24.9264 73.9022 24.3143C74.4264 23.7167 75.0279 23.2709 75.738 22.9528C76.4144 22.6492 77.2791 22.4829 78.2912 22.4564C78.9869 22.4564 79.5328 22.5142 79.97 22.6347L79.2067 22.6395C77.1342 22.6395 75.4482 24.3336 75.4482 26.4156C75.4482 27.6229 76.0303 28.6976 76.9289 29.382C76.5424 29.9748 76.3153 30.6808 76.3153 31.4423H76.3177ZM1.73674 40.127C3.70537 36.91 6.98562 38.3294 8.56295 39.0113C8.77068 39.1005 8.94943 39.18 9.08953 39.2282C11.2828 40.0596 13.0099 40.4764 14.3698 40.5029C16.109 40.5319 17.4158 40.1824 18.1791 38.4041C18.8337 36.9269 18.1332 35.3003 16.394 34.2593C14.3481 33.0352 11.3939 32.0544 9.97601 31.5845C9.79968 31.5267 9.64509 31.4761 9.51948 31.4327C5.7658 30.1844 1.48794 27.9988 1.71983 22.1046C1.70292 19.2514 2.64014 16.8513 4.5049 14.9717C7.44698 12.0053 12.1258 10.9306 15.522 10.9161H48.2714C49.3173 10.9161 50.2472 11.4969 50.7593 12.4704C51.2883 13.4753 51.2304 14.6585 50.6072 15.5525L39.4137 31.5821C39.3292 31.705 39.3195 31.864 39.3872 31.9941C39.4572 32.1243 39.5925 32.2086 39.7422 32.2086L53.5468 32.1556C53.7666 32.1556 53.9454 31.9773 53.9454 31.7556V23.5094C53.9333 22.5359 54.3005 21.6202 54.9816 20.9334C55.6604 20.2491 56.5686 19.8707 57.5421 19.8707C59.5542 19.8707 61.1919 21.4925 61.1919 23.4853V35.4473C61.1919 37.5004 59.5179 39.1679 57.4599 39.1679H31.3725C30.3145 39.1679 29.3846 38.6137 28.8846 37.6835C28.3821 36.751 28.4304 35.669 29.015 34.7894L39.9403 18.4393C40.0224 18.3164 40.0297 18.1598 39.9596 18.0297C39.8896 17.8996 39.7543 17.82 39.607 17.82L13.9471 17.9261H13.8722C11.1451 17.8851 10.2296 19.1165 9.93737 20.1551C9.17407 22.7697 11.5582 24.23 12.9205 24.6348C13.5268 24.8252 14.2031 25.0083 14.9181 25.2059C19.882 26.5674 26.6816 28.4301 26.6816 35.8184C26.6816 39.3198 25.4545 42.4259 23.225 44.5658C20.911 46.7851 17.6066 47.8816 13.6476 47.7274C10.9084 47.7587 5.6257 46.9659 3.22952 45.4742C3.21744 45.467 3.20536 45.4598 3.19329 45.455C2.1667 44.9537 1.71017 44.1007 1.50727 43.4742C1.10146 42.2187 1.34543 40.8451 1.73432 40.1198L1.73674 40.127ZM13.3142 23.8902C13.3577 23.8902 13.4012 23.8926 13.4543 23.8926C13.5413 23.8854 13.6355 23.8733 13.7055 23.8685C13.7925 23.8613 13.8891 23.8637 13.9568 23.854C14.0461 23.842 14.1065 23.883 14.1693 23.8685C14.2418 23.8516 14.2853 23.7914 14.3384 23.7625C14.4616 23.7576 14.5896 23.7552 14.7225 23.7576C14.766 23.7914 14.8118 23.8251 14.8602 23.8323C14.9302 23.842 15.0317 23.7552 15.1138 23.7576H15.1645C15.2273 23.7625 15.2805 23.7528 15.3433 23.7625C15.4495 23.7793 15.5462 23.7986 15.5969 23.7914C15.6573 23.7938 15.7104 23.7721 15.7587 23.7528H15.9302C15.9858 23.7866 16.0341 23.842 16.0848 23.8299C16.1573 23.8131 16.2394 23.8854 16.3384 23.8805C16.4061 23.8781 16.493 23.7408 16.5921 23.7528C16.65 23.7649 16.7008 23.8299 16.7587 23.8396C16.8191 23.8492 16.8868 23.7745 16.9471 23.7817C17.0534 23.7914 17.1525 23.7938 17.2587 23.7938C17.336 23.801 17.4158 23.8179 17.4955 23.8227C17.5728 23.8275 17.6501 23.801 17.7274 23.8034C17.8047 23.8083 17.8771 23.8589 17.9544 23.8613C18.0317 23.8613 18.109 23.7866 18.1863 23.7866C18.2636 23.7866 18.3409 23.7576 18.4182 23.7552C18.4955 23.7552 18.568 23.8299 18.6452 23.8251C18.7201 23.8203 18.7998 23.8637 18.8747 23.8613C18.9496 23.8589 19.0245 23.8107 19.0994 23.8083C19.1742 23.8083 19.2515 23.8854 19.3288 23.8854C19.4037 23.8854 19.4786 23.8251 19.5535 23.8251C19.6284 23.8251 19.7032 23.8685 19.7781 23.8685C19.853 23.8685 19.9303 23.789 20.0052 23.789C20.0801 23.789 20.1574 23.7769 20.2322 23.7793C20.3071 23.7793 20.382 23.7625 20.4569 23.7649C20.5318 23.7673 20.6042 23.7962 20.6791 23.801C20.754 23.8034 20.824 23.8637 20.8989 23.8661C20.9738 23.8685 21.0559 23.7625 21.1284 23.7649C21.2081 23.7697 21.2757 23.736 21.353 23.7384C21.3603 23.7384 21.3675 23.7336 21.3723 23.7311L22.2854 23.7263C22.2854 23.7263 22.2951 23.7311 22.2999 23.7311C22.3772 23.7311 22.4569 23.8372 22.5366 23.8396C22.6139 23.8396 22.6864 23.8685 22.7637 23.8709C22.841 23.8709 22.9183 23.8902 22.998 23.8926C23.0753 23.8926 23.155 23.7962 23.2347 23.7962C23.312 23.7962 23.399 23.883 23.4762 23.8781C23.5535 23.8733 23.6188 23.8227 23.6961 23.8131C23.7734 23.8058 23.841 23.748 23.9183 23.736C23.9956 23.7263 24.1019 23.8661 24.1792 23.854C24.2565 23.842 24.3096 23.8733 24.3869 23.8589C24.4642 23.8468 24.5246 23.7552 24.6019 23.7432C24.6792 23.7311 24.7806 23.8396 24.8555 23.8275C24.9328 23.8179 24.998 23.7239 25.0753 23.7167C25.1526 23.7095 25.242 23.842 25.3193 23.8396C25.3966 23.8372 25.4715 23.7408 25.5487 23.7408C25.6236 23.7408 25.6961 23.7938 25.771 23.801C25.8459 23.8083 25.9256 23.7866 26.0004 23.7962C26.0753 23.8058 26.1357 23.883 26.2106 23.895C26.2855 23.9071 26.3942 23.7576 26.4691 23.7721C26.5053 23.7793 26.5415 23.7432 26.5778 23.7095L28.8362 23.6998C28.8628 23.7022 28.8918 23.707 28.9184 23.7022C28.9232 23.7022 28.9256 23.6998 28.9304 23.6974L30.4546 23.6902C30.4812 23.7143 30.5078 23.736 30.5319 23.736C30.6116 23.736 30.6889 23.8058 30.7686 23.8083C30.8484 23.8107 30.9208 23.8492 31.0005 23.8516C31.0802 23.854 31.1672 23.8227 31.2469 23.8251C31.3266 23.8275 31.4112 23.748 31.4885 23.7528C31.5682 23.7552 31.6455 23.801 31.7228 23.8034C31.8025 23.8034 31.8822 23.7625 31.9619 23.7625C32.044 23.7625 32.1213 23.8348 32.2035 23.8299C32.2856 23.8251 32.3701 23.8444 32.4522 23.8348C32.5344 23.8251 32.6262 23.8974 32.7083 23.8902C32.7904 23.8805 32.8677 23.8637 32.9498 23.8589C33.032 23.854 33.1093 23.8468 33.1914 23.8468C33.2639 23.8468 33.3387 23.8155 33.4136 23.8203C33.4861 23.8251 33.5634 23.801 33.6383 23.8083C33.7107 23.8155 33.8001 23.7287 33.875 23.736C33.8871 23.736 33.8967 23.7408 33.9064 23.7432C33.9378 23.7552 34.1914 23.8251 34.2276 23.8348C34.2663 23.8444 34.2929 23.8637 34.3315 23.8709C34.3702 23.8781 34.4088 23.8661 34.4475 23.8709C34.4861 23.8757 34.6697 23.8878 34.7059 23.8878L34.9668 23.8757C35.0344 23.8709 35.1141 23.8468 35.1697 23.8372C35.247 23.8227 35.3146 23.8492 35.3798 23.8323L28.3459 34.3581C27.9353 34.975 27.7324 35.669 27.7372 36.3678C27.6575 36.204 27.5705 36.0449 27.4787 35.8883C27.4787 35.869 27.4787 35.8497 27.4787 35.828C27.4787 27.8301 20.0462 25.7939 15.1259 24.4468C14.4519 24.2613 13.8142 24.0878 13.2394 23.9095C13.2611 23.9046 13.2852 23.8974 13.3094 23.8926L13.3142 23.8902ZM122.029 17.6417C122.029 17.4224 121.85 17.2417 121.628 17.2417H100.255C100.036 17.2417 99.8544 17.42 99.8544 17.6417V21.5768C99.8544 21.7961 100.033 21.9768 100.255 21.9768H110.275C111.92 21.9768 113.26 23.3118 113.26 24.9553C113.26 26.5987 111.922 27.9313 110.275 27.9313H100.255C100.036 27.9313 99.8544 28.1096 99.8544 28.3313V32.611C99.8544 32.8303 100.033 33.0111 100.255 33.0111H111.635C113.34 33.0111 114.727 34.3942 114.727 36.0955C114.727 37.7968 113.34 39.18 111.635 39.18H95.6732C93.9678 39.18 92.5813 37.7968 92.5813 36.0955V14.0006C92.5813 12.2993 93.9678 10.9161 95.6732 10.9161H134.659C136.408 10.9161 137.831 12.3355 137.831 14.0801C137.831 15.8248 136.408 17.2441 134.659 17.2441H129.729C129.509 17.2441 129.328 17.4224 129.328 17.6441V35.9871C129.328 37.9944 127.691 39.6282 125.679 39.6282C123.666 39.6282 122.029 37.9944 122.029 35.9871V17.6441V17.6417Z" fill="#AA1E8C"/>
<path d="M63.2451 25.1119C63.2716 27.2783 63.6122 29.2808 64.2596 31.064C64.9238 32.8207 65.9432 34.4183 67.2041 35.6762C68.4649 36.9341 70.0254 37.9197 71.8008 38.5607C73.4675 39.1728 75.4361 39.4716 77.6559 39.4403C79.6318 39.4403 81.2792 39.2547 82.6995 38.8691C84.2358 38.4547 85.8469 37.7944 87.4919 36.91C88.1609 36.5486 88.661 36.1967 89.0233 35.8353C89.5257 35.3847 89.8542 34.8834 90.016 34.3316C90.1875 33.8159 90.2673 33.2038 90.2673 32.3966L90.2407 26.418C90.1924 24.7505 88.7841 23.3865 87.0981 23.3865L79.2115 23.4396C77.5786 23.4396 76.2501 24.7746 76.2501 26.418C76.2501 28.0614 77.5883 29.3699 79.2357 29.3699L82.9628 29.3434C83.1826 29.3338 83.3613 29.5169 83.3662 29.7362L83.3927 31.7291C83.3927 31.8833 83.3058 32.0255 83.1657 32.0929C82.342 32.4906 81.5546 32.8086 80.8227 33.0448C79.8806 33.3388 78.8105 33.4882 77.6366 33.4882C75.3902 33.4882 73.7042 32.799 72.4843 31.3821C71.2452 29.9555 70.6027 27.794 70.5761 24.9577C70.5761 23.6323 70.7379 22.4636 71.0737 21.3792C71.3805 20.3527 71.837 19.4707 72.4288 18.7671C73.0375 18.0731 73.7259 17.5622 74.5424 17.1983C75.3153 16.8513 76.2815 16.661 77.4144 16.632C78.5569 16.632 79.3347 16.767 79.9458 17.073C80.5569 17.3501 81.0521 17.6923 81.4458 18.1164C81.8637 18.5912 83.0353 20.3238 83.0836 20.3985C83.4048 20.8322 83.8082 21.1672 84.3082 21.4033C84.7889 21.6443 85.3131 21.7624 85.8686 21.7624C86.8059 21.7624 87.6392 21.4322 88.3397 20.7792C89.0305 20.1117 89.3856 19.2972 89.3856 18.3598C89.3856 17.5718 89.132 16.7308 88.6102 15.7886C88.1513 14.9187 87.4484 14.0874 86.4604 13.2391C85.5232 12.4535 84.301 11.8077 82.8372 11.321C81.3661 10.8222 79.6777 10.5715 77.8202 10.5715C75.6076 10.5715 73.5568 10.921 71.7259 11.6101C69.9215 12.2776 68.3563 13.268 67.0712 14.55C65.7982 15.8465 64.8248 17.4176 64.1799 19.2129C63.5591 20.9937 63.2451 22.9793 63.2451 25.1143V25.1119Z" fill="#FFF53C"/>
<path d="M125.681 39.6282C127.693 39.6282 129.331 37.9944 129.331 35.9871V17.6441C129.331 17.4248 129.509 17.2441 129.732 17.2441H134.662C136.411 17.2441 137.833 15.8248 137.833 14.0801C137.833 12.3355 136.411 10.9161 134.662 10.9161H95.6756C93.9702 10.9161 92.5837 12.2993 92.5837 14.0006V36.0931C92.5837 37.7944 93.9702 39.1776 95.6756 39.1776H111.637C113.343 39.1776 114.729 37.7944 114.729 36.0931C114.729 34.3918 113.343 33.0086 111.637 33.0086H100.258C100.038 33.0086 99.8568 32.8303 99.8568 32.6086V28.3289C99.8568 28.1096 100.036 27.9289 100.258 27.9289H110.277C111.922 27.9289 113.263 26.5939 113.263 24.9529C113.263 23.3118 111.925 21.9744 110.277 21.9744H100.258C100.038 21.9744 99.8568 21.7961 99.8568 21.5744V17.6393C99.8568 17.42 100.036 17.2393 100.258 17.2393H121.63C121.85 17.2393 122.031 17.4176 122.031 17.6393V35.9823C122.031 37.9896 123.669 39.6234 125.681 39.6234V39.6282Z" fill="#FFF53C"/>
<path d="M3.1957 45.4646C3.20778 45.4694 3.21986 45.4767 3.23193 45.4839C5.62811 46.9755 10.9084 47.7683 13.65 47.737C17.609 47.8912 20.9134 46.7948 23.2274 44.5754C25.457 42.4356 26.684 39.3294 26.684 35.828C26.684 28.4398 19.8844 26.5746 14.9205 25.2155C14.2056 25.0204 13.5292 24.8348 12.9229 24.6444C11.5606 24.2396 9.1789 22.7793 9.93978 20.1647C10.2296 19.1261 11.1475 17.8947 13.8746 17.9357H13.9495L39.6094 17.8297C39.7567 17.8297 39.892 17.9092 39.962 18.0393C40.0321 18.1695 40.0248 18.3261 39.9427 18.449L29.0174 34.7991C28.4329 35.6762 28.3845 36.7582 28.887 37.6932C29.387 38.6233 30.3169 39.1776 31.3749 39.1776H57.4623C59.5204 39.1776 61.1943 37.5076 61.1943 35.4569V23.495C61.1943 21.5021 59.5566 19.8804 57.5445 19.8804C56.571 19.8804 55.6628 20.2563 54.984 20.9431C54.3029 21.6298 53.9357 22.5431 53.9478 23.5191V31.7652C53.9478 31.9845 53.769 32.1628 53.5492 32.1652L39.7446 32.2183C39.5949 32.2183 39.4596 32.1363 39.3896 32.0038C39.3195 31.8712 39.3292 31.7122 39.4161 31.5917L50.6096 15.5621C51.2304 14.6657 51.2883 13.4849 50.7617 12.4801C50.2497 11.5065 49.3197 10.9258 48.2738 10.9258H15.5172C12.121 10.9402 7.43973 12.015 4.50007 14.9814C2.6353 16.8634 1.69809 19.2635 1.715 22.1142C1.48553 28.0084 5.76338 30.1941 9.51465 31.4423C9.64026 31.4857 9.79243 31.5363 9.97118 31.5941C11.3915 32.064 14.3432 33.0448 16.3892 34.2689C18.1283 35.31 18.8288 36.9365 18.1742 38.4137C17.4109 40.1897 16.1041 40.5415 14.365 40.5126C13.0075 40.4861 11.2804 40.0692 9.08469 39.2378C8.94701 39.1872 8.76585 39.1101 8.55811 39.021C6.98321 38.339 3.70296 36.9197 1.73191 40.1367C1.34301 40.862 1.09905 42.2355 1.50485 43.491C1.70775 44.1176 2.1667 44.9706 3.19087 45.4718L3.1957 45.4646Z" fill="#FFF53C"/>
<path d="M53.6628 14.6753C53.6628 14.6753 53.6628 14.6753 53.6652 14.6777C53.7594 14.7717 53.8584 14.8561 53.9599 14.9259C54.1072 15.0223 54.228 15.0344 54.3029 15.0729C54.3294 15.126 54.327 15.2151 54.2835 15.3814C54.199 15.7308 54.1459 16.0778 54.1724 16.4369C54.2232 17.1477 54.4961 17.5622 54.7763 17.8104C55.0106 18.0417 55.2594 18.1478 55.3898 18.1984C55.827 18.3719 56.0903 18.3984 56.3802 18.3984H56.3947C57.1435 18.3502 57.6797 18.1285 58.0735 17.461C58.1604 17.314 58.2232 17.367 58.2546 17.3959C58.2546 17.3959 58.2595 17.4007 58.2619 17.4032C58.3247 17.4658 58.3826 17.5309 58.4503 17.6128C58.4841 17.6562 58.5227 17.6947 58.5662 17.7333C58.5662 17.7333 58.5735 17.7405 58.5759 17.7429C58.8609 18.0321 59.4092 18.2056 59.8754 18.1863C60.7112 18.1502 61.1267 17.3742 61.4286 16.6995C61.5011 16.4802 61.5325 16.2393 61.5349 15.9935C61.5421 15.5838 61.4721 15.1597 61.3827 14.7958C61.3779 14.7669 61.3779 14.7404 61.3827 14.7163C61.3948 14.644 61.4479 14.591 61.5325 14.5428C61.8272 14.3717 62.1387 14.2416 62.3875 14.0151C62.6363 13.7741 62.6991 13.4126 62.7209 13.0945C62.7233 13.0512 62.7257 13.0102 62.7257 12.9668C62.7257 12.8849 62.7233 12.8054 62.7136 12.7283C62.6557 12.1837 62.39 11.7113 62.0107 11.3595C61.5687 10.921 60.9552 10.6511 60.3295 10.6342C60.2619 10.6366 60.2063 10.6246 60.1653 10.598C60.1387 10.5571 60.1242 10.5065 60.1218 10.4462C60.1025 10.2318 60.0638 9.61728 59.9092 9.1522C59.8923 9.104 59.8634 9.04617 59.8247 8.98352C59.8223 8.9787 59.8199 8.97629 59.8175 8.97147C59.7764 8.90882 59.7257 8.84134 59.6677 8.77628C59.6653 8.77387 59.6629 8.76905 59.6604 8.76664C59.6435 8.74736 59.6242 8.72808 59.6049 8.70881C59.6025 8.7064 59.6001 8.70158 59.5952 8.69917C59.5759 8.67989 59.5542 8.6582 59.5324 8.63892C59.5324 8.63892 59.53 8.63411 59.5276 8.63411C59.4044 8.51362 59.2595 8.40518 59.1097 8.35457C57.914 7.93769 56.5034 8.94014 56.0517 10.092C55.9865 10.2607 55.6145 10.945 55.4454 11.039C55.2642 11.1619 55.0613 11.2101 54.8657 11.2945C53.9116 11.7113 53.0468 12.4198 53.0251 13.297C53.0178 13.5741 53.0806 13.9211 53.2328 14.1572C53.356 14.3452 53.5009 14.5187 53.6603 14.6681L53.6628 14.6753ZM55.4816 12.5837C55.6725 12.5523 56.0179 12.5355 56.2159 12.4535C56.5928 12.3186 56.7763 11.9017 56.8875 11.5089C56.9092 11.4342 56.9358 11.3619 56.9672 11.2921C57.0783 11.0607 57.2812 10.6511 57.3271 10.5764C57.629 9.8703 58.0227 9.68957 58.3029 9.66547C58.4237 9.65584 58.5372 9.69439 58.6266 9.76668C58.6749 9.82211 58.7136 9.88958 58.7329 9.96428C58.7715 10.1089 58.7836 10.2775 58.7764 10.4342C58.7522 10.9161 58.4334 11.0463 58.5855 11.8728C58.6097 12.0053 58.6822 12.1234 58.7812 12.2078C58.8464 12.2825 58.9334 12.3403 59.03 12.3668C59.5034 12.5017 59.617 12.0487 60.3464 11.9812C60.5324 11.9644 60.7378 12.0222 60.8996 12.0993C60.9962 12.1451 61.0904 12.2078 61.175 12.2849C61.3416 12.4608 61.4431 12.6897 61.3537 12.9379C61.303 13.0704 61.2209 13.1741 61.1073 13.2223C60.96 13.2656 60.7788 13.3114 60.6315 13.3283C60.5856 13.3331 60.5421 13.3331 60.4962 13.3283C60.3344 13.309 60.1798 13.256 60.03 13.2994C59.873 13.3355 59.7474 13.4271 59.6218 13.5476C59.3996 13.7596 59.4165 14.1331 59.6146 14.3524C59.7063 14.4633 59.8126 14.6247 59.8609 14.75C60.303 15.7597 60.1097 16.5477 59.6822 16.6754C59.4455 16.7453 59.2498 16.7549 59.0542 16.5863C58.9068 16.432 58.7595 16.1742 58.5904 15.7573C58.5107 15.5959 58.4599 15.3091 58.4575 15.1308C58.4527 14.9235 58.4334 14.7211 58.2957 14.5548C58.2619 14.5163 58.2256 14.4801 58.187 14.4464C58.187 14.4464 58.1846 14.444 58.1822 14.4416C58.0517 14.3066 57.902 14.2102 57.7232 14.2199C57.5807 14.2271 57.4527 14.2753 57.3561 14.3789C57.1048 14.591 57.0662 14.9235 57.0348 15.2272C56.9962 15.5838 56.9913 15.7477 57.0348 16.0898C57.1338 16.8682 56.5131 17.1429 55.9671 16.9815C55.8947 16.9598 55.815 16.9188 55.7425 16.8586C55.728 16.8441 55.7159 16.8296 55.7039 16.8128C55.7039 16.8128 55.7014 16.808 55.699 16.8055C55.629 16.7164 55.5734 16.6031 55.542 16.4634C55.542 16.4561 55.5396 16.4513 55.5372 16.4441C55.5251 16.3838 55.5179 16.3212 55.5154 16.2513C55.5154 16.22 55.5154 16.1862 55.5154 16.1525C55.5299 15.7742 55.6652 15.3958 55.7473 15.0296C55.7691 14.9332 55.7956 14.8392 55.8343 14.7476C55.8729 14.6561 55.914 14.5621 55.9333 14.4633C55.9406 14.4319 55.9454 14.3982 55.9454 14.3669C55.9454 14.3235 55.9454 14.2801 55.9333 14.2368C55.9116 14.1235 55.8464 14.0271 55.7546 13.9524C55.6072 13.791 55.3536 13.6994 55.1072 13.6897C54.9768 13.6849 54.8319 13.75 54.7159 13.7476C54.6459 13.7452 54.5686 13.709 54.4961 13.6512C54.4575 13.6078 54.4236 13.5548 54.3995 13.497C54.3777 13.4391 54.3633 13.3741 54.3681 13.3066C54.3777 13.121 54.6555 12.721 55.4792 12.5861L55.4816 12.5837Z" fill="white"/>
<path d="M30.5827 54.9493C30.6285 55.1662 30.6648 55.3879 30.6889 55.6144C30.7131 55.7397 30.6551 55.8313 30.5126 55.894C30.2711 55.9638 30.0174 56 29.7541 56C29.5367 56 29.3169 55.9807 29.0995 55.9181C28.5995 55.8241 28.2541 55.2988 28.2227 54.7999C28.1913 54.3108 28.1986 52.4384 28.1986 51.9781C28.1986 51.8842 28.1937 51.8263 28.1865 51.8022C28.1792 51.6769 28.1164 51.607 28.0005 51.5926H27.9063C27.6092 51.5468 27.5705 51.4962 27.556 51.1853C27.556 51.0311 27.544 50.8865 27.544 50.7299C27.5584 50.5202 27.6647 50.3998 27.8604 50.3684C27.9232 50.354 27.986 50.3732 28.0464 50.3564C28.1309 50.3564 28.1744 50.3106 28.1744 50.2166C28.1889 49.9997 28.213 49.8045 28.1986 49.5877C28.1672 49.4021 28.2565 49.2768 28.3966 49.1684C28.4812 49.0913 28.5802 49.0286 28.6889 48.9828C28.8435 48.9057 28.9933 48.8575 29.1334 48.7491C29.1962 48.7033 29.3 48.6937 29.3797 48.6792C29.4884 48.6647 29.5947 48.7346 29.6261 48.8431C29.6575 48.937 29.701 49.0382 29.6841 49.1467C29.6213 49.472 29.672 49.8045 29.672 50.113C29.672 50.3612 29.6986 50.3805 29.9184 50.3805C30.0271 50.3805 30.1237 50.354 30.2348 50.3684C30.4208 50.3757 30.5271 50.4769 30.5513 50.6721C30.5827 50.9058 30.6455 51.1347 30.5513 51.3829C30.474 51.554 30.4474 51.5926 30.259 51.5926C30.1189 51.5926 29.9909 51.5781 29.8508 51.5926C29.7252 51.5926 29.6768 51.5564 29.6768 51.7902C29.6768 52.0384 29.6527 52.6962 29.6527 52.9565C29.6527 53.5155 29.7348 54.0867 29.6865 54.3204C29.672 54.3517 29.6817 54.3855 29.6986 54.4481C29.7227 54.5638 29.7928 54.6313 29.9087 54.6457H30.2252C30.4281 54.6457 30.5488 54.7469 30.5875 54.9493M35.7132 52.4914C35.7132 51.6552 35.5417 50.7299 34.6504 50.3925C34.3001 50.2528 33.9499 50.1829 33.5996 50.1829C33.2808 50.1829 32.9619 50.2407 32.6407 50.3588C32.5634 50.3901 32.5078 50.4094 32.4305 50.4407C32.3436 50.4793 32.3025 50.4528 32.3025 50.3588C32.2711 50.1877 32.2783 50.0407 32.2783 49.8696C32.2638 49.513 32.2518 49.1539 32.2663 48.7973C32.2663 48.5177 32.1141 48.431 31.8798 48.3997C31.6455 48.3852 31.4039 48.3997 31.1551 48.3997C30.9208 48.4141 30.9015 48.4262 30.8387 48.6912C30.8073 48.8166 30.7542 48.9178 30.7686 49.0407C30.8314 49.5371 30.7952 50.0118 30.7807 50.5106C30.7662 50.9612 30.7952 51.3998 30.7807 51.8504C30.7807 52.3324 30.7686 54.5276 30.7686 55.1494C30.7686 55.2747 30.7638 55.3855 30.7807 55.5108C30.8194 55.7205 30.9401 55.8337 31.143 55.8482C31.3846 55.8554 31.6213 55.8554 31.8556 55.8482C32.1672 55.8337 32.2324 55.7397 32.2638 55.4289C32.2783 55.3518 32.2904 55.2843 32.2759 55.2072V53.1565C32.2759 52.8914 32.2832 52.6505 32.3001 52.3878C32.3001 51.8408 32.8895 51.4914 33.387 51.4914H33.4813C33.9474 51.5227 34.2832 51.8095 34.2518 52.3541C34.2518 52.5565 34.2373 52.7541 34.2518 52.9709C34.2832 53.2963 34.259 53.624 34.2276 53.9493C34.2204 54.0047 34.2204 54.0626 34.2276 54.1252C34.2735 54.4216 34.2518 54.6963 34.2518 54.9759C34.2446 55.1397 34.2446 55.306 34.2518 55.4771C34.2663 55.7879 34.3291 55.8458 34.6262 55.8626C34.8605 55.8626 35.1045 55.8699 35.3388 55.8385C35.6045 55.8241 35.6818 55.7638 35.7132 55.5012V55.2674C35.7132 55.0024 35.7011 54.7276 35.7011 54.4626C35.7011 53.8095 35.7277 53.1613 35.7132 52.4938M41.6022 52.7227C41.6022 52.8312 41.5949 52.9444 41.6263 53.0384C41.6577 53.1469 41.6336 53.2481 41.6022 53.342C41.5563 53.5131 41.45 53.5975 41.2857 53.5975C40.8968 53.5975 40.5176 53.6409 40.1287 53.6095C39.677 53.5782 39.2181 53.6457 38.7495 53.5975C38.578 53.583 38.3944 53.5734 38.2229 53.6674C38.1456 53.7131 38.0659 53.7107 37.9886 53.6553C37.8799 53.5927 37.834 53.6746 37.7543 53.7372C37.6915 53.783 37.735 53.8385 37.7664 53.9011C37.9693 54.4457 38.4524 54.7517 39.0272 54.7517C39.3074 54.7517 39.5442 54.5999 39.8099 54.4602C39.834 54.4361 39.8461 54.4144 39.8461 54.3903C39.8461 54.3132 39.9041 54.265 39.95 54.2047C40.1843 53.8312 40.2374 53.7035 40.4403 53.7035C40.5345 53.7035 40.6746 53.7276 40.8606 53.7734C40.9862 53.8047 41.0973 53.7927 41.2229 53.8095C41.5176 53.8553 41.6287 54.012 41.549 54.2746C41.3147 55.0289 40.8316 55.5373 40.0997 55.8024C39.7108 55.9277 39.2664 56.0048 38.7688 55.9879C38.3799 56.0193 37.9354 55.8916 37.5296 55.6723C37.0151 55.4072 36.619 54.9927 36.3847 54.4481C36.119 53.7951 36.1286 53.1806 36.2204 52.5131C36.2204 52.4818 36.2446 52.4625 36.2446 52.4312C36.276 51.2986 37.4572 50.2624 38.5804 50.2624C38.6263 50.2624 38.677 50.2889 38.7084 50.2744C38.8243 50.2359 38.9548 50.2166 39.0949 50.2166C39.4379 50.2166 39.7543 50.3419 40.0635 50.4504C40.5152 50.6046 40.8727 50.8962 41.1384 51.301C41.4186 51.7372 41.6094 52.195 41.5949 52.7227M39.8944 52.3396C39.9717 52.3396 40.0297 52.2553 40.0007 52.1757C39.9693 52.1131 39.962 52.0601 39.9306 52.0119C39.7132 51.6697 39.3195 51.4745 38.9137 51.4745C38.5079 51.4745 38.0804 51.6697 37.863 52.1034C37.8002 52.2287 37.8557 52.3251 37.9789 52.3251C38.305 52.3396 38.6335 52.3251 38.9596 52.3251C39.2712 52.3396 39.5828 52.3372 39.8944 52.3372M46.3172 48.7226C46.4573 48.7515 47.0612 48.7539 47.2279 48.7153C47.4139 48.6937 47.4839 48.5828 47.5105 48.4262C47.5346 48.2406 47.4936 47.6285 47.4887 47.4936C47.4646 47.2767 47.3921 47.2141 47.1747 47.19C46.9549 47.1659 46.7254 47.1659 46.5081 47.19C46.3365 47.1948 46.0878 47.3105 46.0636 47.496C46.0757 47.8213 46.0708 48.1491 46.0974 48.4744C46.1022 48.6069 46.1747 48.6888 46.3172 48.7226ZM47.7544 53.7011C47.7496 53.1107 47.7013 52.5444 47.682 51.954C47.6578 51.2408 47.6627 50.5371 47.6071 49.8214C47.6023 49.6961 47.6264 49.5828 47.6071 49.46C47.5709 49.2913 47.5032 49.1322 47.3148 49.1081C47.1264 49.084 46.938 49.0623 46.752 49.0696C46.438 49.0816 46.153 49.125 46.1361 49.4985C46.1071 49.9973 46.1771 50.4696 46.1651 50.9685C46.1506 51.4673 46.2013 51.9854 46.2182 52.4818C46.2399 53.0866 46.252 53.7059 46.3051 54.3108C46.3196 54.5276 46.438 54.6409 46.6554 54.6481C46.9139 54.6554 47.1651 54.6481 47.4139 54.6216C47.6458 54.5975 47.7907 54.4409 47.752 54.224C47.7303 54.0529 47.7641 53.8698 47.7569 53.6987M51.9816 51.2673C51.525 51.142 51.0927 51.0504 50.6361 50.9419C50.3535 50.8745 50.0782 50.8287 49.81 50.713C49.6579 50.6335 49.6385 50.5202 49.7521 50.3757C49.8994 50.1853 50.2883 50.1588 50.5154 50.1515C50.897 50.1371 51.327 50.2455 51.4333 50.6672C51.4333 50.6986 51.455 50.7178 51.4719 50.7468C51.5395 50.8697 51.6337 50.9227 51.7594 50.9106C52.0395 50.8697 52.3173 50.8335 52.5975 50.7757C52.769 50.7395 52.8077 50.66 52.8318 50.4865C52.8439 50.3781 52.8077 50.2624 52.7739 50.1395C52.5999 49.6624 52.327 49.3081 51.8391 49.1226C51.3101 48.9081 50.7545 48.8406 50.1724 48.925C50.0178 48.9467 49.8704 48.9973 49.7303 48.9876C49.5419 48.9949 49.4839 49.1901 49.2931 49.166C49.1047 49.125 49.0371 49.284 48.9139 49.366C48.3366 49.6648 48.0636 50.5275 48.3704 51.2383C48.5129 51.5516 48.7279 51.7926 49.0153 51.9613C49.4284 52.1637 49.897 52.2384 50.339 52.3926C50.4501 52.4191 50.5492 52.3902 50.6434 52.4167C50.926 52.4842 51.1893 52.5444 51.4574 52.6456C51.6217 52.6938 51.6772 52.8119 51.6217 53.0023C51.5951 53.1035 51.5275 53.1806 51.4188 53.2312C51.2207 53.3469 51.0347 53.3854 50.8173 53.3927C50.2859 53.4119 49.7521 53.3107 49.6361 52.7107C49.5951 52.448 49.4115 52.4263 49.1941 52.4336C48.9284 52.4432 48.6868 52.4986 48.438 52.5541C48.2206 52.6095 48.1313 52.7902 48.1844 53.0071C48.3004 53.6023 48.8463 54.2626 49.4042 54.4578C49.8608 54.612 50.3004 54.6795 50.8125 54.6313C51.1555 54.6505 51.5202 54.5831 51.9043 54.4288C52.3946 54.2264 52.798 53.9035 53.013 53.3999C53.1434 53.1011 53.1241 52.7854 53.0975 52.4745C53.0444 51.8769 52.513 51.4335 51.9792 51.2649M55.0396 53.4577C55.0976 52.9107 54.9478 52.3613 55.0058 51.8143C55.0154 51.6576 55.0275 51.5131 54.9889 51.3588C54.8753 50.7178 54.9526 50.1034 54.8995 49.46C54.8512 48.9804 54.8584 48.5009 54.8729 48.0021C54.8802 47.737 54.8391 47.4743 54.798 47.2117C54.7836 47.0406 54.6797 46.9562 54.484 46.9538C54.3125 46.9442 54.1652 46.9418 53.9937 46.9466C53.7449 46.9562 53.4526 46.9659 53.385 47.2478C53.3657 47.3659 53.3584 47.4816 53.3632 47.5996C53.3995 48.619 53.5347 52.8047 53.571 53.8674C53.5758 53.9999 53.6072 54.1156 53.6652 54.2144C53.7328 54.3445 53.827 54.4072 53.9526 54.4023C54.2183 54.3927 54.4816 54.3879 54.7473 54.3638C55.0106 54.3397 55.0493 54.2915 55.0855 54.0264C55.1121 53.9011 55.1217 53.7999 55.0855 53.677C55.0517 53.5999 55.0372 53.5276 55.042 53.4577M60.7136 52.5492C60.7426 52.9517 60.7812 53.3517 60.9648 53.718C61.0808 53.9228 61.0155 54.0553 60.7692 54.1108C60.5977 54.1469 60.4407 54.1686 60.2692 54.1758C60.1291 54.1806 59.9769 54.1758 59.8368 54.1686C59.7112 54.1565 59.6315 54.0746 59.5493 53.9686C59.4769 53.8698 59.4189 53.8216 59.3803 53.8216C59.3489 53.8216 59.2812 53.8553 59.1725 53.9228C58.7305 54.2023 58.1628 54.3541 57.6338 54.3734C57.0879 54.3927 56.443 54.2216 56.0251 53.8457C55.4792 53.3999 55.2811 52.3083 55.9116 51.6335C56.2957 51.2239 56.7474 50.9829 57.2667 50.9106L58.7522 50.6263C58.7909 50.6263 58.8174 50.6166 58.8344 50.5998C58.9261 50.5347 59.0952 50.5829 59.1194 50.4263C59.1435 50.2552 59.0324 50.0166 58.8561 49.9443C58.7305 49.9033 58.5904 49.8359 58.4672 49.8407C58.216 49.819 57.972 49.8407 57.7087 49.8792C57.3222 49.954 57.1435 50.1829 57.03 50.5443C56.9503 50.8142 56.9648 50.8142 56.6773 50.8239C56.3826 50.8648 56.1121 50.7925 55.844 50.7251C55.6556 50.6841 55.5783 50.5588 55.6097 50.3491C55.7546 49.5973 56.1483 49.0696 56.8875 48.8117C57.3174 48.6406 57.7353 48.5683 58.1411 48.5708C58.4841 48.5443 58.7885 48.5708 59.1001 48.6069C59.6991 48.7105 60.3344 49.0479 60.4817 49.6672C60.559 50.1009 60.6194 50.5058 60.6194 50.9564C60.6218 51.4841 60.675 52.0071 60.7112 52.5517M57.9165 53.171C58.4889 53.1517 59.1556 52.6215 59.1967 52.0191C59.1991 51.8866 59.1315 51.8263 58.9914 51.8408C58.9455 51.8576 58.9092 51.8625 58.8633 51.8793C58.4914 51.9396 58.1459 52.0601 57.7715 52.1034C57.4937 52.1131 57.03 52.2986 57.042 52.6312C57.0493 52.8553 57.1604 52.9975 57.373 53.0505C57.5469 53.1228 57.7281 53.1782 57.914 53.171M66.204 50.0937C66.0929 49.1322 65.6871 48.7153 64.9335 48.4936C64.6509 48.4093 64.361 48.3732 64.0639 48.3828C63.6291 48.3973 63.1339 48.5033 62.7668 48.7659C62.7281 48.7973 62.6798 48.8166 62.617 48.819C62.5542 48.819 62.518 48.7828 62.5083 48.7057C62.4914 48.643 62.489 48.5828 62.3634 48.5708C62.2378 48.5587 62.0904 48.5563 61.9648 48.5611C61.7933 48.5659 61.6315 48.5876 61.4769 48.6238C61.3682 48.6431 61.3368 48.725 61.3078 48.8045C61.2788 48.8672 61.2885 48.9298 61.2909 48.9925C61.3006 49.3033 61.3078 49.6142 61.3344 49.925C61.3658 50.407 61.3682 50.8769 61.3851 51.3588L61.4334 52.7444C61.4383 53.0938 61.4503 53.436 61.4697 53.7686C61.4866 54.0095 61.6146 54.1252 61.8561 54.1156C62.1218 54.1059 62.3513 54.0915 62.6146 54.065C62.832 54.0409 62.8948 53.9589 62.919 53.7397C62.9286 53.5999 62.919 53.4505 62.9141 53.2963C62.8852 52.9083 62.8441 52.5324 62.8634 52.1444C62.8707 51.8793 62.8586 51.648 62.8489 51.3974C62.8537 51.1179 62.8562 50.8383 62.8779 50.5564C62.9528 50.0238 63.4214 49.6985 63.8997 49.6816C64.2596 49.6696 64.6799 49.8335 64.7258 50.2359C64.7644 50.4359 64.7862 50.6335 64.7934 50.8528C64.82 51.5974 64.832 52.2625 64.8562 53.0071C64.8634 53.2481 64.8852 53.4842 64.9166 53.7156C64.9311 53.8867 65.0108 53.9734 65.1605 53.9758C65.4721 53.9951 65.7693 53.9975 66.0495 53.9806C66.2982 53.9565 66.3345 53.8746 66.3393 53.6095C66.3345 53.0191 66.3055 52.4408 66.291 51.5709C66.2813 51.26 66.2717 50.6817 66.204 50.0937ZM71.3805 47.0574C71.4481 48.5491 71.494 49.966 71.5471 51.4721C71.5689 52.1251 71.5834 52.73 71.5906 53.383C71.5979 53.6168 71.5278 53.7156 71.3104 53.7541C71.1413 53.7903 70.9819 53.824 70.8104 53.8288C70.6244 53.836 70.4553 53.8023 70.3032 53.73C70.1848 53.6794 70.0713 53.6794 69.965 53.73C69.6727 53.865 69.3539 53.9734 69.0278 53.9854C67.8659 54.0264 66.7258 53.1878 66.4697 52.0577C66.2886 51.3492 66.2644 50.6528 66.4891 49.9467C66.6437 49.46 66.907 49.0961 67.2548 48.7419C67.5277 48.4503 68.4166 48.2238 68.779 48.2117C69.0592 48.2021 69.3418 48.2454 69.6244 48.3467C69.7041 48.3756 69.7862 48.4189 69.9408 48.3828C69.9288 48.0262 69.9481 47.6984 69.9046 47.3562C69.8659 47.1707 69.8877 46.9755 69.8949 46.7731C69.8877 46.549 69.9843 46.4213 70.1848 46.3899C70.5109 46.3466 70.837 46.3249 71.1679 46.3899C71.2694 46.4092 71.3273 46.4695 71.337 46.5707C71.3587 46.7418 71.3708 46.8888 71.378 47.0598M69.8925 52.2649C70.0664 51.9179 70.1751 51.5781 70.1486 51.207C70.1244 50.9588 70.1172 50.7347 70.0761 50.4865C69.9457 49.9154 69.5543 49.4672 68.9311 49.4889C68.4166 49.5057 68.105 49.7202 67.9505 50.2238C67.7959 50.7275 67.7669 51.2094 67.9094 51.7179C67.9988 52.0577 68.1872 52.2866 68.4287 52.5276C68.5737 52.6625 68.7886 52.7131 69.0084 52.7059C69.3659 52.6938 69.7621 52.5348 69.8925 52.2673M82.784 48.3876C84.214 48.4382 85.388 49.2142 85.5909 50.713C85.6682 51.248 85.6368 51.7733 85.4991 52.2938C85.1343 53.6963 83.999 54.3252 82.6367 54.277C81.4459 54.2361 80.2937 53.4433 80.0473 52.2456C79.8565 51.3347 79.9772 50.5154 80.3396 49.672C80.3927 49.5298 80.5038 49.4238 80.6028 49.3009C81.2164 48.6069 81.9724 48.3611 82.7816 48.3876M84.0039 52.0625C84.1416 51.5516 84.1343 51.0432 83.9845 50.5371C83.8275 50.007 83.3734 49.6937 82.8324 49.6744C82.2285 49.6527 81.6753 50.0238 81.5038 50.7949C81.4652 50.9588 81.4555 51.595 81.4797 51.795C81.5835 52.4818 82.0232 52.9685 82.7381 52.995C83.342 53.0167 83.8541 52.5974 83.999 52.0625M89.1078 46.6791C88.8856 46.6406 88.6658 46.6044 88.4412 46.5972C87.7648 46.5731 87.0474 46.7418 86.7406 47.4189C86.6368 47.684 86.6078 47.9298 86.5353 48.1972C86.516 48.2768 86.5305 48.3442 86.5281 48.4238C86.5257 48.5105 86.4798 48.5659 86.3904 48.5852L86.2479 48.5804C85.7696 48.5949 85.7503 48.6093 85.6706 49.084C85.6488 49.2262 85.7092 49.3636 85.7044 49.4913C85.7116 49.713 85.8566 49.7708 86.016 49.8238C86.1561 49.8768 86.3252 49.8142 86.4653 49.9467C86.5208 50.6166 86.4121 51.2191 86.4218 51.8866C86.4314 52.5227 86.3662 53.1348 86.3445 53.7541C86.3397 53.8915 86.3445 54.2433 86.5667 54.2505C86.9001 54.277 87.2334 54.2891 87.5691 54.2867C87.7117 54.2915 87.7986 54.2192 87.8276 54.0698C87.8663 53.8963 87.9218 53.7469 87.8808 53.571C87.8518 53.4915 87.8759 53.3927 87.8808 53.2963C87.8977 52.7878 87.9218 52.2697 87.9218 51.7613C87.9267 51.1901 88.0088 50.6287 87.9798 50.072C87.9677 49.9443 88.0523 49.8527 88.1779 49.8889C88.3832 49.9274 88.5692 49.8744 88.7745 49.8985C88.9025 49.9033 88.9557 49.8262 89.0064 49.7154C89.0933 49.4961 89.0474 49.2599 89.0547 49.0382C89.0619 48.8166 88.9895 48.7346 88.7672 48.6937C88.5933 48.6551 88.3953 48.6575 88.2189 48.6503C88.1392 48.6406 88.0933 48.6093 88.0788 48.5611C87.975 48.3515 88.0667 48.0936 88.2769 48.0213C88.4049 47.9948 88.5112 47.949 88.6368 47.9852C88.7624 48.0213 88.9146 48.031 89.0402 48.0358C89.1658 48.0478 89.2552 47.9997 89.3083 47.8912C89.4122 47.6719 89.4798 47.4406 89.5112 47.1948C89.545 46.9273 89.4122 46.7538 89.1127 46.6815M95.4389 48.2454C95.649 48.1732 95.8736 48.2238 96.0959 48.2334C96.6345 48.2527 96.6611 47.549 96.6104 47.1683C96.4582 46.802 95.9896 46.8478 95.6683 46.8382C95.5572 46.802 95.4582 46.8068 95.3471 46.8044C94.8785 46.7875 94.4654 46.9177 94.1055 47.19C93.8736 47.4358 93.7359 47.7249 93.6924 48.0575C93.62 48.2792 93.6828 48.6117 93.4533 48.7635C93.3253 48.8069 93.1852 48.7828 93.0572 48.8093C92.7069 48.8599 92.7939 49.3684 92.7552 49.619C92.7794 50.2913 93.6345 49.7732 93.5596 50.5034C93.5572 51.5034 93.4388 52.4866 93.4678 53.489C93.4122 54.1662 93.3639 54.5301 94.1707 54.5252C94.5524 54.5397 94.9654 54.5951 94.9509 54.077V54.0409C94.9026 53.6939 95.0983 53.3276 95.05 52.9854C94.9799 52.2553 95.1731 51.5179 95.1007 50.8215C95.091 50.6624 95.0765 50.4865 95.1297 50.3467C95.2963 50.0696 95.6973 50.1997 95.963 50.0793C96.3036 49.9684 96.1732 49.4142 96.1514 49.1202C96.0693 48.8431 95.5645 48.9081 95.3157 48.8045C95.0717 48.6912 95.2601 48.3033 95.4437 48.2503M100.166 49.5178C100.209 49.4093 100.185 49.325 100.091 49.2648C99.8278 49.0334 99.5017 48.8503 99.1515 48.8382C98.8979 48.8286 98.4824 48.8792 98.2867 48.9997C98.2046 49.0599 98.0959 49.0913 97.9872 49.0238C97.8157 48.9226 97.6659 48.8937 97.4896 48.8864C97.3157 48.8792 97.1394 48.8888 96.963 48.9154C96.7384 48.9395 96.7022 48.9828 96.678 49.2021C96.649 49.5973 96.6418 49.9949 96.6128 50.3901C96.5693 51.1516 96.6128 51.9131 96.521 52.6721C96.4968 52.8938 96.492 53.1276 96.4848 53.3975L96.4558 54.2071C96.4292 54.5084 96.5717 54.5252 96.8737 54.5662C97.1104 54.6072 97.3616 54.571 97.5983 54.6264C97.8664 54.6843 97.9993 54.5084 97.9945 54.224C97.9945 53.7638 98.0234 53.3155 98.0065 52.8553L98.0331 52.0818C98.0645 51.6697 98.0862 51.2697 98.1949 50.86C98.2867 50.4986 98.5838 50.2913 98.8713 50.301C98.951 50.3034 99.0259 50.3226 99.0959 50.3564C99.207 50.3925 99.2916 50.4263 99.4027 50.4624C99.5911 50.5323 99.7771 50.4479 99.864 50.2769C99.9848 50.0118 100.077 49.7804 100.166 49.513M105.388 51.7131C105.383 51.8239 105.371 51.9396 105.4 52.036C105.429 52.1492 105.4 52.2504 105.367 52.3444C105.313 52.5179 105.202 52.5998 105.036 52.595C104.639 52.5806 104.251 52.6119 103.854 52.5661C103.396 52.5179 102.924 52.5685 102.449 52.5059C102.275 52.4842 102.089 52.4697 101.91 52.5589C101.828 52.6047 101.751 52.5974 101.671 52.5396C101.562 52.4721 101.511 52.5541 101.429 52.6143C101.364 52.6601 101.405 52.7155 101.437 52.7806C101.623 53.342 102.106 53.6722 102.693 53.6939C102.978 53.7035 103.226 53.5565 103.502 53.424C103.526 53.3999 103.538 53.3782 103.54 53.3541C103.543 53.2746 103.603 53.2288 103.654 53.1685C103.905 52.7974 103.966 52.6673 104.173 52.6745C104.27 52.677 104.41 52.7059 104.601 52.7613C104.726 52.7974 104.842 52.7902 104.97 52.8095C105.27 52.8673 105.376 53.0312 105.287 53.2963C105.021 54.0577 104.511 54.559 103.755 54.8024C103.354 54.9156 102.898 54.9783 102.391 54.9445C101.992 54.9638 101.543 54.8168 101.139 54.5807C100.625 54.2915 100.234 53.8553 100.014 53.2914C99.7674 52.6167 99.7964 51.9902 99.9172 51.3106C99.9172 51.2793 99.9438 51.26 99.9438 51.2287C100.016 50.0744 101.26 49.0599 102.405 49.1009C102.453 49.1009 102.504 49.1322 102.536 49.1178C102.656 49.0816 102.787 49.0672 102.932 49.072C103.282 49.084 103.598 49.2214 103.912 49.3443C104.369 49.5178 104.724 49.8286 104.978 50.2503C105.248 50.7034 105.427 51.1781 105.391 51.7179M103.664 51.26C103.743 51.2624 103.806 51.1781 103.777 51.0962C103.748 51.0311 103.741 50.9757 103.712 50.9275C103.502 50.5708 103.108 50.3588 102.695 50.3443C102.265 50.3299 101.838 50.513 101.601 50.9492C101.533 51.0745 101.584 51.1757 101.712 51.1781C102.045 51.2046 102.379 51.2022 102.714 51.2142C103.031 51.2408 103.35 51.248 103.668 51.26M116.437 47.7273C116.538 47.7539 116.594 47.8213 116.596 47.9225C116.606 48.0984 116.608 48.2479 116.603 48.4238C116.567 49.9467 116.512 51.3926 116.459 52.9324C116.434 53.5975 116.405 54.2168 116.367 54.8819C116.36 55.1204 116.28 55.2168 116.055 55.2409C115.879 55.2674 115.715 55.2891 115.541 55.2819C115.35 55.2747 115.181 55.2289 115.033 55.1445C114.917 55.0843 114.802 55.0771 114.688 55.1204C114.381 55.2361 114.048 55.3253 113.715 55.3132C112.577 55.2747 111.519 54.412 111.277 53.3083C111.253 53.6288 110.893 54.1011 110.705 54.3638L110.681 54.3879C110.057 54.9373 109.26 55.1831 108.483 55.1566C107.041 55.106 105.69 54.1228 105.654 52.4263C105.705 51.8721 105.731 51.2624 105.987 50.7468C106.398 50.0841 106.925 49.5009 107.719 49.3298C107.944 49.2431 108.193 49.2142 108.463 49.2238C108.876 49.2383 109.528 49.2889 109.838 49.5226C110.181 49.7564 110.526 49.9395 110.753 50.2817C111.002 50.6383 111.186 51.0648 111.27 51.5034C111.309 51.342 111.357 51.1805 111.422 51.0191C111.615 50.5347 111.91 50.1829 112.287 49.8479C112.584 49.5708 113.507 49.4021 113.876 49.4142C114.161 49.4238 114.446 49.4889 114.729 49.6094C114.806 49.6431 114.888 49.6937 115.048 49.6672C115.06 49.3033 115.103 48.9708 115.084 48.6214C115.06 48.431 115.094 48.2334 115.116 48.0262C115.123 47.7972 115.231 47.6719 115.439 47.6575C115.775 47.6382 116.108 47.6382 116.439 47.7273M107.461 51.154C107.386 51.4673 107.946 51.3371 108.156 51.4046C108.282 51.4408 108.41 51.4408 108.49 51.4287C108.497 51.4215 108.509 51.4167 108.526 51.4191C108.702 51.4094 108.888 51.407 109.062 51.4143C109.19 51.4191 109.362 51.4721 109.49 51.4769C109.601 51.4817 109.659 51.4384 109.661 51.3516C109.676 50.9203 109.031 50.5564 108.521 50.5371C108.441 50.5347 108.374 50.5395 108.294 50.554C108.149 50.5973 107.966 50.6335 107.835 50.6937C107.753 50.7395 107.714 50.848 107.649 50.9251C107.598 51.0022 107.48 51.0624 107.463 51.1564M109.707 53.1131C109.758 53.0047 109.876 52.9252 109.801 52.795C109.741 52.73 109.606 52.8071 109.528 52.7733C109.41 52.7444 109.292 52.73 109.173 52.7252C108.903 52.7155 108.62 52.7541 108.35 52.7444C108.142 52.7372 107.949 52.7035 107.746 52.6167C107.62 52.5806 107.461 52.5637 107.364 52.6384C107.198 52.824 107.364 53.1155 107.485 53.3083C107.789 53.7156 108.198 53.8481 108.707 53.8505L108.756 53.8409C108.835 53.8288 109.007 53.8144 109.154 53.7228C109.171 53.7228 109.277 53.6312 109.376 53.5396C109.442 53.4866 109.516 53.4264 109.599 53.3565C109.649 53.2794 109.681 53.1878 109.714 53.1107M110.35 52.8721C110.384 52.8408 110.357 52.7878 110.294 52.7854C110.246 52.7854 110.263 52.7396 110.149 52.8167C110.036 52.8914 110.089 52.9541 110.217 52.9252C110.282 52.9107 110.326 52.8938 110.35 52.8697M110.717 52.9324C111.012 53.0336 111.181 53.0697 111.246 53.1613C111.214 52.9926 111.195 52.8264 111.181 52.6601C111.036 52.7709 110.78 52.7709 110.671 52.8456C110.63 52.8842 110.644 52.9131 110.714 52.93M114.715 53.6192C114.917 53.277 115.053 52.9396 115.05 52.5589C115.043 52.3059 115.05 52.0745 115.029 51.8191C114.937 51.2287 114.57 50.7443 113.934 50.7202C113.41 50.701 113.077 50.8962 112.884 51.3974C112.69 51.8986 112.625 52.3878 112.734 52.9155C112.801 53.2673 112.975 53.5155 113.205 53.7782C113.343 53.9252 113.56 53.9927 113.782 53.9999C114.147 54.012 114.562 53.8794 114.715 53.6143M119.746 49.6768C121.176 49.7274 122.35 50.5034 122.553 52.0022C122.63 52.5372 122.599 53.0625 122.461 53.583C122.096 54.9855 120.961 55.6144 119.599 55.5662C118.408 55.5253 117.256 54.7325 117.009 53.5348C116.818 52.6239 116.939 51.807 117.302 50.9612C117.355 50.819 117.466 50.713 117.565 50.5901C118.178 49.8961 118.934 49.6503 119.744 49.6768M120.966 53.3493C121.104 52.8384 121.096 52.33 120.947 51.8239C120.79 51.2938 120.335 50.9805 119.794 50.9612C119.19 50.9395 118.637 51.3106 118.466 52.0818C118.427 52.2456 118.418 52.8818 118.442 53.0818C118.546 53.7686 118.985 54.2553 119.7 54.2818C120.304 54.3035 120.816 53.8842 120.961 53.3493M130.939 54.7807C130.973 53.8144 130.99 52.8529 131.041 51.9034C131.082 50.7323 130.357 49.9756 129.212 49.9347C128.609 49.913 127.961 50.1009 127.534 50.5323C127.048 50.0865 126.524 49.8552 125.959 49.8335C125.546 49.819 125.113 49.9106 124.659 50.1106C124.628 50.1106 124.464 50.2383 124.468 50.0793C124.471 49.9997 124.49 49.9058 124.285 49.8817C124.222 49.8817 124.236 49.8648 124.046 49.8744C123.872 49.8696 123.686 49.8455 123.509 49.8552C123.302 49.8648 123.236 49.9443 123.164 50.1636C123.111 50.3516 123.137 50.5564 123.133 50.7468C123.111 51.3492 123.079 51.9155 123.058 52.5179L123.002 54.1108C122.99 54.4746 122.985 54.8409 122.988 55.2048C122.992 55.3253 123.06 55.4168 123.193 55.4867C123.263 55.5205 123.369 55.5325 123.514 55.5205C123.691 55.5108 123.872 55.5205 124.063 55.5277C124.323 55.5446 124.461 55.4265 124.468 55.1735L124.56 52.5685C124.584 51.8504 124.802 51.1444 125.671 51.142C126.029 51.154 126.236 51.3516 126.294 51.7348C126.321 51.8938 126.348 52.0311 126.326 52.1878L126.251 54.3397C126.224 54.6554 126.217 54.9542 126.207 55.2554C126.215 55.5253 126.418 55.6434 126.671 55.653C126.973 55.6482 127.263 55.6747 127.423 55.6795C127.693 55.6891 127.674 55.5132 127.7 55.212C127.691 55.0216 127.727 54.8192 127.732 54.6288C127.756 53.9638 127.765 53.3204 127.79 52.6553C127.797 52.4167 127.826 51.7829 128.017 51.6046C128.28 51.3588 128.582 51.2432 128.925 51.2552C129.164 51.2624 129.403 51.3347 129.473 51.607C129.531 51.7685 129.57 51.9251 129.563 52.0986C129.524 52.7324 129.495 53.3469 129.471 54.012C129.454 54.4867 129.449 54.959 129.456 55.4289C129.449 55.6361 129.514 55.6964 129.72 55.7349C130.022 55.7783 130.343 55.7807 130.662 55.7446C130.758 55.7325 130.831 55.6795 130.882 55.5855C130.918 55.4747 130.952 55.3735 130.939 55.2771C130.93 55.1012 130.927 54.9518 130.932 54.7758" fill="white"/>
</g>
<defs>
<clipPath id="clip0_13428_90110">
<rect width="139" height="56" fill="white" transform="translate(0.5)"/>
</clipPath>
</defs>
</svg>
