<svg width="228" height="120" viewBox="0 0 228 120" fill="none" xmlns="http://www.w3.org/2000/svg">
<path d="M157.869 59.9962H29.9966C13.4307 59.9962 0 46.5655 0 29.9966V0H157.869C174.435 0 187.865 13.4307 187.865 29.9966C187.865 46.5655 174.435 59.9962 157.869 59.9962Z" fill="#E4002B"/>
<path d="M112.673 24.1458L108.243 24.1487H104.263C102.281 24.1487 100.672 25.7553 100.672 27.7395C100.672 29.7207 102.278 31.3302 104.263 31.3302H108.243L108.249 33.4642C107.425 33.8569 106.606 34.2076 105.815 34.4443C104.808 34.7501 103.717 34.8999 102.56 34.8969C100.309 34.8999 98.6248 34.2076 97.4019 32.7839C96.14 31.3062 95.5046 29.0882 95.5016 26.1959C95.5016 24.8471 95.6784 23.6092 96.0141 22.5092C96.3378 21.4692 96.7964 20.582 97.3929 19.8836C97.9773 19.1973 98.6697 18.6817 99.488 18.3191C100.324 17.9504 101.304 17.7736 102.395 17.7736C103.438 17.7736 104.278 17.9055 104.895 18.1992C105.515 18.4929 106.007 18.8316 106.352 19.2302C106.774 19.7248 108.054 21.6131 108.054 21.6131C108.45 22.1406 108.938 22.5572 109.52 22.8509C110.098 23.1417 110.722 23.2915 111.363 23.2915C112.466 23.2915 113.476 22.8899 114.279 22.1286C115.095 21.3523 115.523 20.3572 115.526 19.2422C115.523 18.3251 115.242 17.357 114.663 16.2749C114.121 15.2619 113.314 14.3087 112.28 13.4395C111.237 12.5583 109.894 11.833 108.276 11.2815C106.684 10.727 104.844 10.4453 102.806 10.4483C100.357 10.4483 98.1242 10.8169 96.17 11.5423C94.1738 12.2826 92.4504 13.3676 91.0477 14.7643C89.639 16.173 88.5689 17.8995 87.8436 19.8956C87.1572 21.8439 86.7976 24.0169 86.8006 26.3457C86.8066 28.7106 87.1662 30.8986 87.8916 32.8438C88.6349 34.816 89.7139 36.5304 91.0986 37.9272C92.4954 39.3269 94.1888 40.4089 96.143 41.1402C98.0673 41.8536 100.216 42.2162 102.527 42.2132C104.481 42.2102 106.328 41.9795 108.009 41.5329C109.679 41.0893 111.42 40.3759 113.2 39.4138C113.89 39.0391 114.48 38.6405 114.939 38.2119C115.496 37.6994 115.895 37.0969 116.117 36.4315C116.306 35.8471 116.402 35.1397 116.402 34.2615L116.399 27.8654C116.396 25.8122 114.729 24.1458 112.673 24.1458Z" fill="white"/>
<path d="M163.252 10.8618H121.737C119.681 10.8618 118.011 12.5313 118.014 14.5874L118.029 38.011C118.029 40.0671 119.699 41.7306 121.755 41.7306L138.755 41.7246C140.811 41.7246 142.478 40.0581 142.478 38.002C142.478 35.9459 140.811 34.2794 138.755 34.2794H126.634L126.631 29.7206L137.302 29.7176C139.295 29.7176 140.91 28.1021 140.91 26.1089C140.91 24.1157 139.295 22.5002 137.302 22.5002H126.625V18.4689H149.389V37.8701C149.389 40.247 151.317 42.1742 153.694 42.1742C156.07 42.1742 157.998 40.247 157.998 37.8701V18.4689H163.252C165.35 18.4689 167.052 16.7664 167.052 14.6683C167.052 12.5703 165.35 10.8618 163.252 10.8618Z" fill="white"/>
<path d="M81.1809 20.2553C78.81 20.2553 76.8888 22.1766 76.8888 24.5474V33.3384L62.1872 33.3474L74.1852 16.275C75.7858 14.0001 74.1553 10.8649 71.3738 10.8679C71.3738 10.8679 38.5208 10.8739 36.4977 10.8799C30.3803 10.8799 21.3165 13.5565 21.3225 22.818C21.0288 29.355 25.8844 31.8637 29.8737 33.2035C31.0457 33.5962 34.7113 34.7561 37.1091 36.2098C38.6647 37.1539 39.474 38.6495 38.8265 40.1152C38.1312 41.6948 37.0372 42.1294 35.1489 42.0874C33.7222 42.0574 31.9179 41.5929 29.6789 40.7296C28.441 40.2531 23.9391 37.5915 21.3405 41.8206C20.4593 43.4841 20.4593 46.853 23.058 48.1359C25.7105 49.7994 31.3394 50.6506 34.3786 50.6446C43.9279 51.0672 48.6935 44.746 48.7205 37.5735C48.7565 28.1711 38.8835 26.7744 33.8181 25.1739C33.8181 25.1739 30.0266 24.0259 30.9348 20.9087C31.5912 18.6578 34.3846 18.8496 34.8132 18.8496C35.9372 18.8496 62.1692 18.8496 62.1692 18.8496L50.4499 36.2487C48.9183 38.5237 50.5398 41.5869 53.2823 41.6018L81.0729 41.7157C83.5037 41.7247 85.4789 39.7555 85.4789 37.3248L85.4729 24.5504C85.4729 22.1766 83.5517 20.2553 81.1809 20.2553Z" fill="white"/>
<path d="M81.1447 19.1732C83.5532 19.1732 85.5057 17.2207 85.5057 14.8122C85.5057 12.4037 83.5532 10.4512 81.1447 10.4512C78.7362 10.4512 76.7837 12.4037 76.7837 14.8122C76.7837 17.2207 78.7362 19.1732 81.1447 19.1732Z" fill="white"/>
<path d="M197.869 119.989H69.9966C53.4307 119.989 40 106.559 40 89.9927V59.9961H197.869C214.438 59.9961 227.868 73.4268 227.868 89.9957C227.865 106.559 214.435 119.989 197.869 119.989Z" fill="#008C95"/>
<path d="M68.1417 86.2077C68.1417 87.5175 67.2335 88.4287 65.9477 88.4287C64.6379 88.4287 63.7267 87.5205 63.7267 86.2077V75.2917H61.1041C59.8992 75.2917 59.045 74.4345 59.045 73.2056C59.045 72.0007 59.9022 71.1465 61.1041 71.1465H70.7882C71.9931 71.1465 72.8474 72.0037 72.8474 73.2326C72.8474 74.4375 71.9902 75.2917 70.7882 75.2917H68.1387V86.2077H68.1417Z" fill="white"/>
<path d="M78.4434 81.5254V86.2071C78.4434 87.5169 77.5322 88.4281 76.2494 88.4281C74.9395 88.4281 74.0284 87.5199 74.0284 86.2071V73.232C74.0284 71.9222 74.9366 71.011 76.2224 71.011C77.5322 71.011 78.4434 71.9192 78.4434 73.232V77.3802H85.0523V73.232C85.0523 71.9222 85.9635 71.011 87.2463 71.011C88.5561 71.011 89.4673 71.9192 89.4673 73.232V86.2071C89.4673 87.5169 88.5561 88.4281 87.2733 88.4281C85.9635 88.4281 85.0523 87.5199 85.0523 86.2071V81.5254H78.4434Z" fill="white"/>
<path d="M94.1222 71.1458H101.534C102.739 71.1458 103.594 72.003 103.594 73.2318C103.594 74.4367 102.736 75.291 101.534 75.291H96.478V77.5389H100.464C101.669 77.5389 102.523 78.3961 102.523 79.625C102.523 80.8299 101.666 81.6841 100.464 81.6841H96.478V84.1449H101.534C102.739 84.1449 103.594 85.0021 103.594 86.231C103.594 87.4359 102.736 88.2901 101.534 88.2901H94.1222C92.9173 88.2901 92.0631 87.4329 92.0631 86.231V73.2019C92.0601 72.003 92.9173 71.1458 94.1222 71.1458Z" fill="white"/>
<path d="M113.143 71.011C114.453 71.011 115.364 71.9192 115.364 73.232V86.2071C115.364 87.5169 114.453 88.4281 113.17 88.4281C111.86 88.4281 110.949 87.5199 110.949 86.2071V73.232C110.949 71.9222 111.86 71.011 113.143 71.011Z" fill="white"/>
<path d="M119.646 83.3716C121.091 83.3716 122.269 84.5495 124.409 84.5495C125.479 84.5495 126.363 84.2018 126.363 83.3986C126.363 81.0697 117.641 82.0888 117.641 76.0403C117.641 72.9621 120.21 70.7441 124.463 70.7441C127.619 70.7441 130.482 71.7602 130.482 74.1161C130.482 75.1321 129.732 75.9084 128.608 75.9084C127.083 75.9084 126.121 74.8923 123.846 74.8923C122.749 74.8923 122.374 75.294 122.374 75.8814C122.374 78.1294 130.907 77.1403 130.907 83.1318C130.907 86.3149 128.365 88.6977 124.058 88.6977C120.794 88.6977 117.746 87.5198 117.746 85.14C117.746 84.1479 118.496 83.3716 119.646 83.3716Z" fill="white"/>
<path d="M135.104 71.011C136.413 71.011 137.325 71.9192 137.325 73.232V84.148H142.783C143.987 84.148 144.842 85.0052 144.842 86.2341C144.842 87.439 143.984 88.2932 142.783 88.2932H134.972C133.767 88.2932 132.913 87.436 132.913 86.2341V73.232C132.91 71.9222 133.821 71.011 135.104 71.011Z" fill="white"/>
<path d="M160.751 88.4281C159.546 88.4281 158.692 87.6518 158.128 86.1801L157.7 85.0562H150.824L150.395 86.1801C149.835 87.6518 149.271 88.4281 147.908 88.4281C146.25 88.4281 145.42 87.0373 146.223 85.0831L150.851 73.8194C151.681 71.8143 152.616 71.011 154.409 71.011C156.201 71.011 157.085 71.8143 157.912 73.8194L162.54 85.0831C163.347 87.0373 162.489 88.4281 160.751 88.4281ZM156.201 81.1507L154.274 76.0404L152.32 81.1507H156.201Z" fill="white"/>
<path d="M179.799 73.232V85.6737C179.799 87.3851 178.81 88.4281 177.338 88.4281C175.654 88.4281 174.796 87.52 173.78 86.0483L168.778 78.771V86.2072C168.778 87.517 167.867 88.4281 166.584 88.4281C165.274 88.4281 164.363 87.52 164.363 86.2072V73.7655C164.363 71.9732 165.406 71.011 166.959 71.011C168.484 71.011 169.338 71.8683 170.357 73.3909L175.387 80.962V73.229C175.387 71.9192 176.298 71.0081 177.581 71.0081C178.891 71.0111 179.799 71.9222 179.799 73.232Z" fill="white"/>
<path d="M184.669 71.1458H188.845C194.437 71.1458 198.556 74.7844 198.556 79.7599C198.556 84.6814 194.434 88.2931 188.845 88.2931H184.669C183.465 88.2931 182.61 87.4359 182.61 86.234V73.2049C182.607 72.003 183.465 71.1458 184.669 71.1458ZM187.157 84.1479H188.788C191.812 84.1479 193.817 82.3825 193.817 79.7059C193.817 77.0564 191.812 75.291 188.761 75.291H187.154V84.1479H187.157Z" fill="white"/>
<path d="M68.0338 109.241C63.0853 109.241 59.045 105.201 59.045 100.252C59.045 95.3036 63.0853 91.2903 68.0338 91.2903C72.9822 91.2903 77.0226 95.3306 77.0226 100.279C77.0226 105.228 72.9822 109.241 68.0338 109.241ZM68.0338 95.7023C65.6779 95.7023 63.7807 97.7344 63.7807 100.249C63.7807 102.764 65.6809 104.823 68.0338 104.823C70.3866 104.823 72.2869 102.791 72.2869 100.276C72.2869 97.7614 70.3866 95.7023 68.0338 95.7023Z" fill="white"/>
<path d="M83.3111 107.02C83.3111 108.33 82.4 109.241 81.0902 109.241C79.8073 109.241 78.8962 108.333 78.8962 107.02V93.751C78.8962 92.5461 79.7534 91.6919 80.9553 91.6919H88.1247C89.3296 91.6919 90.1839 92.5491 90.1839 93.751C90.1839 94.9829 89.3267 95.8371 88.1247 95.8371H83.3081V98.5646H87.0547C88.2596 98.5646 89.1139 99.4218 89.1139 100.624C89.1139 101.856 88.2566 102.71 87.0547 102.71H83.3081V107.02H83.3111Z" fill="white"/>
<path d="M101.957 107.02C101.957 108.33 101.046 109.241 99.736 109.241C98.4532 109.241 97.542 108.333 97.542 107.02V93.751C97.542 92.5461 98.3992 91.6919 99.6011 91.6919H106.771C107.975 91.6919 108.83 92.5491 108.83 93.751C108.83 94.9829 107.972 95.8371 106.771 95.8371H101.957V98.5646H105.704C106.908 98.5646 107.763 99.4218 107.763 100.624C107.763 101.856 106.905 102.71 105.704 102.71H101.957V107.02Z" fill="white"/>
<path d="M122.581 105.174C123.01 105.896 123.196 106.564 123.196 107.155C123.196 108.225 122.42 108.974 121.137 108.974C120.04 108.974 119.344 108.465 118.703 107.29L116.455 103.118H114.69V106.756C114.69 108.066 113.778 108.977 112.496 108.977C111.186 108.977 110.275 108.069 110.275 106.756V93.7542C110.275 92.5493 111.132 91.6951 112.334 91.6951H116.509C120.87 91.6951 123.759 93.943 123.759 97.3659C123.759 99.5059 122.662 101.19 120.816 102.156L122.581 105.174ZM114.69 99.2332H116.857C118.193 99.2332 119.078 98.4839 119.078 97.3599C119.078 96.2899 118.193 95.5675 116.857 95.5675H114.69V99.2332Z" fill="white"/>
<path d="M127.985 91.689H135.397C136.602 91.689 137.457 92.5462 137.457 93.7751C137.457 94.98 136.599 95.8342 135.397 95.8342H130.341V98.0821H134.327C135.532 98.0821 136.387 98.9393 136.387 100.168C136.387 101.373 135.529 102.227 134.327 102.227H130.341V104.688H135.397C136.602 104.688 137.457 105.545 137.457 106.774C137.457 107.979 136.599 108.833 135.397 108.833H127.985C126.78 108.833 125.926 107.976 125.926 106.774V93.7451C125.926 92.5462 126.78 91.689 127.985 91.689Z" fill="white"/>
<path d="M141.605 91.689H149.017C150.222 91.689 151.076 92.5462 151.076 93.7751C151.076 94.98 150.219 95.8342 149.017 95.8342H143.961V98.0821H147.947C149.152 98.0821 150.006 98.9393 150.006 100.168C150.006 101.373 149.149 102.227 147.947 102.227H143.961V104.688H149.017C150.222 104.688 151.076 105.545 151.076 106.774C151.076 107.979 150.219 108.833 149.017 108.833H141.605C140.4 108.833 139.546 107.976 139.546 106.774V93.7451C139.546 92.5462 140.403 91.689 141.605 91.689Z" fill="white"/>
<path d="M155.227 91.689H159.402C164.995 91.689 169.114 95.3276 169.114 100.303C169.114 105.225 164.992 108.836 159.402 108.836H155.227C154.022 108.836 153.168 107.979 153.168 106.777V93.7481C153.165 92.5462 154.022 91.689 155.227 91.689ZM157.715 104.691H159.345C162.37 104.691 164.375 102.926 164.375 100.249C164.375 97.5996 162.37 95.8342 159.318 95.8342H157.712V104.691H157.715Z" fill="white"/>
<path d="M179.175 109.241C174.227 109.241 170.187 105.201 170.187 100.252C170.187 95.3036 174.227 91.2903 179.175 91.2903C184.124 91.2903 188.164 95.3306 188.164 100.279C188.164 105.228 184.127 109.241 179.175 109.241ZM179.175 95.7023C176.82 95.7023 174.922 97.7344 174.922 100.249C174.922 102.764 176.823 104.823 179.175 104.823C181.528 104.823 183.429 102.791 183.429 100.276C183.429 97.7614 181.531 95.7023 179.175 95.7023Z" fill="white"/>
<path d="M208.818 94.2036V106.75C208.818 108.06 207.907 108.971 206.624 108.971C205.314 108.971 204.403 108.063 204.403 106.75V98.8314L201.703 103.084C201.034 104.128 200.366 104.475 199.401 104.475C198.466 104.475 197.767 104.128 197.099 103.084L194.398 98.8584V106.75C194.398 108.06 193.487 108.971 192.204 108.971C190.895 108.971 189.983 108.063 189.983 106.75V94.4973C189.983 92.678 191.08 91.554 192.954 91.554C194.611 91.554 195.441 92.4382 196.457 94.0687L199.695 99.3379L203.36 93.3973C204.056 92.2734 204.805 91.551 206.277 91.551C207.91 91.557 208.818 92.654 208.818 94.2036Z" fill="white"/>
</svg>
