<?xml version="1.0" encoding="UTF-8" standalone="no"?>
<svg
   width="228"
   height="120"
   viewBox="0 0 228 120"
   fill="none"
   version="1.1"
   id="svg24"
   sodipodi:docname="Sziget.svg"
   inkscape:version="1.4.4 (dcaf3e7d9e, 2026-05-05)"
   xmlns:inkscape="http://www.inkscape.org/namespaces/inkscape"
   xmlns:sodipodi="http://sodipodi.sourceforge.net/DTD/sodipodi-0.dtd"
   xmlns="http://www.w3.org/2000/svg"
   xmlns:svg="http://www.w3.org/2000/svg">
  <defs
     id="defs24" />
  <sodipodi:namedview
     id="namedview24"
     pagecolor="#ffffff"
     bordercolor="#000000"
     borderopacity="0.25"
     inkscape:showpageshadow="2"
     inkscape:pageopacity="0.0"
     inkscape:pagecheckerboard="0"
     inkscape:deskcolor="#d1d1d1"
     inkscape:zoom="4.8377193"
     inkscape:cx="114"
     inkscape:cy="60.359021"
     inkscape:window-width="1210"
     inkscape:window-height="933"
     inkscape:window-x="0"
     inkscape:window-y="0"
     inkscape:window-maximized="1"
     inkscape:current-layer="svg24" />
  <path
     d="M157.869 59.9962H29.9966C13.4307 59.9962 0 46.5655 0 29.9966V0H157.869C174.435 0 187.865 13.4307 187.865 29.9966C187.865 46.5655 174.435 59.9962 157.869 59.9962Z"
     fill="#E4002B"
     id="path1" />
  <path
     d="M112.673 24.1458L108.243 24.1487H104.263C102.281 24.1487 100.672 25.7553 100.672 27.7395C100.672 29.7207 102.278 31.3302 104.263 31.3302H108.243L108.249 33.4642C107.425 33.8569 106.606 34.2076 105.815 34.4443C104.808 34.7501 103.717 34.8999 102.56 34.8969C100.309 34.8999 98.6248 34.2076 97.4019 32.7839C96.14 31.3062 95.5046 29.0882 95.5016 26.1959C95.5016 24.8471 95.6784 23.6092 96.0141 22.5092C96.3378 21.4692 96.7964 20.582 97.3929 19.8836C97.9773 19.1973 98.6697 18.6817 99.488 18.3191C100.324 17.9504 101.304 17.7736 102.395 17.7736C103.438 17.7736 104.278 17.9055 104.895 18.1992C105.515 18.4929 106.007 18.8316 106.352 19.2302C106.774 19.7248 108.054 21.6131 108.054 21.6131C108.45 22.1406 108.938 22.5572 109.52 22.8509C110.098 23.1417 110.722 23.2915 111.363 23.2915C112.466 23.2915 113.476 22.8899 114.279 22.1286C115.095 21.3523 115.523 20.3572 115.526 19.2422C115.523 18.3251 115.242 17.357 114.663 16.2749C114.121 15.2619 113.314 14.3087 112.28 13.4395C111.237 12.5583 109.894 11.833 108.276 11.2815C106.684 10.727 104.844 10.4453 102.806 10.4483C100.357 10.4483 98.1242 10.8169 96.17 11.5423C94.1738 12.2826 92.4504 13.3676 91.0477 14.7643C89.639 16.173 88.5689 17.8995 87.8436 19.8956C87.1572 21.8439 86.7976 24.0169 86.8006 26.3457C86.8066 28.7106 87.1662 30.8986 87.8916 32.8438C88.6349 34.816 89.7139 36.5304 91.0986 37.9272C92.4954 39.3269 94.1888 40.4089 96.143 41.1402C98.0673 41.8536 100.216 42.2162 102.527 42.2132C104.481 42.2102 106.328 41.9795 108.009 41.5329C109.679 41.0893 111.42 40.3759 113.2 39.4138C113.89 39.0391 114.48 38.6405 114.939 38.2119C115.496 37.6994 115.895 37.0969 116.117 36.4315C116.306 35.8471 116.402 35.1397 116.402 34.2615L116.399 27.8654C116.396 25.8122 114.729 24.1458 112.673 24.1458Z"
     fill="white"
     id="path2" />
  <path
     d="M163.252 10.8618H121.737C119.681 10.8618 118.011 12.5313 118.014 14.5874L118.029 38.011C118.029 40.0671 119.699 41.7306 121.755 41.7306L138.755 41.7246C140.811 41.7246 142.478 40.0581 142.478 38.002C142.478 35.9459 140.811 34.2794 138.755 34.2794H126.634L126.631 29.7206L137.302 29.7176C139.295 29.7176 140.91 28.1021 140.91 26.1089C140.91 24.1157 139.295 22.5002 137.302 22.5002H126.625V18.4689H149.389V37.8701C149.389 40.247 151.317 42.1742 153.694 42.1742C156.07 42.1742 157.998 40.247 157.998 37.8701V18.4689H163.252C165.35 18.4689 167.052 16.7664 167.052 14.6683C167.052 12.5703 165.35 10.8618 163.252 10.8618Z"
     fill="white"
     id="path3" />
  <path
     d="M81.1809 20.2553C78.81 20.2553 76.8888 22.1766 76.8888 24.5474V33.3384L62.1872 33.3474L74.1852 16.275C75.7858 14.0001 74.1553 10.8649 71.3738 10.8679C71.3738 10.8679 38.5208 10.8739 36.4977 10.8799C30.3803 10.8799 21.3165 13.5565 21.3225 22.818C21.0288 29.355 25.8844 31.8637 29.8737 33.2035C31.0457 33.5962 34.7113 34.7561 37.1091 36.2098C38.6647 37.1539 39.474 38.6495 38.8265 40.1152C38.1312 41.6948 37.0372 42.1294 35.1489 42.0874C33.7222 42.0574 31.9179 41.5929 29.6789 40.7296C28.441 40.2531 23.9391 37.5915 21.3405 41.8206C20.4593 43.4841 20.4593 46.853 23.058 48.1359C25.7105 49.7994 31.3394 50.6506 34.3786 50.6446C43.9279 51.0672 48.6935 44.746 48.7205 37.5735C48.7565 28.1711 38.8835 26.7744 33.8181 25.1739C33.8181 25.1739 30.0266 24.0259 30.9348 20.9087C31.5912 18.6578 34.3846 18.8496 34.8132 18.8496C35.9372 18.8496 62.1692 18.8496 62.1692 18.8496L50.4499 36.2487C48.9183 38.5237 50.5398 41.5869 53.2823 41.6018L81.0729 41.7157C83.5037 41.7247 85.4789 39.7555 85.4789 37.3248L85.4729 24.5504C85.4729 22.1766 83.5517 20.2553 81.1809 20.2553Z"
     fill="white"
     id="path4" />
  <path
     d="M81.1447 19.1732C83.5532 19.1732 85.5057 17.2207 85.5057 14.8122C85.5057 12.4037 83.5532 10.4512 81.1447 10.4512C78.7362 10.4512 76.7837 12.4037 76.7837 14.8122C76.7837 17.2207 78.7362 19.1732 81.1447 19.1732Z"
     fill="white"
     id="path5" />
</svg>
