<?xml version="1.0" encoding="UTF-8" standalone="no"?>
<!-- Created with Inkscape (http://www.inkscape.org/) -->

<svg
   version="1.1"
   id="svg1"
   width="506.20001"
   height="232.33333"
   viewBox="0 0 506.20001 232.33333"
   sodipodi:docname="zwartecross.svg"
   inkscape:version="1.4.4 (dcaf3e7d9e, 2026-05-05)"
   xmlns:inkscape="http://www.inkscape.org/namespaces/inkscape"
   xmlns:sodipodi="http://sodipodi.sourceforge.net/DTD/sodipodi-0.dtd"
   xmlns="http://www.w3.org/2000/svg"
   xmlns:svg="http://www.w3.org/2000/svg">
  <defs
     id="defs1" />
  <sodipodi:namedview
     id="namedview1"
     pagecolor="#ffffff"
     bordercolor="#000000"
     borderopacity="0.25"
     inkscape:showpageshadow="2"
     inkscape:pageopacity="0.0"
     inkscape:pagecheckerboard="0"
     inkscape:deskcolor="#d1d1d1"
     inkscape:zoom="2.1789806"
     inkscape:cx="253.10001"
     inkscape:cy="116.10934"
     inkscape:window-width="1210"
     inkscape:window-height="933"
     inkscape:window-x="0"
     inkscape:window-y="0"
     inkscape:window-maximized="1"
     inkscape:current-layer="g1">
    <inkscape:page
       x="0"
       y="0"
       inkscape:label="1"
       id="page1"
       width="506.20001"
       height="232.33333"
       margin="0"
       bleed="0" />
  </sodipodi:namedview>
  <g
     id="g1"
     inkscape:groupmode="layer"
     inkscape:label="1">
    <g
       id="group-R5">
      <path
         id="path2"
         d="m 91.1914,1742.26 c -12.7891,-116.8 -8.6523,-250.53 -19.1992,-369.57 52.9258,-14.49 115.2498,3.11 172.7888,0 7.344,-8.7 -8.355,-26.42 -14.398,-33.6 C 160.195,1255.83 67.7969,1177.03 0,1099.11 c 0,214.38 0,428.77 0,643.15 30.3945,0 60.7969,0 91.1914,0"
         style="fill:#ffffff;fill-opacity:1;fill-rule:evenodd;stroke:none"
         transform="matrix(0.13333333,0,0,-0.13333333,0,232.33333)" />
      <path
         id="path3"
         d="m 1943.84,1742.26 c 33.6,0 67.2,0 100.79,0 -12.33,-59.67 -19.11,-124.88 -24,-191.99 -33.83,55.76 -45.45,133.73 -76.79,191.99"
         style="fill:#ffffff;fill-opacity:1;fill-rule:evenodd;stroke:none"
         transform="matrix(0.13333333,0,0,-0.13333333,0,232.33333)" />
      <path
         id="path4"
         d="m 2395,1742.26 c 46.4,0 92.79,0 139.19,0 -15.49,-36.99 -95.1,4.11 -139.19,0"
         style="fill:#ffffff;fill-opacity:1;fill-rule:evenodd;stroke:none"
         transform="matrix(0.13333333,0,0,-0.13333333,0,232.33333)" />
      <path
         id="path5"
         d="m 3652.5,1742.26 c 48,0 95.99,0 143.98,0 0,-209.58 0,-419.17 0,-628.75 -36.12,2.28 -69.84,6.95 -100.79,14.4 -10.65,98.14 -30.13,187.44 -43.19,283.18 29.88,0.5 52.83,7.95 86.39,4.8 -27.26,110.32 -59.93,215.25 -86.39,326.37"
         style="fill:#ffffff;fill-opacity:1;fill-rule:evenodd;stroke:none"
         transform="matrix(0.13333333,0,0,-0.13333333,0,232.33333)" />
      <path
         id="path6"
         d="m 2313.41,479.961 c 97.26,-2.762 237.63,-28.039 297.58,28.801 -72.22,78.16 -191.76,109.008 -259.18,191.976 -2.94,-83.449 -12.11,-160.668 -38.4,-220.777 z m 287.98,412.766 c -131.08,-5.129 -54.63,-74.375 4.79,-110.391 141.41,-85.695 308.18,-157.074 321.57,-345.566 77.47,-1.59 167.95,-14.5 225.59,14.39 -95.62,101.352 -314.38,139.129 -302.37,335.981 1.41,23.222 11.02,34.812 14.39,62.39 -73.48,12.715 -173.91,46.719 -263.97,43.196 z M 1252.7,907.125 c -3.05,-62.555 -14.52,-116.676 -14.4,-182.387 75.68,9.242 131.74,115.946 76.79,182.387 -17.7,8.469 -43.67,4.164 -62.39,0 z m 494.36,-158.383 c -21.46,-155.39 99.9,-307.121 259.17,-249.582 212.6,76.801 146.48,466.328 -105.59,417.567 C 1824.4,901.98 1759.09,835.918 1747.06,748.742 Z M 748.738,1012.71 c 7.325,0.08 10.524,35.58 -4.797,28.81 6.895,-14.31 -16.851,-29.25 4.797,-28.81 z m 273.572,38.4 c -69.611,-18.37 -162.587,-13.39 -225.576,-38.4 56.188,1.8 103.946,-4.84 143.989,-19.194 0.957,-64.657 23.062,-133.692 19.199,-187.176 -167.738,75.883 -449.363,13.711 -422.367,-172.789 21.82,-150.719 259.968,-159.34 422.367,-124.789 18.492,179.886 53.578,368.777 62.388,542.348 z m 1262.3,24 c -48.63,-0.59 -108.15,13.39 -148.79,4.8 72.24,-30.16 112.73,-92.051 158.39,-148.785 25.31,53.078 66.67,90.115 124.79,110.395 -31.2,53.59 -77.84,91.74 -119.99,134.38 -5.56,-32.83 -6.05,-70.74 -14.4,-100.79 z m -609.55,129.59 c -24.22,-44.57 -48.47,-89.11 -81.59,-124.79 -46.42,-3.17 -105.56,6.37 -143.99,-4.8 217.64,-69.69 70.06,-382.438 -19.2,-484.758 50.2,-31.391 88.99,-74.204 139.19,-105.59 -85.96,293.011 47.35,571.288 292.78,623.948 -5.21,41.19 -23.31,69.48 -33.6,105.59 -53.44,-0.95 -101.79,-7 -153.59,-9.6 z m -643.15,-148.79 c 41.17,6.84 70.81,25.19 115.19,28.8 -22.87,87.52 -32.13,188.65 -62.39,268.78 -13.08,-103.71 -34.42,-199.16 -52.8,-297.58 z m 700.75,297.58 c 20.8,0 41.59,0 62.39,0 -8.63,29.76 -11.24,65.55 -28.8,86.39 -8.13,-31.86 -27.45,-52.54 -33.59,-86.39 z m 940.72,143.99 c -17.97,-113.23 -88.68,-173.7 -167.99,-225.59 49.78,-63.81 122.89,-104.29 177.59,-163.18 -9.59,-2.76 -44.47,-22.1 -24,-24 39.92,-6.48 88.02,-4.77 124.79,-14.4 9.52,144.07 18.03,289.14 28.8,431.97 -48.82,0.82 -87.63,-8.37 -139.19,-4.8 z m 321.57,14.4 c 12.48,-168.31 17.74,-343.85 28.8,-513.564 -39.11,7.284 -77.37,15.424 -119.99,19.204 -2.81,-53.215 -26.07,-111.477 -23.99,-153.586 42.77,66.007 120.08,97.484 220.78,105.589 20.66,187.317 53.79,362.177 71.99,551.957 -60.93,-1.47 -115.17,-9.62 -177.59,-9.6 z m -2308.606,-9.6 C 589.453,1398.93 474.441,1282.3 379.172,1180.7 c -12.039,-12.83 -32.137,-26.64 -28.801,-43.19 120.879,29.51 251.262,49.51 374.371,76.79 -9.73,108.66 -22.445,239.92 -38.398,326.38 0,-12.81 0,-25.61 0,-38.4 z m 1651.056,52.79 c -9.98,-62 -20.21,-123.77 -23.99,-191.98 138.27,-24.32 184.29,205.08 23.99,191.98 z M 494.359,935.926 C 362.734,899.563 239.836,854.473 119.988,806.34 c -16.453,98.73 -31.9333,198.44 -52.7966,292.77 111.3786,135 241.0546,251.71 350.3716,388.77 -89.793,-7.79 -186.157,-9.02 -278.375,-14.4 2.101,76.29 5.695,151.09 9.601,225.58 252.777,0 505.559,0 758.336,0 7.621,-102.77 18.555,-202.22 23.996,-307.17 22.285,94.5 31.367,202.21 43.199,307.17 84.79,0 169.59,0 254.38,0 18.39,-109.6 39.94,-216.04 52.79,-331.17 22.13,99.46 21.86,221.32 33.6,331.17 70.39,0 140.79,0 211.18,0 -16.23,-127.76 -36.4,-251.57 -57.59,-374.36 66.45,119.13 121.6,249.56 182.38,374.36 78.4,0 156.79,0 235.19,0 50.52,-144.67 102.34,-288.01 153.58,-431.96 25.78,137.41 34.72,291.65 57.59,431.96 172.51,-5.08 375.66,20.48 484.77,-47.99 10.31,10.48 2.25,39.34 14.39,47.99 329.58,0 659.14,0 988.72,0 15.87,-60.92 34.1,-119.49 48,-182.38 -90.67,-0.53 -174.44,-7.95 -268.78,-4.8 -9.08,-27.72 -5.65,-67.95 -14.39,-95.99 73.59,0 147.18,0 220.78,0 13.18,-65.21 22.22,-134.57 33.59,-201.59 -87.32,2.27 -172,7.18 -263.97,4.8 -11.36,-22.25 -12.98,-54.22 -14.41,-86.39 114.72,-22.87 241.17,-34.01 364.78,-48 -8.7,-85.847 -47.33,-182.944 -62.4,-278.37 -66.15,15.437 -127.81,35.379 -187.18,57.594 -23.94,-33.668 -32.47,-82.731 -52.8,-119.996 -94.43,19.003 -221.77,86.171 -321.58,38.398 14.53,-67.766 88.29,-101.098 148.79,-134.387 88.47,-48.679 285.78,-131.937 215.99,-297.578 -62.8,-149.039 -331.74,-112.531 -547.16,-119.992 -1.55,32.043 -12.84,54.359 -14.39,86.402 -129.88,-94.269 -373.71,-99.64 -595.16,-86.402 -8.87,45.531 -15.08,93.711 -19.2,143.992 -81.77,-127.449 -383.78,-204.32 -537.55,-86.391 -57.98,-42.808 -103.61,-97.98 -153.59,-148.789 -121.46,107.321 -225.31,232.25 -345.57,340.77 -7.9,-84.891 -22.68,-162.902 -28.8,-249.582 -87.99,0 -175.98,0 -263.976,0 0,11.203 0,22.402 0,33.601 C 858.215,226.469 744.957,222.852 667.145,230.379 310.449,264.898 218.43,737.988 489.563,926.324 c -0.887,4.082 1.867,4.528 4.796,4.801 0,1.602 0,3.195 0,4.801"
         style="fill:#fff000;fill-opacity:1;fill-rule:evenodd;stroke:none"
         transform="matrix(0.13333333,0,0,-0.13333333,0,232.33333)" />
      <path
         id="path7"
         d="m 2313.41,1363.09 c 3.78,68.21 14.01,129.98 23.99,191.98 160.3,13.1 114.28,-216.3 -23.99,-191.98"
         style="fill:#231f20;fill-opacity:1;fill-rule:evenodd;stroke:none"
         transform="matrix(0.13333333,0,0,-0.13333333,0,232.33333)" />
      <path
         id="path8"
         d="m 566.352,1223.9 c 30.777,6.02 63.164,10.43 91.191,19.2 -8.535,18.66 2.113,56.51 -14.398,67.19 -23.055,-31.33 -57.27,-51.51 -76.793,-86.39 z m 119.992,316.78 c 15.953,-86.46 28.668,-217.72 38.398,-326.38 -123.109,-27.28 -253.492,-47.28 -374.371,-76.79 -3.336,16.55 16.762,30.36 28.801,43.19 95.269,101.6 210.281,218.23 307.172,321.58 0,12.79 0,25.59 0,38.4"
         style="fill:#231f20;fill-opacity:1;fill-rule:evenodd;stroke:none"
         transform="matrix(0.13333333,0,0,-0.13333333,0,232.33333)" />
      <path
         id="path9"
         d="m 3090.95,1334.29 c -4.13,24.77 22.86,64.75 0,76.8 -11.79,-3.82 -5.56,-59.73 0,-76.8 z m 81.59,187.19 c -18.2,-189.78 -51.33,-364.64 -71.99,-551.957 -100.7,-8.105 -178.01,-39.582 -220.78,-105.589 -2.08,42.109 21.18,100.371 23.99,153.586 42.62,-3.78 80.88,-11.92 119.99,-19.204 -11.06,169.714 -16.32,345.254 -28.8,513.564 62.42,-0.02 116.66,8.13 177.59,9.6"
         style="fill:#231f20;fill-opacity:1;fill-rule:evenodd;stroke:none"
         transform="matrix(0.13333333,0,0,-0.13333333,0,232.33333)" />
      <path
         id="path10"
         d="m 2630.19,1238.3 c 23.9,-36.89 60.92,-60.66 95.98,-86.39 7.7,72.32 15.28,170.29 14.41,235.18 -26.71,-59.69 -59.32,-113.48 -110.39,-148.79 z m 182.38,263.98 c -10.77,-142.83 -19.28,-287.9 -28.8,-431.97 -36.77,9.63 -84.87,7.92 -124.79,14.4 -20.47,1.9 14.41,21.24 24,24 -54.7,58.89 -127.81,99.37 -177.59,163.18 79.31,51.89 150.02,112.36 167.99,225.59 51.56,-3.57 90.37,5.62 139.19,4.8"
         style="fill:#231f20;fill-opacity:1;fill-rule:evenodd;stroke:none"
         transform="matrix(0.13333333,0,0,-0.13333333,0,232.33333)" />
      <path
         id="path11"
         d="m 1766.25,1439.88 c 17.56,-20.84 20.17,-56.63 28.8,-86.39 -20.8,0 -41.59,0 -62.39,0 6.14,33.85 25.46,54.53 33.59,86.39"
         style="fill:#231f20;fill-opacity:1;fill-rule:evenodd;stroke:none"
         transform="matrix(0.13333333,0,0,-0.13333333,0,232.33333)" />
      <path
         id="path12"
         d="m 3090.95,1411.09 c 22.86,-12.05 -4.13,-52.03 0,-76.8 -5.56,17.07 -11.79,72.98 0,76.8"
         style="fill:#ffffff;fill-opacity:1;fill-rule:evenodd;stroke:none"
         transform="matrix(0.13333333,0,0,-0.13333333,0,232.33333)" />
      <path
         id="path13"
         d="m 2740.58,1387.09 c 0.87,-64.89 -6.71,-162.86 -14.41,-235.18 -35.06,25.73 -72.08,49.5 -95.98,86.39 51.07,35.31 83.68,89.1 110.39,148.79"
         style="fill:#ffffff;fill-opacity:1;fill-rule:evenodd;stroke:none"
         transform="matrix(0.13333333,0,0,-0.13333333,0,232.33333)" />
      <path
         id="path14"
         d="m 1084.71,1353.49 c 30.26,-80.13 39.52,-181.26 62.39,-268.78 -44.38,-3.61 -74.02,-21.96 -115.19,-28.8 18.38,98.42 39.72,193.87 52.8,297.58"
         style="fill:#231f20;fill-opacity:1;fill-rule:evenodd;stroke:none"
         transform="matrix(0.13333333,0,0,-0.13333333,0,232.33333)" />
      <path
         id="path15"
         d="m 643.145,1310.29 c 16.511,-10.68 5.863,-48.53 14.398,-67.19 -28.027,-8.77 -60.414,-13.18 -91.191,-19.2 19.523,34.88 53.738,55.06 76.793,86.39"
         style="fill:#ffffff;fill-opacity:1;fill-rule:evenodd;stroke:none"
         transform="matrix(0.13333333,0,0,-0.13333333,0,232.33333)" />
      <path
         id="path16"
         d="m 1828.65,1214.3 c 10.29,-36.11 28.39,-64.4 33.6,-105.59 -245.43,-52.66 -378.74,-330.937 -292.78,-623.948 -50.2,31.386 -88.99,74.199 -139.19,105.59 89.26,102.32 236.84,415.068 19.2,484.758 38.43,11.17 97.57,1.63 143.99,4.8 33.12,35.68 57.37,80.22 81.59,124.79 51.8,2.6 100.15,8.65 153.59,9.6"
         style="fill:#231f20;fill-opacity:1;fill-rule:evenodd;stroke:none"
         transform="matrix(0.13333333,0,0,-0.13333333,0,232.33333)" />
      <path
         id="path17"
         d="m 2299.01,1175.9 c 42.15,-42.64 88.79,-80.79 119.99,-134.38 -58.12,-20.28 -99.48,-57.317 -124.79,-110.395 -45.66,56.734 -86.15,118.625 -158.39,148.785 40.64,8.59 100.16,-5.39 148.79,-4.8 8.35,30.05 8.84,67.96 14.4,100.79"
         style="fill:#231f20;fill-opacity:1;fill-rule:evenodd;stroke:none"
         transform="matrix(0.13333333,0,0,-0.13333333,0,232.33333)" />
      <path
         id="path18"
         d="m 3796.48,1103.91 c 0,-367.969 0,-735.941 0,-1103.91 -740.74,0 -1481.46,0 -2222.21,0 55.54,53.25 99.47,118.109 163.19,163.18 135.03,-70.18 367.81,-35.68 475.16,33.609 -3.63,-29.219 7.66,-43.527 4.79,-72 216.63,-4.809 447.85,-14.16 609.55,47.992 1.9,-17.301 6.21,-32.179 9.6,-47.992 214.64,-0.277 467.69,-15.551 595.16,76.793 59.65,43.227 104.54,111.348 91.19,211.18 -18.52,138.398 -139.17,174.718 -230.38,249.578 40.55,-2.68 100.17,-27.789 143.98,-43.192 25.5,32.09 33.38,81.821 52.81,119.993 68.72,-14.469 127.45,-38.922 191.98,-57.602 45.57,132.016 76.65,278.516 110.39,422.371 1.59,0 3.19,0 4.79,0"
         style="fill:#ffffff;fill-opacity:1;fill-rule:evenodd;stroke:none"
         transform="matrix(0.13333333,0,0,-0.13333333,0,232.33333)" />
      <path
         id="path19"
         d="M 0,1084.71 C 27.7813,952.512 51.3125,816.055 71.9922,676.75 143.578,690.129 223.121,736.672 297.574,763.137 289.59,707.012 264.551,647.52 263.98,575.961 c -2.16,-268.59 191.54,-434.02 427.165,-451.172 185.664,-13.508 370.135,10.711 571.145,0 8.21,49.391 14.64,100.551 19.2,153.59 14.37,18.601 26.78,-13 33.6,-19.199 C 1403.91,178.441 1488.91,80.6094 1569.47,0 1046.32,0 523.148,0 0,0 0,361.559 0,723.148 0,1084.71"
         style="fill:#ffffff;fill-opacity:1;fill-rule:evenodd;stroke:none"
         transform="matrix(0.13333333,0,0,-0.13333333,0,232.33333)" />
      <path
         id="path20"
         d="m 619.148,614.352 c 11.118,-88.114 176.903,-85.25 283.176,-76.793 11.231,54.363 13.711,117.472 24,172.781 -108.586,49.359 -322.07,22.09 -307.176,-95.988 z m 340.774,-105.59 c -162.399,-34.551 -400.547,-25.93 -422.367,124.789 -26.996,186.5 254.629,248.672 422.367,172.789 3.863,53.484 -18.242,122.519 -19.199,187.176 -40.043,14.354 -87.801,20.994 -143.989,19.194 62.989,25.01 155.965,20.03 225.576,38.4 -8.81,-173.571 -43.896,-362.462 -62.388,-542.348"
         style="fill:#231f20;fill-opacity:1;fill-rule:evenodd;stroke:none"
         transform="matrix(0.13333333,0,0,-0.13333333,0,232.33333)" />
      <path
         id="path21"
         d="m 743.941,1041.52 c 15.321,6.77 12.122,-28.73 4.797,-28.81 -21.648,-0.44 2.098,14.5 -4.797,28.81"
         style="fill:#231f20;fill-opacity:1;fill-rule:evenodd;stroke:none"
         transform="matrix(0.13333333,0,0,-0.13333333,0,232.33333)" />
      <path
         id="path22"
         d="m 1972.64,532.762 c 149.6,23.437 117.6,295.336 -28.8,283.168 -171.01,-14.2 -136.1,-309.008 28.8,-283.168 z m -72,383.965 c 252.07,48.761 318.19,-340.766 105.59,-417.567 -159.27,-57.539 -280.63,94.192 -259.17,249.582 12.03,87.176 77.34,153.238 153.58,167.985"
         style="fill:#231f20;fill-opacity:1;fill-rule:evenodd;stroke:none"
         transform="matrix(0.13333333,0,0,-0.13333333,0,232.33333)" />
      <path
         id="path23"
         d="m 1315.09,907.125 c 54.95,-66.441 -1.11,-173.145 -76.79,-182.387 -0.12,65.711 11.35,119.832 14.4,182.387 18.72,4.164 44.69,8.469 62.39,0"
         style="fill:#231f20;fill-opacity:1;fill-rule:evenodd;stroke:none"
         transform="matrix(0.13333333,0,0,-0.13333333,0,232.33333)" />
      <path
         id="path24"
         d="m 2788.57,734.34 c 0,9.598 0,19.195 0,28.797 -19.24,6.355 -44.57,6.64 -62.4,14.402 14.77,-20.43 39.29,-31.113 62.4,-43.199 z m 76.79,115.191 c -3.37,-27.578 -12.98,-39.168 -14.39,-62.39 -12.01,-196.852 206.75,-234.629 302.37,-335.981 -57.64,-28.89 -148.12,-15.98 -225.59,-14.39 -13.39,188.492 -180.16,259.871 -321.57,345.566 -59.42,36.016 -135.87,105.262 -4.79,110.391 90.06,3.523 190.49,-30.481 263.97,-43.196"
         style="fill:#231f20;fill-opacity:1;fill-rule:evenodd;stroke:none"
         transform="matrix(0.13333333,0,0,-0.13333333,0,232.33333)" />
      <path
         id="path25"
         d="m 1943.84,815.93 c 146.4,12.168 178.4,-259.731 28.8,-283.168 -164.9,-25.84 -199.81,268.968 -28.8,283.168"
         style="fill:#ffffff;fill-opacity:1;fill-rule:evenodd;stroke:none"
         transform="matrix(0.13333333,0,0,-0.13333333,0,232.33333)" />
      <path
         id="path26"
         d="m 2726.17,777.539 c 17.83,-7.762 43.16,-8.047 62.4,-14.402 0,-9.602 0,-19.199 0,-28.797 -23.11,12.086 -47.63,22.769 -62.4,43.199"
         style="fill:#ffffff;fill-opacity:1;fill-rule:evenodd;stroke:none"
         transform="matrix(0.13333333,0,0,-0.13333333,0,232.33333)" />
      <path
         id="path27"
         d="m 926.324,710.34 c -10.289,-55.309 -12.769,-118.418 -24,-172.781 -106.273,-8.457 -272.058,-11.321 -283.176,76.793 -14.894,118.078 198.59,145.347 307.176,95.988"
         style="fill:#ffffff;fill-opacity:1;fill-rule:evenodd;stroke:none"
         transform="matrix(0.13333333,0,0,-0.13333333,0,232.33333)" />
      <path
         id="path28"
         d="m 2351.81,700.738 c 67.42,-82.968 186.96,-113.816 259.18,-191.976 -59.95,-56.84 -200.32,-31.563 -297.58,-28.801 26.29,60.109 35.46,137.328 38.4,220.777"
         style="fill:#231f20;fill-opacity:1;fill-rule:evenodd;stroke:none"
         transform="matrix(0.13333333,0,0,-0.13333333,0,232.33333)" />
      <path
         id="path29"
         d="m 494.359,931.125 c -2.929,-0.273 -5.683,-0.719 -4.796,-4.801 C 218.43,737.988 310.449,264.898 667.145,230.379 c 77.812,-7.527 191.07,-3.91 259.179,33.601 0,-11.199 0,-22.398 0,-33.601 87.996,0 175.986,0 263.976,0 6.12,86.68 20.9,164.691 28.8,249.582 120.26,-108.52 224.11,-233.449 345.57,-340.77 49.98,50.809 95.61,105.981 153.59,148.789 153.77,-117.929 455.78,-41.058 537.55,86.391 4.12,-50.281 10.33,-98.461 19.2,-143.992 221.45,-13.238 465.28,-7.867 595.16,86.402 1.55,-32.043 12.84,-54.359 14.39,-86.402 215.42,7.461 484.36,-29.047 547.16,119.992 69.79,165.641 -127.52,248.899 -215.99,297.578 -60.5,33.289 -134.26,66.621 -148.79,134.387 99.81,47.773 227.15,-19.395 321.58,-38.398 20.33,37.265 28.86,86.328 52.8,119.996 59.37,-22.215 121.03,-42.157 187.18,-57.594 15.07,95.426 53.7,192.523 62.4,278.37 -123.61,13.99 -250.06,25.13 -364.78,48 1.43,32.17 3.05,64.14 14.41,86.39 91.97,2.38 176.65,-2.53 263.97,-4.8 -11.37,67.02 -20.41,136.38 -33.59,201.59 -73.6,0 -147.19,0 -220.78,0 8.74,28.04 5.31,68.27 14.39,95.99 94.34,-3.15 178.11,4.27 268.78,4.8 -13.9,62.89 -32.13,121.46 -48,182.38 -329.58,0 -659.14,0 -988.72,0 -12.14,-8.65 -4.08,-37.51 -14.39,-47.99 -109.11,68.47 -312.26,42.91 -484.77,47.99 -22.87,-140.31 -31.81,-294.55 -57.59,-431.96 -51.24,143.95 -103.06,287.29 -153.58,431.96 -78.4,0 -156.79,0 -235.19,0 -60.78,-124.8 -115.93,-255.23 -182.38,-374.36 21.19,122.79 41.36,246.6 57.59,374.36 -70.39,0 -140.79,0 -211.18,0 -11.74,-109.85 -11.47,-231.71 -33.6,-331.17 -12.85,115.13 -34.4,221.57 -52.79,331.17 -84.79,0 -169.59,0 -254.38,0 -11.832,-104.96 -20.914,-212.67 -43.199,-307.17 -5.441,104.95 -16.375,204.4 -23.996,307.17 -252.777,0 -505.559,0 -758.336,0 -3.906,-74.49 -7.5,-149.29 -9.601,-225.58 92.218,5.38 188.582,6.61 278.375,14.4 C 308.246,1350.82 178.57,1234.11 67.1914,1099.11 88.0547,1004.78 103.535,905.07 119.988,806.34 c 119.848,48.133 242.746,93.223 374.371,129.586 0,-1.606 0,-3.199 0,-4.801 z M 91.1914,1742.26 c 617.5466,0 1235.0986,0 1852.6486,0 31.34,-58.26 42.96,-136.23 76.79,-191.99 4.89,67.11 11.67,132.32 24,191.99 116.8,0 233.58,0 350.37,0 44.09,4.11 123.7,-36.99 139.19,0 372.76,0 745.55,0 1118.31,0 26.46,-111.12 59.13,-216.05 86.39,-326.37 -33.56,3.15 -56.51,-4.3 -86.39,-4.8 13.06,-95.74 32.54,-185.04 43.19,-283.18 30.95,-7.45 64.67,-12.12 100.79,-14.4 0,-3.2 0,-6.4 0,-9.6 -1.6,0 -3.2,0 -4.79,0 -33.74,-143.855 -64.82,-290.355 -110.39,-422.371 -64.53,18.68 -123.26,43.133 -191.98,57.602 -19.43,-38.172 -27.31,-87.903 -52.81,-119.993 -43.81,15.403 -103.43,40.512 -143.98,43.192 91.21,-74.86 211.86,-111.18 230.38,-249.578 13.35,-99.832 -31.54,-167.953 -91.19,-211.18 -127.47,-92.344 -380.52,-77.07 -595.16,-76.793 -3.39,15.813 -7.7,30.691 -9.6,47.992 -161.7,-62.152 -392.92,-52.801 -609.55,-47.992 2.87,28.473 -8.42,42.781 -4.79,72 C 2105.27,127.5 1872.49,93 1737.46,163.18 1673.74,118.109 1629.81,53.25 1574.27,0 c -1.6,0 -3.2,0 -4.8,0 -80.56,80.6094 -165.56,178.441 -254.38,259.18 -6.82,6.199 -19.23,37.8 -33.6,19.199 -4.56,-53.039 -10.99,-104.199 -19.2,-153.59 -201.01,10.711 -385.481,-13.508 -571.145,0 C 455.52,141.941 261.82,307.371 263.98,575.961 264.551,647.52 289.59,707.012 297.574,763.137 223.121,736.672 143.578,690.129 71.9922,676.75 51.3125,816.055 27.7813,952.512 0,1084.71 c 0,4.8 0,9.6 0,14.4 67.7969,77.92 160.195,156.72 230.383,239.98 6.043,7.18 21.742,24.9 14.398,33.6 -57.539,3.11 -119.863,-14.49 -172.7888,0 10.5469,119.04 6.4101,252.77 19.1992,369.57"
         style="fill:#231f20;fill-opacity:1;fill-rule:evenodd;stroke:none"
         transform="matrix(0.13333333,0,0,-0.13333333,0,232.33333)" />
    </g>
  </g>
</svg>
